<?xml version="1.0" encoding="UTF-8" standalone="no"?>
<svg
   xmlns:ooo="http://xml.openoffice.org/svg/export"
   xmlns:dc="http://purl.org/dc/elements/1.1/"
   xmlns:cc="http://creativecommons.org/ns#"
   xmlns:rdf="http://www.w3.org/1999/02/22-rdf-syntax-ns#"
   xmlns:svg="http://www.w3.org/2000/svg"
   xmlns="http://www.w3.org/2000/svg"
   id="svg2"
   xml:space="preserve"
   stroke-linejoin="round"
   stroke-width="28.222"
   clip-path="url(#presentation_clip_path)"
   fill-rule="evenodd"
   preserveAspectRatio="xMidYMid"
   viewBox="0 0 27500 14700"
   height="147mm"
   width="275mm"
   version="1.2"><metadata
     id="metadata115"><rdf:RDF><cc:Work
         rdf:about=""><dc:format>image/svg+xml</dc:format><dc:type
           rdf:resource="http://purl.org/dc/dcmitype/StillImage" /><dc:title></dc:title></cc:Work></rdf:RDF></metadata><defs
     id="defs4"
     class="ClipPathGroup"><clipPath
       clipPathUnits="userSpaceOnUse"
       id="presentation_clip_path"><rect
         id="rect7"
         height="14700"
         width="27500"
         y="0"
         x="0" /></clipPath></defs><defs
     id="defs9"
     class="TextShapeIndex"><g
       id="g11"
       ooo:id-list="id3 id4 id5 id6 id7 id8 id9 id10 id11 id12 id13"
       ooo:slide="id1" /></defs><defs
     id="defs13"
     class="EmbeddedBulletChars"><g
       transform="scale(0.00048828125,-0.00048828125)"
       id="bullet-char-template(57356)"><path
         id="path16"
         d="M 580,1141 L 1163,571 580,0 -4,571 580,1141 Z" /></g><g
       transform="scale(0.00048828125,-0.00048828125)"
       id="bullet-char-template(57354)"><path
         id="path19"
         d="M 8,1128 L 1137,1128 1137,0 8,0 8,1128 Z" /></g><g
       transform="scale(0.00048828125,-0.00048828125)"
       id="bullet-char-template(10146)"><path
         id="path22"
         d="M 174,0 L 602,739 174,1481 1456,739 174,0 Z M 1358,739 L 309,1346 659,739 1358,739 Z" /></g><g
       transform="scale(0.00048828125,-0.00048828125)"
       id="bullet-char-template(10132)"><path
         id="path25"
         d="M 2015,739 L 1276,0 717,0 1260,543 174,543 174,936 1260,936 717,1481 1274,1481 2015,739 Z" /></g><g
       transform="scale(0.00048828125,-0.00048828125)"
       id="bullet-char-template(10007)"><path
         id="path28"
         d="M 0,-2 C -7,14 -16,27 -25,37 L 356,567 C 262,823 215,952 215,954 215,979 228,992 255,992 264,992 276,990 289,987 310,991 331,999 354,1012 L 381,999 492,748 772,1049 836,1024 860,1049 C 881,1039 901,1025 922,1006 886,937 835,863 770,784 769,783 710,716 594,584 L 774,223 C 774,196 753,168 711,139 L 727,119 C 717,90 699,76 672,76 641,76 570,178 457,381 L 164,-76 C 142,-110 111,-127 72,-127 30,-127 9,-110 8,-76 1,-67 -2,-52 -2,-32 -2,-23 -1,-13 0,-2 Z" /></g><g
       transform="scale(0.00048828125,-0.00048828125)"
       id="bullet-char-template(10004)"><path
         id="path31"
         d="M 285,-33 C 182,-33 111,30 74,156 52,228 41,333 41,471 41,549 55,616 82,672 116,743 169,778 240,778 293,778 328,747 346,684 L 369,508 C 377,444 397,411 428,410 L 1163,1116 C 1174,1127 1196,1133 1229,1133 1271,1133 1292,1118 1292,1087 L 1292,965 C 1292,929 1282,901 1262,881 L 442,47 C 390,-6 338,-33 285,-33 Z" /></g><g
       transform="scale(0.00048828125,-0.00048828125)"
       id="bullet-char-template(9679)"><path
         id="path34"
         d="M 813,0 C 632,0 489,54 383,161 276,268 223,411 223,592 223,773 276,916 383,1023 489,1130 632,1184 813,1184 992,1184 1136,1130 1245,1023 1353,916 1407,772 1407,592 1407,412 1353,268 1245,161 1136,54 992,0 813,0 Z" /></g><g
       transform="scale(0.00048828125,-0.00048828125)"
       id="bullet-char-template(8226)"><path
         id="path37"
         d="M 346,457 C 273,457 209,483 155,535 101,586 74,649 74,723 74,796 101,859 155,911 209,963 273,989 346,989 419,989 480,963 531,910 582,859 608,796 608,723 608,648 583,586 532,535 482,483 420,457 346,457 Z" /></g><g
       transform="scale(0.00048828125,-0.00048828125)"
       id="bullet-char-template(8211)"><path
         id="path40"
         d="M -4,459 L 1135,459 1135,606 -4,606 -4,459 Z" /></g></defs><defs
     id="defs42"
     class="TextEmbeddedBitmaps" /><g
     id="g44"><g
       class="Master_Slide"
       id="id2"><g
         class="Background"
         id="bg-id2" /><g
         class="BackgroundObjects"
         id="bo-id2" /></g></g><g
     id="g49"
     class="SlideGroup"><g
       id="g51"><g
         clip-path="url(#presentation_clip_path)"
         class="Slide"
         id="id1"><g
           id="g54"
           class="Page"><g
             id="g56"
             class="com.sun.star.drawing.PolyPolygonShape"><g
               id="id3"><path
                 fill="rgb(0,0,0)"
                 stroke="none"
                 id="path59"
                 d="M -99,-101 L -99,-100 -99,-100 -100,-100 -99,-101 Z" /></g></g><g
             id="g61"
             class="com.sun.star.drawing.PolyPolygonShape"><g
               id="id4"><path
                 fill="rgb(0,0,0)"
                 stroke="none"
                 id="path64"
                 d="M -100,-101 L -99,-101 -99,-100 -100,-100 -100,-101 Z" /></g></g><g
             id="g66"
             class="com.sun.star.drawing.PolyPolygonShape"><g
               id="id5"><path
                 fill="rgb(0,0,0)"
                 stroke="none"
                 id="path69"
                 d="M -100,-100 L -100,-100 -100,-101 -99,-100 -100,-100 Z M -99,-100 L -100,-101 -100,-100 -99,-100 Z" /></g></g><g
             id="g71"
             class="com.sun.star.drawing.PolyPolygonShape"><g
               id="id6"><path
                 fill="rgb(0,0,0)"
                 stroke="none"
                 id="path74"
                 d="M -98,-100 L -99,-100 -99,-100 -99,-100 -100,-100 -100,-100 -99,-100 -99,-101 -99,-101 -98,-100 Z" /></g></g><g
             id="g76"
             class="com.sun.star.drawing.PolyPolygonShape"><g
               id="id7"><path
                 fill="rgb(0,0,0)"
                 stroke="none"
                 id="path79"
                 d="M -100,-100 L -100,-101 -100,-101 -100,-101 -100,-101 -100,-101 -100,-101 -100,-101 -100,-101 -100,-101 -100,-101 -100,-101 -100,-101 -100,-101 -100,-101 -100,-101 -100,-101 -100,-101 -100,-101 -100,-101 -100,-100 Z" /></g></g><g
             id="g81"
             class="com.sun.star.drawing.PolyPolygonShape"><g
               id="id8"><path
                 fill="rgb(0,0,0)"
                 stroke="none"
                 id="path84"
                 d="M -100,-100 L -100,-100 -100,-100 -100,-101 -100,-101 -100,-101 -100,-100 -100,-100 -99,-101 -99,-101 -99,-101 -99,-101 -99,-101 -100,-100 Z" /></g></g><g
             id="g86"
             class="com.sun.star.drawing.ClosedBezierShape"><g
               id="id9"><path
                 fill="rgb(0,0,0)"
                 stroke="none"
                 id="path89"
                 d="M -99,-100 C -100,-100 -100,-100 -100,-100 L -100,-100 C -100,-101 -100,-101 -100,-101 L -99,-101 -99,-101 -99,-100 Z" /></g></g><g
             id="g91"
             class="com.sun.star.drawing.PolyPolygonShape"><g
               id="id10"><path
                 fill="rgb(0,0,0)"
                 stroke="none"
                 id="path94"
                 d="M -100,-100 L -100,-100 Z" /></g></g><g
             id="g96"
             class="com.sun.star.drawing.PolyPolygonShape"><g
               id="id11"><path
                 fill="rgb(0,0,0)"
                 stroke="none"
                 id="path99"
                 d="M -100,-100 L -99,-100 -99,-100 -100,-100 Z" /></g></g><g
             id="g101"
             class="com.sun.star.drawing.CustomShape"><g
               id="id12"><path
                 fill="rgb(255,255,255)"
                 stroke="none"
                 id="path104"
                 d="M 13843,13424 L 1486,13424 1486,1000 26199,1000 26199,13424 13843,13424 Z" /><path
                 fill="none"
                 stroke="rgb(52,101,164)"
                 id="path106"
                 d="M 13843,13424 L 1486,13424 1486,1000 26199,1000 26199,13424 13843,13424 Z" /></g></g><g
             id="g108"
             class="com.sun.star.drawing.ClosedBezierShape"><g
               id="id13"><path
                 style="fill:#0ba0f0;stroke:none"
                 id="path111"
                 d="m 19.423336,16.012282 27491.999664,0 0,14689.999718 -27491.999664,0 0,-14689.999718 z m 0,0 0,0 z M 2698.4234,12027.012 l 0,-3175.9998 1158,0 c 297,0 529,32 694,164 166,133 264,365 264,630 0,164 -32,297 -98,396.9998 -34,98 -133,198 -265,264 231,33 397,133 496,265 100,132 166,331 166,562 0,298 -133,529 -365,695 -198,133 -463,199 -792,199 l -1258,0 z m 0,0 0,0 z m 827,-662 100,0 c 198,0 331,0 397,-34 164,-32 263,-132 263,-297 0,-100 -32,-198 -132,-232 -33,-33 -99,-66 -165,-66 -66,-33 -165,-33 -265,-33 l -132,0 -66,0 0,662 z m 0,0 0,0 z m 0,-1291 66,0 c 132,0 232,0 298,-32 99,-66.9998 165,-132.9998 165,-264.9998 0,-132 -66,-199 -165,-265 -66,-34 -166,-34 -331,-34 l -33,0 0,595.9998 z m 0,0 0,0 z m 4267,-528.9998 0,528.9998 959,0 0,695 -959,0 0,530 993,0 0,728 -1819,0 0,-3175.9998 1819,0 0,694 -993,0 z m 0,0 0,0 z m 1488,2481.9998 0,-3175.9998 1190.9996,0 c 299,0 530,32 696,164 165,133 265,365 265,630 0,164 -34,297 -100,396.9998 -33,98 -133,198 -265,264 232,33 397,133 497,265 98,132 165,331 165,562 0,298 -133,529 -364,695 -198,133 -463,199 -794,199 l -1290.9996,0 z m 0,0 0,0 z m 827.9996,-662 132,0 c 199,0 331,0 397,-34 165,-32 265,-132 265,-297 0,-100 -66,-198 -132,-232 -34,-33 -100,-66 -166,-66 -66,-33 -165,-33 -265,-33 l -132,0 -99,0 0,662 z m 0,0 0,0 z m 0,-1291 99,0 c 132,0 232,0 298,-32 99,-66.9998 165,-132.9998 165,-264.9998 0,-132 -66,-199 -165,-265 -66,-34 -166,-34 -331,-34 l -66,0 0,595.9998 z m 0,0 0,0 z m 2051,-1222.9998 1256,0 c 368,0 632,66 831,230 231,167 331,431 331,795 0,363.9998 -100,628.9998 -299,826.9998 -198,165 -463,265 -829,265 l -463,0 0,1059 -827,0 0,-3175.9998 z m 0,0 0,0 z m 827,1454.9998 132,0 c 199,0 331,-33 397,-66 133,-34 199,-166 199,-330.9998 0,-166 -66,-298 -199,-364 -66,-33 -198,-33 -397,-33 l -132,0 0,793.9998 z m 0,0 0,0 z m 5295,66 c 0,496 -165,927 -496,1258 -331,331 -728,495 -1257,495 -496,0 -926,-164 -1257,-495 -331,-331 -496,-762 -496,-1258 0,-462.9998 165,-859.9998 530,-1190.9998 363,-298 760,-463 1223,-463 463,0 893,165 1224,463 364,331 529,728 529,1190.9998 z m 0,0 0,0 z m -2646,0 c 0,265 99,496 265,662 165,199 397,297 628,297 265,0 463,-98 628,-297 198,-166 265,-397 265,-662 0,-232 -67,-429.9998 -265,-594.9998 -165,-166 -363,-232 -628,-232 -231,0 -463,66 -628,232 -166,165 -265,362.9998 -265,594.9998 z m 0,0 0,0 z m 5062,-1520.9998 826,0 0,3175.9998 -826,0 0,-2548.9998 -1191,0 0,2548.9998 -828,0 0,-3175.9998 828,0 1191,0 z m 0,0 0,0 z m 2811,1520.9998 662,-1520.9998 859,0 -1454,3175.9998 -861,0 397,-828 -1389,-2347.9998 959,0 827,1520.9998 z m 0,0 0,0 z M 7826.4234,3688.0122 c 363,726 363,1819 0,2547 -463,892 -1357,1524 -2382,1524 -563,33 -1059,-33 -1488,-232 -894,-400 -1522,-1326 -1589,-2252 -100,-1059 331,-1952 1191,-2547 793,-562 2050,-728 2944,-231 496,231 993,661 1324,1191 z m 0,0 0,0 z m 17005.9996,265 c 329,958 197,2149 -497,2910 -529,598 -1224,830 -1985,896 -530,33 -1059,-33 -1488,-232 -893,-400 -1522,-1326 -1555,-2252 -132,-1059 331,-1952 1158,-2547 760,-530 1985,-628 2845,-265 628,265 1290,828 1522,1490 z m 0,0 0,0 z m -18892.9996,-1490 c -32,34 -98,100 0,166 l 0,32 c -231,133 -132,-330 -331,-98 0,98 67,132 100,165 -166,132 -264,0 -397,-67 l 0,-264 c 33,0 33,34 33,34 132,-331 431,-34 595,32 z m 0,0 0,0 z m 66,-66 c -66,0 -132,-66 -198,-66 66,0 166,33 198,66 z m 0,0 0,0 z m 4068.9996,0 c 34,728 -32,1456 34,2150 l 1621,-2116 c 563,-34 1125,-34 1686,-34 l -2050,2448 c 694,927 1489,1819 2249,2748 l -1753,0 -1721,-2252 c -98,728 -32,1489 -66,2252 l -1322.9996,0 0,-5196 1322.9996,0 z m 0,0 0,0 z m 5263,1985 1951,32 34,-2017 1324,0 0,5196 -1324,0 0,-2086 -1985,-34 0,2120 -1323,0 0,-5196 1323,0 0,1985 z m 0,0 0,0 z m -10091.9996,-1721 c -232,0 -397,133 -563,331 0,67 100,34 100,100 l -728,-100 c 0,-32 33,-32 66,-66 l 0,34 c 133,32 199,-132 331,-66 231,-233 596,-166 794,-431 l 0,198 z m 0,0 0,0 z m -1223,233 c 0,165 -199,66 -265,0 l -66,-34 c 66,-66 265,0 331,34 z m 0,0 0,0 z m -66,165 c -167,298 -331,629 -431,992 -165,-66 -364,-98 -496,-231 132,-331 331,-662 628,-926 34,98 199,98 299,165 z m 0,0 0,0 z m 1223,-165 c -166,98 0,331 -199,165 0,0 0,-33 -33,-33 33,33 100,-132 232,-132 z m 0,0 0,0 z m -397,264 c 0,67 -232,0 -298,165 -99,0 -199,-32 -298,0 -66,100 133,66 33,166 -99,66 -132,-198 -263,-100 32,265 -265,365 -67,530 l 133,0 c -133,66 -265,198 -397,165 66,-364 164,-695 397,-1025 l 760,99 z m 0,0 0,0 z m 198,67 0,-67 133,0 -133,67 z m 0,0 0,0 z m -2017,495 c -34,0 -66,-165 0,-231 l 32,-33 0,33 c 34,0 133,-33 166,-100 l -198,331 z m 0,0 0,0 z m 20478.9996,596 c 265,429 199,1059 -66,1488 -365,563 -1026,728 -1622,595 -463,-132 -892,-595 -1025,-1058 -98,-397 -66,-893 231,-1190 397,-497 993,-695 1622,-529 331,132 662,363 860,694 z m 0,0 0,0 z m -17203.9996,-662 c -166,100 66,132 66,232 l 32,0 c -32,0 0,67 -66,33 l -66,0 c 0,-33 34,-33 66,-66 -98,-67 -132,-165 -265,-165 l 133,32 34,-98 66,32 z m 0,0 0,0 z m -3474,662 -66,628 c -298,-430 0,-893 165,-1290 166,199 -99,463 -99,662 z m 0,0 0,0 z m 1886,-496 c -166,133 32,199 98,297 l 199,-198 c -165,100 166,100 66,232 l 166,-265 0,231 66,0 0,99 c -265,-99 -629,166 -695,-231 -99,-32 -133,-99 -199,-165 66,-34 265,-265 299,0 z m 0,0 0,0 z m 1191,66 c -133,-33 -365,-100 -431,0 -66,0 -32,-66 -32,-100 l 198,34 32,-100 c 100,0 133,133 233,166 z m 0,0 0,0 z m -2316,231 c -231,199 -231,530 -231,794 132,133 165,331 165,530 -231,-133 -496,-199 -695,-431 0,-430 67,-794 231,-1157 166,132 331,198 530,264 z m 0,0 0,0 z m 2017,34 c -66,131 -164,65 -231,65 l 0,-65 c 67,65 165,-67 231,0 z m 0,0 0,0 z m 497,131 0,-66 99,66 -99,0 z m 0,0 0,0 z m 397,199 c -132,0 -264,0 -331,-133 l 67,-32 c 32,132 164,132 264,165 z m 0,0 0,0 z m -695,132 c -99,232 298,265 264,529 265,66 397,-363 662,-331 34,-98 100,-132 66,-231 -32,-99 -164,33 -164,-99 98,132 363,-199 429,132 l 0,828 -959,198 c 99,-132 397,-166 331,-431 32,0 32,0 66,0 l 0,-32 c -232,0 -595,32 -595,-298 -166,-133 -166,-331 -331,-496 98,66 198,99 231,231 z m 0,0 0,0 z m 2019,198 -34,-32 c -32,66 34,132 34,198 -166,265 -431,331 -696,430 34,-199 34,-430 34,-694 l 0,-232 c 0,198 132,330 165,496 66,33 100,165 198,165 0,-98 133,-198 34,-297 0,-66 32,-166 0,-232 32,-99 199,-99 99,-231 198,66 132,297 166,429 z m 0,0 0,0 z m 164,-330 c 34,99 0,264 -66,397 -32,-67 -66,-199 -32,-298 0,33 0,33 32,33 66,-33 -32,-165 66,-132 z m 0,0 0,0 z m -5226,827 c -132,-132 -232,-364 -166,-595 34,231 265,331 166,595 z m 0,0 0,0 z m 5293,-232 c -33,-99 -67,-231 0,-331 l 0,331 z m 0,0 0,0 z m -4499,431 c 33,463 199,860 397,1257 -364,-100 -926,-298 -960,-828 l -32,-132 c 66,0 66,-32 98,-66 -164,-199 -231,-363 -231,-628 199,198 464,331 728,397 z m 0,0 0,0 z m 4268,-365 c 0,463 -166,927 -431,1324 -231,166 -463,298 -728,364 199,-331 397,-860 463,-1357 232,-98 463,-165 696,-331 z m 0,0 0,0 z m -34,993 -265,232 c 199,-365 331,-728 365,-1191 265,265 -34,662 -100,959 z m 0,0 0,0 z m -4201,-728 c 132,34 298,-32 497,-32 32,66 -34,198 131,164 l 66,0 0,66 -694,-132 0,-98 0,32 z m 0,0 0,0 z m 2977,1456 c -364,132 -794,166 -1191,166 33,-166 364,-199 297,-463 167,-67 265,-233 299,-397 -132,-67 -66,-233 -66,-331 l 132,-133 c 363,-33 694,-100 1025,-198 -66,495 -231,959 -496,1356 z m 0,0 0,0 z m -2051,-861 c 33,199 -100,431 66,630 133,98 231,264 364,397 l -893,-199 c -199,-397 -363,-828 -430,-1291 331,166 761,0 893,463 z m 0,0 0,0 z m -1422,299 c -34,0 -265,-100 -298,-265 -33,-132 66,-100 100,-166 l 198,431 z m 0,0 0,0 z m 3307,-66 c 66,66 -32,198 -66,297 -66,100 -165,166 -297,100 99,-100 -100,-299 165,-265 l 264,-232 c 0,66 -66,66 -66,100 z m 0,0 0,0 z m -2282,1160 c -397,-135 -959,-665 -1191,-1128 431,331 695,894 1191,1128 z m 0,0 0,0 z m 2515,-33 c 463,-235 628,-730 1058,-1061 -264,429 -629,826 -1058,1061 z m 0,0 0,0 z m -2316,-102 c 164,135 330,267 495,367 -595,-132 -1157,-532 -1520,-1095 363,265 826,232 1025,728 z m 0,0 0,0 z m 1554,367 c 529,-232 695,-897 1323,-929 l 133,-100 c -364,529 -893,863 -1456,1029 z m 0,0 0,0 z m -562,-500 0,532 c -497,34 -926,-366 -1223,-763 395,133 792,165 1223,231 z m 0,0 0,0 z m 66,532 0,-532 c 397,-32 794,-66 1158,-164 -265,399 -662,696 -1158,696 z m 0,0 0,0 z m -66,-630 c -34,32 -100,0 -132,0 66,32 66,-34 132,0 z" /></g></g></g></g></g></g></svg>