<?xml version="1.0" encoding="UTF-8"?><!DOCTYPE svg PUBLIC "-//W3C//DTD SVG 1.1//EN" "http://www.w3.org/Graphics/SVG/1.1/DTD/svg11.dtd"><svg xmlns="http://www.w3.org/2000/svg"><symbol id="close" viewBox="0 0 17 17"><path d="M9.207 8.5l6.646 6.646-.707.707L8.5 9.207l-6.646 6.646-.707-.707L7.793 8.5 1.146 1.854l.707-.707L8.5 7.793l6.646-6.646.707.707L9.207 8.5z"/></symbol><symbol id="search" viewBox="0 0 17 17"><path d="M16.604 15.868l-5.173-5.173A6.468 6.468 0 0 0 13 6.472c0-3.584-2.916-6.5-6.5-6.5a6.466 6.466 0 0 0-4.598 1.903A6.457 6.457 0 0 0 0 6.472c0 3.584 2.916 6.5 6.5 6.5a6.47 6.47 0 0 0 4.224-1.569l5.173 5.173.707-.708zM6.5 11.972a5.506 5.506 0 0 1-5.5-5.5 5.455 5.455 0 0 1 1.61-3.889A5.462 5.462 0 0 1 6.5.972c3.032 0 5.5 2.467 5.5 5.5 0 3.032-2.468 5.5-5.5 5.5z" fill="#fff"/></symbol><symbol id="shopping-cart" viewBox="0 0 17 17"><path d="M2.75 12.5c-.965 0-1.75.785-1.75 1.75S1.785 16 2.75 16s1.75-.785 1.75-1.75-.785-1.75-1.75-1.75zm0 2.5a.75.75 0 0 1 0-1.5.75.75 0 0 1 0 1.5zm8.5-2.5c-.965 0-1.75.785-1.75 1.75S10.285 16 11.25 16 13 15.215 13 14.25s-.785-1.75-1.75-1.75zm0 2.5a.75.75 0 0 1 0-1.5.75.75 0 0 1 0 1.5zm2.121-13l-.302 2H-.074l1.118 8.036h11.913l1.038-7.463L14.231 3H17V2h-3.629zm-.445 3l-.139 1H1.213l-.139-1h11.852zM1.914 11.036L1.353 7h11.295l-.561 4.036H1.914z" fill="#fff"/></symbol></svg>