<?xml version="1.0" standalone="no"?>
<!DOCTYPE svg PUBLIC "-//W3C//DTD SVG 20010904//EN"
 "http://www.w3.org/TR/2001/REC-SVG-20010904/DTD/svg10.dtd">
<svg version="1.0" xmlns="http://www.w3.org/2000/svg"
 width="105.000000pt" height="105.000000pt" viewBox="0 0 105.000000 105.000000"
 preserveAspectRatio="xMidYMid meet">
<metadata>
Created by potrace 1.11, written by Peter Selinger 2001-2013
</metadata>
<g transform="translate(0.000000,105.000000) scale(0.100000,-0.100000)"
fill="#000000" stroke="none">
<path d="M78 1013 c-78 -33 -78 -31 -78 -483 0 -345 2 -407 16 -435 30 -64 34
-65 509 -65 470 0 462 -1 500 63 16 27 18 65 17 431 0 249 -4 411 -10 427 -6
15 -25 37 -43 50 l-32 23 -425 0 c-314 1 -432 -2 -454 -11z"/>
</g>
</svg>
