<?xml version="1.0" encoding="iso-8859-1"?>
<!-- Generator: Adobe Illustrator 16.0.0, SVG Export Plug-In . SVG Version: 6.00 Build 0)  -->
<!DOCTYPE svg PUBLIC "-//W3C//DTD SVG 1.1//EN" "http://www.w3.org/Graphics/SVG/1.1/DTD/svg11.dtd">
<svg version="1.1" id="Capa_1" xmlns="http://www.w3.org/2000/svg" xmlns:xlink="http://www.w3.org/1999/xlink" x="0px" y="0px"
	 width="228.538px" height="228.538px" viewBox="0 0 228.538 228.538" style="enable-background:new 0 0 228.538 228.538;"
	 xml:space="preserve">
<g>
	<g>
		<path d="M228.538,116.279c0-10.345-8.417-18.762-18.763-18.762H31.487V36.535c0-7.02,5.711-12.731,12.731-12.731h3.333
			c3.449,0,6.703,1.402,9.066,3.795l-0.565,0.565c-9.489,9.489-9.489,24.928,0,34.418l3.219,3.219
			c1.419,1.419,3.279,2.129,5.14,2.129c1.861,0,3.72-0.709,5.14-2.129l31.782-31.782c2.838-2.838,2.838-7.441,0-10.279l-3.219-3.219
			c-4.596-4.597-10.708-7.128-17.208-7.128c-4.969,0-9.708,1.483-13.719,4.233c-5.077-5.264-12.138-8.359-19.635-8.359h-3.333
			c-15.036,0-27.269,12.232-27.269,27.269V97.61C7.452,98.525,0,106.548,0,116.28c0,7.959,4.99,14.76,12,17.481v23.956
			c0,21.129,15.039,38.812,34.975,42.91l-6.236,6.236c-2.838,2.838-2.838,7.44,0,10.278c1.419,1.419,3.279,2.129,5.14,2.129
			c1.861,0,3.72-0.709,5.14-2.129l15.628-15.62h95.24l15.633,15.62c1.418,1.419,3.278,2.129,5.14,2.129
			c1.86,0,3.72-0.709,5.14-2.129c2.838-2.838,2.838-7.44,0-10.278l-6.236-6.236c19.938-4.098,34.976-21.78,34.976-42.91v-23.956
			C223.547,131.038,228.538,124.239,228.538,116.279z M80.906,27.929c1.686,0,3.306,0.422,4.74,1.217L64.683,50.109
			c-2.055-3.725-1.505-8.513,1.65-11.667l7.644-7.644C75.828,28.948,78.289,27.929,80.906,27.929z M18.763,112.055h191.012
			c2.33,0,4.226,1.895,4.226,4.226c0,2.329-1.896,4.225-4.226,4.225H18.763c-2.33,0-4.225-1.896-4.225-4.225
			C14.538,113.95,16.433,112.055,18.763,112.055z M202,157.716c0,16.138-13.131,29.268-29.271,29.268H55.808
			c-16.14,0-29.271-13.129-29.271-29.268v-22.465H202V157.716z"/>
		<path d="M92.059,82.698c0.688,0.688,1.589,1.032,2.491,1.032c0.902,0,1.803-0.344,2.491-1.032c1.376-1.376,1.376-3.606,0-4.982
			l-3.55-3.55c-1.376-1.376-3.606-1.376-4.982,0c-1.376,1.376-1.376,3.606,0,4.982L92.059,82.698z"/>
		<path d="M102.708,79.147l3.55,3.55c0.688,0.688,1.589,1.032,2.491,1.032s1.804-0.344,2.492-1.032c1.375-1.376,1.375-3.607,0-4.983
			l-3.55-3.55c-1.376-1.376-3.607-1.375-4.983,0C101.332,75.541,101.332,77.771,102.708,79.147z"/>
		<path d="M89.941,63.515l-3.55-3.55c-1.376-1.376-3.606-1.376-4.982,0c-1.376,1.376-1.376,3.605,0,4.982l3.55,3.55
			c0.688,0.688,1.589,1.032,2.491,1.032c0.902,0,1.803-0.344,2.491-1.032C91.317,67.122,91.317,64.891,89.941,63.515z"/>
		<path d="M100.591,59.965c-1.376-1.376-3.606-1.376-4.982,0c-1.376,1.376-1.376,3.605,0,4.982l3.55,3.55
			c0.688,0.688,1.589,1.032,2.491,1.032c0.902,0,1.803-0.344,2.491-1.032c1.376-1.376,1.376-3.606,0-4.982L100.591,59.965z"/>
		<path d="M95.395,45.552c-1.375,1.376-1.375,3.607,0,4.983l3.55,3.55c0.688,0.688,1.589,1.032,2.491,1.032s1.804-0.344,2.492-1.032
			c1.375-1.376,1.375-3.607,0-4.983l-3.55-3.55C99.002,44.176,96.771,44.176,95.395,45.552z"/>
		<path d="M112.671,64.251c0.688,0.688,1.589,1.032,2.491,1.032c0.902,0,1.804-0.344,2.492-1.032c1.375-1.376,1.375-3.607,0-4.983
			l-3.55-3.55c-1.376-1.376-3.607-1.375-4.983,0c-1.375,1.376-1.375,3.607,0,4.983L112.671,64.251z"/>
	</g>
</g>
<g>
</g>
<g>
</g>
<g>
</g>
<g>
</g>
<g>
</g>
<g>
</g>
<g>
</g>
<g>
</g>
<g>
</g>
<g>
</g>
<g>
</g>
<g>
</g>
<g>
</g>
<g>
</g>
<g>
</g>
</svg>
