<?xml version="1.0" encoding="iso-8859-1"?>
<!-- Generator: Adobe Illustrator 19.0.0, SVG Export Plug-In . SVG Version: 6.00 Build 0)  -->
<svg version="1.1" id="Layer_1" xmlns="http://www.w3.org/2000/svg" xmlns:xlink="http://www.w3.org/1999/xlink" x="0px" y="0px"
	 viewBox="0 0 455 455" style="enable-background:new 0 0 455 455;" xml:space="preserve">
<path d="M455,13.935H0v325h70v102.129l102.129-102.129H455L455,13.935z M147.5,191.435c-8.284,0-15-6.716-15-15
	c0-8.284,6.716-15,15-15s15,6.716,15,15S155.784,191.435,147.5,191.435z M227.5,191.435c-8.284,0-15-6.716-15-15s6.716-15,15-15
	s15,6.716,15,15S235.784,191.435,227.5,191.435z M307.5,191.435c-8.284,0-15-6.716-15-15s6.716-15,15-15s15,6.716,15,15
	C322.5,184.72,315.784,191.435,307.5,191.435z"/>
<g>
</g>
<g>
</g>
<g>
</g>
<g>
</g>
<g>
</g>
<g>
</g>
<g>
</g>
<g>
</g>
<g>
</g>
<g>
</g>
<g>
</g>
<g>
</g>
<g>
</g>
<g>
</g>
<g>
</g>
</svg>
