<svg  x="0px" y="0px" viewBox="0 0 100 100"><g transform="translate(0,-952.36218)"><path style="text-indent:0;text-transform:none;direction:ltr;block-progression:tb;baseline-shift:baseline;color:#000000;enable-background:accumulate;" d="m 8.0159598,962.36215 c -1.6569,0 -3,1.34315 -3,3 0,1.65685 1.3431,3 3,3 l 9.5625002,0 10.3125,48.65625 c 0.408,1.8316 1.6084,3.356 3.125,3.3438 l 50,0 c 1.5849,0.022 3.042695,-1.4149 3.042695,-3 0,-1.5851 -1.457795,-3.0224 -3.042695,-3 l -47.5625,0 -1.2813,-6.0001 52.843795,0 c 1.3432,-0.01 2.6123,-1.033 2.9062,-2.3437 l 7,-30 c 0.3901,-1.74107 -1.122,-3.64346 -2.9062,-3.65625 l -67.437495,0 -1.625,-7.625 c -0.2839,-1.3321 -1.5755,-2.3764 -2.9375,-2.375 z m 17.8125002,16 62.406295,0 -5.593795,23.99995 -51.7188,0 z m 15.1875,44.00005 c -5.4873,0 -10,4.5126 -10,10 0,5.4873 4.5127,10 10,10 5.4873,0 10,-4.5127 10,-10 0,-5.4873 -4.5127,-10 -10,-10 z m 30,0 c -5.4873,0 -10,4.5126 -10,10 0,5.4873 4.5127,10 10,10 5.4873,0 10,-4.5127 10,-10 0,-5.4873 -4.5127,-10 -10,-10 z m -30,6 c 2.2447,0 4,1.7553 4,4 0,2.2447 -1.7553,4 -4,4 -2.2445,0 -4,-1.7554 -4,-4 0,-2.2446 1.7555,-4 4,-4 z m 30,0 c 2.2447,0 4,1.7553 4,4 0,2.2447 -1.7553,4 -4,4 -2.2445,0 -4,-1.7554 -4,-4 0,-2.2446 1.7555,-4 4,-4 z" fill="#000000" fill-opacity="1" stroke="none" marker="none" visibility="visible" display="inline" overflow="visible"/></g></svg>