<svg xmlns="http://www.w3.org/2000/svg" viewBox="0 0 46 28.8"><defs><style>.cls-1{fill:#6b6b6b;}</style></defs><title>Asset 2</title><g id="Layer_2" data-name="Layer 2"><g id="Shopping_Cart" data-name="Shopping Cart"><path class="cls-1" d="M44.66,28.8a10.5,10.5,0,0,1-1.85-.26,8.63,8.63,0,0,0-1.31-.21H4.5a8.63,8.63,0,0,0-1.31.21C2,28.77.91,29,.34,28.52A.93.93,0,0,1,0,27.78V10.89A2.56,2.56,0,0,1,2.55,8.33h40.9A2.56,2.56,0,0,1,46,10.89V27.78a.93.93,0,0,1-.34.74A1.54,1.54,0,0,1,44.66,28.8ZM2.55,9.33A1.56,1.56,0,0,0,1,10.89V27.78a6.37,6.37,0,0,0,2-.23,9.14,9.14,0,0,1,1.51-.22h37a9.14,9.14,0,0,1,1.51.22,5.28,5.28,0,0,0,2,.19l0-16.85a1.56,1.56,0,0,0-1.55-1.56Z"/><path class="cls-1" d="M38.5,25.33H7.5a1.5,1.5,0,0,1,0-3h31a1.5,1.5,0,0,1,0,3Zm-31-2a.5.5,0,0,0-.5.5.5.5,0,0,0,.5.5h31a.5.5,0,0,0,.5-.5.5.5,0,0,0-.5-.5Z"/><path class="cls-1" d="M7,8.83H6V1.68l.08-.12A3.88,3.88,0,0,1,8.51.06,5.62,5.62,0,0,1,12.8,1.43l-.6.8A4.75,4.75,0,0,0,8.69,1,2.86,2.86,0,0,0,7,2Z"/><path class="cls-1" d="M4.5,7.33a1.84,1.84,0,0,1-.33,0A1.5,1.5,0,0,1,3,5.51H3A1.5,1.5,0,1,1,4.5,7.33ZM4,5.72a.5.5,0,0,0,1,.22.5.5,0,0,0-1-.22Z"/><path class="cls-1" d="M8.5,7.33H8.31a1.49,1.49,0,0,1-1-.57A1.52,1.52,0,0,1,7,5.64a1.5,1.5,0,0,1,.58-1,1.45,1.45,0,0,1,1.1-.29,1.49,1.49,0,0,1,1,.57A1.52,1.52,0,0,1,10,6a1.46,1.46,0,0,1-.58,1A1.43,1.43,0,0,1,8.5,7.33Zm0-2a.46.46,0,0,0-.3.11.5.5,0,0,0-.2.33.5.5,0,0,0,.44.56.47.47,0,0,0,.36-.1h0A.5.5,0,0,0,9,5.9a.53.53,0,0,0-.1-.37.51.51,0,0,0-.34-.19Z"/></g></g></svg>