<?xml version="1.0" encoding="iso-8859-1"?>
<!-- Generator: Adobe Illustrator 19.0.0, SVG Export Plug-In . SVG Version: 6.00 Build 0)  -->
<svg version="1.1" id="Capa_1" xmlns="http://www.w3.org/2000/svg" xmlns:xlink="http://www.w3.org/1999/xlink" x="0px" y="0px"
	 viewBox="0 0 469.338 469.338" style="enable-background:new 0 0 469.338 469.338;" xml:space="preserve">
<g>
	<g>
		<path d="M468.888,391.606l-32-106.667c-1.354-4.521-5.51-7.604-10.219-7.604h-64c-4.708,0-8.865,3.083-10.219,7.604l-32,106.667
			c-0.969,3.229-0.354,6.729,1.656,9.438c2.021,2.688,5.188,4.292,8.563,4.292h53.333v17.063c0,14.125-11.49,25.604-25.604,25.604
			c-3.01,0-5.958-0.521-8.76-1.542l-90.26-32.813c-8.396-3.063-14.042-11.125-14.042-20.063v-9.583v-320
			c29.406,0,53.333-23.917,53.333-53.333c0-5.896-4.771-10.667-10.667-10.667H181.335c-5.896,0-10.667,4.771-10.667,10.667
			c0,29.417,23.927,53.333,53.333,53.333v320v9.583c0,8.938-5.646,17-14.042,20.063l-90.281,32.813
			c-2.781,1.021-5.729,1.542-8.74,1.542c-14.115,0-25.604-11.479-25.604-25.604v-17.063h53.333c3.375,0,6.542-1.604,8.563-4.292
			c2.01-2.708,2.625-6.208,1.656-9.438l-32-106.667c-1.354-4.521-5.51-7.604-10.219-7.604h-64c-4.708,0-8.865,3.083-10.219,7.604
			l-32,106.667c-0.969,3.229-0.354,6.729,1.656,9.438c2.021,2.688,5.188,4.292,8.563,4.292h53.333v17.063
			c0,25.875,21.052,46.938,46.938,46.938c5.531,0,10.938-0.958,16.052-2.833l90.26-32.813c7.014-2.548,12.745-7.125,17.417-12.565
			c4.672,5.44,10.402,10.017,17.417,12.565l90.24,32.813c5.135,1.875,10.542,2.833,16.073,2.833
			c25.885,0,46.938-21.063,46.938-46.938v-17.063h53.333c3.375,0,6.542-1.604,8.563-4.292
			C469.242,398.335,469.856,394.835,468.888,391.606z M25.002,384.002l25.604-85.333h48.125l25.604,85.333H25.002z M224.002,42.669
			c-13.906,0-25.771-8.917-30.177-21.333h81.688c-4.406,12.417-16.271,21.333-30.177,21.333H224.002z M345.002,384.002
			l25.604-85.333h48.125l25.604,85.333H345.002z"/>
	</g>
</g>
<g>
</g>
<g>
</g>
<g>
</g>
<g>
</g>
<g>
</g>
<g>
</g>
<g>
</g>
<g>
</g>
<g>
</g>
<g>
</g>
<g>
</g>
<g>
</g>
<g>
</g>
<g>
</g>
<g>
</g>
</svg>
