<?xml version="1.0" encoding="iso-8859-1"?>
<!-- Generator: Adobe Illustrator 19.0.0, SVG Export Plug-In . SVG Version: 6.00 Build 0)  -->
<svg version="1.1" id="Capa_1" xmlns="http://www.w3.org/2000/svg" xmlns:xlink="http://www.w3.org/1999/xlink" x="0px" y="0px"
	 viewBox="0 0 512 512" style="enable-background:new 0 0 512 512;" xml:space="preserve">
<g>
	<g>
		<path d="M0,331v111.295c0,5.383,2.884,10.353,7.559,13.024L106,512V391L0,331z"/>
	</g>
</g>
<g>
	<g>
		<polygon points="136,391 136,512 241,451 241,331 		"/>
	</g>
</g>
<g>
	<g>
		<polygon points="271,331 271,451 376,512 376,391 		"/>
	</g>
</g>
<g>
	<g>
		<path d="M406,391v121l98.441-56.681c4.675-2.672,7.559-7.641,7.559-13.024V331L406,391z"/>
	</g>
</g>
<g>
	<g>
		<polygon points="391,241 275.246,298.876 391,365.026 507.754,298.876 		"/>
	</g>
</g>
<g>
	<g>
		<path d="M262.709,1.583c-4.224-2.111-9.194-2.111-13.418,0L140.246,58.876L256,125.026l115.754-66.151L262.709,1.583z"/>
	</g>
</g>
<g>
	<g>
		<polygon points="136,91 136,214.955 241,267.455 241,151 		"/>
	</g>
</g>
<g>
	<g>
		<polygon points="121,241 4.246,298.876 121,365.026 236.754,298.876 		"/>
	</g>
</g>
<g>
	<g>
		<polygon points="271,151 271,267.455 376,214.955 376,91 		"/>
	</g>
</g>
<g>
</g>
<g>
</g>
<g>
</g>
<g>
</g>
<g>
</g>
<g>
</g>
<g>
</g>
<g>
</g>
<g>
</g>
<g>
</g>
<g>
</g>
<g>
</g>
<g>
</g>
<g>
</g>
<g>
</g>
</svg>
