<?xml version="1.0" encoding="utf-8"?>
<!-- Generator: Adobe Illustrator 22.0.1, SVG Export Plug-In . SVG Version: 6.00 Build 0)  -->
<svg version="1.1" id="Layer_1" xmlns="http://www.w3.org/2000/svg" xmlns:xlink="http://www.w3.org/1999/xlink" x="0px" y="0px"
	 viewBox="0 0 100 100" style="enable-background:new 0 0 100 100;" xml:space="preserve">
<style type="text/css">
	.st0{fill:none;stroke:#000000;stroke-miterlimit:10;}
	.st1{fill:#6B6B6B;}
</style>
<polyline points="53.9,23.6 54,23.9 53.9,23.6 "/>
<path class="st0" d="M35.5,64.5"/>
<path class="st0" d="M69.8,51"/>
<path class="st0" d="M39.5,63.5"/>
<path class="st0" d="M34.5,61.5"/>
<path class="st0" d="M43.5,61.5"/>
<g>
	<path class="st1" d="M75,16.5H23v-9h52V16.5z M24.8,14.7h48.4V9.3H24.8V14.7z"/>
	<path class="st1" d="M73.2,66.7H24.8v-52h48.4V66.7z M26.6,64.9h44.8V16.5H26.6V64.9z"/>
	<path class="st1" d="M75,84.6H23V64.9h52V84.6z M24.8,82.8h48.4V66.7H24.8V82.8z"/>
	<rect x="41.8" y="73.9" class="st1" width="14.3" height="1.8"/>
	<rect x="48.1" y="15.6" class="st1" width="1.8" height="50.2"/>
	
		<rect x="37.3" y="20.5" transform="matrix(0.7071 -0.7071 0.7071 0.7071 -8.6959 35.2821)" class="st1" width="1.8" height="15.2"/>
	
		<rect x="34.7" y="28.8" transform="matrix(0.7071 -0.7071 0.7071 0.7071 -12.6535 34.6932)" class="st1" width="1.8" height="7.6"/>
	<path class="st1" d="M46.3,54.1h-7.2V47h7.2V54.1z M40.9,52.3h3.6v-3.6h-3.6V52.3z"/>
	<path class="st1" d="M58.9,54.1h-7.2V47h7.2V54.1z M53.5,52.3h3.6v-3.6h-3.6V52.3z"/>
</g>
</svg>
