<?xml version="1.0" encoding="utf-8"?>
<!-- Generator: Adobe Illustrator 22.0.1, SVG Export Plug-In . SVG Version: 6.00 Build 0)  -->
<svg version="1.1" id="Layer_1" xmlns="http://www.w3.org/2000/svg" xmlns:xlink="http://www.w3.org/1999/xlink" x="0px" y="0px"
	 viewBox="0 0 100 100" style="enable-background:new 0 0 100 100;" xml:space="preserve">
<polyline points="53.9,23.6 54,23.9 53.9,23.6 "/>
<path class="st0" d="M35.5,64.5"/>
<path class="st0" d="M69.8,51"/>
<path class="st0" d="M39.5,63.5"/>
<path class="st0" d="M34.5,61.5"/>
<path class="st0" d="M43.5,61.5"/>
<g>
	<path class="st1" d="M78,18.7H23V9.9h55V18.7z M24.9,17h51.2v-5.3H24.9V17z"/>
	<path class="st1" d="M76.1,68H24.9V17h51.2V68z M26.8,66.2h47.4V18.7H26.8V66.2z"/>
	<path class="st1" d="M78,85.6H23V66.2h55V85.6z M24.9,83.8h51.2V68H24.9V83.8z"/>
	<rect x="42.9" y="75" class="st1" width="15.2" height="1.8"/>
	<rect x="49.6" y="17.8" class="st1" width="1.9" height="49.2"/>
	<polygon class="st1" points="44.1,36.1 32.8,25.5 34.1,24.3 45.5,34.8 	"/>
	<polygon class="st1" points="38.5,37.8 32.8,32.5 34.1,31.3 39.8,36.6 	"/>
	<path class="st1" d="M47.7,55.7h-7.6v-7h7.6V55.7z M42,53.9h3.8v-3.5H42V53.9z"/>
	<path class="st1" d="M60.9,55.7h-7.6v-7h7.6V55.7z M55.2,53.9H59v-3.5h-3.8V53.9z"/>
</g>
</svg>
