<?xml version="1.0" encoding="iso-8859-1"?>
<!-- Generator: Adobe Illustrator 19.0.0, SVG Export Plug-In . SVG Version: 6.00 Build 0)  -->
<svg version="1.1" id="Capa_1" xmlns="http://www.w3.org/2000/svg" xmlns:xlink="http://www.w3.org/1999/xlink" x="0px" y="0px"
	 viewBox="0 0 397.6 397.6" style="enable-background:new 0 0 397.6 397.6;" xml:space="preserve">
<g>
	<g>
		<path d="M128.999,138.8h-53.6c-5.6,0-10,4.4-10,10c0,5.2,4.4,10,10,10h53.6c5.6,0,10-4.4,10-10
			C138.999,143.2,134.599,138.8,128.999,138.8z"/>
	</g>
</g>
<g>
	<g>
		<path d="M128.999,179.2h-53.6c-5.6,0-10,4.4-10,10c0,5.6,4.4,10,10,10h53.6c5.6,0,10-4.4,10-10
			C138.999,183.6,134.599,179.2,128.999,179.2z"/>
	</g>
</g>
<g>
	<g>
		<path d="M389.799,211.2c-0.8-11.2-4-23.2-8.8-35.2c-4.8-12.4-11.6-24.4-18.8-36c0-0.4-0.4-0.4-0.4-0.8c-6-9.2-12.8-18-19.6-26.4
			c-16.8-19.2-35.6-34.8-52-42h-0.4h-0.4c-0.4,0-0.8-0.4-1.2-0.4c0,0,0,0-0.4,0c-0.4,0-1.2,0-1.6,0c-0.4,0-1.2,0-1.6,0
			c0,0,0,0-0.4,0c-0.4,0-1.2,0.4-1.6,0.4c0,0,0,0-0.4,0c-0.4,0.4-0.8,0.4-1.6,0.8c-0.4,0.4-0.8,0.8-1.2,1.2c0,0,0,0.4-0.4,0.4
			c-0.4,0.4-0.4,0.8-0.8,1.2c0,0,0,0.4-0.4,0.4c0,0.4-0.4,0.4-0.4,0.8c0,0,0,0,0,0.4c-0.4,0.8-0.4,1.6-0.4,2.4c0,0.4,0,0.4,0,0.8
			c0,0.8,0,1.2,0,2v0.4c6,32.8-10.4,53.6-26.4,73.2c-0.4,0.4-0.8,1.2-1.6,1.6c-6,7.2-12,14.8-17.2,22.4
			c-10,15.6-13.6,31.6-12.4,46.4c1.2,12,5.2,23.2,11.6,32.8c6.4,9.6,14.8,18,25.2,24.4c11.2,7.2,24.4,12,38.4,14
			c-2.4,21.6-12,41.2-26.8,55.6c-16.4,16.4-39.2,26.4-64.4,26.4c-25.2,0-48.4-10.4-64.8-26.8c-16.4-16.4-26.8-39.6-26.8-64.8v-0.4
			v-56.8h30.8c12.4,0,23.6-5.2,31.6-13.2s13.2-19.2,13.2-31.6v-63.2c0.8-0.8,1.6-1.6,2.4-2.4c4.8-4.8,7.6-10.8,7.6-18
			c0-7.2-2.8-13.2-7.6-18c-4.8-4.8-10.8-7.6-18-7.6h-11.2V24.8c0-6.8-2.8-13.2-7.2-17.6c-4.4-4.4-10.8-7.2-17.6-7.2
			s-13.2,2.8-17.6,7.2c-4.4,4.4-7.2,10.8-7.2,17.6V76h-17.2V24.8c0-6.8-2.8-13.2-7.2-17.6c-4.4-4.4-10.8-7.2-17.6-7.2
			c-6.8,0-13.2,2.8-17.6,7.2c-4.4,4.4-7.2,10.8-7.2,17.6V76h-11.2c-7.2,0-13.2,2.8-18,7.6s-7.6,10.8-7.6,18s2.8,13.2,7.6,18
			c0.4,0.8,1.2,1.6,2.4,2v63.2c0,12.4,5.2,23.6,13.2,31.6s19.2,13.2,31.6,13.2h30.8v56.8v0.4c0,30.4,12.4,58.4,32.4,78.4
			s47.6,32.4,78.4,32.4c30.4,0,58-12.4,78-32c18-18,30-41.6,32.4-68.4c11.2-0.8,20.8-3.2,29.6-6.8c16.8-6.8,29.2-17.6,36.8-31.6
			C388.199,245.2,391.399,228.8,389.799,211.2z M129.799,24.8c0-1.6,0.8-3.2,1.6-4.4c1.2-1.2,2.4-1.6,4.4-1.6c1.6,0,3.2,0.8,4.4,1.6
			c1.2,1.2,1.6,2.4,1.6,4.4V76h-12V24.8z M62.599,24.8c0-1.6,0.8-3.2,1.6-4.4c1.2-1.2,2.4-1.6,4.4-1.6c1.6,0,3.2,0.8,4.4,1.6
			c1.2,1.2,1.6,2.4,1.6,4.4V76h-12V24.8z M28.199,106c-1.2-1.2-2-2.8-2-4.4s0.8-3.2,2-4.4c1.2-1.2,2.8-2,4.4-2h139.2
			c1.6,0,3.2,0.8,4.4,2c1.2,1.2,2,2.8,2,4.4s-0.8,3.2-2,4.4c-1.2,1.2-2.8,2-4.4,2h-139.2C30.999,108,29.399,107.2,28.199,106z
			 M62.199,210.8c-7.2,0-13.6-2.8-18.4-7.6c-4.8-4.8-7.6-11.2-7.6-18.4v-58h132v58c0,7.2-2.8,13.6-7.6,18.4
			c-4.4,4.8-11.2,7.6-18,7.6H62.199z M327.399,125.2c5.2,6,10,12,14.4,18.4l-10,10.4c-4.4-15.2-10-28.8-15.6-40.8
			C320.199,116.8,323.799,120.8,327.399,125.2z M299.799,278.4c-12.4-1.2-23.6-5.2-33.6-11.6c-7.6-5.2-14.4-11.6-19.2-19.2
			c-4.8-7.2-8-15.6-8.4-24c-0.8-10.8,2-22.8,9.6-34.4c2.8-4.4,6-8.8,9.6-12.8l56.8,73.2C311.399,259.2,306.199,269.2,299.799,278.4z
			 M320.199,225.6l-50.4-64.4c11.2-14,21.6-28.8,25.6-47.6c8,15.6,16.8,36.8,22,60c0,0.8,0.4,1.6,0.4,2.4
			C320.999,192,322.199,208.8,320.199,225.6z M363.799,249.2c-5.6,10-14.8,18.4-27.2,23.2c-4,1.6-8.4,2.8-13.2,4
			c4.8-8.4,8-17.2,10.8-25.6c0-0.4,0-0.4,0-0.8c7.6-25.2,7.2-50.4,2.8-74l15.2-16c4.4,7.6,8,15.2,11.2,22.8c4,10,6.4,20,7.2,29.6
			C371.799,226.4,369.399,238.8,363.799,249.2z"/>
	</g>
</g>
<g>
</g>
<g>
</g>
<g>
</g>
<g>
</g>
<g>
</g>
<g>
</g>
<g>
</g>
<g>
</g>
<g>
</g>
<g>
</g>
<g>
</g>
<g>
</g>
<g>
</g>
<g>
</g>
<g>
</g>
</svg>
