<?xml version="1.0" encoding="iso-8859-1"?>
<!-- Generator: Adobe Illustrator 19.0.0, SVG Export Plug-In . SVG Version: 6.00 Build 0)  -->
<svg version="1.1" id="Layer_1" xmlns="http://www.w3.org/2000/svg" xmlns:xlink="http://www.w3.org/1999/xlink" x="0px" y="0px"
	 viewBox="0 0 491.52 491.52" style="enable-background:new 0 0 491.52 491.52;" xml:space="preserve">
<g>
	<g>
		<path d="M444.42,222.43l-94.045-25.65l25.645,94.04l26.964-26.961l23.531,23.531l14.48-14.48l-23.529-23.529L444.42,222.43z
			 M386.5,251.38l-6.935-25.42l25.425,6.93L386.5,251.38z"/>
	</g>
</g>
<g>
	<g>
		<path d="M491.52,409.6V0H0v409.6h153.6v61.44h-40.96v20.48h266.24v-20.48h-40.96V409.6H491.52z M20.48,20.48h450.56v317.44H20.48
			V20.48z M317.44,471.04H174.08V409.6h143.36V471.04z M20.48,389.12V358.4h450.56v30.72H20.48z"/>
	</g>
</g>
<g>
	<g>
		<path d="M294.1,215.04l37.545-112.64H102.084L90.155,63.63L54.44,51.73l-6.48,19.42l25.725,8.58l38.203,124.155L85.83,256h28.697
			c-1.147,3.219-1.887,6.632-1.887,10.24c0,16.94,13.78,30.72,30.72,30.72s30.72-13.78,30.72-30.72c0-3.608-0.739-7.021-1.887-10.24
			h44.734c-1.148,3.219-1.887,6.632-1.887,10.24c0,16.94,13.78,30.72,30.72,30.72s30.72-13.78,30.72-30.72
			c0-3.608-0.739-7.021-1.887-10.24h12.127v-20.48H118.97l10.24-20.48H294.1z M245.76,256c5.645,0,10.24,4.59,10.24,10.24
			c0,5.65-4.595,10.24-10.24,10.24s-10.24-4.59-10.24-10.24C235.52,260.59,240.115,256,245.76,256z M143.36,256
			c5.645,0,10.24,4.59,10.24,10.24c0,5.65-4.595,10.24-10.24,10.24c-5.645,0-10.24-4.59-10.24-10.24
			C133.12,260.59,137.715,256,143.36,256z M108.386,122.88h194.849l-23.895,71.68H130.441L108.386,122.88z"/>
	</g>
</g>
<g>
</g>
<g>
</g>
<g>
</g>
<g>
</g>
<g>
</g>
<g>
</g>
<g>
</g>
<g>
</g>
<g>
</g>
<g>
</g>
<g>
</g>
<g>
</g>
<g>
</g>
<g>
</g>
<g>
</g>
</svg>
