<?xml version="1.0" encoding="iso-8859-1"?>
<!-- Generator: Adobe Illustrator 19.0.0, SVG Export Plug-In . SVG Version: 6.00 Build 0)  -->
<svg version="1.1" id="Capa_1" xmlns="http://www.w3.org/2000/svg" xmlns:xlink="http://www.w3.org/1999/xlink" x="0px" y="0px"
	 viewBox="0 0 512 512" style="enable-background:new 0 0 512 512;" xml:space="preserve">
<g>
	<g>
		<path d="M498.819,223.189l-76.815-76.816V45.01c0-8.284-6.716-15-15-15h-59.999c-8.284,0-15,6.716-15,15v11.365l-43.182-43.182
			c-17.665-17.665-46.135-17.498-63.584-0.05L13.193,223.188c-17.59,17.589-17.592,46.043,0,63.634
			c12.842,12.842,31.205,16.13,46.816,10.631v199.548c0,8.284,6.716,15,15,15h361.993c8.284,0,15-6.716,15-15V297.45
			c15.632,5.514,33.99,2.198,46.816-10.628c8.501-8.5,13.183-19.8,13.183-31.816C512,242.989,507.319,231.689,498.819,223.189z
			 M362.003,60.009h29.999v56.364l-29.999-29.999V60.009z M302.004,482.001h-89.998V360.003h89.998V482.001z M422.002,482.001
			h-89.998V345.004c0-8.284-6.716-15-15-15H197.006c-8.284,0-15,6.716-15,15v136.997H90.009V273.779L256.95,108.588L422.002,273.64
			V482.001z M477.606,265.61c-5.866,5.865-15.342,5.866-21.209,0c-6.445-6.445-173.293-173.293-188.785-188.785
			c-5.834-5.836-15.291-5.861-21.157-0.056C237.565,85.567,62.961,258.34,55.614,265.61c-5.848,5.847-15.361,5.847-21.209,0
			c-5.847-5.847-5.847-15.362-0.05-21.159L246.402,34.406c5.866-5.865,15.342-5.866,21.209,0
			c13.132,13.132,203.97,203.97,209.996,209.996C483.453,250.249,483.453,259.762,477.606,265.61z"/>
	</g>
</g>
<g>
	<g>
		<path d="M257.005,180.007c-33.083,0-59.999,26.915-59.999,59.999s26.915,59.999,59.999,59.999s59.999-26.915,59.999-59.999
			C317.004,206.922,290.089,180.007,257.005,180.007z M257.005,270.005c-16.542,0-29.999-13.458-29.999-29.999
			s13.458-29.999,29.999-29.999c16.542,0,29.999,13.458,29.999,29.999S273.547,270.005,257.005,270.005z"/>
	</g>
</g>
<g>
</g>
<g>
</g>
<g>
</g>
<g>
</g>
<g>
</g>
<g>
</g>
<g>
</g>
<g>
</g>
<g>
</g>
<g>
</g>
<g>
</g>
<g>
</g>
<g>
</g>
<g>
</g>
<g>
</g>
</svg>
