<?xml version="1.0" encoding="iso-8859-1"?>
<!-- Generator: Adobe Illustrator 19.0.0, SVG Export Plug-In . SVG Version: 6.00 Build 0)  -->
<svg version="1.1" id="Layer_1" xmlns="http://www.w3.org/2000/svg" xmlns:xlink="http://www.w3.org/1999/xlink" x="0px" y="0px"
	 viewBox="0 0 491.152 491.152" style="enable-background:new 0 0 491.152 491.152;" xml:space="preserve">
<g>
	<path d="M449.975,229.217h-92.263c3.67-14.487,5.529-29.39,5.529-44.522c0-100.145-81.475-181.619-181.62-181.619
		S0,84.55,0,184.695c0,41.232,13.525,80.127,39.139,112.514L181.62,476.348l50.673-63.709v75.438h258.859V299.327L449.975,229.217z
		 M449.946,288.406H273.499l17.144-29.189h142.16L449.946,288.406z M181.62,428.154L62.644,278.568
		C41.288,251.565,30,219.105,30,184.695c0-83.603,68.017-151.619,151.62-151.619s151.62,68.016,151.62,151.619
		c0,15.215-2.243,30.147-6.674,44.522h-53.095l-41.178,70.11v65.117L181.62,428.154z M376.723,458.076h-30v-69.67h30V458.076z
		 M406.723,458.076v-99.67h-90v99.67h-54.43v-139.67h198.859v139.67H406.723z"/>
	<path d="M256.62,182.473c0-41.355-33.645-75-75-75s-75,33.645-75,75s33.645,75,75,75S256.62,223.828,256.62,182.473z
		 M181.62,227.473c-24.813,0-45-20.187-45-45s20.187-45,45-45s45,20.187,45,45S206.434,227.473,181.62,227.473z"/>
</g>
<g>
</g>
<g>
</g>
<g>
</g>
<g>
</g>
<g>
</g>
<g>
</g>
<g>
</g>
<g>
</g>
<g>
</g>
<g>
</g>
<g>
</g>
<g>
</g>
<g>
</g>
<g>
</g>
<g>
</g>
</svg>
