<?xml version="1.0" encoding="iso-8859-1"?>
<!-- Generator: Adobe Illustrator 16.0.0, SVG Export Plug-In . SVG Version: 6.00 Build 0)  -->
<!DOCTYPE svg PUBLIC "-//W3C//DTD SVG 1.1//EN" "http://www.w3.org/Graphics/SVG/1.1/DTD/svg11.dtd">
<svg version="1.1" id="Capa_1" xmlns="http://www.w3.org/2000/svg" xmlns:xlink="http://www.w3.org/1999/xlink" x="0px" y="0px"
	 width="50px" height="50px" viewBox="0 0 50 50" style="enable-background:new 0 0 50 50;" xml:space="preserve">
<g>
	<path d="M39.964,24.399c-0.889-1.049-8.224-12.712-8.578-13.751c-0.355-1.041,0.19-6.522,0.174-8.171
		c-0.016-1.648-5.21-4.063-6.598-1.022c-0.825,1.806-3.543,8.128-3.273,9.93c0.271,1.801,0.911,6.229,1.568,9.548H7.93
		c-2.206,0.001-3.736,1.359-3.896,3.46c-0.134,1.681,0.728,3.614,2.375,4.661c-0.884,0.76-1.32,1.82-1.215,3.052
		c0.131,1.525,1.079,2.943,2.361,3.762c-0.827,0.74-1.254,1.781-1.165,2.978c0.109,1.565,1.065,3.021,2.374,3.848
		C8.104,43.396,7.76,44.388,7.849,45.5c0.184,2.23,2.136,4.49,5.52,4.49L37.57,50c1.265,0,2.358-0.705,3.236-1.271
		c0.416-0.27,1.047-0.676,1.288-0.676l3.885-0.002V27.383C45.979,27.383,40.854,25.449,39.964,24.399z"/>
</g>
<g>
</g>
<g>
</g>
<g>
</g>
<g>
</g>
<g>
</g>
<g>
</g>
<g>
</g>
<g>
</g>
<g>
</g>
<g>
</g>
<g>
</g>
<g>
</g>
<g>
</g>
<g>
</g>
<g>
</g>
</svg>
