<?xml version="1.0" encoding="iso-8859-1"?>
<!-- Generator: Adobe Illustrator 16.0.0, SVG Export Plug-In . SVG Version: 6.00 Build 0)  -->
<!DOCTYPE svg PUBLIC "-//W3C//DTD SVG 1.1//EN" "http://www.w3.org/Graphics/SVG/1.1/DTD/svg11.dtd">
<svg xmlns="http://www.w3.org/2000/svg" xmlns:xlink="http://www.w3.org/1999/xlink" version="1.1" id="Capa_1" x="0px" y="0px" width="512px" height="512px" viewBox="0 0 56.48 56.48" style="enable-background:new 0 0 56.48 56.48;" xml:space="preserve">
<g>
	<path d="M27.168,31.824c0.594,0,1.167-0.075,1.741-0.229l0.286-1.422c-0.614,0.25-1.167,0.361-1.782,0.361   c-0.983,0-1.495-0.335-1.495-0.993c0-0.053,0-0.092,0.021-0.179h3.398c0.145-0.576,0.207-0.984,0.207-1.404   c0-1.259-0.902-2.062-2.314-2.062c-1.721,0-2.99,1.435-2.99,3.382C24.239,30.952,25.243,31.824,27.168,31.824z M27.209,27.195   c0.512,0,0.799,0.269,0.799,0.73c0,0.076,0,0.17,0,0.292l-1.905-0.002C26.267,27.555,26.657,27.195,27.209,27.195z M36.078,29.788   c-0.021,0.104-0.021,0.183-0.021,0.235c0,0.294,0.186,0.42,0.595,0.42c0.185,0,0.329-0.018,0.45-0.055l-0.225,1.26   c-0.471,0.129-0.84,0.185-1.229,0.185c-0.881,0-1.352-0.442-1.352-1.248c0-0.159,0.02-0.329,0.041-0.509l0.103-0.559l0.082-0.449   l0.799-4.336h1.7l-0.246,1.304h0.88l-0.246,1.382h-0.881L36.078,29.788z M32.678,25.91c0.41,0,1.086,0.05,1.537,0.112l-0.246,1.313   c-0.451-0.053-0.901-0.083-1.25-0.083c-0.554,0-0.84,0.156-0.84,0.461c0,0.266,0.082,0.331,0.799,0.618   c0.881,0.346,1.229,0.801,1.229,1.581c0,1.295-0.84,1.894-2.684,1.894c-0.226,0-0.532-0.017-0.941-0.047   c-0.205-0.014-0.369-0.031-0.471-0.051l-0.307-0.056l-0.082-0.015l0.245-1.31c0.554,0.154,1.024,0.224,1.558,0.224   c0.676,0,0.982-0.16,0.982-0.512c0-0.26-0.104-0.344-0.799-0.627c-0.921-0.372-1.331-0.867-1.331-1.583   C30.076,26.783,30.754,25.91,32.678,25.91z M24.818,34.362h6.843c-0.25,0.536-0.532,1.053-0.844,1.552h-5.143   C25.362,35.413,25.069,34.9,24.818,34.362z M21.678,25.91c-0.635,0-1.188,0.081-2.048,0.299l-0.225,1.279l0.143-0.037l0.246-0.062   c0.368-0.098,0.921-0.157,1.413-0.157c0.798,0,1.106,0.14,1.106,0.515c0,0.104-0.021,0.182-0.062,0.369   c-0.266-0.028-0.512-0.044-0.696-0.044c-1.904,0-3.01,0.809-3.01,2.189c0,0.918,0.635,1.551,1.557,1.551   c0.778,0,1.373-0.219,1.802-0.686l-0.041,0.588h1.433l0.02-0.154l0.021-0.195l0.041-0.288l0.061-0.36l0.369-2.018   c0.103-0.632,0.123-0.845,0.123-1.125C23.931,26.487,23.153,25.91,21.678,25.91z M20.819,30.608c-0.389,0-0.614-0.228-0.614-0.579   c0-0.574,0.492-0.864,1.454-0.864c0.123,0,0.205,0.003,0.39,0.022C22.007,30.026,21.515,30.608,20.819,30.608z M28.272,38.958   c-0.012,0.012-0.025,0.021-0.037,0.032c-0.537-0.485-1.023-1.022-1.482-1.584h2.993c-0.451,0.553-0.944,1.071-1.472,1.552H28.272   L28.272,38.958z M30.799,20.539h-4.913c0.315-0.52,0.663-1.052,1.033-1.552h2.754C30.081,19.479,30.458,19.997,30.799,20.539z    M32.26,23.615h-8.014c0.079-0.15,0.359-0.754,0.781-1.553h6.607C31.871,22.564,32.079,23.082,32.26,23.615z M19.077,24.733   l-1.352,6.983h-1.72l1.024-5.37l-2.355,5.37h-1.557l-0.287-5.335l-1.024,5.335H10.25l1.332-6.983h2.683l0.123,4.325l1.905-4.325   H19.077z M47.527,31.097c-0.041-0.02-0.082-0.022-0.102-0.022h-0.164v0.392h0.082v-0.153h0.061l0.062,0.153h0.102l-0.061-0.17   c0.041-0.018,0.061-0.06,0.061-0.102C47.567,31.157,47.547,31.117,47.527,31.097z M47.445,31.238   c-0.02,0.008-0.041,0.008-0.041,0.008h-0.062v-0.102h0.043c0.02,0,0.061,0,0.061,0.009c0.021,0.008,0.021,0.024,0.021,0.039   C47.467,31.209,47.465,31.228,47.445,31.238z M51.122,36.091c-0.041-0.02-0.082-0.022-0.103-0.022h-0.163v0.392h0.082v-0.154h0.061   l0.062,0.154h0.103l-0.062-0.171c0.041-0.017,0.062-0.059,0.062-0.101C51.162,36.15,51.143,36.111,51.122,36.091z M51.04,36.231   c-0.021,0.008-0.041,0.008-0.041,0.008h-0.062v-0.101h0.041c0.021,0,0.062,0,0.062,0.008c0.021,0.008,0.021,0.025,0.021,0.039   C51.061,36.203,51.061,36.222,51.04,36.231z M55.026,9.939H1.454C0.65,9.939,0,10.59,0,11.393v33.695   c0,0.803,0.65,1.454,1.454,1.454h53.572c0.804,0,1.454-0.651,1.454-1.454V11.393C56.48,10.59,55.83,9.939,55.026,9.939z    M51.409,36.519c-0.042,0.076-0.099,0.134-0.173,0.175s-0.152,0.062-0.232,0.062c-0.082,0-0.16-0.021-0.234-0.062   c-0.073-0.041-0.131-0.099-0.174-0.175c-0.041-0.073-0.062-0.151-0.062-0.232s0.021-0.158,0.063-0.234   c0.041-0.076,0.101-0.133,0.175-0.174c0.075-0.039,0.151-0.06,0.231-0.06c0.079,0,0.155,0.021,0.229,0.06   c0.075,0.041,0.134,0.098,0.175,0.174c0.042,0.076,0.062,0.154,0.062,0.234S51.451,36.447,51.409,36.519z M52.457,28.241   c0.002,8.005-6.484,14.497-14.49,14.499c-3.744,0.001-7.158-1.418-9.73-3.749c-2.572,2.327-5.979,3.745-9.717,3.745   c-8.001,0-14.495-6.493-14.495-14.495c0-7.97,6.443-14.444,14.402-14.496c0.031,0,0.062,0,0.093,0c3.738,0,7.146,1.418,9.718,3.745   c2.571-2.328,5.981-3.747,9.722-3.748c8.006-0.003,14.497,6.486,14.499,14.492C52.457,28.236,52.457,28.238,52.457,28.241z    M47.404,30.829c-0.246,0-0.451,0.199-0.451,0.442c0,0.246,0.205,0.445,0.451,0.445s0.451-0.199,0.451-0.445   C47.855,31.028,47.65,30.829,47.404,30.829z M47.404,31.61c-0.184,0-0.348-0.151-0.348-0.339c0-0.186,0.164-0.336,0.348-0.336   c0.186,0,0.328,0.15,0.328,0.336C47.732,31.458,47.59,31.61,47.404,31.61z M47.262,28.437c0-1.441-0.942-2.563-2.725-2.563   c-2.048,0-3.379,1.365-3.379,3.376c0,1.441,0.777,2.619,2.725,2.619c1.76,0,3.071-0.839,3.338-2.727   C47.262,28.812,47.262,28.789,47.262,28.437z M45.377,29.093c-0.143,0.885-0.941,1.392-1.31,1.392   c-0.615,0.012-0.983-0.507-0.983-1.278c0-0.912,0.532-1.947,1.413-1.947c0.696,0,0.941,0.563,0.941,1.155   C45.438,28.661,45.418,28.886,45.377,29.093z M41.26,27.69l-0.205-0.042c-0.082-0.009-0.143-0.014-0.205-0.014   c-0.819,0-1.084,0.61-1.699,4.083H37.43l1.045-5.68h1.557l-0.164,0.862c0.532-0.671,0.941-0.923,1.495-0.923   c0.062,0,0.124,0.005,0.185,0.014c0,0.003,0.062,0.014,0.145,0.034c0.02,0.006,0.041,0.006,0.184,0.062L41.26,27.69z" fill="#FFFFFF"/>
</g>
<g>
</g>
<g>
</g>
<g>
</g>
<g>
</g>
<g>
</g>
<g>
</g>
<g>
</g>
<g>
</g>
<g>
</g>
<g>
</g>
<g>
</g>
<g>
</g>
<g>
</g>
<g>
</g>
<g>
</g>
</svg>
