<?xml version="1.0" encoding="utf-8"?>
<!-- Generator: Adobe Illustrator 22.0.1, SVG Export Plug-In . SVG Version: 6.00 Build 0)  -->
<svg version="1.1" id="Layer_1" xmlns="http://www.w3.org/2000/svg" xmlns:xlink="http://www.w3.org/1999/xlink" x="0px" y="0px"
	 viewBox="0 0 100 100" style="enable-background:new 0 0 100 100;" xml:space="preserve">
<style type="text/css">
	.st1{fill:#6B6B6B;}
</style>
<polyline points="53.9,23.6 54,23.9 53.9,23.6 "/>
<path class="st0" d="M35.5,64.5"/>
<path class="st0" d="M69.8,51"/>
<path class="st0" d="M39.5,63.5"/>
<path class="st0" d="M34.5,61.5"/>
<path class="st0" d="M43.5,61.5"/>
<g>
	<g>
		<path class="st1" d="M73.9,78.4H25V29.5h48.9V78.4z M71.9,31.5H27v45h45V31.5z"/>
		<rect x="34.8" y="47.1" class="st1" width="2" height="17.6"/>
		<rect x="62.1" y="47.1" class="st1" width="2" height="17.6"/>
		<rect x="48.5" y="30.5" class="st1" width="2" height="46.9"/>
		<rect x="26.4" y="79.3" transform="matrix(0.5547 -0.8321 0.8321 0.5547 -53.5258 60.636)" class="st1" width="7" height="2"/>
		<rect x="68" y="76.8" transform="matrix(0.8321 -0.5547 0.5547 0.8321 -32.9709 51.7546)" class="st1" width="2" height="7"/>
		<path class="st1" d="M44.5,13.9 M44.5,17.8"/>
		<path class="st1" d="M54.3,13.9 M54.3,17.8"/>
	</g>
	<path class="st1" d="M52.4,19.7h-5.9V8h5.9V19.7z M48.5,17.8h2V10h-2V17.8z"/>
	<rect x="47.5" y="11.9" class="st1" width="3.9" height="2"/>
	<path class="st1" d="M56.3,19.7h-5.9v-5.9h5.9V19.7z M52.4,17.8h2v-2h-2V17.8z"/>
	<path class="st1" d="M48.5,19.7h-5.9v-5.9h5.9V19.7z M44.5,17.8h2v-2h-2V17.8z"/>
	<polygon class="st1" points="73.9,29.5 71.9,29.5 71.9,19.7 27,19.7 27,29.5 25,29.5 25,17.8 73.9,17.8 	"/>
</g>
</svg>
