<?xml version="1.0" encoding="utf-8"?>
<!-- Generator: Adobe Illustrator 22.0.1, SVG Export Plug-In . SVG Version: 6.00 Build 0)  -->
<svg version="1.1" id="Layer_1" xmlns="http://www.w3.org/2000/svg" xmlns:xlink="http://www.w3.org/1999/xlink" x="0px" y="0px"
	 viewBox="0 0 100 100" style="enable-background:new 0 0 100 100;" xml:space="preserve">
<style type="text/css">
	.st0{fill:#6B6B6B;}
</style>
<g>
	<path class="st0" d="M48.2,33c-10.4,0-19.3-6.2-22.7-8.9c-0.6-0.4-0.8-1.2-0.5-1.8c0.2-0.7,0.9-1.1,1.6-1.1h43.3
		c0.7,0,1.3,0.4,1.6,1.1c0.2,0.7,0,1.4-0.5,1.8C67.5,26.8,58.6,33,48.2,33z M27,23c3.5,2.7,11.7,8.2,21.2,8.2
		c9.5,0,17.7-5.5,21.2-8.2H27z"/>
	<path class="st0" d="M68,77.7H27.8c-1.5,0-2.7-1.2-2.7-2.7V34.8c0-1.5,1.2-2.7,2.7-2.7H68c1.5,0,2.7,1.2,2.7,2.7V75
		C70.7,76.5,69.5,77.7,68,77.7z M27.8,33.9c-0.5,0-0.9,0.4-0.9,0.9V75c0,0.5,0.4,0.9,0.9,0.9H68c0.5,0,0.9-0.4,0.9-0.9V34.8
		c0-0.5-0.4-0.9-0.9-0.9H27.8z"/>
	<rect x="34.2" y="48.5" class="st0" width="1.8" height="16.4"/>
	<rect x="59.8" y="48.5" class="st0" width="1.8" height="16.4"/>
	<rect x="47" y="33" class="st0" width="1.8" height="43.8"/>
	
		<rect x="26.4" y="78.6" transform="matrix(0.5547 -0.8321 0.8321 0.5547 -52.9688 60.0934)" class="st0" width="6.6" height="1.8"/>
	
		<rect x="65.3" y="76.2" transform="matrix(0.8321 -0.5547 0.5547 0.8321 -33.0051 50.0582)" class="st0" width="1.8" height="6.6"/>
	<path class="st0" d="M47.9,23c-1.5,0-2.7-1.2-2.7-2.7v-5.5c0-1.5,1.2-2.7,2.7-2.7s2.7,1.2,2.7,2.7v5.5C50.6,21.7,49.4,23,47.9,23z
		 M47.9,13.8c-0.5,0-0.9,0.4-0.9,0.9v5.5c0,0.5,0.4,0.9,0.9,0.9c0.5,0,0.9-0.4,0.9-0.9v-5.5C48.8,14.2,48.4,13.8,47.9,13.8z"/>
	<path class="st0" d="M43.3,21.1c-1,0-1.8-0.8-1.8-1.8c0-1,0.8-1.8,1.8-1.8c1,0,1.8,0.8,1.8,1.8C45.2,20.3,44.4,21.1,43.3,21.1z
		 M43.3,19.3C43.3,19.3,43.3,19.3,43.3,19.3l0.9,0L43.3,19.3z"/>
	<path class="st0" d="M52.5,21.1c-1,0-1.8-0.8-1.8-1.8c0-1,0.8-1.8,1.8-1.8s1.8,0.8,1.8,1.8C54.3,20.3,53.5,21.1,52.5,21.1z
		 M52.5,19.3C52.5,19.3,52.5,19.3,52.5,19.3l0.9,0L52.5,19.3z"/>
</g>
</svg>
