<?xml version="1.0" encoding="UTF-8" standalone="no"?>
<svg
   xmlns:dc="http://purl.org/dc/elements/1.1/"
   xmlns:cc="http://creativecommons.org/ns#"
   xmlns:rdf="http://www.w3.org/1999/02/22-rdf-syntax-ns#"
   xmlns:svg="http://www.w3.org/2000/svg"
   xmlns="http://www.w3.org/2000/svg"
   viewBox="0 0 330.375 93.1875"
   height="93.1875"
   width="330.375"
   xml:space="preserve"
   version="1.1"
   id="svg2"><metadata
     id="metadata8"><rdf:RDF><cc:Work
         rdf:about=""><dc:format>image/svg+xml</dc:format><dc:type
           rdf:resource="http://purl.org/dc/dcmitype/StillImage" /></cc:Work></rdf:RDF></metadata><defs
     id="defs6"><clipPath
       id="clipPath24"
       clipPathUnits="userSpaceOnUse"><path
         id="path26"
         d="M 0,0 0,745 2643,745 2643,0 0,0 Z" /></clipPath><clipPath
       id="clipPath30"
       clipPathUnits="userSpaceOnUse"><path
         id="path32"
         d="m 2388.89,745.469 -525.22,0 c 31.88,-173.473 183.69,-304.965 366.38,-304.965 l 407.87,0 c 3.34,16.426 5.11,33.418 5.11,50.824 0,140.36 -113.78,254.141 -254.14,254.141" /></clipPath></defs><g
     transform="matrix(1.25,0,0,-1.25,0,93.1875)"
     id="g10"><g
       transform="scale(0.1,0.1)"
       id="g12"><path
         id="path14"
         style="fill:#fff;fill-opacity:1;fill-rule:nonzero;stroke:none"
         d="m 1471.54,666.727 -166.97,-361.766 -16.94,0 0,440.508 -237.2,0 0,-745.469 201.3,0 c 52.87,0 100.91,30.7383 123.07,78.7422 l 166.97,361.7618 16.94,0 0,-440.504 237.19,0 0,745.469 -201.3,0 c -52.86,0 -100.91,-30.742 -123.06,-78.742" /><path
         id="path16"
         style="fill:#fff;fill-opacity:1;fill-rule:nonzero;stroke:none"
         d="m 581.668,647.496 -98.809,-342.531 -16.941,0 -98.805,342.531 c -16.738,58.02 -69.843,97.973 -130.23,97.973 L 0,745.469 0,0 l 237.195,0 0,440.504 16.942,0 L 389.676,0 l 169.426,0 135.539,440.504 16.945,0 0,-440.504 237.191,0 0,745.469 -236.879,0 c -60.39,0 -113.496,-39.953 -130.23,-97.973" /><path
         id="path18"
         style="fill:#fff;fill-opacity:1;fill-rule:nonzero;stroke:none"
         d="m 1897.56,406.621 0,-406.621 236.73,0 0,237.195 254.6,0 c 110.61,0 204.44,70.785 239.36,169.426 l -730.69,0" /><g
         id="g20"><g
           clip-path="url(#clipPath24)"
           id="g22"><g
             clip-path="url(#clipPath30)"
             id="g28"><path
                style="fill:#fff"
               id="path34"
               d="m 2219,440 0,1 -23,0 0,1 -8,0 0,1 -7,0 0,1 -7,0 0,1 -8,0 0,1 -6,0 0,1 -4,0 0,1 -4,0 0,1 -5,0 0,1 -4,0 0,1 -5,0 0,1 -4,0 0,1 -4,0 0,1 -3,0 0,1 -3,0 0,1 -3,0 0,1 -3,0 0,1 -4,0 0,1 -3,0 0,1 -3,0 0,1 -3,0 0,1 -3,0 0,1 -3,0 0,1 -2,0 0,1 -3,0 0,1 -2,0 0,1 -2,0 0,1 -3,0 0,1 -2,0 0,1 -2,0 0,1 -3,0 0,1 -2,0 0,1 -3,0 0,1 -2,0 0,1 -2,0 0,1 -2,0 0,1 -2,0 0,1 -2,0 0,1 -2,0 0,1 -2,0 0,1 -2,0 0,1 -2,0 0,1 -2,0 0,1 -1,0 0,1 -2,0 0,1 -2,0 0,1 -2,0 0,1 -2,0 0,1 -2,0 0,1 -2,0 0,1 -1,0 0,1 -2,0 0,1 -2,0 0,1 -1,0 0,1 -2,0 0,1 -1,0 0,1 -2,0 0,1 -1,0 0,1 -2,0 0,1 -1,0 0,1 -2,0 0,1 -1,0 0,1 -2,0 0,1 -2,0 0,1 -1,0 0,1 -2,0 0,1 -1,0 0,1 -2,0 0,1 -1,0 0,1 -1,0 0,1 -2,0 0,1 -1,0 0,1 -1,0 0,1 -1,0 0,1 -2,0 0,1 -1,0 0,1 -1,0 0,1 -2,0 0,1 -1,0 0,1 -1,0 0,1 -1,0 0,1 -2,0 0,1 -1,0 0,1 -1,0 0,1 -2,0 0,1 -1,0 0,1 -1,0 0,1 -1,0 0,1 -1,0 0,1 -2,0 0,1 -1,0 0,1 -1,0 0,1 -1,0 0,1 -1,0 0,1 -1,0 0,1 -1,0 0,1 -1,0 0,1 -1,0 0,1 -1,0 0,1 -1,0 0,1 -2,0 0,1 -1,0 0,1 -1,0 0,1 -1,0 0,1 -1,0 0,1 -1,0 0,1 -1,0 0,1 -1,0 0,1 -1,0 0,1 -1,0 0,1 -1,0 0,1 -1,0 0,1 -1,0 0,1 -1,0 0,1 -1,0 0,1 -1,0 0,2 -1,0 0,1 -1,0 0,1 -1,0 0,1 -1,0 0,1 -1,0 0,1 -1,0 0,1 -1,0 0,1 -1,0 0,1 -1,0 0,1 -1,0 0,1 -1,0 0,1 -1,0 0,2 -1,0 0,1 -1,0 0,1 -1,0 0,1 -1,0 0,1 -1,0 0,2 -1,0 0,1 -1,0 0,1 -1,0 0,2 -1,0 0,1 -1,0 0,1 -1,0 0,1 -1,0 0,2 -1,0 0,1 -1,0 0,1 -1,0 0,2 -1,0 0,1 -1,0 0,1 -1,0 0,1 -1,0 0,2 -1,0 0,1 -1,0 0,1 -1,0 0,2 -1,0 0,1 -1,0 0,2 -1,0 0,2 -1,0 0,1 -1,0 0,2 -1,0 0,1 -1,0 0,2 -1,0 0,1 -1,0 0,2 -1,0 0,1 -1,0 0,2 -1,0 0,1 -1,0 0,2 -1,0 0,2 -1,0 0,1 -1,0 0,2 -1,0 0,1 -1,0 0,2 -1,0 0,2 -1,0 0,2 -1,0 0,2 -1,0 0,2 -1,0 0,2 -1,0 0,2 -1,0 0,1 -1,0 0,2 -1,0 0,2 -1,0 0,2 -1,0 0,2 -1,0 0,2 -1,0 0,2 -1,0 0,2 -1,0 0,2 -1,0 0,3 -1,0 0,2 -1,0 0,2 -1,0 0,3 -1,0 0,2 -1,0 0,2 -1,0 0,3 -1,0 0,2 -1,0 0,3 -1,0 0,2 -1,0 0,2 -1,0 0,3 -1,0 0,3 -1,0 0,4 -1,0 0,3 -1,0 0,3 -1,0 0,3 -1,0 0,3 -1,0 0,3 -1,0 0,3 -1,0 0,3 -1,0 0,4 -1,0 0,5 -1,0 0,4 -1,0 0,5 -1,0 0,4 -1,0 0,4 -1,0 0,5 -1,0 0,1 553,0 0,-1 7,0 0,-1 6,0 0,-1 7,0 0,-1 6,0 0,-1 4,0 0,-1 4,0 0,-1 3,0 0,-1 4,0 0,-1 4,0 0,-1 4,0 0,-1 3,0 0,-1 3,0 0,-1 2,0 0,-1 3,0 0,-1 3,0 0,-1 2,0 0,-1 3,0 0,-1 3,0 0,-1 2,0 0,-1 2,0 0,-1 2,0 0,-1 3,0 0,-1 2,0 0,-1 2,0 0,-1 2,0 0,-1 2,0 0,-1 2,0 0,-1 2,0 0,-1 2,0 0,-1 2,0 0,-1 1,0 0,-1 2,0 0,-1 2,0 0,-1 1,0 0,-1 2,0 0,-1 2,0 0,-1 1,0 0,-1 2,0 0,-1 2,0 0,-1 1,0 0,-1 2,0 0,-1 2,0 0,-1 1,0 0,-1 1,0 0,-1 2,0 0,-1 1,0 0,-1 1,0 0,-1 2,0 0,-1 1,0 0,-1 1,0 0,-1 2,0 0,-1 1,0 0,-1 1,0 0,-1 2,0 0,-1 1,0 0,-1 1,0 0,-1 2,0 0,-1 1,0 0,-1 1,0 0,-1 1,0 0,-1 1,0 0,-1 1,0 0,-1 1,0 0,-1 1,0 0,-1 1,0 0,-1 1,0 0,-1 2,0 0,-1 1,0 0,-1 1,0 0,-1 1,0 0,-1 1,0 0,-1 1,0 0,-1 1,0 0,-1 1,0 0,-1 1,0 0,-1 1,0 0,-1 1,0 0,-1 1,0 0,-1 1,0 0,-2 1,0 0,-1 1,0 0,-1 1,0 0,-1 1,0 0,-1 1,0 0,-1 1,0 0,-1 1,0 0,-1 1,0 0,-1 1,0 0,-1 1,0 0,-2 1,0 0,-1 1,0 0,-1 1,0 0,-2 1,0 0,-1 1,0 0,-1 1,0 0,-2 1,0 0,-1 1,0 0,-1 1,0 0,-2 1,0 0,-1 1,0 0,-1 1,0 0,-2 1,0 0,-1 1,0 0,-1 1,0 0,-2 1,0 0,-1 1,0 0,-2 1,0 0,-2 1,0 0,-1 1,0 0,-2 1,0 0,-2 1,0 0,-1 1,0 0,-2 1,0 0,-2 1,0 0,-1 1,0 0,-2 1,0 0,-1 1,0 0,-2 1,0 0,-2 1,0 0,-3 1,0 0,-2 1,0 0,-2 1,0 0,-2 1,0 0,-2 1,0 0,-2 1,0 0,-2 1,0 0,-2 1,0 0,-2 1,0 0,-3 1,0 0,-3 1,0 0,-2 1,0 0,-3 1,0 0,-3 1,0 0,-2 1,0 0,-3 1,0 0,-3 1,0 0,-3 1,0 0,-4 1,0 0,-4 1,0 0,-4 1,0 0,-4 1,0 0,-4 1,0 0,-4 1,0 0,-6 1,0 0,-7 1,0 0,-7 1,0 0,-10 1,0 0,-41 -1,0 0,-11 -1,0 0,-6 -1,0 0,-7 -1,0 0,-6 -1,0 0,-1" /></g></g></g></g></g></svg>