<?xml version="1.0" encoding="iso-8859-1"?>
<!-- Generator: Adobe Illustrator 19.0.0, SVG Export Plug-In . SVG Version: 6.00 Build 0)  -->
<svg version="1.1" id="Capa_1" xmlns="http://www.w3.org/2000/svg" xmlns:xlink="http://www.w3.org/1999/xlink" x="0px" y="0px"
	 viewBox="0 0 490 490" style="enable-background:new 0 0 490 490;" xml:space="preserve">
<g>
	<path d="M464.041,182.339c-12.797-12.802-19.843-29.82-19.843-47.923c0-48.859-39.758-88.612-88.622-88.612
		c-18.097,0-35.115-7.05-47.918-19.848C290.925,9.219,268.67,0,244.997,0c-23.666,0-45.921,9.219-62.659,25.957
		c-12.797,12.798-29.816,19.848-47.918,19.848c-48.864,0-88.617,39.752-88.617,88.617c0,18.103-7.051,35.116-19.848,47.918
		C9.217,199.078-0.003,221.329,0.003,245c0,23.671,9.219,45.927,25.957,62.66c12.797,12.803,19.843,29.821,19.843,47.917
		c0,48.865,39.753,88.617,88.617,88.617c18.102,0,35.12,7.051,47.923,19.848C199.076,480.781,221.331,490,245.003,490
		c23.667,0,45.922-9.219,62.661-25.958c12.803-12.797,29.816-19.848,47.918-19.848c48.864,0,88.617-39.752,88.617-88.617
		c0-18.102,7.05-35.114,19.848-47.917c16.738-16.737,25.956-38.989,25.951-62.66C489.997,221.329,480.779,199.072,464.041,182.339z
		 M449.303,292.918c-16.737,16.737-25.956,38.988-25.956,62.659c0,37.365-30.401,67.766-67.766,67.766
		c-23.671,0-45.922,9.219-62.661,25.958c-12.803,12.797-29.82,19.848-47.918,19.848c-18.102,0-35.119-7.051-47.922-19.848
		c-16.733-16.738-38.984-25.958-62.661-25.958c-37.365,0-67.766-30.401-67.766-67.766c0-23.671-9.219-45.922-25.956-62.659
		c-26.42-26.42-26.42-69.416,0-95.836c16.737-16.738,25.956-38.989,25.956-62.661c0-37.365,30.401-67.766,67.766-67.766
		c23.676,0,45.928-9.218,62.661-25.957c12.803-12.798,29.82-19.848,47.917-19.848c18.103,0,35.12,7.05,47.918,19.848
		c16.743,16.738,39,25.957,62.666,25.957c37.365,0,67.766,30.401,67.766,67.766c0,23.671,9.219,45.922,25.956,62.661
		c12.798,12.797,19.843,29.815,19.843,47.918C469.146,263.102,462.102,280.12,449.303,292.918z"/>
	<path d="M245.003,58.012c-49.949,0-96.904,19.452-132.223,54.77c-72.907,72.903-72.907,191.534,0,264.437
		c35.319,35.318,82.274,54.77,132.223,54.77c49.945,0,96.9-19.451,132.219-54.77c72.907-72.903,72.907-191.534,0-264.437
		C341.903,77.464,294.947,58.012,245.003,58.012z M362.479,362.475c-31.379,31.379-73.101,48.662-117.476,48.662
		c-44.379,0-86.102-17.283-117.48-48.662c-64.773-64.777-64.773-170.172,0-234.951c31.378-31.378,73.101-48.661,117.48-48.661
		c44.375,0,86.097,17.283,117.476,48.661C427.251,192.302,427.251,297.698,362.479,362.475z"/>
	<polygon points="161.314,266.024 196.316,301.027 134.639,292.704 123.277,304.056 177.644,358.423 189.781,346.292 
		155.714,312.226 215.681,320.391 227.817,308.26 173.45,253.893 	"/>
	<polygon points="242.58,272.016 231.31,260.739 255.652,236.392 245.308,226.047 220.966,250.396 209.766,239.196 236.837,212.129 
		226.025,201.317 186.828,240.515 241.195,294.882 281.248,254.825 270.517,244.089 	"/>
	<polygon points="297.354,129.982 317.808,172.072 276.971,150.365 264.286,163.046 285.911,203.964 243.913,183.424 
		230.77,196.563 304.115,231.953 313.135,222.932 287.163,173.314 336.858,199.21 345.878,190.19 310.488,116.844 	"/>
</g>
<g>
</g>
<g>
</g>
<g>
</g>
<g>
</g>
<g>
</g>
<g>
</g>
<g>
</g>
<g>
</g>
<g>
</g>
<g>
</g>
<g>
</g>
<g>
</g>
<g>
</g>
<g>
</g>
<g>
</g>
</svg>
