<?xml version="1.0" encoding="iso-8859-1"?>
<!-- Generator: Adobe Illustrator 16.0.0, SVG Export Plug-In . SVG Version: 6.00 Build 0)  -->
<!DOCTYPE svg PUBLIC "-//W3C//DTD SVG 1.1//EN" "http://www.w3.org/Graphics/SVG/1.1/DTD/svg11.dtd">
<svg version="1.1" id="Capa_1" xmlns="http://www.w3.org/2000/svg" xmlns:xlink="http://www.w3.org/1999/xlink" x="0px" y="0px"
	 width="991px" height="991px" viewBox="0 0 991 991" style="enable-background:new 0 0 991 991;" xml:space="preserve">
<g>
	<g>
		<path d="M896.374,204.184l-182.175-9.77L648.658,24.086L495.5,123.388L342.342,24.086l-65.541,170.328l-182.175,9.77
			l46.905,176.293L0,495.5l141.53,115.023L94.626,786.816l182.175,9.77l65.541,170.328L495.5,867.612l153.158,99.302l65.541-170.328
			l182.175-9.77l-46.905-176.293L991,495.5L849.47,380.477L896.374,204.184z M883.182,495.5l-110.736,89.996l36.689,137.9
			l-142.576,7.646l-51.255,133.203L495.5,786.569l-119.803,77.677l-51.256-133.203l-142.577-7.646l36.69-137.897L107.818,495.5
			l110.737-89.996l-36.69-137.9l142.576-7.646l51.255-133.203L495.5,204.431l119.803-77.677l51.256,133.203l142.576,7.646
			l-36.689,137.898L883.182,495.5z"/>
		<polygon points="424.521,586.665 524.7,586.665 524.7,536.665 474.521,536.665 474.521,519.496 524.7,519.496 524.7,469.496 
			474.521,469.496 474.521,452.326 524.7,452.326 524.7,401.326 424.521,401.326 		"/>
		<polygon points="357.788,484.475 297.456,401.104 260.573,401.104 260.573,586.665 260.573,587.896 310.573,587.896 
			310.573,586.665 310.573,504.517 370.02,586.665 407.788,586.665 407.788,401.104 357.788,401.104 		"/>
		<polygon points="724.129,400.996 724.062,401.104 677.944,475.073 677.944,401.104 639.556,401.104 591.104,476.899 
			591.104,401.104 541.104,401.104 541.104,586.665 580.28,586.665 627.944,512.101 627.944,586.665 667.292,586.665 
			766.558,427.449 724.302,401.104 		"/>
	</g>
</g>
<g>
</g>
<g>
</g>
<g>
</g>
<g>
</g>
<g>
</g>
<g>
</g>
<g>
</g>
<g>
</g>
<g>
</g>
<g>
</g>
<g>
</g>
<g>
</g>
<g>
</g>
<g>
</g>
<g>
</g>
</svg>
