<?xml version="1.0" encoding="utf-8"?>
<!-- Generator: Adobe Illustrator 22.0.1, SVG Export Plug-In . SVG Version: 6.00 Build 0)  -->
<svg version="1.1" id="Layer_1" xmlns="http://www.w3.org/2000/svg" xmlns:xlink="http://www.w3.org/1999/xlink" x="0px" y="0px"
	 viewBox="0 0 100 100" style="enable-background:new 0 0 100 100;" xml:space="preserve">
<style type="text/css">
	.st0{fill:none;stroke:#000000;stroke-miterlimit:10;}
	.st1{fill:#6B6B6B;}
</style>
<polyline points="53.9,23.6 54,23.9 53.9,23.6 "/>
<path class="st0" d="M35.5,64.5"/>
<path class="st0" d="M69.8,51"/>
<path class="st0" d="M39.5,63.5"/>
<path class="st0" d="M34.5,61.5"/>
<path class="st0" d="M43.5,61.5"/>
<g>
	<rect x="36.7" y="16.6" transform="matrix(0.7071 -0.7071 0.7071 0.7071 -6.6261 33.971)" class="st1" width="2" height="16.7"/>
	<rect x="33.8" y="25.7" transform="matrix(0.7071 -0.7071 0.7071 0.7071 -10.9691 33.3247)" class="st1" width="2" height="8.3"/>
	<path class="st1" d="M46.5,53.5h-7.9v-7.9h7.9V53.5z M40.6,51.5h3.9v-3.9h-3.9V51.5z"/>
	<path class="st1" d="M60.3,53.5h-7.9v-7.9h7.9V53.5z M54.4,51.5h3.9v-3.9h-3.9V51.5z"/>
	<g>
		<path class="st1" d="M76.1,79.1H22.9V10.2h53.1V79.1z M24.9,76.7h49.2V12.6H24.9V76.7z"/>
		<rect x="48.5" y="11.2" class="st1" width="2" height="65.9"/>
		<path class="st1" d="M80,85H19v-7.9h61V85z M21,83H78v-3.9H21V83z"/>
	</g>
</g>
</svg>
