<?xml version="1.0" encoding="iso-8859-1"?>
<!-- Generator: Adobe Illustrator 17.1.0, SVG Export Plug-In . SVG Version: 6.00 Build 0)  -->
<!DOCTYPE svg PUBLIC "-//W3C//DTD SVG 1.1//EN" "http://www.w3.org/Graphics/SVG/1.1/DTD/svg11.dtd">
<svg version="1.1" id="Capa_1" xmlns="http://www.w3.org/2000/svg" xmlns:xlink="http://www.w3.org/1999/xlink" x="0px" y="0px"
	 viewBox="0 0 376.4 376.4" style="enable-background:new 0 0 376.4 376.4;" xml:space="preserve">
<path id="XMLID_485_" d="M366.259,358.398h-12.221V247.38h12.221c3.271,0,6.286-1.775,7.872-4.637
	c1.586-2.862,1.494-6.359-0.24-9.134l-40.321-64.51c-1.645-2.631-4.529-4.229-7.632-4.229H205.526c-3.103,0-5.987,1.599-7.632,4.229
	l-40.321,64.51c-1.734,2.774-1.826,6.271-0.24,9.134c1.586,2.861,4.601,4.637,7.872,4.637h12.22v111.019h-12.22
	c-4.971,0-9,4.029-9,9s4.029,9,9,9h21.028c0.127,0.002,0.256,0.002,0.383,0h51.216c0.127,0.002,0.256,0.002,0.383,0h55.034
	c0.127,0.002,0.256,0.002,0.383,0h51.215c0.063,0.001,0.128,0.002,0.191,0.002s0.128-0.001,0.191-0.002h21.029c4.971,0,9-4.029,9-9
	S371.229,358.398,366.259,358.398z M284.44,358.398h-37.417v-62.393h37.417V358.398z M336.038,358.398H302.44v-71.393
	c0-4.971-4.029-9-9-9h-55.417c-4.971,0-9,4.029-9,9v71.393h-33.599V247.38h140.613V358.398z M181.443,229.38l29.071-46.51h110.435
	l29.071,46.51H181.443z M138.608,367.4c0,4.971-4.029,9-9,9c-24.037,0-32.025-16.755-38.444-30.217
	c-0.872-1.831-17.438-34.538-17.438-34.538C38.608,242.629,1.142,165.864,1.142,128.468C1.142,57.631,58.771,0,129.608,0
	c70.836,0,128.466,57.631,128.466,128.468c0,2.429-0.158,5.083-0.469,7.89c-0.548,4.94-4.991,8.493-9.937,7.954
	c-4.94-0.548-8.502-4.996-7.954-9.937c0.238-2.151,0.359-4.139,0.359-5.907C240.074,67.556,190.519,18,129.608,18
	S19.142,67.556,19.142,128.468c0,36.212,47.703,129.962,70.628,175.017c0,0,16.728,33.032,17.643,34.952
	c6.601,13.844,10.031,19.964,22.196,19.964C134.579,358.4,138.608,362.43,138.608,367.4z M83.206,128.468
	c0,25.587,20.816,46.403,46.402,46.403s46.402-20.816,46.402-46.403s-20.816-46.403-46.402-46.403S83.206,102.881,83.206,128.468z
	 M158.011,128.468c0,15.662-12.741,28.403-28.402,28.403s-28.402-12.741-28.402-28.403s12.741-28.403,28.402-28.403
	S158.011,112.806,158.011,128.468z"/>
<g>
</g>
<g>
</g>
<g>
</g>
<g>
</g>
<g>
</g>
<g>
</g>
<g>
</g>
<g>
</g>
<g>
</g>
<g>
</g>
<g>
</g>
<g>
</g>
<g>
</g>
<g>
</g>
<g>
</g>
</svg>
