<?xml version="1.0" encoding="utf-8"?>
<!-- Svg Vector Icons : http://www.onlinewebfonts.com/icon -->
<!DOCTYPE svg PUBLIC "-//W3C//DTD SVG 1.1//EN" "http://www.w3.org/Graphics/SVG/1.1/DTD/svg11.dtd">
<svg version="1.1" xmlns="http://www.w3.org/2000/svg" xmlns:xlink="http://www.w3.org/1999/xlink" x="0px" y="0px" viewBox="0 0 1000 1000" enable-background="new 0 0 1000 1000" xml:space="preserve">
<metadata> Svg Vector Icons : http://www.onlinewebfonts.com/icon </metadata>
<g><g transform="translate(0.000000,511.000000) scale(0.100000,-0.100000)"><path d="M4649.5,5003.4c-261.5-24.8-619.8-83.4-858.8-144.3C2395.5,4512,1178.4,3511.3,567.6,2210.7C272.3,1579.6,128.1,980.1,103.3,283.6C74-581.9,240.8-1341.5,628.5-2105.6c308.8-608.6,710-1111.2,1237.4-1553c1467.3-1230.6,3565.8-1480.8,5283.3-631.1c2443.3,1208.1,3444,4133.8,2242.7,6559C8909.5,3240.8,8174.7,3989.1,7219,4476c-473.3,241.2-991.7,405.7-1510.1,484.6C5472.2,4994.4,4841.1,5021.4,4649.5,5003.4z M6294.9,3249.8c351.6-74.4,626.6-218.6,883.6-459.8c696.5-655.9,818.2-1647.6,299.8-2427.5c-259.2-390-644.6-662.7-1104.4-782.1c-162.3-42.8-266-47.3-1063.9-56.3l-885.8-11.3v-279.5v-279.5h908.4h908.3l117.2-58.6c302-151,311-559,15.8-741.6l-108.2-67.6l-921.9-6.8l-919.6-6.8V-2322c0-441.8-13.5-498.1-142-610.8c-223.2-196.1-529.7-142-658.2,115c-54.1,105.9-56.4,133-56.4,500.4v385.4l-229.9,11.3c-243.4,11.3-302,29.3-408,128.5c-223.1,205.1-169,550,105.9,689.7c96.9,47.3,144.3,56.3,322.3,56.3h209.6v279.5v277.2L3349-476c-247.9,13.5-326.8,36.1-419.2,124C2832.8-261.9,2799-176.2,2799-41c0,175.8,76.6,302,232.2,378.7c101.4,49.6,146.5,58.6,326.8,58.6h209.6v1262.2c0,1088.7,4.5,1275.7,33.8,1347.9c47.3,110.5,117.2,182.6,225.4,232.2c83.4,38.3,169,42.8,1205.9,42.8C5895.9,3281.4,6182.2,3274.6,6294.9,3249.8z"/><path d="M4439.9,2411.3c-9-9-15.8-466.6-15.8-1016.5V396.3h820.4c759.6,0,831.7,4.5,967,45.1c266,83.4,516.2,322.3,626.6,601.8c74.4,184.8,74.4,545.4,0,732.5c-101.4,261.4-322.3,480.1-583.8,583.8c-124,51.8-155.5,51.8-962.4,60.8C4832.1,2424.9,4448.9,2420.3,4439.9,2411.3z"/></g></g>
</svg>