<?xml version="1.0" encoding="utf-8"?>
<!-- Generator: Adobe Illustrator 22.0.1, SVG Export Plug-In . SVG Version: 6.00 Build 0)  -->
<svg version="1.1" id="Layer_1" xmlns="http://www.w3.org/2000/svg" xmlns:xlink="http://www.w3.org/1999/xlink" x="0px" y="0px"
	 viewBox="0 0 100 100" style="enable-background:new 0 0 100 100;" xml:space="preserve">
<style type="text/css">
	.st0{fill:#6B6B6B;}
</style>
<g>
	<g>
		<rect x="23.9" y="13.9" class="st0" width="1.8" height="58.5"/>
		<rect x="71.8" y="13.9" class="st0" width="1.8" height="58.5"/>
		<rect x="49.8" y="13.9" class="st0" width="0.8" height="60.3"/>
		
			<rect x="32.8" y="28.9" transform="matrix(0.7071 -0.7071 0.7071 0.7071 -14.2711 33.8544)" class="st0" width="1.8" height="10.4"/>
		
			<rect x="36.5" y="27.9" transform="matrix(0.7071 -0.7071 0.7071 0.7071 -10.5822 35.3819)" class="st0" width="1.8" height="5.2"/>
		<path class="st0" d="M44.9,53.5h-0.1c-1.5,0-2.7-1.2-2.7-2.7c0-1.6,1.2-2.8,2.7-2.8c1.6,0,2.8,1.2,2.8,2.7
			C47.5,52.3,46.3,53.5,44.9,53.5z M44.9,49.8c-0.6,0-1,0.4-1,0.9c0,0.6,0.4,1,0.9,1h0.1c0.5,0,0.9-0.4,0.9-0.9
			C45.8,50.2,45.4,49.8,44.9,49.8z"/>
		<path class="st0" d="M55.9,53.5h-0.1c-1.5,0-2.7-1.2-2.7-2.7c0-1.6,1.2-2.8,2.7-2.8c1.6,0,2.8,1.2,2.8,2.7
			C58.6,52.3,57.4,53.5,55.9,53.5z M55.9,49.8c-0.6,0-1,0.4-1,0.9c0,0.6,0.4,1,0.9,1h0.1c0.5,0,0.9-0.4,0.9-0.9
			C56.8,50.2,56.4,49.8,55.9,49.8z"/>
	</g>
	<path class="st0" d="M75.3,83H22.2c-1.5,0-2.7-1.2-2.7-2.7v-3.5c0-1.4,3.1-4.4,4.5-4.4h49.4c1.5,0,4.5,3,4.5,4.4v3.5
		C78,81.8,76.8,83,75.3,83z M73.4,74.1l-49.4,0c-0.6,0.1-2.6,2-2.8,2.7l0,3.5c0,0.5,0.4,0.9,0.9,0.9h53.1c0.5,0,0.9-0.4,0.9-0.9
		v-3.5C76.1,76.2,74.1,74.2,73.4,74.1z"/>
</g>
<line class="st0" x1="24.8" y1="14.8" x2="72.7" y2="14.8"/>
</svg>
