<?xml version="1.0" encoding="utf-8"?>
<!-- Generator: Adobe Illustrator 22.0.1, SVG Export Plug-In . SVG Version: 6.00 Build 0)  -->
<svg version="1.1" id="Layer_1" xmlns="http://www.w3.org/2000/svg" xmlns:xlink="http://www.w3.org/1999/xlink" x="0px" y="0px"
	 viewBox="0 0 100 100" style="enable-background:new 0 0 100 100;" xml:space="preserve">
<style type="text/css">
	.st0{fill:#6B6B6B;}
</style>
<g>
	<g>
		<rect x="24.9" y="14" class="st0" width="1.8" height="58.4"/>
		<rect x="72.7" y="14" class="st0" width="1.8" height="58.4"/>
		<rect x="49.7" y="14" class="st0" width="1.8" height="60.2"/>
		
			<rect x="33.8" y="29" transform="matrix(0.7071 -0.7071 0.7071 0.7071 -14.0545 34.5698)" class="st0" width="1.8" height="10.4"/>
		<rect x="37.5" y="28" transform="matrix(0.7071 -0.7071 0.7071 0.7071 -10.3729 36.0943)" class="st0" width="1.8" height="5.2"/>
		<path class="st0" d="M45.8,53.5h-0.1c-1.5,0-2.7-1.2-2.7-2.7c0-1.6,1.2-2.8,2.7-2.8c1.6,0,2.8,1.2,2.8,2.7
			C48.5,52.4,47.3,53.5,45.8,53.5z M45.8,49.9c-0.6,0-1,0.4-1,0.9c0,0.6,0.4,1,0.9,1h0.1c0.5,0,0.9-0.4,0.9-0.9
			C46.7,50.3,46.3,49.9,45.8,49.9z"/>
		<path class="st0" d="M56.9,53.5h-0.1c-1.5,0-2.7-1.2-2.7-2.7c0-1.6,1.2-2.8,2.7-2.8c1.6,0,2.8,1.2,2.8,2.7
			C59.5,52.4,58.3,53.5,56.9,53.5z M56.9,49.9c-0.6,0-1,0.4-1,0.9c0,0.6,0.4,1,0.9,1h0.1c0.5,0,0.9-0.4,0.9-0.9
			C57.7,50.3,57.4,49.9,56.9,49.9z"/>
	</g>
	<path class="st0" d="M76.2,83h-53c-1.5,0-2.7-1.2-2.7-2.7v-3.5c0-1.4,3.1-4.4,4.5-4.4h49.3c1.5,0,4.5,3,4.5,4.4v3.5
		C78.9,81.8,77.7,83,76.2,83z M74.3,74.2l-49.3,0c-0.6,0.1-2.6,2-2.8,2.7l0,3.5c0,0.5,0.4,0.9,0.9,0.9h53c0.5,0,0.9-0.4,0.9-0.9
		v-3.5C77,76.2,75,74.3,74.3,74.2z"/>
	<rect x="25.8" y="14" class="st0" width="47.8" height="1.8"/>
</g>
</svg>
