<?xml version="1.0" encoding="utf-8"?>
<!-- Generator: Adobe Illustrator 22.0.1, SVG Export Plug-In . SVG Version: 6.00 Build 0)  -->
<svg version="1.1" id="Layer_1" xmlns="http://www.w3.org/2000/svg" xmlns:xlink="http://www.w3.org/1999/xlink" x="0px" y="0px"
	 viewBox="0 0 100 100" style="enable-background:new 0 0 100 100;" xml:space="preserve">
<style type="text/css">
	.st1{fill:#6B6B6B;}
</style>
<polyline points="53.9,23.6 54,23.9 53.9,23.6 "/>
<path class="st0" d="M35.5,64.5"/>
<path class="st0" d="M69.8,51"/>
<path class="st0" d="M39.5,63.5"/>
<path class="st0" d="M34.5,61.5"/>
<path class="st0" d="M43.5,61.5"/>
<g>
	<path class="st1" d="M46.6,51c-0.1,0-0.3,0-0.4,0c-1-0.1-2-0.6-2.6-1.4l-1.2-1.4c-3-3.8-4.4-8.6-3.9-13.4c0.5-4.9,2.9-9.2,6.7-12.3
		c8.6-6.9,21.2-5.5,28.1,3.1l0.1,0.1c0.7,0.8,0.9,1.8,0.8,2.9c-0.1,1-0.6,2-1.4,2.6L49,50.1C48.3,50.7,47.5,51,46.6,51z M57.6,19.6
		c-4,0-8.1,1.3-11.5,4c-3.5,2.8-5.6,6.8-6.1,11.2c-0.5,4.4,0.8,8.8,3.5,12.3l1.2,1.4c0.4,0.5,0.9,0.8,1.6,0.9
		c0.6,0.1,1.2-0.1,1.7-0.5l23.7-19c0.5-0.4,0.8-0.9,0.9-1.6c0.1-0.6-0.1-1.2-0.5-1.7L72,26.5C68.4,21.9,63,19.6,57.6,19.6z"/>
	<path class="st1" d="M20.7,79.4c-0.2-0.9-6-21.4,4.2-39c7.5-12.9,22.7-19.7,27.2-21.5l0.2-0.1l0.2,0.4l-0.1-0.4l1.1,0.5
		c0.2,0.7-0.5,1-0.7,1.1c-4.4,1.7-19.2,8.3-26.4,20.8C16.4,58.3,22,78.1,22.2,79L20.7,79.4z"/>
	<rect x="40" y="37" transform="matrix(0.7896 -0.6137 0.6137 0.7896 -10.9387 43.6188)" class="st1" width="36.3" height="1.6"/>
	
		<rect x="57.3" y="50.3" transform="matrix(0.7593 -0.6508 0.6508 0.7593 -23.5457 51.7178)" class="st1" width="1.6" height="14.7"/>
	<rect x="60.5" y="44.4" transform="matrix(0.7071 -0.7071 0.7071 0.7071 -16.6298 57.6861)" class="st1" width="1.6" height="9"/>
	<rect x="71.7" y="38" transform="matrix(0.7071 -0.7071 0.7071 0.7071 -8.8532 63.7085)" class="st1" width="1.6" height="9"/>
	
		<rect x="74.9" y="58.1" transform="matrix(0.7071 -0.7071 0.7071 0.7071 -23.6992 72.499)" class="st1" width="1.6" height="13.5"/>
	<rect x="78.1" y="35.8" transform="matrix(0.7071 -0.7071 0.7071 0.7071 -6.9857 68.217)" class="st1" width="1.6" height="13.5"/>
	
		<rect x="70.1" y="39.2" transform="matrix(0.7071 -0.7071 0.7071 0.7071 -14.9557 64.9157)" class="st1" width="1.6" height="22.5"/>
	<path class="st1" d="M27.8,80h-7.2v-1.6H27c-0.5-4.8-2.4-26.7,5-35c1.9-2.2,4.3-3.3,7.1-3.3v1.6c-2.4,0-4.3,0.9-5.9,2.7
		c-7.6,8.6-4.5,34.4-4.5,34.6l0.1,0.9H27.8z"/>
</g>
</svg>
