<?xml version="1.0" encoding="utf-8"?>
<!-- Generator: Adobe Illustrator 22.0.1, SVG Export Plug-In . SVG Version: 6.00 Build 0)  -->
<svg version="1.1" id="Layer_1" xmlns="http://www.w3.org/2000/svg" xmlns:xlink="http://www.w3.org/1999/xlink" x="0px" y="0px"
	 viewBox="0 0 100 100" style="enable-background:new 0 0 100 100;" xml:space="preserve">
<polyline points="53.9,23.6 54,23.9 53.9,23.6 "/>
<path class="st0" d="M35.5,64.5"/>
<path class="st0" d="M69.8,51"/>
<path class="st0" d="M39.5,63.5"/>
<path class="st0" d="M34.5,61.5"/>
<path class="st0" d="M43.5,61.5"/>
<g>
	<path class="st1" d="M25.9,85.3H17V9.6h30.9l4.8,10.8l-2,0.9l-4.2-9.5H25.9V85.3z M19.2,83.1h4.5V11.8h-4.5V83.1z"/>
	<path class="st1" d="M38.7,33.6l-2-6.4l27.7-8.5l2,6.4L38.7,33.6z M39.5,28.7l0.7,2.1l23.5-7.2L63,21.5L39.5,28.7z"/>
	<rect x="47.1" y="35.1" transform="matrix(0.9929 -0.1189 0.1189 0.9929 -5.953 6.1129)" class="st1" width="2.2" height="35.8"/>
	
		<rect x="53.8" y="32.4" transform="matrix(0.9648 -0.2631 0.2631 0.9648 -9.9383 16.0472)" class="st1" width="2.2" height="25.5"/>
	<rect x="60.5" y="29.9" transform="matrix(0.9191 -0.3939 0.3939 0.9191 -10.1558 27.3904)" class="st1" width="2.2" height="17"/>
	
		<rect x="73.9" y="25.3" transform="matrix(0.8222 -0.5692 0.5692 0.8222 -11.0761 50.3413)" class="st1" width="2.2" height="35.3"/>
</g>
</svg>
