<?xml version="1.0" encoding="iso-8859-1"?>
<!-- Generator: Adobe Illustrator 19.0.0, SVG Export Plug-In . SVG Version: 6.00 Build 0)  -->
<svg version="1.1" id="Capa_1" xmlns="http://www.w3.org/2000/svg" xmlns:xlink="http://www.w3.org/1999/xlink" x="0px" y="0px"
	 viewBox="0 0 512 512" style="enable-background:new 0 0 512 512;" xml:space="preserve">
<g>
	<g>
		<path d="M497,271h-75v-30h45c8.284,0,15-6.716,15-15s-6.716-15-15-15c-10.534,0-75.727,0-90,0c-24.813,0-45,20.187-45,45v15h-31
			V105c0-8.271,6.729-15,15-15s15,6.729,15,15v30c0,8.284,6.716,15,15,15h60c8.284,0,15-6.716,15-15v-30C421,47.103,373.897,0,316,0
			c-57.897,0-105,47.103-105,105v166h-31v-15c0-24.813-20.187-45-45-45c-11.007,0-80.336,0-90,0c-8.284,0-15,6.716-15,15
			s6.716,15,15,15h45v30H15c-8.284,0-15,6.716-15,15c0,91.533,74.019,166,165,166h46v45c0,8.284,6.716,15,15,15h60
			c8.284,0,15-6.716,15-15v-45h46c90.981,0,165-74.467,165-166C512,277.716,505.284,271,497,271z M362,256c0-8.271,6.729-15,15-15
			h15v30h-30V256z M241,105c0-41.355,33.645-75,75-75c41.355,0,75,33.645,75,75v15h-30v-15c0-24.813-20.187-45-45-45
			s-45,20.187-45,45v166h-30V105z M120,241h15c8.271,0,15,6.729,15,15v15h-30V241z M271,482h-30v-30h30V482z M347,422H165
			c-69.41,0-126.752-53.138-134.185-121.1h450.369C473.752,368.862,416.41,422,347,422z"/>
	</g>
</g>
<g>
</g>
<g>
</g>
<g>
</g>
<g>
</g>
<g>
</g>
<g>
</g>
<g>
</g>
<g>
</g>
<g>
</g>
<g>
</g>
<g>
</g>
<g>
</g>
<g>
</g>
<g>
</g>
<g>
</g>
</svg>
