<svg xmlns="http://www.w3.org/2000/svg" viewBox="0 0 512 512"><title>Ресурс 1</title><g id="Слой_2" data-name="Слой 2"><g id="Capa_1" data-name="Capa 1"><path d="M257,0C116.3,0,0,114.3,0,255S116.3,512,257,512,512,395.7,512,255,397.7,0,257,0Z" style="fill:#3d255b"/><path d="M512,255c0,140.7-114.3,257-255,257V0C397.7,0,512,114.3,512,255Z" style="fill:#4c2e71"/><path d="M257,60C149.6,60,60,147.6,60,255s89.6,197,197,197,195-89.6,195-197S364.4,60,257,60Z" style="fill:#4c2e71"/><path d="M452,255c0,107.4-87.6,197-195,197V60C364.4,60,452,147.6,452,255Z" style="fill:#3d255b"/><polygon points="195.97 351.69 225.43 340.93 240.94 383.58 211.48 394.34 209.73 389.46 197.79 356.75 195.97 351.69" style="fill:#fff"/><polygon points="207.48 383.39 236.94 372.64 240.94 383.58 211.48 394.34 211.04 393.09 207.98 384.65 207.48 383.39" style="fill:#fff"/><polygon points="195.97 351.69 225.43 340.93 229.43 351.94 199.97 362.69 199.47 361.44 196.41 353 195.97 351.69" style="fill:#fff"/><path d="M269.89,176.64l-83.12,30.27a22.33,22.33,0,0,0-11.51,29.27,22.33,22.33,0,0,0,27.77,15l.06,0L296.91,217c31.27-11.38,67.17,8.07,80.11,43.78s-2.44,72.86-33.71,84.55l-83.93,30.52-15.2-42.21,84-30.33A23.74,23.74,0,0,0,312,259.06l-93.81,34.15C187,304.59,151,285.14,138.12,249.43s2.06-73.11,33.33-84.62l83.12-30.21Z" style="fill:#fff"/><path d="M138.12,249.75c12.88,35.4,48.84,54.85,80.11,43.78L312,259.38a23.58,23.58,0,0,1,16.14,44l-81.3,29.71,7.32,20,81.3-29.71c16.76-6.25,32.4-38.09,25.45-57s-40-34.77-56.72-28.64l-94,33.46c-25,9.19-44.84.94-55.29-27.64s-1.69-50,23.58-59.23l83.12-30.33-7.07-19.33-83.12,30.21C140.19,176.32,125.24,214.35,138.12,249.75Z" style="fill:#fff"/><polygon points="302.54 117.66 273.02 128.42 288.6 171.01 318.05 160.25 316.3 155.37 304.36 122.66 302.54 117.66" style="fill:#fff"/><polygon points="314.05 149.31 284.59 160.06 288.6 171.01 318.05 160.25 317.61 159 314.55 150.62 314.05 149.31" style="fill:#fff"/><polygon points="302.54 117.66 273.02 128.42 277.02 139.36 306.48 128.6 306.04 127.35 302.98 118.91 302.54 117.66" style="fill:#fff"/><polygon points="275.9 118.54 260.76 124.1 281.46 180.76 296.6 175.26 294.22 168.76 278.34 125.29 275.9 118.54" style="fill:#fff"/><polygon points="291.72 161.88 276.59 167.38 281.46 180.76 296.6 175.26 296.04 173.76 292.28 163.5 291.72 161.88" style="fill:#fff"/><polygon points="278.46 125.67 263.39 131.17 266.33 139.3 281.46 133.8 281.15 132.86 278.84 126.6 278.46 125.67" style="fill:#fff"/><polygon points="263.77 118.41 247.38 124.42 271.21 189.08 287.66 183.08 284.9 175.63 266.58 126.04 263.77 118.41" style="fill:#fff"/><polygon points="281.09 170.57 261.51 177.7 266.33 190.83 285.9 183.7 285.34 182.2 281.71 172.13 281.09 170.57" style="fill:#fff"/><polygon points="267.08 119.79 253.57 124.67 256.7 133.23 270.21 128.29 269.83 127.29 267.46 120.79 267.08 119.79" style="fill:#fff"/><polygon points="216.86 335.3 232 329.8 252.7 386.52 237.56 392.03 235.19 385.52 219.36 341.99 216.86 335.3" style="fill:#fff"/><polygon points="232.68 378.64 247.82 373.08 252.7 386.52 237.56 392.03 237 390.46 233.25 380.21 232.68 378.64" style="fill:#fff"/><polygon points="219.49 342.37 234.62 336.87 237.56 345 222.43 350.56 222.11 349.62 219.86 343.37 219.49 342.37" style="fill:#fff"/><polygon points="227.56 326.86 247.13 319.73 270.77 384.46 251.19 391.59 248.44 384.21 230.37 334.49 227.56 326.86" style="fill:#fff"/><polygon points="246.38 378.45 265.95 371.26 270.77 384.46 251.19 391.59 250.63 390.09 246.94 379.96 246.38 378.45" style="fill:#fff"/><polygon points="230.43 334.74 250.01 327.61 254.82 340.74 235.25 347.87 234.69 346.37 231 336.3 230.43 334.74" style="fill:#fff"/></g></g></svg>