<?xml version="1.0" encoding="utf-8"?>
<!-- Generator: Adobe Illustrator 22.0.1, SVG Export Plug-In . SVG Version: 6.00 Build 0)  -->
<svg version="1.1" id="Layer_1" xmlns="http://www.w3.org/2000/svg" xmlns:xlink="http://www.w3.org/1999/xlink" x="0px" y="0px"
	 viewBox="0 0 100 100" style="enable-background:new 0 0 100 100;" xml:space="preserve">
<style type="text/css">
	.st0{fill:#6B6B6B;}
</style>
<g>
	<path class="st0" d="M62.9,20.7H33.1c-0.1,0-11.3-2.3-11.3-4.1v-2.2c0-1.1,1.1-2,2.6-2h49c1.5,0,2.6,0.8,2.6,2v2.2
		C76,18.6,63,20.7,62.9,20.7z M23.5,16.2c1.6,0.8,8.7,2.8,9.7,2.8h29.8c0.9,0,9.5-2.1,11.4-2.8v-1.7c0,0-0.4-0.2-0.9-0.2h-49
		c-0.6,0-0.9,0.2-0.9,0.3L23.5,16.2z M23.5,16.6L23.5,16.6C23.5,16.6,23.5,16.6,23.5,16.6z"/>
	<path class="st0" d="M73.4,82.7h-49c-1.4,0-2.6-1.3-2.6-2.8v-14l0.4-0.4c0.7-0.6,2.4-0.5,11.3,1.2c1.5,0.3,3,0.6,3.2,0.6h26.3
		c0.3,0,1.7-0.3,3.1-0.6c7.6-1.7,9-1.8,9.7-1.2l0.3,0.3l0.1,0.5v13.5C76,81.4,74.8,82.7,73.4,82.7z M23.5,66.9v12.9
		c0,0.6,0.4,1,0.9,1h49c0.5,0,0.9-0.5,0.9-1V66.9c-1.5,0-5.8,1-8,1.5c-2.2,0.5-3.1,0.7-3.4,0.7H36.6c-0.3,0-1.2-0.2-3.5-0.6
		C30.4,68,25.2,66.9,23.5,66.9z"/>
	<rect x="23.5" y="17.1" class="st0" width="1.7" height="49.9"/>
	<rect x="72.6" y="17.1" class="st0" width="1.7" height="49.9"/>
	<rect x="48.1" y="18.9" class="st0" width="1.7" height="49.9"/>
	<polygon class="st0" points="36,38 29,30.6 30.2,29.4 37.2,36.8 	"/>
	<polygon class="st0" points="37.8,32.5 34.3,28.8 35.5,27.5 39,31.2 	"/>
	<path class="st0" d="M43.7,53.1h-0.1c-1.4,0-2.5-1.2-2.5-2.7c0-1.6,1.1-2.8,2.5-2.8c1.5,0,2.7,1.2,2.7,2.7
		C46.2,51.9,45.1,53.1,43.7,53.1z M43.7,49.4c-0.6,0-1,0.4-1,0.9c0,0.6,0.4,1,0.8,1h0.1c0.5,0,0.8-0.4,0.8-0.9
		C44.5,49.8,44.2,49.4,43.7,49.4z"/>
	<path class="st0" d="M54.2,53.1h-0.1c-1.4,0-2.5-1.2-2.5-2.7c0-1.6,1.1-2.8,2.5-2.8c1.5,0,2.7,1.2,2.7,2.7
		C56.7,51.9,55.6,53.1,54.2,53.1z M54.2,49.4c-0.6,0-1,0.4-1,0.9c0,0.6,0.4,1,0.8,1h0.1c0.5,0,0.8-0.4,0.8-0.9
		C55.1,49.8,54.7,49.4,54.2,49.4z"/>
</g>
</svg>
