<?xml version="1.0" encoding="iso-8859-1"?>
<!-- Generator: Adobe Illustrator 19.0.0, SVG Export Plug-In . SVG Version: 6.00 Build 0)  -->
<svg version="1.1" id="Layer_1" xmlns="http://www.w3.org/2000/svg" xmlns:xlink="http://www.w3.org/1999/xlink" x="0px" y="0px"
	 viewBox="0 0 512 512" style="enable-background:new 0 0 512 512;" xml:space="preserve">
<circle style="fill:#32BEA6;" cx="256" cy="256" r="256"/>
<g>
	<path style="fill:#FFFFFF;" d="M159.856,403.52c5.64,3.472,13.872,6.36,22.544,6.36c12.856,0,20.376-6.792,20.376-16.616
		c0-9.112-5.2-14.312-18.352-19.376c-15.896-5.632-25.728-13.872-25.728-27.6c0-15.176,12.576-26.448,31.504-26.448
		c9.976,0,17.192,2.312,21.536,4.768l-3.472,10.264c-3.184-1.736-9.688-4.624-18.496-4.624c-13.296,0-18.36,7.944-18.36,14.592
		c0,9.112,5.92,13.584,19.368,18.792c16.48,6.36,24.856,14.304,24.856,28.616c0,15.032-11.136,28.04-34.112,28.04
		c-9.4,0-19.656-2.744-24.856-6.208L159.856,403.52z"/>
	<path style="fill:#FFFFFF;" d="M231.136,403.52c5.632,3.472,13.872,6.36,22.544,6.36c12.864,0,20.384-6.792,20.384-16.616
		c0-9.112-5.2-14.312-18.36-19.376c-15.896-5.632-25.728-13.872-25.728-27.6c0-15.176,12.568-26.448,31.504-26.448
		c9.968,0,17.2,2.312,21.528,4.768l-3.472,10.264c-3.168-1.736-9.68-4.624-18.496-4.624c-13.296,0-18.352,7.944-18.352,14.592
		c0,9.112,5.928,13.584,19.368,18.792c16.48,6.36,24.856,14.304,24.856,28.616c0,15.032-11.128,28.04-34.112,28.04
		c-9.392,0-19.656-2.744-24.856-6.208L231.136,403.52z"/>
	<path style="fill:#FFFFFF;" d="M304.144,321.432h12.576v86.864h41.624v10.544h-54.2L304.144,321.432L304.144,321.432z"/>
	<path style="fill:#FFFFFF;" d="M304.384,168.08h-15.68v-56.488c0.176-18.056-14.32-32.84-32.376-33.024s-32.84,14.32-33.024,32.376
		c0,0.216,0,0.424,0,0.64v56.488h-15.68v-56.488c-0.216-26.72,21.272-48.552,47.992-48.768s48.552,21.272,48.768,47.992
		c0,0.256,0,0.52,0,0.776V168.08z"/>
</g>
<g style="opacity:0.25;">
	<rect x="288.72" y="151.536" width="15.68" height="6.272"/>
</g>
<g style="opacity:0.25;">
	<rect x="207.624" y="151.536" width="15.68" height="6.272"/>
</g>
<rect x="193.12" y="157.808" width="125.768" height="79.864"/>
<rect x="185.84" y="237.672" width="140.248" height="26.136"/>
<g>
	<circle style="fill:#FFFFFF;" cx="256" cy="199.512" r="15.696"/>
	<rect x="249.28" y="207.952" style="fill:#FFFFFF;" width="13.384" height="28.672"/>
</g>
<g>
</g>
<g>
</g>
<g>
</g>
<g>
</g>
<g>
</g>
<g>
</g>
<g>
</g>
<g>
</g>
<g>
</g>
<g>
</g>
<g>
</g>
<g>
</g>
<g>
</g>
<g>
</g>
<g>
</g>
</svg>
