<svg xmlns="http://www.w3.org/2000/svg" viewBox="0 0 406.8 485"><title>Ресурс 3SSLSHIELD</title><g id="Слой_2" data-name="Слой 2"><g id="Layer_1" data-name="Layer 1"><path d="M406.8,88.2V223.7A269.55,269.55,0,0,1,203.3,485,269.5,269.5,0,0,1,0,223.7V88.2C94.1,77.6,147.4,41.8,203.4,0,259.4,41.8,312.7,77.6,406.8,88.2Z" style="fill:#4c2e71"/><path d="M203.4,431.5a217.84,217.84,0,0,1-152-207.8V131.9c63.3-13.8,109.8-39.3,152-68.4,43.1,29.9,88.7,54.9,152,68.5v91.8A217.81,217.81,0,0,1,203.4,431.5Z" style="fill:#3d255b"/><path d="M128.39,232.75,106,225.66Q93.93,221.8,88.78,214t-5.15-20.53q0-18.19,8.45-24t29.7-5.8q20.44,0,34.94,3.7l-1.29,14.33q-18.35-.64-33-.64-11.11,0-14.81,2.17t-3.7,10.55q0,6.92,2.66,9.74t9.74,5.07l21.41,6.6q12.72,4,17.79,11.83t5.07,20.53q0,18.35-8.69,24.71t-30.75,6.36a183.59,183.59,0,0,1-36.06-3.54l1.29-14.81q28.17.65,35.26.64,11.11,0,14.81-2.58t3.7-10.95q0-7.08-2.5-9.82T128.39,232.75Z" style="fill:#fff"/><path d="M220.15,232.75l-22.38-7.08Q185.7,221.8,180.55,214t-5.15-20.53q0-18.19,8.45-24t29.7-5.8q20.44,0,34.94,3.7l-1.29,14.33q-18.35-.64-33-.64-11.11,0-14.81,2.17t-3.7,10.55q0,6.92,2.66,9.74t9.74,5.07l21.41,6.6q12.72,4,17.79,11.83t5.07,20.53q0,18.35-8.69,24.71t-30.75,6.36a183.59,183.59,0,0,1-36.06-3.54l1.29-14.81q28.17.65,35.26.64,11.11,0,14.81-2.58t3.7-10.95q0-7.08-2.5-9.82T220.15,232.75Z" style="fill:#fff"/><path d="M291.64,165.61v85.17q0,5.15,2.09,7.16t7.41,2h38.64l.8,15.62Q324.8,277,296.47,277q-25,0-25-23V165.61Z" style="fill:#fff"/></g></g></svg>