<?xml version="1.0" encoding="utf-8"?>
<!-- Generator: Adobe Illustrator 22.0.1, SVG Export Plug-In . SVG Version: 6.00 Build 0)  -->
<svg version="1.1" id="Layer_1" xmlns="http://www.w3.org/2000/svg" xmlns:xlink="http://www.w3.org/1999/xlink" x="0px" y="0px"
	 viewBox="0 0 100 100" style="enable-background:new 0 0 100 100;" xml:space="preserve">
<polyline points="53.9,23.6 54,23.9 53.9,23.6 "/>
<path class="st0" d="M35.5,64.5"/>
<path class="st0" d="M69.8,51"/>
<path class="st0" d="M39.5,63.5"/>
<path class="st0" d="M34.5,61.5"/>
<path class="st0" d="M43.5,61.5"/>
<g>
	<g>
		<polygon class="st1" points="85.5,43.7 27.7,43.7 27.7,41.8 83.6,41.8 83.6,18.9 17.5,18.9 17.5,20.8 81.8,20.8 81.8,39.9 
			26.8,39.9 26.8,37.9 79.9,37.9 79.9,22.7 15.6,22.7 15.6,17 85.5,17 		"/>
	</g>
	<g>
		<polygon class="st1" points="85.5,83.7 15.6,83.7 15.6,78 79.9,78 79.9,62.7 22.1,62.7 22.1,37.9 26.8,37.9 26.8,39.9 24,39.9 
			24,60.8 81.8,60.8 81.8,79.9 17.5,79.9 17.5,81.8 83.6,81.8 83.6,58.9 25.9,58.9 25.9,41.8 27.7,41.8 27.7,57 85.5,57 		"/>
	</g>
	<polygon class="st1" points="24.1,26.5 12.8,26.5 12.8,13.2 24,13.2 24,17.5 22.1,17.5 22.1,15.1 14.7,15.1 14.7,24.6 22,24.6 
		22.1,20.8 24.1,20.8 	"/>
	<polygon class="st1" points="24,87.5 12.8,87.5 12.8,74.2 24,74.2 24,78.9 22.1,78.9 22.1,76.1 14.7,76.1 14.7,85.6 22.1,85.6 
		22.1,82.3 24,82.3 	"/>
	<g>
		<polygon class="st1" points="85.5,43.7 29.6,43.7 29.6,41.8 83.6,41.8 83.6,18.9 26.8,18.9 26.8,17 85.5,17 		"/>
		<polygon class="st1" points="81.8,39.9 26.8,39.9 26.8,37.9 79.9,37.9 79.9,22.7 26.8,22.7 26.8,20.8 81.8,20.8 		"/>
	</g>
</g>
</svg>
