<?xml version="1.0" encoding="utf-8"?>
<!-- Generator: Adobe Illustrator 22.0.1, SVG Export Plug-In . SVG Version: 6.00 Build 0)  -->
<svg version="1.1" id="Layer_1" xmlns="http://www.w3.org/2000/svg" xmlns:xlink="http://www.w3.org/1999/xlink" x="0px" y="0px"
	 viewBox="0 0 100 100" style="enable-background:new 0 0 100 100;" xml:space="preserve">
<g>
	<path d="M72.5,83.7H24.1V23.1h48.4V83.7z M25.9,81.9h45V24.9h-45V81.9z"/>
	<rect x="25" y="31.8" width="46.7" height="1.7"/>
	<rect x="25" y="45.6" width="46.7" height="1.7"/>
	<rect x="25" y="61.2" width="46.7" height="1.7"/>
	<rect x="25" y="69.8" width="46.7" height="1.7"/>
	<rect x="24.1" y="17.1" width="1.7" height="6.9"/>
	<rect x="70.8" y="17.1" width="1.7" height="6.9"/>
	<rect x="24.1" y="82.8" width="1.7" height="3.5"/>
	<rect x="70.8" y="82.8" width="1.7" height="3.5"/>
	<path d="M31,21.4h-6.9v-6.9H31V21.4z M25.9,19.7h3.5v-3.5h-3.5V19.7z"/>
	<path d="M72.5,21.4h-6.9v-6.9h6.9V21.4z M67.3,19.7h3.5v-3.5h-3.5V19.7z"/>
</g>
</svg>
