<?xml version="1.0" encoding="iso-8859-1"?>
<!-- Generator: Adobe Illustrator 19.0.0, SVG Export Plug-In . SVG Version: 6.00 Build 0)  -->
<svg version="1.1" id="Capa_1" xmlns="http://www.w3.org/2000/svg" xmlns:xlink="http://www.w3.org/1999/xlink" x="0px" y="0px"
	 viewBox="0 0 512 512" style="enable-background:new 0 0 512 512;" xml:space="preserve">
<g>
	<g>
		<path d="M383.392,395.712l-78.336-282.048l45.248-90.496c2.464-4.96,2.208-10.848-0.672-15.552C346.688,2.88,341.536,0,336,0
			L176,0.032c-5.568,0-10.688,2.88-13.632,7.584c-2.912,4.736-3.136,10.592-0.672,15.584l45.248,90.464l-78.336,282.048
			c-1.696,5.984,0.288,12.384,4.992,16.448l112,96c3.008,2.56,6.688,3.84,10.4,3.84c3.712,0,7.392-1.28,10.4-3.84l112-96
			C383.104,408.096,385.088,401.696,383.392,395.712z M201.888,32.032L310.08,32l-31.968,64h-44.224L201.888,32.032z M256,474.944
			l-93.888-80.48L236.16,128h39.68l74.016,266.464L256,474.944z"/>
	</g>
</g>
<g>
</g>
<g>
</g>
<g>
</g>
<g>
</g>
<g>
</g>
<g>
</g>
<g>
</g>
<g>
</g>
<g>
</g>
<g>
</g>
<g>
</g>
<g>
</g>
<g>
</g>
<g>
</g>
<g>
</g>
</svg>
