<?xml version="1.0" encoding="iso-8859-1"?>
<!-- Generator: Adobe Illustrator 19.0.0, SVG Export Plug-In . SVG Version: 6.00 Build 0)  -->
<svg version="1.1" id="Capa_1" xmlns="http://www.w3.org/2000/svg" xmlns:xlink="http://www.w3.org/1999/xlink" x="0px" y="0px"
	 viewBox="0 0 512 512" style="enable-background:new 0 0 512 512;" xml:space="preserve">
<g>
	<g>
		<path d="M406,212H241V90h15c8.284,0,15-6.716,15-15V45c0-24.813-20.187-45-45-45H76C51.187,0,31,20.187,31,45v30
			c0,8.284,6.716,15,15,15h15v167c0,19.555,12.541,36.228,30,42.42V347c0,34.462,23.364,63.57,55.083,72.316l-24.313,72.941
			c-1.524,4.574-0.758,9.603,2.062,13.514C126.65,509.682,131.179,512,136,512h180c4.821,0,9.35-2.318,12.169-6.229
			c2.819-3.911,3.586-8.94,2.062-13.514L306.812,422H316c69.369,0,126.676-52.595,134.162-120H466c8.284,0,15-6.716,15-15
			C481,245.645,447.355,212,406,212z M61,60V45c0-8.271,6.729-15,15-15h150c8.271,0,15,6.729,15,15v15C227.97,60,69.076,60,61,60z
			 M106,272c-8.271,0-15-6.729-15-15V90h120v182H106z M316,392h-30c-4.821,0-9.35,2.318-12.169,6.229
			c-2.819,3.912-3.586,8.94-2.061,13.514L295.188,482H156.812l23.419-70.257c1.524-4.574,0.758-9.603-2.062-13.514
			C175.35,394.318,170.821,392,166,392c-24.813,0-45-20.187-45-45v-45.1c12.987,0,285.733,0,298.924,0
			C412.623,352.717,368.805,392,316,392z M241,272v-30h165c19.557,0,36.239,12.539,42.43,30H241z"/>
	</g>
</g>
<g>
</g>
<g>
</g>
<g>
</g>
<g>
</g>
<g>
</g>
<g>
</g>
<g>
</g>
<g>
</g>
<g>
</g>
<g>
</g>
<g>
</g>
<g>
</g>
<g>
</g>
<g>
</g>
<g>
</g>
</svg>
