<?xml version="1.0" encoding="utf-8"?>
<!-- Generator: Adobe Illustrator 22.0.1, SVG Export Plug-In . SVG Version: 6.00 Build 0)  -->
<svg version="1.1" id="Layer_1" xmlns="http://www.w3.org/2000/svg" xmlns:xlink="http://www.w3.org/1999/xlink" x="0px" y="0px"
	 viewBox="0 0 100 100" style="enable-background:new 0 0 100 100;" xml:space="preserve">
<style type="text/css">
	.st1{fill:#6B6B6B;}
</style>
<polyline points="53.9,23.6 54,23.9 53.9,23.6 "/>
<path class="st0" d="M35.5,64.5"/>
<path class="st0" d="M69.8,51"/>
<path class="st0" d="M39.5,63.5"/>
<path class="st0" d="M34.5,61.5"/>
<path class="st0" d="M43.5,61.5"/>
<g>
	<path class="st1" d="M33,47.8h-4.5c-0.8,0-6.5-2.2-6.5-3.7V20.4c0-1.2,0.9-2.2,2-2.2h12.4c1.1,0,2,1,2,2.2v23.8
		C38.4,45.5,34,47.8,33,47.8z M23.7,44c0.6,0.6,4.1,2.2,4.9,2.4l4.4,0c0.7-0.2,3.5-1.8,3.7-2.3l0-23.6c0-0.4-0.2-0.7-0.3-0.7
		l-12.4,0c-0.1,0-0.3,0.3-0.3,0.7V44z M23.7,44L23.7,44z"/>
	<path class="st1" d="M63.2,82H22V49.3h57v0.7c0,0.9-0.2,21.5-14.7,21.5H43.1l-3.4-4.4l2.7,5.9c3.2,0,15.5,0.2,18.8,1.6
		c4.1,1.8,2.2,6.6,2.2,6.8L63.2,82z M23.7,80.5h38.2c0.3-1.1,0.7-3.6-1.4-4.5c-2.7-1.2-14.3-1.4-18.6-1.4h-0.6l-4.1-8.9h3.5l3.5,4.5
		h20.3c11.4,0,12.8-15.7,12.9-19.3H23.7V80.5z"/>
	<rect x="38.4" y="46.4" class="st1" width="39.7" height="1.5"/>
</g>
</svg>
