<?xml version="1.0" encoding="iso-8859-1"?>
<!-- Generator: Adobe Illustrator 19.0.0, SVG Export Plug-In . SVG Version: 6.00 Build 0)  -->
<svg version="1.1" id="Capa_1" xmlns="http://www.w3.org/2000/svg" xmlns:xlink="http://www.w3.org/1999/xlink" x="0px" y="0px"
	 viewBox="0 0 512 512" style="enable-background:new 0 0 512 512;" xml:space="preserve">
<g>
	<g>
		<path d="M436,181H256c-5.258,0-10.305,0.915-15,2.58V90h15c8.284,0,15-6.716,15-15V45c0-24.813-20.187-45-45-45H76
			C51.187,0,31,20.187,31,45v30c0,8.284,6.716,15,15,15h15v166v60c0,38.321,20.624,73.084,51.895,91.576l-21.447,85.786
			C89.081,502.831,96.259,512,106,512h210c9.76,0,16.914-9.188,14.552-18.638l-18.363-73.451
			c74.549-12.014,132.577-74.452,138.333-151.329C468.228,262.526,481,245.732,481,226C481,201.187,460.813,181,436,181z M61,45
			c0-8.271,6.729-15,15-15h150c8.271,0,15,6.729,15,15v15c-7.097,0-165.828,0-180,0V45z M211,90c0,6.325,0,144.684,0,151H91V90H211z
			 M286,392c-8.284,0-15,6.716-15,15c0,6.763,4.476,12.48,10.626,14.353L296.789,482H125.212l19.677-78.704
			c1.782-7.126-1.86-14.494-8.603-17.408C109.199,374.185,91,346.099,91,316v-45.1c9.508,0,324.005,0,329.185,0
			C412.752,338.862,355.41,392,286,392z M436,241H241v-15c0-8.271,6.729-15,15-15h180c8.271,0,15,6.729,15,15S444.271,241,436,241z"
			/>
	</g>
</g>
<g>
</g>
<g>
</g>
<g>
</g>
<g>
</g>
<g>
</g>
<g>
</g>
<g>
</g>
<g>
</g>
<g>
</g>
<g>
</g>
<g>
</g>
<g>
</g>
<g>
</g>
<g>
</g>
<g>
</g>
</svg>
