<?xml version="1.0" encoding="utf-8"?>
<!-- Generator: Adobe Illustrator 22.0.1, SVG Export Plug-In . SVG Version: 6.00 Build 0)  -->
<svg version="1.1" id="Layer_1" xmlns="http://www.w3.org/2000/svg" xmlns:xlink="http://www.w3.org/1999/xlink" x="0px" y="0px"
	 viewBox="0 0 100 100" style="enable-background:new 0 0 100 100;" xml:space="preserve">
<polyline points="53.9,23.6 54,23.9 53.9,23.6 "/>
<path class="st0" d="M35.5,64.5"/>
<path class="st0" d="M69.8,51"/>
<path class="st0" d="M39.5,63.5"/>
<path class="st0" d="M34.5,61.5"/>
<path class="st0" d="M43.5,61.5"/>
<g>
	<path class="st1" d="M35,44.4h-4.5c-0.8,0-6.5-2.5-6.5-4.3V12.6c0-1.4,0.9-2.6,2-2.6h12.4c1.1,0,2,1.1,2,2.6v27.5
		C40.3,41.7,35.9,44.4,35,44.4z M25.7,40c0.6,0.7,4.1,2.6,4.8,2.7l4.4,0c0.7-0.2,3.5-2.1,3.7-2.7l0-27.4c0-0.5-0.2-0.8-0.3-0.9
		l-12.3,0c-0.1,0-0.3,0.3-0.3,0.9V40z M25.7,39.9L25.7,39.9z"/>
	<path class="st1" d="M65.1,84H24V46.1h56.8V47c0,1-0.2,25-14.6,25H45.1l-3.4-5.1l2.7,6.8c3.1,0,15.5,0.2,18.7,1.8
		c4.1,2,2.2,7.7,2.2,7.9L65.1,84z M25.7,82.3h38.1c0.3-1.3,0.7-4.2-1.4-5.3c-2.7-1.3-14.3-1.6-18.5-1.6h-0.6l-4.1-10.3h3.5l3.4,5.2
		h20.2c11.3,0,12.7-18.2,12.9-22.4H25.7V82.3z"/>
	<rect x="40.3" y="42.7" class="st1" width="39.6" height="1.7"/>
</g>
</svg>
