<?xml version="1.0" encoding="iso-8859-1"?>
<!-- Generator: Adobe Illustrator 19.0.0, SVG Export Plug-In . SVG Version: 6.00 Build 0)  -->
<svg version="1.1" id="Capa_1" xmlns="http://www.w3.org/2000/svg" xmlns:xlink="http://www.w3.org/1999/xlink" x="0px" y="0px"
	 viewBox="0 0 508 508" style="enable-background:new 0 0 508 508;" xml:space="preserve">
<g>
	<g>
		<path d="M454.7,286.8h-77.8V254h-53.6c13.6-25.1,20.8-53.2,20.8-81.9C344.1,77.2,266.9,0,172.1,0S0,77.2,0,172.1
			C0,232.3,30.6,287,81.9,318.6V467h33.5c3.9,23.2,24.1,41,48.4,41c24.3,0,44.5-17.8,48.4-41h173.5c3.9,23.2,24.1,41,48.4,41
			s44.5-17.8,48.4-41H508V357.8L454.7,286.8z M81.9,299c-39-27.6-62.8-70.9-65.3-118.7H41v-16.4H16.8C21,84.6,84.6,21,163.9,16.8V41
			h16.4V16.8c79.3,4.2,142.9,67.8,147.1,147.1h-24.2v16.4h24.3c-1.4,26.2-9.2,51.5-23,73.7H81.9V299z M163.9,491.6
			c-18.1,0-32.8-14.7-32.8-32.8s14.7-32.8,32.8-32.8c18.1,0,32.8,14.7,32.8,32.8S181.9,491.6,163.9,491.6z M360.6,450.6h-0.1H212.3
			c-3.9-23.2-24.1-41-48.4-41c-24.3,0-44.5,17.8-48.4,41H98.4V270.4h262.2V450.6z M376.9,303.2h69.6l36.9,49.2H376.9V303.2z
			 M434.3,491.6c-18.1,0-32.8-14.7-32.8-32.8s14.7-32.8,32.8-32.8s32.8,14.7,32.8,32.8S452.3,491.6,434.3,491.6z M491.7,450.6h-9
			c-3.9-23.2-24.1-41-48.4-41s-44.5,17.8-48.4,41H377v-81.9h114.7V450.6z"/>
	</g>
</g>
<g>
	<g>
		<path d="M180.3,140.4V73.1h-16.4v67.3c-11.5,3-20.4,12-23.4,23.4H98.4v16.4h42.1c3.6,14.2,16.3,24.6,31.6,24.6
			c18.1,0,32.8-14.7,32.8-32.8C204.9,156.8,194.4,144.1,180.3,140.4z M172.1,188.5c-9,0-16.4-7.3-16.4-16.4s7.3-16.4,16.4-16.4
			c9,0,16.4,7.3,16.4,16.4S181.1,188.5,172.1,188.5z"/>
	</g>
</g>
<g>
	<g>
		<rect x="147.5" y="303.2" width="16.4" height="73.7"/>
	</g>
</g>
<g>
	<g>
		<rect x="221.2" y="303.2" width="16.4" height="73.7"/>
	</g>
</g>
<g>
	<g>
		<rect x="295" y="303.2" width="16.4" height="73.7"/>
	</g>
</g>
<g>
</g>
<g>
</g>
<g>
</g>
<g>
</g>
<g>
</g>
<g>
</g>
<g>
</g>
<g>
</g>
<g>
</g>
<g>
</g>
<g>
</g>
<g>
</g>
<g>
</g>
<g>
</g>
<g>
</g>
</svg>
