<?xml version="1.0" encoding="iso-8859-1"?>
<!-- Generator: Adobe Illustrator 19.0.0, SVG Export Plug-In . SVG Version: 6.00 Build 0)  -->
<svg version="1.1" id="Capa_1" xmlns="http://www.w3.org/2000/svg" xmlns:xlink="http://www.w3.org/1999/xlink" x="0px" y="0px"
	 viewBox="0 0 512 512" style="enable-background:new 0 0 512 512;" xml:space="preserve">
<g>
	<g>
		<path d="M216.078,341.057H109.954c-5.523,0-10,4.478-10,10v111.018c0,5.522,4.477,10,10,10h106.124c5.523,0,10-4.477,10-9.999
			V351.057C226.078,345.535,221.601,341.057,216.078,341.057z M206.078,452.075h-86.124v-91.019h86.124V452.075z"/>
	</g>
</g>
<g>
	<g>
		<path d="M402.045,341.057H295.922c-5.522,0-10,4.478-10,10v111.018c0,5.522,4.478,10,10,10h106.123c5.522,0,10-4.477,10-9.999
			V351.057C412.045,345.535,407.568,341.057,402.045,341.057z M392.045,452.075h-86.123v-91.019h86.123V452.075z"/>
	</g>
</g>
<g>
	<g>
		<path d="M361.608,201.181c-0.13-0.64-0.319-1.269-0.569-1.87c-0.25-0.6-0.561-1.18-0.92-1.72c-0.36-0.549-0.78-1.059-1.24-1.52
			c-2.32-2.329-5.78-3.389-9.03-2.739c-0.63,0.13-1.26,0.319-1.87,0.569c-0.6,0.25-1.18,0.561-1.72,0.92
			c-0.55,0.37-1.06,0.78-1.52,1.25c-0.46,0.461-0.881,0.97-1.25,1.52c-0.36,0.54-0.671,1.12-0.921,1.72
			c-0.25,0.6-0.439,1.23-0.569,1.87c-0.129,0.65-0.19,1.3-0.19,1.96c0,0.65,0.06,1.3,0.19,1.95c0.13,0.64,0.319,1.269,0.569,1.87
			c0.25,0.599,0.561,1.189,0.921,1.729c0.369,0.551,0.79,1.061,1.25,1.521c0.46,0.46,0.97,0.88,1.52,1.24
			c0.54,0.359,1.12,0.67,1.72,0.92c0.61,0.25,1.24,0.439,1.87,0.569c0.65,0.13,1.311,0.2,1.96,0.2c2.63,0,5.21-1.071,7.07-2.929
			c0.46-0.46,0.88-0.97,1.24-1.521c0.359-0.54,0.67-1.129,0.92-1.729s0.439-1.23,0.569-1.87c0.131-0.65,0.2-1.3,0.2-1.95
			C361.808,202.481,361.739,201.831,361.608,201.181z"/>
	</g>
</g>
<g>
	<g>
		<path d="M486.141,173.11c0-22.081-17.964-40.046-40.045-40.046h-62.655c2.264-4.664,3.535-9.896,3.535-15.419
			c0-19.529-15.888-35.418-35.416-35.418s-35.415,15.889-35.415,35.418c0,5.523,1.271,10.755,3.535,15.419h-28.454V99.536h11.182
			c5.522,0,10-4.478,10-10V46.761c0-5.522-4.478-10-10-10h-11.182v-1.53C291.227,15.805,275.425,0,256,0
			s-35.228,15.805-35.228,35.23v1.53h-11.181c-5.523,0-10,4.478-10,10v42.775c0,5.522,4.477,10,10,10h11.181v33.528h-28.453
			c2.264-4.664,3.535-9.896,3.535-15.419c0-19.529-15.888-35.418-35.416-35.418c-19.528,0-35.416,15.889-35.416,35.418
			c0,5.523,1.271,10.755,3.535,15.419H65.904c-22.081,0-40.045,17.965-40.045,40.046c0,20.088,14.867,36.768,34.175,39.617V502
			c0,5.522,4.477,10,10,10h371.933c5.522,0,10-4.478,10-10l-0.001-289.247c0-0.025,0,0,0-0.025
			C471.273,209.879,486.14,193.199,486.141,173.11z M351.561,102.228c8.5,0,15.416,6.916,15.416,15.418s-6.916,15.419-15.416,15.419
			c-8.5,0-15.415-6.918-15.415-15.419C336.146,109.144,343.061,102.228,351.561,102.228z M240.772,35.23L240.772,35.23
			c0-8.398,6.831-15.23,15.228-15.23c8.396,0,15.227,6.832,15.227,15.23v1.53h-30.455V35.23z M219.591,79.536V56.761h72.818v22.775
			H219.591z M271.227,99.536v33.528h-30.455V99.536h0H271.227z M160.438,102.228c8.5,0,15.416,6.916,15.416,15.418
			s-6.916,15.419-15.416,15.419c-8.501-0.001-15.416-6.918-15.416-15.419C145.022,109.144,151.937,102.228,160.438,102.228z
			 M246,492H80.033V321.132H246V492z M431.965,301.132H80.033v-87.975h19.934c40.082,43.691,96.687,68.659,156.032,68.659
			c59.347,0,115.951-24.968,156.032-68.659h19.934V301.132z M266,492V321.132h165.967V492H266z M446.097,193.157h-38.524
			c-2.877,0-5.614,1.239-7.513,3.4c-36.435,41.473-88.942,65.259-144.06,65.259c-47.29,0-92.66-17.511-127.605-48.68h181.497
			c5.522,0,10-4.478,10-10c0-5.522-4.478-10-10-10l-243.989,0.02c-11.052,0.001-20.044-8.992-20.044-20.046
			s8.992-20.046,20.045-20.046h380.193c11.053,0,20.045,8.992,20.045,20.045C466.141,184.164,457.149,193.157,446.097,193.157z"/>
	</g>
</g>
<g>
</g>
<g>
</g>
<g>
</g>
<g>
</g>
<g>
</g>
<g>
</g>
<g>
</g>
<g>
</g>
<g>
</g>
<g>
</g>
<g>
</g>
<g>
</g>
<g>
</g>
<g>
</g>
<g>
</g>
</svg>
