<?xml version="1.0" encoding="utf-8"?>
<!-- Generator: Adobe Illustrator 22.0.1, SVG Export Plug-In . SVG Version: 6.00 Build 0)  -->
<svg version="1.1" id="Layer_1" xmlns="http://www.w3.org/2000/svg" xmlns:xlink="http://www.w3.org/1999/xlink" x="0px" y="0px"
	 viewBox="0 0 101.9 12.8" style="enable-background:new 0 0 101.9 12.8;" xml:space="preserve">
<style type="text/css">
	.st0{fill:#3D255B;}
	.st1{fill:#FF7B00;}
	.st2{fill:#FF7B00;stroke:#1B1464;stroke-miterlimit:10;}
</style>
<g>
	<g>
		<path class="st0" d="M5.1,10.3H1.3c-0.2,0-0.3,0-0.3-0.1C0.9,10.1,0.9,10,0.9,9.9V8.5c0-0.2,0-0.3,0.1-0.3S1.1,8,1.3,8h3.2
			c0.1,0,0.2,0,0.2-0.1c0.1-0.1,0.1-0.1,0.1-0.2c0-0.1,0-0.2-0.1-0.3C4.7,7.3,4.6,7.3,4.5,7.3L2.7,7c-0.6-0.1-1-0.3-1.4-0.6
			C1,6.2,0.9,5.7,0.9,5V3.8c0-0.7,0.2-1.2,0.7-1.6c0.4-0.4,1-0.5,1.8-0.5h3.4c0.2,0,0.3,0,0.3,0.1c0.1,0.1,0.1,0.2,0.1,0.3v1.4
			c0,0.2,0,0.3-0.1,0.3C7,3.9,6.9,3.9,6.7,3.9H3.9C3.8,3.9,3.7,4,3.7,4C3.6,4.1,3.6,4.2,3.6,4.3s0,0.2,0.1,0.3
			c0.1,0.1,0.1,0.1,0.2,0.1l1.8,0.2C6.2,5,6.7,5.2,7,5.5c0.3,0.3,0.5,0.8,0.5,1.4v1.3c0,0.7-0.2,1.2-0.7,1.6
			C6.5,10.1,5.8,10.3,5.1,10.3z"/>
		<path class="st0" d="M11.3,9.9c0,0.2,0,0.3-0.1,0.3c-0.1,0.1-0.2,0.1-0.3,0.1H9.1c-0.2,0-0.3,0-0.3-0.1C8.7,10.1,8.7,10,8.7,9.9
			V6.7c0-0.2,0-0.5,0.1-0.8C8.9,5.5,9,5.2,9.2,4.8l1-2.7c0-0.1,0.1-0.2,0.2-0.3s0.2-0.1,0.4-0.1H14c0.2,0,0.3,0,0.4,0.1
			s0.2,0.2,0.2,0.3l1,2.7C15.8,5.2,16,5.5,16,5.9c0.1,0.3,0.1,0.6,0.1,0.8v3.2c0,0.2,0,0.3-0.1,0.3c-0.1,0.1-0.2,0.1-0.3,0.1h-1.8
			c-0.2,0-0.3,0-0.4-0.1c-0.1-0.1-0.1-0.2-0.1-0.3V8.2h-2.1V9.9z M12,4.2L11.4,6h1.9l-0.6-1.8c0-0.1-0.1-0.1-0.1-0.2
			c0,0-0.1,0-0.1,0h-0.3c0,0-0.1,0-0.1,0C12.1,4,12,4.1,12,4.2z"/>
		<path class="st0" d="M19.9,10.3h-1.8c-0.2,0-0.3,0-0.3-0.1c-0.1-0.1-0.1-0.2-0.1-0.3V2.1c0-0.2,0-0.3,0.1-0.3
			c0.1-0.1,0.2-0.1,0.3-0.1h1.2c0.2,0,0.3,0,0.4,0.1c0.1,0,0.2,0.1,0.3,0.3l2.3,2.7V2.1c0-0.2,0-0.3,0.1-0.3
			c0.1-0.1,0.2-0.1,0.3-0.1h1.8c0.2,0,0.3,0,0.3,0.1C25,1.8,25,1.9,25,2.1v7.8c0,0.2,0,0.3-0.1,0.3c-0.1,0.1-0.2,0.1-0.3,0.1h-1.8
			c-0.2,0-0.3,0-0.3-0.1c-0.1-0.1-0.1-0.2-0.1-0.3V8.4l-2.1-2.5v4c0,0.2,0,0.3-0.1,0.3C20.1,10.3,20,10.3,19.9,10.3z"/>
		<path class="st0" d="M30.7,10.3h-1.9c-0.2,0-0.3,0-0.3-0.1c-0.1-0.1-0.1-0.2-0.1-0.3V4h-1.8c-0.2,0-0.3,0-0.3-0.1
			s-0.1-0.2-0.1-0.3V2.1c0-0.2,0-0.3,0.1-0.3c0.1-0.1,0.2-0.1,0.3-0.1h6.3c0.2,0,0.3,0,0.3,0.1c0.1,0.1,0.1,0.2,0.1,0.3v1.5
			c0,0.2,0,0.3-0.1,0.3C33.2,3.9,33.1,4,32.9,4h-1.8v5.9c0,0.2,0,0.3-0.1,0.3C31,10.3,30.9,10.3,30.7,10.3z"/>
		<path class="st0" d="M40.5,10.3H35c-0.2,0-0.3,0-0.3-0.1c-0.1-0.1-0.1-0.2-0.1-0.3V2.1c0-0.2,0-0.3,0.1-0.3
			c0.1-0.1,0.2-0.1,0.3-0.1h5.6c0.2,0,0.3,0,0.3,0.1C40.9,1.8,41,1.9,41,2.1v1.4c0,0.2,0,0.3-0.1,0.3c-0.1,0.1-0.2,0.1-0.3,0.1h-3.3
			v0.9h2.3c0.2,0,0.3,0,0.3,0.1C40,5,40,5.1,40,5.3v1.3c0,0.2,0,0.3-0.1,0.3S39.7,7,39.6,7h-2.3v1h3.3c0.2,0,0.3,0,0.3,0.1
			C40.9,8.2,41,8.3,41,8.5v1.4c0,0.2,0,0.3-0.1,0.3C40.8,10.3,40.7,10.3,40.5,10.3z"/>
		<path class="st0" d="M44.7,10.3h-1.9c-0.2,0-0.3,0-0.3-0.1c-0.1-0.1-0.1-0.2-0.1-0.3V2.1c0-0.2,0-0.3,0.1-0.3
			c0.1-0.1,0.2-0.1,0.3-0.1h1.9c0.2,0,0.3,0,0.3,0.1c0.1,0.1,0.1,0.2,0.1,0.3v2.6h2V2.1c0-0.2,0-0.3,0.1-0.3
			c0.1-0.1,0.2-0.1,0.3-0.1h1.9c0.2,0,0.3,0,0.3,0.1c0.1,0.1,0.1,0.2,0.1,0.3v7.8c0,0.2,0,0.3-0.1,0.3c-0.1,0.1-0.2,0.1-0.3,0.1
			h-1.9c-0.2,0-0.3,0-0.3-0.1c-0.1-0.1-0.1-0.2-0.1-0.3V7.2h-2v2.7c0,0.2,0,0.3-0.1,0.3C44.9,10.3,44.8,10.3,44.7,10.3z"/>
		<path class="st0" d="M69.9,10.3h-1.8c-0.2,0-0.3,0-0.3-0.1c-0.1-0.1-0.1-0.2-0.1-0.3V2.1c0-0.2,0-0.3,0.1-0.3
			c0.1-0.1,0.2-0.1,0.3-0.1h1.9c0.1,0,0.2,0,0.3,0.1c0.1,0.1,0.2,0.1,0.2,0.3l1.1,2c0,0.1,0.1,0.1,0.1,0.2c0,0,0.1,0,0.1,0H72
			c0,0,0.1,0,0.1,0c0,0,0.1-0.1,0.1-0.2l1.1-2c0.1-0.1,0.1-0.2,0.2-0.3c0.1-0.1,0.2-0.1,0.3-0.1h1.9c0.2,0,0.3,0,0.3,0.1
			c0.1,0.1,0.1,0.2,0.1,0.3v7.8c0,0.2,0,0.3-0.1,0.3c-0.1,0.1-0.2,0.1-0.3,0.1h-1.8c-0.2,0-0.3,0-0.3-0.1c-0.1-0.1-0.1-0.2-0.1-0.3
			V5.6l-0.7,1.3c-0.1,0.1-0.2,0.2-0.3,0.3c-0.1,0.1-0.2,0.1-0.4,0.1h-0.5c-0.2,0-0.3,0-0.4-0.1c-0.1-0.1-0.2-0.2-0.3-0.3l-0.7-1.3
			v4.2c0,0.2,0,0.3-0.1,0.3C70.2,10.3,70.1,10.3,69.9,10.3z"/>
		<path class="st0" d="M80.3,9.9c0,0.2,0,0.3-0.1,0.3c-0.1,0.1-0.2,0.1-0.3,0.1h-1.8c-0.2,0-0.3,0-0.3-0.1c-0.1-0.1-0.1-0.2-0.1-0.3
			V6.7c0-0.2,0-0.5,0.1-0.8c0.1-0.3,0.2-0.7,0.4-1.1l1-2.7c0-0.1,0.1-0.2,0.2-0.3s0.2-0.1,0.4-0.1h3.2c0.2,0,0.3,0,0.4,0.1
			s0.2,0.2,0.2,0.3l1,2.7C84.9,5.2,85,5.5,85,5.9c0.1,0.3,0.1,0.6,0.1,0.8v3.2c0,0.2,0,0.3-0.1,0.3c-0.1,0.1-0.2,0.1-0.3,0.1h-1.8
			c-0.2,0-0.3,0-0.4-0.1c-0.1-0.1-0.1-0.2-0.1-0.3V8.2h-2.1V9.9z M81,4.2L80.4,6h1.9l-0.6-1.8c0-0.1-0.1-0.1-0.1-0.2
			c0,0-0.1,0-0.1,0h-0.3c0,0-0.1,0-0.1,0C81.1,4,81,4.1,81,4.2z"/>
		<path class="st0" d="M88.9,10.3h-1.8c-0.2,0-0.3,0-0.3-0.1c-0.1-0.1-0.1-0.2-0.1-0.3V2.1c0-0.2,0-0.3,0.1-0.3
			c0.1-0.1,0.2-0.1,0.3-0.1h4c0.9,0,1.5,0.2,1.9,0.6s0.5,0.9,0.5,1.4v0.6c0,0.3-0.1,0.6-0.2,0.9c-0.1,0.2-0.3,0.4-0.5,0.5
			c0.4,0,0.8,0.2,1,0.5c0.3,0.3,0.4,0.7,0.4,1.2v2.5c0,0.2,0,0.3-0.1,0.3c-0.1,0.1-0.2,0.1-0.3,0.1h-1.9c-0.2,0-0.3,0-0.3-0.1
			c-0.1-0.1-0.1-0.2-0.1-0.3V8c0-0.2,0-0.3-0.1-0.4c-0.1-0.1-0.2-0.1-0.4-0.1h-1.7v2.4c0,0.2,0,0.3-0.1,0.3
			C89.2,10.3,89.1,10.3,88.9,10.3z M89.4,3.8v1.5h0.9c0.2,0,0.3-0.1,0.4-0.2s0.1-0.2,0.1-0.4V4.4c0-0.2,0-0.3-0.1-0.4
			s-0.2-0.2-0.4-0.2H89.4z"/>
		<path class="st0" d="M99.3,10.3h-1.9c-0.2,0-0.3,0-0.3-0.1c-0.1-0.1-0.1-0.2-0.1-0.3V4h-1.8c-0.2,0-0.3,0-0.3-0.1
			s-0.1-0.2-0.1-0.3V2.1c0-0.2,0-0.3,0.1-0.3c0.1-0.1,0.2-0.1,0.3-0.1h6.3c0.2,0,0.3,0,0.3,0.1c0.1,0.1,0.1,0.2,0.1,0.3v1.5
			c0,0.2,0,0.3-0.1,0.3c-0.1,0.1-0.2,0.1-0.3,0.1h-1.8v5.9c0,0.2,0,0.3-0.1,0.3C99.5,10.3,99.4,10.3,99.3,10.3z"/>
	</g>
	<rect x="38.9" y="15.6" style="fill:none;" width="0" height="3.4"/>
	<g>
		<g>
			<path class="st1" d="M66.7,0.1H56.2c0,0-3,0.8-3,3.9c0,0-0.2,2.8,2.7,3.9c0.4,0,0.8,0,1.2,0c-3.4-0.3-3.7-3.6-3.7-3.6h0.3
				c0-1.5,0.6-2.2,0.6-2.2s1-1.7,2.7-1.4c-2.3,0.5-3,2.4-3.2,3.6h3c0,0-1.5-0.1,0-0.6h1.5h8.3V0.3V0.1H66.7z"/>
			<path class="st1" d="M53.9,5.4c-0.1-0.4-0.1-0.8-0.1-1.1h-0.3c0,0,0.4,3.3,3.7,3.6c2.4,0,3.3,0,3.3,0h0.1h3.6
				c0,0-0.4-3.3-3.7-3.6H57H57h-3C53.8,4.9,53.9,5.4,53.9,5.4z"/>
			<path class="st1" d="M61.7,4.3c-0.5,0-0.9,0-1.3,0c3.4,0.3,3.7,3.6,3.7,3.6h-0.6c0,1.5-0.6,2.2-0.6,2.2s-1,1.7-2.7,1.4
				c2.3-0.5,3-2.4,3.2-3.6l0.2,0h-3c0,0,1.5,0.3,0,0.8c-1.5,0-1.5,0-1.5,0h-8.2v3.2V12H51h10.4c0,0,3-0.8,3-3.9
				C64.4,8.1,64.7,5.4,61.7,4.3z"/>
			<path class="st2" d="M68.9,2.8"/>
		</g>
	</g>
</g>
</svg>
