<svg xmlns="http://www.w3.org/2000/svg" viewBox="0 0 215 205"><defs><style>.cls-1{fill:#3d255b;}.cls-2{fill:#fff;}</style></defs><title>Ресурс 1</title><g id="Слой_2" data-name="Слой 2"><g id="Слой_1-2" data-name="Слой 1"><rect class="cls-1" width="215" height="205" rx="12" ry="12"/><path class="cls-2" d="M102.05,193.34,84,159.93a64.44,64.44,0,0,0,24,1.8A59.58,59.58,0,0,0,129.45,155a44.7,44.7,0,0,0,9.42-6.58,25.21,25.21,0,0,0,5.44-7.06,15.12,15.12,0,0,0,1.69-7.12,14.68,14.68,0,0,0-1.83-6.77,15.88,15.88,0,0,0-6.5-6.61,29.15,29.15,0,0,0-9.62-3,72.13,72.13,0,0,0-12.33-.61q-6.84.19-14.59.73-19.78,1.26-33.27-5.08T46.31,91.64Q40,80,39.68,69.25a44,44,0,0,1,4.06-20.08A55.93,55.93,0,0,1,56.34,32a89.57,89.57,0,0,1,19-13.58A126.35,126.35,0,0,1,94.79,9.75,77.65,77.65,0,0,1,112.17,6l16.34,30.22s0,.08,0,.09l-9.31.32a62.26,62.26,0,0,0-10,1.17,66,66,0,0,0-9.48,2.63,61.86,61.86,0,0,0-8.3,3.69,42.28,42.28,0,0,0-8.83,6.19,25.85,25.85,0,0,0-5.5,7,16.63,16.63,0,0,0-2,7.2,13.86,13.86,0,0,0,1.76,7.08,14.63,14.63,0,0,0,5.43,5.77,24.88,24.88,0,0,0,8.14,2.88,60.34,60.34,0,0,0,10.84.89c4.06,0,8.57-.16,13.5-.49a129.79,129.79,0,0,1,18.88.11,60.33,60.33,0,0,1,16.25,3.56,43.27,43.27,0,0,1,13.65,8.34,53.71,53.71,0,0,1,11.06,14.6q6.78,12.52,7.09,23.35a42.38,42.38,0,0,1-4.19,20.08,54.11,54.11,0,0,1-13,16.82,102.25,102.25,0,0,1-19.35,13.44,118.41,118.41,0,0,1-22.29,9.36A67.88,67.88,0,0,1,102.05,193.34Z"/><path class="cls-1" d="M59,94.83c.52-.27-6.23-10.19-8.73-21.09S49.53,51,48.94,51c-2.61-.08-4.79,12-2.49,22.92C48.93,85.65,56.64,96,59,94.83Z"/><path class="cls-1" d="M176.94,140.17c-.45,0-.21-10.93-3.16-20.92s-9.07-19-8.68-19.28c1.66-1.13,8.16,7.94,11.23,17.84C179.65,128.5,179,140.2,176.94,140.17Z"/></g></g></svg>