<?xml version="1.0" encoding="utf-8"?>
<!-- Generator: Adobe Illustrator 22.0.1, SVG Export Plug-In . SVG Version: 6.00 Build 0)  -->
<svg version="1.1" id="Layer_1" xmlns="http://www.w3.org/2000/svg" xmlns:xlink="http://www.w3.org/1999/xlink" x="0px" y="0px"
	 viewBox="0 0 101.9 16.8" style="enable-background:new 0 0 101.9 16.8;" xml:space="preserve">
<style type="text/css">
	.st0{fill:#3D255B;}
</style>
<rect x="38.9" y="17.4" style="fill:#FFFFFF;" width="0" height="3.4"/>
<g>
	<path class="st0" d="M61.2,13.3c1.7,0.3,2.7-1.4,2.7-1.4s0.7-0.7,0.6-2.2l-0.2,0C64.1,10.9,63.5,12.8,61.2,13.3z"/>
	<path class="st0" d="M2.3,9.9h3.2c0.1,0,0.2,0,0.2-0.1c0.1-0.1,0.1-0.1,0.1-0.2c0-0.1,0-0.2-0.1-0.3C5.7,9.2,5.6,9.1,5.5,9.1
		L3.7,8.9c-0.6-0.1-1-0.3-1.4-0.6C2.1,8.1,1.9,7.7,1.9,7.2v3c0-0.1,0-0.1,0.1-0.2C2,9.9,2.1,9.9,2.3,9.9z"/>
	<path class="st0" d="M13.7,5.9c0,0-0.1,0-0.1,0h-0.3c0,0-0.1,0-0.1,0C13.1,5.9,13,6,13,6l-0.6,1.8h1.9L13.8,6
		C13.7,6,13.7,5.9,13.7,5.9z"/>
	<path class="st0" d="M55.4,3.9c0,0-0.7,0.7-0.6,2.2c0,0.3,0,0.7,0.1,1.1c0,0,0-0.5,0.1-1.1c0.2-1.2,0.9-3,3.2-3.6
		C56.3,2.3,55.4,3.9,55.4,3.9z"/>
	<path class="st0" d="M91.3,5.7h-0.9v1.5h0.9c0.2,0,0.3-0.1,0.4-0.2s0.1-0.2,0.1-0.4V6.2c0-0.2,0-0.3-0.1-0.4S91.5,5.7,91.3,5.7z"/>
	<path class="st0" d="M82.7,5.9c0,0-0.1,0-0.1,0h-0.3c0,0-0.1,0-0.1,0C82.1,5.9,82,6,82,6l-0.6,1.8h1.9L82.8,6
		C82.7,6,82.7,5.9,82.7,5.9z"/>
	<path class="st0" d="M100.7,5.8v5.9c0,0.2,0,0.3-0.1,0.3c-0.1,0.1-0.2,0.1-0.3,0.1h-1.9c-0.2,0-0.3,0-0.3-0.1
		c-0.1-0.1-0.1-0.2-0.1-0.3V5.8h-1.8c-0.2,0-0.3,0-0.3-0.1s-0.1-0.2-0.1-0.3V4c0-0.2,0-0.3,0.1-0.3c0.1-0.1,0.2-0.1,0.3-0.1h5.7V1.9
		c0-0.5-0.5-1-1-1h-98c-0.5,0-1,0.5-1,1v3.5c0-0.6,0.3-1,0.6-1.3c0.4-0.4,1-0.5,1.8-0.5h3.4c0.2,0,0.3,0,0.3,0.1
		C8.1,3.7,8.1,3.8,8.1,4v1.4c0,0.2,0,0.3-0.1,0.3C8,5.8,7.9,5.8,7.7,5.8H4.9c-0.1,0-0.2,0-0.2,0.1C4.6,6,4.6,6.1,4.6,6.2
		s0,0.2,0.1,0.3c0.1,0.1,0.1,0.1,0.2,0.1l1.8,0.2c0.6,0.1,1,0.3,1.4,0.6c0.3,0.3,0.5,0.8,0.5,1.4V10c0,0.7-0.2,1.2-0.7,1.6
		c-0.4,0.4-1,0.5-1.8,0.5H2.3c-0.2,0-0.3,0-0.3-0.1c0,0-0.1-0.1-0.1-0.2v3c0,0.5,0.5,1,1,1h98c0.5,0,1-0.5,1-1v-9H100.7z M17.2,11.7
		c0,0.2,0,0.3-0.1,0.3c-0.1,0.1-0.2,0.1-0.3,0.1h-1.8c-0.2,0-0.3,0-0.4-0.1c-0.1-0.1-0.1-0.2-0.1-0.3V10h-2.1v1.7
		c0,0.2,0,0.3-0.1,0.3c-0.1,0.1-0.2,0.1-0.3,0.1h-1.8c-0.2,0-0.3,0-0.3-0.1c-0.1-0.1-0.1-0.2-0.1-0.3V8.6c0-0.2,0-0.5,0.1-0.8
		c0.1-0.3,0.2-0.7,0.4-1.1l1-2.7c0-0.1,0.1-0.2,0.2-0.3s0.2-0.1,0.4-0.1H15c0.2,0,0.3,0,0.4,0.1s0.2,0.2,0.2,0.3l1,2.7
		C16.8,7.1,17,7.4,17,7.7c0.1,0.3,0.1,0.6,0.1,0.8V11.7z M26,11.7c0,0.2,0,0.3-0.1,0.3c-0.1,0.1-0.2,0.1-0.3,0.1h-1.8
		c-0.2,0-0.3,0-0.3-0.1c-0.1-0.1-0.1-0.2-0.1-0.3v-1.5l-2.1-2.5v4c0,0.2,0,0.3-0.1,0.3c-0.1,0.1-0.2,0.1-0.3,0.1h-1.8
		c-0.2,0-0.3,0-0.3-0.1c-0.1-0.1-0.1-0.2-0.1-0.3V4c0-0.2,0-0.3,0.1-0.3c0.1-0.1,0.2-0.1,0.3-0.1h1.2c0.2,0,0.3,0,0.4,0.1
		c0.1,0,0.2,0.1,0.3,0.3l2.3,2.7V4c0-0.2,0-0.3,0.1-0.3c0.1-0.1,0.2-0.1,0.3-0.1h1.8c0.2,0,0.3,0,0.3,0.1C26,3.7,26,3.8,26,4V11.7z
		 M34.4,5.4c0,0.2,0,0.3-0.1,0.3c-0.1,0.1-0.2,0.1-0.3,0.1h-1.8v5.9c0,0.2,0,0.3-0.1,0.3c-0.1,0.1-0.2,0.1-0.3,0.1h-1.9
		c-0.2,0-0.3,0-0.3-0.1c-0.1-0.1-0.1-0.2-0.1-0.3V5.8h-1.8c-0.2,0-0.3,0-0.3-0.1s-0.1-0.2-0.1-0.3V4c0-0.2,0-0.3,0.1-0.3
		c0.1-0.1,0.2-0.1,0.3-0.1h6.3c0.2,0,0.3,0,0.3,0.1c0.1,0.1,0.1,0.2,0.1,0.3V5.4z M42,5.4c0,0.2,0,0.3-0.1,0.3
		c-0.1,0.1-0.2,0.1-0.3,0.1h-3.3v0.9h2.3c0.2,0,0.3,0,0.3,0.1C41,6.9,41,7,41,7.1v1.3c0,0.2,0,0.3-0.1,0.3s-0.2,0.1-0.3,0.1h-2.3v1
		h3.3c0.2,0,0.3,0,0.3,0.1c0.1,0.1,0.1,0.2,0.1,0.3v1.4c0,0.2,0,0.3-0.1,0.3c-0.1,0.1-0.2,0.1-0.3,0.1H36c-0.2,0-0.3,0-0.3-0.1
		c-0.1-0.1-0.1-0.2-0.1-0.3V4c0-0.2,0-0.3,0.1-0.3c0.1-0.1,0.2-0.1,0.3-0.1h5.6c0.2,0,0.3,0,0.3,0.1C41.9,3.7,42,3.8,42,4V5.4z
		 M50.8,11.7c0,0.2,0,0.3-0.1,0.3c-0.1,0.1-0.2,0.1-0.3,0.1h-1.9c-0.2,0-0.3,0-0.3-0.1c-0.1-0.1-0.1-0.2-0.1-0.3V9.1h-2v2.7
		c0,0.2,0,0.3-0.1,0.3c-0.1,0.1-0.2,0.1-0.3,0.1h-1.9c-0.2,0-0.3,0-0.3-0.1c-0.1-0.1-0.1-0.2-0.1-0.3V4c0-0.2,0-0.3,0.1-0.3
		c0.1-0.1,0.2-0.1,0.3-0.1h1.9c0.2,0,0.3,0,0.3,0.1c0.1,0.1,0.1,0.2,0.1,0.3v2.6h2V4c0-0.2,0-0.3,0.1-0.3c0.1-0.1,0.2-0.1,0.3-0.1
		h1.9c0.2,0,0.3,0,0.3,0.1c0.1,0.1,0.1,0.2,0.1,0.3V11.7z M67.8,2.1v3.5h-8.3H58c-1.5,0.4,0,0.6,0,0.6H58h3.3c0.2,0,0.4,0,0.6,0.1
		c-0.2,0-0.4-0.1-0.6-0.1c0.4,0,0.8,0,1.3,0c3,1.1,2.7,3.9,2.7,3.9c0,3-3,3.9-3,3.9H52h-0.1v-0.1v-3.2h8.2c0,0,0,0,1.5,0
		c1.5-0.6,0-0.8,0-0.8h-0.1c0,0-1,0-3.3,0c-0.4,0-0.8,0-1.2,0c-3-1.1-2.7-3.9-2.7-3.9c0-3,3-3.9,3-3.9h10.4h0.1V2.1z M77.2,11.7
		c0,0.2,0,0.3-0.1,0.3c-0.1,0.1-0.2,0.1-0.3,0.1h-1.8c-0.2,0-0.3,0-0.3-0.1c-0.1-0.1-0.1-0.2-0.1-0.3V7.5l-0.7,1.3
		c-0.1,0.1-0.2,0.2-0.3,0.3c-0.1,0.1-0.2,0.1-0.4,0.1h-0.5c-0.2,0-0.3,0-0.4-0.1c-0.1-0.1-0.2-0.2-0.3-0.3l-0.7-1.3v4.2
		c0,0.2,0,0.3-0.1,0.3c-0.1,0.1-0.2,0.1-0.3,0.1h-1.8c-0.2,0-0.3,0-0.3-0.1c-0.1-0.1-0.1-0.2-0.1-0.3V4c0-0.2,0-0.3,0.1-0.3
		c0.1-0.1,0.2-0.1,0.3-0.1h1.9c0.1,0,0.2,0,0.3,0.1c0.1,0.1,0.2,0.1,0.2,0.3l1.1,2c0,0.1,0.1,0.1,0.1,0.2c0,0,0.1,0,0.1,0H73
		c0,0,0.1,0,0.1,0c0,0,0.1-0.1,0.1-0.2l1.1-2c0.1-0.1,0.1-0.2,0.2-0.3c0.1-0.1,0.2-0.1,0.3-0.1h1.9c0.2,0,0.3,0,0.3,0.1
		c0.1,0.1,0.1,0.2,0.1,0.3V11.7z M86.2,11.7c0,0.2,0,0.3-0.1,0.3c-0.1,0.1-0.2,0.1-0.3,0.1h-1.8c-0.2,0-0.3,0-0.4-0.1
		c-0.1-0.1-0.1-0.2-0.1-0.3V10h-2.1v1.7c0,0.2,0,0.3-0.1,0.3c-0.1,0.1-0.2,0.1-0.3,0.1h-1.8c-0.2,0-0.3,0-0.3-0.1
		c-0.1-0.1-0.1-0.2-0.1-0.3V8.6c0-0.2,0-0.5,0.1-0.8c0.1-0.3,0.2-0.7,0.4-1.1l1-2.7c0-0.1,0.1-0.2,0.2-0.3s0.2-0.1,0.4-0.1h3.2
		c0.2,0,0.3,0,0.4,0.1s0.2,0.2,0.2,0.3l1,2.7C85.9,7.1,86,7.4,86,7.7c0.1,0.3,0.1,0.6,0.1,0.8V11.7z M95.2,11.7c0,0.2,0,0.3-0.1,0.3
		c-0.1,0.1-0.2,0.1-0.3,0.1h-1.9c-0.2,0-0.3,0-0.3-0.1c-0.1-0.1-0.1-0.2-0.1-0.3V9.9c0-0.2,0-0.3-0.1-0.4c-0.1-0.1-0.2-0.1-0.4-0.1
		h-1.7v2.4c0,0.2,0,0.3-0.1,0.3c-0.1,0.1-0.2,0.1-0.3,0.1h-1.8c-0.2,0-0.3,0-0.3-0.1c-0.1-0.1-0.1-0.2-0.1-0.3V4
		c0-0.2,0-0.3,0.1-0.3c0.1-0.1,0.2-0.1,0.3-0.1h4c0.9,0,1.5,0.2,1.9,0.6s0.5,0.9,0.5,1.4v0.6c0,0.3-0.1,0.6-0.2,0.9
		c-0.1,0.2-0.3,0.4-0.5,0.5c0.4,0,0.8,0.2,1,0.5c0.3,0.3,0.4,0.7,0.4,1.2V11.7z"/>
</g>
</svg>
