<?xml version="1.0" encoding="utf-8"?>
<!-- Generator: Adobe Illustrator 22.0.1, SVG Export Plug-In . SVG Version: 6.00 Build 0)  -->
<svg version="1.1" id="Layer_1" xmlns="http://www.w3.org/2000/svg" xmlns:xlink="http://www.w3.org/1999/xlink" x="0px" y="0px"
	 viewBox="0 0 104.8 19" style="enable-background:new 0 0 104.8 19;" xml:space="preserve">
<style type="text/css">
	.st0{fill:#3D255B;}
	.st1{fill:#FFFFFF;}
	.st2{fill:none;}
	.st3{fill:#FF7B00;}
	.st4{fill:#FF7B00;stroke:#1B1464;stroke-miterlimit:10;}
</style>
<g>
	<g>
		<path class="st0" d="M103.9,19H0.9c-0.6,0-1-0.5-1-1V1c0-0.6,0.5-1,1-1h103c0.6,0,1,0.4,1,1v17C104.9,18.5,104.5,19,103.9,19z"/>
		<path class="st1" d="M6.1,13.3H2.3c-0.2,0-0.3,0-0.3-0.1C2,13.1,1.9,13,1.9,12.9v-1.4c0-0.2,0-0.3,0.1-0.3C2.1,11.1,2.2,11,2.3,11
			h3.2c0.1,0,0.2,0,0.2-0.1c0.1-0.1,0.1-0.1,0.1-0.2c0-0.1,0-0.2-0.1-0.3c-0.1-0.1-0.1-0.1-0.2-0.1L3.8,10c-0.6-0.1-1-0.3-1.3-0.6
			C2.1,9.2,1.9,8.7,1.9,8V6.8c0-0.7,0.2-1.2,0.7-1.6c0.4-0.4,1-0.5,1.8-0.5h3.4c0.2,0,0.3,0,0.3,0.1c0.1,0.1,0.1,0.2,0.1,0.3v1.4
			c0,0.2,0,0.3-0.1,0.3C8,6.9,7.9,6.9,7.8,6.9H5C4.9,6.9,4.8,7,4.7,7C4.7,7.1,4.6,7.2,4.6,7.3s0,0.2,0.1,0.3C4.8,7.6,4.9,7.7,5,7.7
			l1.8,0.2c0.6,0.1,1,0.3,1.4,0.6c0.3,0.3,0.5,0.8,0.5,1.4v1.3c0,0.7-0.2,1.2-0.7,1.6C7.5,13.1,6.9,13.3,6.1,13.3z"/>
		<path class="st1" d="M12.4,12.9c0,0.2,0,0.3-0.1,0.3c-0.1,0.1-0.2,0.1-0.3,0.1h-1.8c-0.2,0-0.3,0-0.3-0.1
			c-0.1-0.1-0.1-0.2-0.1-0.3V9.7c0-0.2,0-0.5,0.1-0.8c0.1-0.3,0.2-0.7,0.4-1.1l1-2.7c0-0.1,0.1-0.2,0.2-0.3c0.1-0.1,0.2-0.1,0.4-0.1
			h3.2c0.2,0,0.3,0,0.4,0.1s0.2,0.2,0.2,0.3l1,2.7c0.2,0.4,0.3,0.8,0.4,1.1c0.1,0.3,0.1,0.6,0.1,0.8v3.2c0,0.2,0,0.3-0.1,0.3
			c-0.1,0.1-0.2,0.1-0.3,0.1H15c-0.2,0-0.3,0-0.4-0.1c-0.1-0.1-0.1-0.2-0.1-0.3v-1.7h-2.1V12.9z M13.1,7.2L12.5,9h1.9l-0.6-1.8
			c0-0.1-0.1-0.1-0.1-0.2c0,0-0.1,0-0.1,0h-0.3c0,0-0.1,0-0.1,0C13.1,7,13.1,7.1,13.1,7.2z"/>
		<path class="st1" d="M20.9,13.3h-1.8c-0.2,0-0.3,0-0.3-0.1c-0.1-0.1-0.1-0.2-0.1-0.3V5.1c0-0.2,0-0.3,0.1-0.3
			c0.1-0.1,0.2-0.1,0.3-0.1h1.2c0.2,0,0.3,0,0.4,0.1c0.1,0,0.2,0.1,0.3,0.3l2.3,2.7V5.1c0-0.2,0-0.3,0.1-0.3
			c0.1-0.1,0.2-0.1,0.3-0.1h1.8c0.2,0,0.3,0,0.3,0.1c0.1,0.1,0.1,0.2,0.1,0.3v7.8c0,0.2,0,0.3-0.1,0.3c-0.1,0.1-0.2,0.1-0.3,0.1
			h-1.8c-0.2,0-0.3,0-0.3-0.1c-0.1-0.1-0.1-0.2-0.1-0.3v-1.5l-2.1-2.5v4c0,0.2,0,0.3-0.1,0.3C21.2,13.3,21.1,13.3,20.9,13.3z"/>
		<path class="st1" d="M31.8,13.3h-1.9c-0.2,0-0.3,0-0.3-0.1c-0.1-0.1-0.1-0.2-0.1-0.3V7h-1.8c-0.2,0-0.3,0-0.3-0.1
			c-0.1-0.1-0.1-0.2-0.1-0.3V5.1c0-0.2,0-0.3,0.1-0.3c0.1-0.1,0.2-0.1,0.3-0.1H34c0.2,0,0.3,0,0.3,0.1c0.1,0.1,0.1,0.2,0.1,0.3v1.5
			c0,0.2,0,0.3-0.1,0.3C34.3,6.9,34.1,7,34,7h-1.8v5.9c0,0.2,0,0.3-0.1,0.3C32.1,13.3,31.9,13.3,31.8,13.3z"/>
		<path class="st1" d="M41.6,13.3H36c-0.2,0-0.3,0-0.3-0.1c-0.1-0.1-0.1-0.2-0.1-0.3V5.1c0-0.2,0-0.3,0.1-0.3
			c0.1-0.1,0.2-0.1,0.3-0.1h5.6c0.2,0,0.3,0,0.3,0.1C42,4.8,42,4.9,42,5.1v1.4c0,0.2,0,0.3-0.1,0.3c-0.1,0.1-0.2,0.1-0.3,0.1h-3.3
			v0.9h2.3c0.2,0,0.3,0,0.3,0.1C41,8,41,8.1,41,8.3v1.3c0,0.2,0,0.3-0.1,0.3S40.8,10,40.6,10h-2.3v1h3.3c0.2,0,0.3,0,0.3,0.1
			c0.1,0.1,0.1,0.2,0.1,0.3v1.4c0,0.2,0,0.3-0.1,0.3C41.8,13.3,41.7,13.3,41.6,13.3z"/>
		<path class="st1" d="M45.7,13.3h-1.9c-0.2,0-0.3,0-0.3-0.1c-0.1-0.1-0.1-0.2-0.1-0.3V5.1c0-0.2,0-0.3,0.1-0.3
			c0.1-0.1,0.2-0.1,0.3-0.1h1.9c0.2,0,0.3,0,0.3,0.1c0.1,0.1,0.1,0.2,0.1,0.3v2.6h2V5.1c0-0.2,0-0.3,0.1-0.3
			c0.1-0.1,0.2-0.1,0.3-0.1h1.9c0.2,0,0.3,0,0.3,0.1c0.1,0.1,0.1,0.2,0.1,0.3v7.8c0,0.2,0,0.3-0.1,0.3c-0.1,0.1-0.2,0.1-0.3,0.1
			h-1.9c-0.2,0-0.3,0-0.3-0.1c-0.1-0.1-0.1-0.2-0.1-0.3v-2.7h-2v2.7c0,0.2,0,0.3-0.1,0.3C46,13.3,45.9,13.3,45.7,13.3z"/>
		<path class="st1" d="M70.9,13.3h-1.8c-0.2,0-0.3,0-0.3-0.1c-0.1-0.1-0.1-0.2-0.1-0.3V5.1c0-0.2,0-0.3,0.1-0.3
			c0.1-0.1,0.2-0.1,0.3-0.1h1.9c0.1,0,0.2,0,0.3,0.1c0.1,0.1,0.2,0.1,0.2,0.3l1.1,2c0,0.1,0.1,0.1,0.1,0.2c0,0,0.1,0,0.1,0H73
			c0,0,0.1,0,0.1,0c0,0,0.1-0.1,0.1-0.2l1.1-2c0.1-0.1,0.1-0.2,0.2-0.3c0.1-0.1,0.2-0.1,0.3-0.1h1.9c0.2,0,0.3,0,0.3,0.1
			c0.1,0.1,0.1,0.2,0.1,0.3v7.8c0,0.2,0,0.3-0.1,0.3c-0.1,0.1-0.2,0.1-0.3,0.1H75c-0.2,0-0.3,0-0.3-0.1c-0.1-0.1-0.1-0.2-0.1-0.3
			V8.6l-0.7,1.3c-0.1,0.1-0.2,0.2-0.3,0.3c-0.1,0.1-0.2,0.1-0.4,0.1h-0.5c-0.2,0-0.3,0-0.4-0.1c-0.1-0.1-0.2-0.2-0.3-0.3l-0.7-1.3
			v4.2c0,0.2,0,0.3-0.1,0.3C71.2,13.3,71.1,13.3,70.9,13.3z"/>
		<path class="st1" d="M81.4,12.9c0,0.2,0,0.3-0.1,0.3c-0.1,0.1-0.2,0.1-0.3,0.1h-1.8c-0.2,0-0.3,0-0.3-0.1
			c-0.1-0.1-0.1-0.2-0.1-0.3V9.7c0-0.2,0-0.5,0.1-0.8c0.1-0.3,0.2-0.7,0.4-1.1l1-2.7c0-0.1,0.1-0.2,0.2-0.3c0.1-0.1,0.2-0.1,0.4-0.1
			h3.2c0.2,0,0.3,0,0.4,0.1c0.1,0.1,0.2,0.2,0.2,0.3l1,2.7c0.2,0.4,0.3,0.8,0.4,1.1c0.1,0.3,0.1,0.6,0.1,0.8v3.2
			c0,0.2,0,0.3-0.1,0.3c-0.1,0.1-0.2,0.1-0.3,0.1h-1.8c-0.2,0-0.3,0-0.4-0.1c-0.1-0.1-0.1-0.2-0.1-0.3v-1.7h-2.1V12.9z M82,7.2
			L81.5,9h1.9l-0.6-1.8c0-0.1-0.1-0.1-0.1-0.2c0,0-0.1,0-0.1,0h-0.3c0,0-0.1,0-0.1,0C82.1,7,82.1,7.1,82,7.2z"/>
		<path class="st1" d="M89.9,13.3h-1.8c-0.2,0-0.3,0-0.3-0.1c-0.1-0.1-0.1-0.2-0.1-0.3V5.1c0-0.2,0-0.3,0.1-0.3
			c0.1-0.1,0.2-0.1,0.3-0.1h4c0.9,0,1.5,0.2,1.9,0.6s0.5,0.9,0.5,1.4v0.6c0,0.3-0.1,0.6-0.2,0.9c-0.1,0.2-0.3,0.4-0.5,0.5
			c0.4,0,0.8,0.2,1,0.5c0.3,0.3,0.4,0.7,0.4,1.2v2.5c0,0.2,0,0.3-0.1,0.3c-0.1,0.1-0.2,0.1-0.3,0.1h-1.9c-0.2,0-0.3,0-0.3-0.1
			c-0.1-0.1-0.1-0.2-0.1-0.3V11c0-0.2,0-0.3-0.1-0.4c-0.1-0.1-0.2-0.1-0.4-0.1h-1.7v2.4c0,0.2,0,0.3-0.1,0.3
			C90.2,13.3,90.1,13.3,89.9,13.3z M90.4,6.8v1.5h0.9c0.2,0,0.3-0.1,0.4-0.2s0.1-0.2,0.1-0.4V7.4c0-0.2,0-0.3-0.1-0.4
			s-0.2-0.2-0.4-0.2H90.4z"/>
		<path class="st1" d="M100.3,13.3h-1.9c-0.2,0-0.3,0-0.3-0.1c-0.1-0.1-0.1-0.2-0.1-0.3V7h-1.8c-0.2,0-0.3,0-0.3-0.1
			c-0.1-0.1-0.1-0.2-0.1-0.3V5.1c0-0.2,0-0.3,0.1-0.3c0.1-0.1,0.2-0.1,0.3-0.1h6.3c0.2,0,0.3,0,0.3,0.1c0.1,0.1,0.1,0.2,0.1,0.3v1.5
			c0,0.2,0,0.3-0.1,0.3c-0.1,0.1-0.2,0.1-0.3,0.1h-1.8v5.9c0,0.2,0,0.3-0.1,0.3C100.6,13.3,100.4,13.3,100.3,13.3z"/>
	</g>
	<rect x="37" y="18.6" class="st2" width="0" height="3.4"/>
	<g>
		<g>
			<path class="st3" d="M67.7,3.1H57.3c0,0-3,0.8-3,3.9c0,0-0.2,2.8,2.7,3.9c0.4,0,0.8,0,1.2,0c-3.4-0.3-3.7-3.6-3.7-3.6h0.3
				c0-1.5,0.6-2.2,0.6-2.2s1-1.7,2.7-1.4c-2.3,0.5-3,2.4-3.2,3.6h3c0,0-1.5-0.1,0-0.6h1.5h8.3V3.3V3.1H67.7z"/>
			<path class="st3" d="M54.9,8.4c-0.1-0.4-0.1-0.8-0.1-1.1h-0.3c0,0,0.4,3.3,3.7,3.6c2.4,0,3.3,0,3.3,0h0.1h3.6
				c0,0-0.4-3.3-3.7-3.6h-3.3H58h-3C54.9,7.9,54.9,8.4,54.9,8.4z"/>
			<path class="st3" d="M62.7,7.3c-0.5,0-0.9,0-1.3,0c3.4,0.3,3.7,3.6,3.7,3.6h-0.6c0,1.5-0.6,2.2-0.6,2.2s-1,1.7-2.7,1.4
				c2.3-0.5,3-2.4,3.2-3.6l0.2,0h-3c0,0,1.5,0.3,0,0.8c-1.5,0-1.5,0-1.5,0h-8.2v3.2V15H52h10.4c0,0,3-0.8,3-3.9
				C65.5,11.1,65.7,8.4,62.7,7.3z"/>
			<path class="st4" d="M69.9,5.8"/>
		</g>
	</g>
</g>
</svg>
