<svg version="1.2" baseProfile="tiny" width="150mm" height="40mm" viewBox="0 0 15000 4000" preserveAspectRatio="xMidYMid" fill-rule="evenodd" stroke-width="28.222" stroke-linejoin="round" xmlns="http://www.w3.org/2000/svg"><defs class="ClipPathGroup"><clipPath id="a"><path d="M0 0h15000v4000H0z"/></clipPath></defs><g class="SlideGroup"><g class="Slide" clip-path="url(#a)"><g class="Page"><path fill="#697993" d="M834 959l1011 2072s110 237 428 237h891s251 1 377-267c126-267 931-2042 931-2042h-872l-820 1861s-111 242-223 0c-111-242-893-1862-893-1862l-830 1z" class="com.sun.star.drawing.ClosedBezierShape"/><path fill="none" stroke="#697993" stroke-width="28" stroke-linejoin="miter" d="M834 959l1011 2072s110 237 428 237h891s251 1 377-267c126-267 931-2042 931-2042h-872l-820 1861s-111 242-223 0c-111-242-893-1862-893-1862l-830 1z" class="com.sun.star.drawing.ClosedBezierShape"/><path fill="#697993" d="M4808 3267h810l2-1790s-4-203 207-203h1002s100 0 100 99v407h870v-378s-39-444-496-444H5324s-542-23-542 558l-3 1751h29z" class="com.sun.star.drawing.ClosedBezierShape"/><path fill="none" stroke="#697993" stroke-width="28" stroke-linejoin="miter" d="M4808 3267h810l2-1790s-4-203 207-203h1002s100 0 100 99v407h870v-378s-39-444-496-444H5324s-542-23-542 558l-3 1751h29z" class="com.sun.star.drawing.ClosedBezierShape"/><path fill="#697993" d="M8214 960h818v2308h-822V960h4z" class="com.sun.star.drawing.PolyPolygonShape"/><path fill="none" stroke="#697993" stroke-width="28" stroke-linejoin="miter" d="M8214 960h818v2308h-822V960h4z" class="com.sun.star.drawing.PolyPolygonShape"/><g class="com.sun.star.drawing.TextShape"><text class="TextShape"><tspan class="TextParagraph" font-family="Times New Roman, serif" font-size="811" font-weight="400"><tspan class="TextPosition" x="9841" y="1487"><tspan fill="#697993">Venezia</tspan></tspan></tspan><tspan class="TextParagraph" font-family="Times New Roman, serif" font-size="811" font-weight="400"><tspan class="TextPosition" x="9841" y="2393"><tspan fill="#697993">Romantica</tspan></tspan></tspan><tspan class="TextParagraph" font-family="Times New Roman, serif" font-size="811" font-weight="400"><tspan class="TextPosition" x="9841" y="3299"><tspan fill="#697993">Impressione</tspan></tspan></tspan></text></g></g></g></g></svg>