<svg width="15000" height="4000" xmlns="http://www.w3.org/2000/svg" preserveAspectRatio="xMidYMid">
 <defs>
  <clipPath id="a">
   <path id="svg_1" d="m0,0l15000,0l0,4000l-15000,0l0,-4000z"/>
  </clipPath>
 </defs>
 <g>
  <title>background</title>
  <rect fill="none" id="canvas_background" height="402" width="582" y="-1" x="-1"/>
 </g>
 <g>
  <title>Layer 1</title>
  <g id="svg_2" class="SlideGroup">
   <g fill="none" id="svg_3" clip-path="url(#a)" class="Slide">
    <g id="svg_4" class="Page">
     <path id="svg_5" class="com.sun.star.drawing.ClosedBezierShape" d="m834,959l1011,2072s110,237 428,237l891,0s251,1 377,-267c126,-267 931,-2042 931,-2042l-872,0l-820,1861s-111,242 -223,0c-111,-242 -893,-1862 -893,-1862l-830,1z" fill="#3a4048"/>
     <path id="svg_6" class="com.sun.star.drawing.ClosedBezierShape" d="m834,959l1011,2072s110,237 428,237l891,0s251,1 377,-267c126,-267 931,-2042 931,-2042l-872,0l-820,1861s-111,242 -223,0c-111,-242 -893,-1862 -893,-1862l-830,1z" stroke-width="28" stroke="#697993" fill="#3a4048"/>
     <path id="svg_7" class="com.sun.star.drawing.ClosedBezierShape" d="m4808,3267l810,0l2,-1790s-4,-203 207,-203l1002,0s100,0 100,99l0,407l870,0l0,-378s-39,-444 -496,-444l-1979,0s-542,-23 -542,558l-3,1751l29,0z" fill="#3a4048"/>
     <path id="svg_8" class="com.sun.star.drawing.ClosedBezierShape" d="m4808,3267l810,0l2,-1790s-4,-203 207,-203l1002,0s100,0 100,99l0,407l870,0l0,-378s-39,-444 -496,-444l-1979,0s-542,-23 -542,558l-3,1751l29,0z" stroke-width="28" stroke="#697993" fill="#3a4048"/>
     <path id="svg_9" class="com.sun.star.drawing.PolyPolygonShape" d="m8214,960l818,0l0,2308l-822,0l0,-2308l4,0z" fill="#3a4048"/>
     <path id="svg_10" class="com.sun.star.drawing.PolyPolygonShape" d="m8214,960l818,0l0,2308l-822,0l0,-2308l4,0z" stroke-width="28" stroke="#697993" fill="#3a4048"/>
     <g id="svg_11" class="com.sun.star.drawing.TextShape">
      <text fill="#3a4048" id="svg_12" class="TextShape">
       <tspan fill="#3a4048" id="svg_13" font-weight="400" font-size="811" font-family="Times New Roman, serif" class="TextParagraph">
        <tspan fill="#3a4048" id="svg_14" y="1487" x="9841" class="TextPosition">
         <tspan id="svg_15" fill="#3a4048">Venezia</tspan>
        </tspan>
       </tspan>
       <tspan fill="#3a4048" id="svg_16" font-weight="400" font-size="811" font-family="Times New Roman, serif" class="TextParagraph">
        <tspan fill="#3a4048" id="svg_17" y="2393" x="9841" class="TextPosition">
         <tspan id="svg_18" fill="#3a4048">Romantica</tspan>
        </tspan>
       </tspan>
       <tspan fill="#3a4048" id="svg_19" font-weight="400" font-size="811" font-family="Times New Roman, serif" class="TextParagraph">
        <tspan fill="#3a4048" id="svg_20" y="3299" x="9841" class="TextPosition">
         <tspan id="svg_21" fill="#3a4048">Impressione</tspan>
        </tspan>
       </tspan>
      </text>
     </g>
    </g>
   </g>
  </g>
 </g>
</svg>