<?xml version="1.0" encoding="UTF-8"?><!DOCTYPE svg PUBLIC "-//W3C//DTD SVG 1.1//EN" "http://www.w3.org/Graphics/SVG/1.1/DTD/svg11.dtd"><svg xmlns="http://www.w3.org/2000/svg"><symbol id="button" viewBox="0 0 196.862 196.862"><g fill="#1d1d1b"><path d="M98.431 0C44.156 0 0 44.156 0 98.431s44.156 98.431 98.431 98.431 98.431-44.156 98.431-98.431S152.706 0 98.431 0zm0 181.862C52.427 181.862 15 144.435 15 98.431S52.427 15 98.431 15s83.431 37.427 83.431 83.431-37.427 83.431-83.431 83.431z"/><circle cx="98.431" cy="98.431" r="51.981"/></g></symbol><symbol id="car-front" viewBox="0 0 459 459"><path d="M405.45 51c-5.101-15.3-20.4-25.5-35.7-25.5H89.25c-17.85 0-30.6 10.2-35.7 25.5L0 204v204c0 15.3 10.2 25.5 25.5 25.5H51c15.3 0 25.5-10.2 25.5-25.5v-25.5h306V408c0 15.3 10.2 25.5 25.5 25.5h25.5c15.3 0 25.5-10.2 25.5-25.5V204L405.45 51zM89.25 306C68.85 306 51 288.15 51 267.75s17.85-38.25 38.25-38.25 38.25 17.85 38.25 38.25S109.65 306 89.25 306zm280.5 0c-20.4 0-38.25-17.85-38.25-38.25s17.85-38.25 38.25-38.25S408 247.35 408 267.75 390.15 306 369.75 306zM51 178.5L89.25 63.75h280.5L408 178.5H51z"/></symbol><symbol id="cubes" viewBox="0 0 512 512"><path d="M0 331v111.295a14.999 14.999 0 0 0 7.559 13.024L106 512V391L0 331zM136 391v121l105-61V331zM271 331v120l105 61V391zM406 391v121l98.441-56.681A15 15 0 0 0 512 442.295V331l-106 60zM391 241l-115.754 57.876L391 365.026l116.754-66.15zM262.709 1.583a15.006 15.006 0 0 0-13.418 0L140.246 58.876 256 125.026l115.754-66.151L262.709 1.583zM136 91v123.955l105 52.5V151zM121 241L4.246 298.876 121 365.026l115.754-66.15zM271 151v116.455l105-52.5V91z"/></symbol><symbol id="minus-symbol" viewBox="0 0 31.059 31.059"><path d="M15.529 31.059C6.966 31.059 0 24.092 0 15.529 0 6.966 6.966 0 15.529 0s15.529 6.966 15.529 15.529c.001 8.563-6.966 15.53-15.529 15.53zm0-29.285c-7.584 0-13.754 6.171-13.754 13.755s6.17 13.754 13.754 13.754 13.754-6.17 13.754-13.754S23.114 1.774 15.529 1.774z" fill="#010002"/><path d="M21.652 16.416H9.406a.888.888 0 0 1 0-1.775h12.246a.888.888 0 0 1 0 1.775z" fill="#010002"/></symbol><symbol id="plus-button" viewBox="0 0 31.059 31.059"><path d="M15.529 31.059C6.966 31.059 0 24.092 0 15.529 0 6.966 6.966 0 15.529 0c8.563 0 15.529 6.966 15.529 15.529.001 8.563-6.966 15.53-15.529 15.53zm0-29.285c-7.585 0-13.755 6.171-13.755 13.755s6.17 13.754 13.755 13.754c7.584 0 13.754-6.17 13.754-13.754S23.113 1.774 15.529 1.774z" fill="#010002"/><path d="M21.652 16.416H9.406a.887.887 0 1 1 0-1.775h12.246a.888.888 0 0 1 0 1.775z" fill="#010002"/><path d="M15.529 22.539a.888.888 0 0 1-.888-.887V9.406a.889.889 0 0 1 1.775 0v12.246a.886.886 0 0 1-.887.887z" fill="#010002"/></symbol><symbol id="svg" viewBox="0 0 550.801 550.801"><path d="M488.426 197.019H475.2v-63.816c0-.398-.063-.799-.116-1.202-.021-2.534-.827-5.023-2.562-6.995L366.325 3.694c-.032-.031-.063-.042-.085-.076-.633-.707-1.371-1.295-2.151-1.804a9.495 9.495 0 0 0-.706-.419 11.131 11.131 0 0 0-2.131-.896c-.2-.056-.38-.138-.58-.19A10.774 10.774 0 0 0 358.193 0H97.2C85.282 0 75.6 9.693 75.6 21.601v175.413H62.377c-17.049 0-30.873 13.818-30.873 30.873v160.545c0 17.043 13.824 30.87 30.873 30.87h13.224V529.2c0 11.907 9.682 21.601 21.6 21.601h356.4c11.907 0 21.6-9.693 21.6-21.601V419.302h13.226c17.044 0 30.871-13.827 30.871-30.87v-160.54c-.001-17.054-13.828-30.873-30.872-30.873zM97.2 21.605h250.193v110.513c0 5.967 4.841 10.8 10.8 10.8H453.6v54.108H97.2V21.605zm241.671 204.067L284.545 386.96h-42.591l-51.69-161.288h39.967l19.617 68.196c5.508 19.143 10.531 37.567 14.36 57.67h.717c4.061-19.385 9.089-38.527 14.592-56.953l20.585-68.918h38.77v.005zM68.458 379.54l7.415-30.153c9.811 5.021 24.888 10.051 40.439 10.051 16.751 0 25.607-6.935 25.607-17.465 0-10.052-7.662-15.795-27.05-22.734-26.8-9.328-44.263-24.168-44.263-47.611 0-27.524 22.971-48.579 61.014-48.579 18.188 0 31.591 3.823 41.159 8.131l-8.126 29.437c-6.465-3.116-17.945-7.657-33.745-7.657-15.791 0-23.454 7.183-23.454 15.552 0 10.296 9.089 14.842 29.917 22.731 28.468 10.536 41.871 25.365 41.871 48.094 0 27.042-20.812 50.013-65.09 50.013-18.421-.001-36.614-4.779-45.694-9.81zm385.143 143.813H97.2V419.302h356.4v104.051zm35.31-143.813c-11.243 3.823-32.537 9.103-53.831 9.103-29.437 0-50.73-7.426-65.57-21.779-14.839-13.875-22.971-34.942-22.738-58.625.253-53.604 39.255-84.235 92.137-84.235 20.81 0 36.852 4.073 44.74 7.896l-7.657 29.202c-8.859-3.829-19.849-6.95-37.567-6.95-30.396 0-53.357 17.233-53.357 52.173 0 33.265 20.81 52.882 50.73 52.882 8.375 0 15.072-.96 17.94-2.395v-33.745h-24.875v-28.471h60.049v84.944h-.001z"/></symbol><symbol id="tri" viewBox="0 0 465 465"><path d="M464.944 378.17c-.009-.073-.022-.144-.033-.216a7.465 7.465 0 0 0-.134-.688c-.018-.072-.035-.143-.055-.215a7.3 7.3 0 0 0-.26-.777l-.025-.069a7.542 7.542 0 0 0-.406-.833c-.008-.014-.013-.03-.021-.044L268.158 33.188c-.034-.059-.073-.111-.108-.169a6.784 6.784 0 0 0-.253-.395c-.066-.094-.136-.184-.205-.275a7.428 7.428 0 0 0-.232-.292 6.944 6.944 0 0 0-.27-.297c-.073-.077-.145-.153-.22-.226a8.268 8.268 0 0 0-.311-.283c-.078-.067-.155-.134-.235-.198a7.49 7.49 0 0 0-.322-.241 7.692 7.692 0 0 0-.28-.192 7.276 7.276 0 0 0-.305-.185 7.035 7.035 0 0 0-.341-.188c-.091-.047-.184-.09-.276-.133a6.988 6.988 0 0 0-1.086-.405c-.091-.026-.183-.048-.275-.071a8.364 8.364 0 0 0-.423-.094c-.11-.021-.221-.035-.332-.051-.125-.017-.25-.035-.378-.046a7.38 7.38 0 0 0-.42-.021c-.079-.002-.156-.012-.236-.012h-56.616c-.035 0-.069.006-.104.007a7.617 7.617 0 0 0-.77.051c-.066.008-.131.014-.196.023a7.5 7.5 0 0 0-2.582.876c-.047.026-.095.05-.141.077a7.406 7.406 0 0 0-1.435 1.096c-.049.048-.096.098-.144.147a7.445 7.445 0 0 0-.468.532c-.049.061-.1.121-.147.184a7.671 7.671 0 0 0-.497.742l-.01.015-.002.005L1.005 375.3a7.499 7.499 0 0 0 0 7.5l28.306 49.034c.009.016.021.03.031.046.158.269.33.531.522.781l.002.002a7.4 7.4 0 0 0 .728.805c.178.172.366.336.563.492.047.038.093.077.141.113.241.181.49.353.758.508.265.153.536.281.81.398.021.009.041.021.062.03a7.457 7.457 0 0 0 2.872.577l.045-.003h393.347a7.5 7.5 0 0 0 6.495-3.75l28.309-49.031c.01-.018.017-.038.028-.056a7.46 7.46 0 0 0 .407-.827c.005-.013.009-.027.015-.04.106-.26.194-.528.271-.802.021-.073.038-.146.057-.22.055-.221.099-.445.133-.673.012-.078.026-.155.036-.233.033-.279.054-.561.056-.848l.002-.042v-.009a7.776 7.776 0 0 0-.057-.882zM35.807 413.084L16.16 379.05 205.032 51.913 361.266 322.52H321.97L211.527 131.229c-.014-.024-.03-.045-.044-.068a7.396 7.396 0 0 0-.259-.401c-.052-.076-.101-.155-.156-.228-.085-.116-.178-.226-.27-.338-.069-.083-.135-.168-.207-.247-.079-.088-.166-.17-.25-.255-.094-.094-.186-.19-.284-.278-.071-.064-.146-.123-.22-.184-.12-.1-.239-.2-.364-.292-.068-.05-.14-.095-.21-.143a6.982 6.982 0 0 0-.415-.268c-.023-.014-.043-.03-.067-.043-.06-.035-.122-.061-.183-.094a7.486 7.486 0 0 0-.399-.204 6.925 6.925 0 0 0-.322-.138c-.113-.046-.225-.092-.34-.133-.128-.046-.258-.085-.387-.124-.099-.029-.197-.058-.296-.083a7.992 7.992 0 0 0-1.131-.192 6.49 6.49 0 0 0-.702-.032 6.968 6.968 0 0 0-1.088.08 7.605 7.605 0 0 0-.713.141 7.469 7.469 0 0 0-.325.091 7.53 7.53 0 0 0-.36.115 7.706 7.706 0 0 0-.366.143 7.03 7.03 0 0 0-.298.128c-.143.066-.283.14-.422.216-.055.03-.112.054-.166.085-.021.012-.04.027-.061.039a7.481 7.481 0 0 0-.435.281c-.064.044-.13.086-.193.132-.13.095-.254.198-.377.302-.069.058-.141.114-.208.174-.1.091-.195.189-.291.286-.082.082-.166.163-.243.248-.073.081-.141.167-.21.252-.091.11-.183.219-.267.334-.054.074-.104.153-.156.229-.089.132-.178.263-.259.4-.014.023-.03.044-.044.068L35.807 413.084zm268.842-90.563H162.031l71.309-123.51 71.309 123.51zm120.212 98.063H48.797l156.235-270.606 19.648 34.032L114.239 375.3a7.499 7.499 0 0 0 6.495 11.253h49.636c4.143 0 7.5-3.357 7.5-7.5s-3.357-7.5-7.5-7.5h-36.647l19.649-34.032h164.26l.015.001.015-.001h52.265l19.648 34.032H200.37c-4.143 0-7.5 3.357-7.5 7.5s3.357 7.5 7.5 7.5h202.187l.015.001.015-.001h41.922l-19.648 34.031zm-17.965-49.031L218.022 44.413H257.3l187.264 327.14h-37.668z"/></symbol></svg>