<?xml version="1.0" encoding="UTF-8"?><!DOCTYPE svg PUBLIC "-//W3C//DTD SVG 1.1//EN" "http://www.w3.org/Graphics/SVG/1.1/DTD/svg11.dtd"><svg xmlns="http://www.w3.org/2000/svg"><symbol id="bolt" viewBox="0 0 17 17"><path d="M14.313 2.012H7.161L4.83 9.026h1.666l-2.01 6.052 9.483-8.051h-2.904l3.248-5.015zm-3.066 6.015L6.56 12.006l1.322-3.979H6.217l1.665-5.015h4.592L9.226 8.027h2.021z"/></symbol><symbol id="card" viewBox="0 0 17 17"><path d="M15.5 2h-14C.673 2 0 2.673 0 3.5v10c0 .827.673 1.5 1.5 1.5h14c.827 0 1.5-.673 1.5-1.5v-10c0-.827-.673-1.5-1.5-1.5zm.5 11.5a.5.5 0 0 1-.5.5h-14a.5.5 0 0 1-.5-.5V8h15v5.5zM1 5V3.5a.5.5 0 0 1 .5-.5h14a.5.5 0 0 1 .5.5V5H1z"/></symbol><symbol id="cart" viewBox="0 0 17 17"><path d="M2.75 12.5c-.965 0-1.75.785-1.75 1.75S1.785 16 2.75 16s1.75-.785 1.75-1.75-.785-1.75-1.75-1.75zm0 2.5a.75.75 0 0 1 0-1.5.75.75 0 0 1 0 1.5zm8.5-2.5c-.965 0-1.75.785-1.75 1.75S10.285 16 11.25 16 13 15.215 13 14.25s-.785-1.75-1.75-1.75zm0 2.5a.75.75 0 0 1 0-1.5.75.75 0 0 1 0 1.5zm2.121-13l-.302 2H-.074l1.118 8.036h11.913l1.038-7.463L14.231 3H17V2h-3.629zm-.445 3l-.139 1H1.213l-.139-1h11.852zM1.914 11.036L1.353 7h11.295l-.561 4.036H1.914z"/></symbol><symbol id="close" viewBox="0 0 17 17"><path d="M9.207 8.5l6.646 6.646-.707.707L8.5 9.207l-6.646 6.646-.707-.707L7.793 8.5 1.146 1.854l.707-.707L8.5 7.793l6.646-6.646.707.707L9.207 8.5z"/></symbol><symbol id="down" viewBox="0 0 17 17"><path d="M16.354 5.075l-7.855 7.854L.646 5.075l.707-.707 7.145 7.146 7.148-7.147.708.708z"/></symbol><symbol id="left" viewBox="0 0 17 17"><path d="M5.207 8.471l7.146 7.147-.707.707-7.853-7.854L11.647.618l.707.707-7.147 7.146z"/></symbol><symbol id="menu" viewBox="0 0 17 17"><path d="M16 3v2H1V3h15zM1 10h15V8H1v2zm0 5h15v-2H1v2z"/></symbol><symbol id="mobile" viewBox="0 0 17 17"><path d="M12.5 0h-8C3.673 0 3 .673 3 1.5v14c0 .827.673 1.5 1.5 1.5h8c.827 0 1.5-.673 1.5-1.5v-14c0-.827-.673-1.5-1.5-1.5zm-8 1h8a.5.5 0 0 1 .5.5V3H4V1.5a.5.5 0 0 1 .5-.5zM13 4v8H4V4h9zm-.5 12h-8a.5.5 0 0 1-.5-.5V13h9v2.5a.5.5 0 0 1-.5.5zM9 14.5a.5.5 0 1 1-1 0 .5.5 0 0 1 1 0z"/></symbol><symbol id="right" viewBox="0 0 17 17"><path d="M13.207 8.472l-7.854 7.854-.707-.707 7.146-7.146-7.146-7.148.707-.707 7.854 7.854z"/></symbol><symbol id="search" viewBox="0 0 17 17"><path d="M16.604 15.868l-5.173-5.173A6.468 6.468 0 0 0 13 6.472c0-3.584-2.916-6.5-6.5-6.5a6.466 6.466 0 0 0-4.598 1.903A6.457 6.457 0 0 0 0 6.472c0 3.584 2.916 6.5 6.5 6.5a6.47 6.47 0 0 0 4.224-1.569l5.173 5.173.707-.708zM6.5 11.972a5.506 5.506 0 0 1-5.5-5.5 5.455 5.455 0 0 1 1.61-3.889A5.462 5.462 0 0 1 6.5.972c3.032 0 5.5 2.467 5.5 5.5 0 3.032-2.468 5.5-5.5 5.5z"/></symbol></svg>