<?xml version="1.0" encoding="utf-8"?>
<!-- Generator: Adobe Illustrator 21.1.0, SVG Export Plug-In . SVG Version: 6.00 Build 0)  -->
<svg version="1.1" id="Слой_1" xmlns="http://www.w3.org/2000/svg" xmlns:xlink="http://www.w3.org/1999/xlink" x="0px" y="0px"
	 viewBox="0 0 1920 1080" style="enable-background:new 0 0 1920 1080;" xml:space="preserve">
<style type="text/css">
	.st0{fill:#85A9BF;}
</style>
<g>
	<g>
		<path class="st0" d="M452.9,80.8l-16,7.3l-2.9-6.4l9.6-4.4c1.8-0.8,2.5-2.9,1.7-4.7c-0.8-1.8-2.9-2.5-4.7-1.7
			c-2.2,1-16.2,7.4-19.2,8.7c-5.3,2.4-7.6,8.7-5.2,14l1.5,3.2l-6.6,3l-16.1-35.4c-0.8-1.8,0-3.9,1.7-4.7c1.8-0.8,3.9,0,4.7,1.7
			l2.9,6.4c0.8,1.8,2.9,2.5,4.7,1.7l12.8-5.8c1.8-0.8,2.5-2.9,1.7-4.7l-2.9-6.4c-5.6-12.3-20.2-17.8-32.6-12.2
			c-12.3,5.6-17.8,20.2-12.2,32.6l16.1,35.4l-6.6,3l-1.5-3.2c-2.4-5.3-8.7-7.6-14-5.2c-2.3,1.1-17.1,7.8-19.2,8.7
			c-1.8,0.8-2.5,2.9-1.7,4.7c0.8,1.8,2.9,2.5,4.7,1.7l9.6-4.4l2.9,6.4l-16,7.3c-1.8,0.8-2.5,2.9-1.7,4.7
			c8.9,19.5,31.9,28.2,51.3,19.4l9.8-4.5l4.4,9.6c0.8,1.8,2.9,2.5,4.7,1.7l12.8-5.8c1.8-0.8,2.5-2.9,1.7-4.7l-4.4-9.6l9.8-4.5
			c19.4-8.8,28-31.9,19.1-51.4C456.7,80.8,454.6,80,452.9,80.8z M422.6,90.7c-0.8-1.8,0-3.9,1.7-4.7l3.2-1.5l2.9,6.4l-6.4,2.9
			L422.6,90.7z M382.1,70.3c-4-8.8-0.1-19.3,8.7-23.3c8.8-4,19.3-0.1,23.3,8.7l1.5,3.2l-6.4,2.9l-1.5-3.2c-2.4-5.3-8.7-7.6-14-5.2
			c-5.3,2.4-7.6,8.7-5.2,14l16.1,35.4l-6.4,2.9L382.1,70.3z M369.5,111l3.2-1.5c1.8-0.8,3.9,0,4.7,1.7l1.5,3.2l-6.4,2.9L369.5,111z
			 M425.2,147.7l-6.4,2.9l-2.9-6.4l6.4-2.9L425.2,147.7z M435.5,127.6l-38.8,17.7c-14.8,6.7-32.2,1-40.4-12.8l96.1-43.8
			C457.4,103.9,450.3,120.8,435.5,127.6z"/>
	</g>
</g>
<g>
	<g>
		<path class="st0" d="M250.9,859.8l-16,7.3l-2.9-6.4l9.6-4.4c1.8-0.8,2.5-2.9,1.7-4.7c-0.8-1.8-2.9-2.5-4.7-1.7
			c-2.2,1-16.2,7.4-19.2,8.7c-5.3,2.4-7.6,8.7-5.2,14l1.5,3.2l-6.6,3l-16.1-35.4c-0.8-1.8,0-3.9,1.7-4.7s3.9,0,4.7,1.7l2.9,6.4
			c0.8,1.8,2.9,2.5,4.7,1.7l12.8-5.8c1.8-0.8,2.5-2.9,1.7-4.7l-2.9-6.4c-5.6-12.3-20.2-17.8-32.6-12.2
			c-12.3,5.6-17.8,20.2-12.2,32.6l16.1,35.4l-6.6,3l-1.5-3.2c-2.4-5.3-8.7-7.6-14-5.2c-2.3,1.1-17.1,7.8-19.2,8.7
			c-1.8,0.8-2.5,2.9-1.7,4.7s2.9,2.5,4.7,1.7l9.6-4.4l2.9,6.4l-16,7.3c-1.8,0.8-2.5,2.9-1.7,4.7c8.9,19.5,31.9,28.2,51.3,19.4
			l9.8-4.5l4.4,9.6c0.8,1.8,2.9,2.5,4.7,1.7l12.8-5.8c1.8-0.8,2.5-2.9,1.7-4.7l-4.4-9.6l9.8-4.5c19.4-8.8,28-31.9,19.1-51.4
			C254.7,859.8,252.6,859,250.9,859.8z M220.6,869.7c-0.8-1.8,0-3.9,1.7-4.7l3.2-1.5l2.9,6.4l-6.4,2.9L220.6,869.7z M180.1,849.3
			c-4-8.8-0.1-19.3,8.7-23.3c8.8-4,19.3-0.1,23.3,8.7l1.5,3.2l-6.4,2.9l-1.5-3.2c-2.4-5.3-8.7-7.6-14-5.2c-5.3,2.4-7.6,8.7-5.2,14
			l16.1,35.4l-6.4,2.9L180.1,849.3z M167.5,890l3.2-1.5c1.8-0.8,3.9,0,4.7,1.7l1.5,3.2l-6.4,2.9L167.5,890z M223.2,926.7l-6.4,2.9
			l-2.9-6.4l6.4-2.9L223.2,926.7z M233.5,906.6l-38.8,17.7c-14.8,6.7-32.2,1-40.4-12.8l96.1-43.8
			C255.4,882.9,248.3,899.8,233.5,906.6z"/>
	</g>
</g>
<g>
	<g>
		<path class="st0" d="M185.9,56c-15.8,0-28.7,12.9-28.7,28.7c0,3.5,0.6,6.9,1.9,10.2l-27.5,27.5c-0.4,0.4-0.6,0.9-0.6,1.5v15
			c0,1.2,0.9,2.1,2.1,2.1h12.4c0.6,0,1.1-0.2,1.5-0.6l4.2-4.2c0.4-0.4,0.6-0.9,0.6-1.5v-5.1h5.1c1.2,0,2.1-0.9,2.1-2.1v-2.1h2.1
			c1.2,0,2.1-0.9,2.1-2.1v-4.5h4.5c0.6,0,1.1-0.2,1.5-0.6l6.7-6.7c3.3,1.2,6.7,1.9,10.2,1.9c15.8,0,28.7-12.9,28.7-28.7
			C214.7,68.9,201.8,56,185.9,56z M185.9,109.3c-3.4,0-6.7-0.7-9.9-2.1c-0.8-0.4-1.7-0.2-2.3,0.4c0,0,0,0,0,0l-7,7H161
			c-1.2,0-2.1,0.9-2.1,2.1v4.5h-2.1c-1.2,0-2.1,0.9-2.1,2.1v2.1h-5.1c-1.2,0-2.1,0.9-2.1,2.1v6.4l-2.9,2.9h-9.4v-3l25.6-25.6
			c0.7-0.7,0.7-1.9,0-2.7c-0.7-0.7-1.9-0.7-2.7,0l-22.9,22.9v-3.8L163,96.9c0,0,0,0,0,0c0.6-0.6,0.8-1.5,0.4-2.3
			c-1.4-3.1-2.1-6.4-2.1-9.8c0-13.5,11-24.5,24.5-24.5c13.5,0,24.5,11,24.5,24.5C210.5,98.3,199.5,109.3,185.9,109.3z"/>
	</g>
</g>
<g>
	<g>
		<path class="st0" d="M200.7,78c1.2,4.1-1.8,8.7-6.8,10.2s-10-0.7-11.3-4.8c-1.2-4.1,1.8-8.7,6.8-10.2
			C194.4,71.7,199.4,73.8,200.7,78z M187.5,82c0.6,1.9,2.9,2.9,5.3,2.2s3.7-2.8,3.1-4.8c-0.6-1.9-2.9-2.9-5.3-2.2
			C188.3,77.9,186.9,80,187.5,82z"/>
	</g>
</g>
<g>
	<g>
		<path class="st0" d="M210.2,654.2c-17.2-4-34.5,6.8-38.4,24c-0.9,3.8-1.1,7.7-0.5,11.5l-36.7,23c-0.5,0.3-0.9,0.9-1,1.5l-3.8,16.3
			c-0.3,1.3,0.5,2.5,1.7,2.8l13.5,3.1c0.6,0.1,1.2,0,1.8-0.3l5.6-3.5c0.5-0.3,0.9-0.9,1-1.5l1.3-5.6l5.6,1.3
			c1.3,0.3,2.5-0.5,2.8-1.7l0.5-2.2l2.2,0.5c1.3,0.3,2.5-0.5,2.8-1.7l1.1-4.9l4.9,1.1c0.6,0.1,1.2,0,1.8-0.3l8.9-5.6
			c3.2,2.2,6.8,3.7,10.6,4.6c17.2,4,34.5-6.8,38.4-24C238.2,675.4,227.4,658.2,210.2,654.2z M196.8,712.1c-3.7-0.9-7.2-2.4-10.2-4.7
			c-0.8-0.6-1.8-0.6-2.6-0.1c0,0,0,0,0,0l-9.4,5.9l-6.2-1.4c-1.3-0.3-2.5,0.5-2.8,1.7l-1.1,4.9l-2.2-0.5c-1.3-0.3-2.5,0.5-2.8,1.7
			l-0.5,2.2l-5.6-1.3c-1.3-0.3-2.5,0.5-2.8,1.7l-1.6,6.9l-3.9,2.5l-10.2-2.4l0.7-3.2l34.2-21.4c1-0.6,1.3-1.9,0.7-2.9
			c-0.6-1-1.9-1.3-2.9-0.7l-30.7,19.2l0.9-4.1l37.2-23.3c0,0,0,0,0,0c0.8-0.5,1.2-1.4,1-2.4c-0.7-3.7-0.6-7.5,0.2-11.2
			c3.4-14.7,18.1-23.9,32.8-20.5c14.7,3.4,23.9,18.1,20.5,32.8C226.2,706.3,211.5,715.5,196.8,712.1z"/>
	</g>
</g>
<g>
	<g>
		<path class="st0" d="M196.5,675.3c-3.6,3.2-4,8.7-0.8,12.3c3.2,3.6,8.7,4,12.3,0.8c3.6-3.2,4-8.7,0.8-12.3
			S200.1,672.1,196.5,675.3z M205,684.9c-1.7,1.5-4.3,1.3-5.8-0.4c-1.5-1.7-1.3-4.3,0.4-5.8c1.7-1.5,4.3-1.3,5.8,0.4
			C206.8,680.8,206.6,683.4,205,684.9z"/>
	</g>
</g>
<g>
	<g>
		<path class="st0" d="M67,605c-19.9,0-36,16.2-36,36c0,9.6,3.8,18.7,10.6,25.5c0.2,0.2,0.5,1,0.6,1.4c0.1,3,0.9,9.9,5.8,15.2
			c-0.3,0.4-0.5,0.8-0.7,1.2c-0.8,2-0.6,4.2,0.4,5.9c-0.8,2-0.5,4.2,0.4,5.8c0,0,0,0,0,0c-1.2,2.9-0.2,6.3,2.2,7.9
			c0.1,0.1,2,1.3,5.2,2.4c0,0.4-0.2,4.5,2.7,7.6c2.1,2.3,5.1,3.4,8.9,3.5c0.1,0,0.2,0,0.3,0c3.7,0,6.6-1.1,8.6-3.3
			c2.8-3.1,2.6-7.1,2.5-7.8c3-1.1,4.8-2.2,5.2-2.4c2.5-1.6,3.4-5,2.2-7.9c0,0,0,0,0,0c1-1.7,1.2-3.8,0.5-5.8c1-1.7,1.2-4,0.4-6
			c-0.2-0.4-0.4-0.8-0.6-1.1c4.8-5.4,5.6-12.3,5.8-15.3c0-0.4,0.4-1.2,0.6-1.4c6.8-6.8,10.6-15.9,10.6-25.5
			C103,621.2,86.8,605,67,605z M71.4,710.2c-0.8,0.9-2.3,1.3-4.2,1.3c-2.1,0-3.6-0.5-4.5-1.5c-0.6-0.6-0.8-1.3-1-1.9
			c1,0.2,2,0.3,3.1,0.4c1.1,0.1,1.9,0.1,2.1,0.1c0,0,0.1,0,0.1,0s0.1,0,0.1,0c0.2,0,1,0,2.1-0.1c1.1-0.1,2.2-0.2,3.2-0.4
			C72.2,708.7,72,709.5,71.4,710.2z M80.5,693c-0.8,0.5-1.4,1.3-1.5,2.2c-0.2,1.5,0.7,2.6,1.2,3.2c0.1,0.2,0,0.5,0.1,0.4
			c0,0-4.6,2.9-11.6,3.4c-0.8,0.1-1.5,0.1-1.7,0.1c-0.2,0-0.9,0-1.7-0.1c-7-0.5-11.5-3.3-11.5-3.3c0,0,0,0,0,0
			c0-0.1-0.1-0.3,0.1-0.7c0.4-0.5,1.4-1.5,1.1-3.1c-0.1-0.9-0.7-1.8-1.5-2.2l-0.1,0c0-0.1-0.1-0.3,0-0.6c0.4-0.6,1.3-1.6,1-3.1
			c-0.1-0.6-0.4-1.2-0.8-1.6c2.4,1.1,6.8,2.7,12.7,2.8h1.4c2.4,0,4.6-0.3,6.5-0.8c0.3-0.1,0.7-0.2,1-0.2c0.6-0.2,1.2-0.3,1.8-0.5
			c0.4-0.1,0.8-0.2,1.1-0.4c0.9-0.3,1.6-0.6,2.2-0.9c-0.4,0.4-0.7,1-0.8,1.6c-0.3,1.5,0.5,2.5,1.1,3.2c0.1,0.2,0,0.4,0.1,0.4h0
			L80.5,693z M88.1,662.2c-1.3,1.3-2.3,3.6-2.4,5.5c-0.2,5-2,12.8-10.8,15.6c-0.1,0-0.2,0.1-0.3,0.1c-2,0.6-4.4,1-7.3,1H67
			c-15.8-0.1-18.5-10.5-18.8-16.6c-0.1-1.9-1-4.1-2.4-5.5c-5.7-5.7-8.8-13.2-8.8-21.2c0-16.5,13.4-29.9,29.9-29.9
			c16.5,0,29.9,13.4,29.9,29.9C96.9,649,93.8,656.5,88.1,662.2z"/>
		<path class="st0" d="M80.3,648.9c-13.1,10.7-26,0.4-26.6,0c-0.3-0.3-0.8-0.3-1.1-0.1c-0.4,0.2-0.6,0.6-0.5,1l4.2,28.2
			c0.1,0.6,0.6,0.9,1.2,0.9c0.6-0.1,0.9-0.6,0.9-1.2l-3.8-26c4.2,2.6,14.5,7.2,25,0.2l-4.9,25.7c-0.1,0.6,0.3,1.1,0.8,1.2
			c0.1,0,0.1,0,0.2,0c0.5,0,0.9-0.3,1-0.8l5.3-28.2c0.1-0.4-0.1-0.8-0.5-1.1C81.1,648.6,80.6,648.7,80.3,648.9z"/>
	</g>
</g>
<g>
	<g>
		<path class="st0" d="M140.2,185c-17.8-8.9-39.5-1.7-48.3,16.1c-4.3,8.6-5,18.4-1.9,27.6c0.1,0.3,0.1,1.1-0.1,1.5
			c-1.2,2.7-3.6,9.2-1.6,16.2c-0.4,0.2-0.8,0.5-1.1,0.8c-1.6,1.4-2.4,3.5-2.3,5.5c-1.6,1.4-2.3,3.5-2.2,5.4c0,0,0,0,0,0
			c-2.4,2.1-3,5.5-1.5,8c0.1,0.1,1.2,2,3.5,4.5c-0.2,0.4-2.2,3.9-1,8c0.8,3,3,5.4,6.4,7.1c0.1,0,0.2,0.1,0.2,0.1
			c3.3,1.7,6.4,2,9.1,0.9c3.9-1.5,5.5-5.2,5.8-5.9c3.2,0.4,5.3,0.2,5.7,0.2c2.9-0.3,5.3-2.9,5.5-6.1c0,0,0,0,0,0
			c1.6-1.1,2.8-2.9,3-5c1.7-1.1,2.9-3,3-5.2c0-0.4,0-0.8,0-1.3c6.7-2.7,10.5-8.5,12-11.1c0.2-0.4,0.8-0.9,1.1-1
			c9.2-3.1,16.6-9.5,20.9-18.1C165.1,215.5,157.9,193.8,140.2,185z M97,281c-1.1,0.4-2.6,0.2-4.3-0.7c-1.8-1-3-2.1-3.3-3.3
			c-0.2-0.8-0.2-1.6,0-2.2c0.8,0.6,1.7,1.2,2.6,1.7c0.9,0.5,1.6,0.9,1.8,1c0,0,0,0,0.1,0c0,0,0,0,0.1,0c0.2,0.1,0.9,0.4,1.9,0.8
			c1,0.4,2,0.8,3,1.1C98.4,280,97.9,280.6,97,281z M112.8,269.7c-0.9,0.1-1.8,0.6-2.4,1.3c-0.9,1.3-0.6,2.6-0.3,3.4
			c0,0.2-0.2,0.4-0.1,0.4c-0.1,0-5.4,0.5-11.9-2.2c-0.8-0.3-1.4-0.6-1.5-0.7c-0.2-0.1-0.8-0.4-1.5-0.8c-6-3.6-8.8-8.1-8.8-8.1
			c0,0,0,0,0,0c0-0.1,0.1-0.4,0.4-0.6c0.6-0.2,1.9-0.8,2.4-2.3c0.3-0.9,0.1-1.9-0.4-2.7l-0.1,0c0-0.1,0.1-0.3,0.3-0.6
			c0.6-0.3,1.8-0.8,2.2-2.3c0.2-0.6,0.2-1.2,0-1.8c1.6,2.1,4.9,5.5,10.1,8.2l1.2,0.6c2.2,1.1,4.3,1.8,6.2,2.2c0.3,0.1,0.7,0.2,1,0.2
			c0.6,0.1,1.2,0.3,1.8,0.3c0.4,0.1,0.8,0.1,1.2,0.2c0.9,0.1,1.7,0.2,2.4,0.2c-0.6,0.2-1.1,0.6-1.5,1.1c-0.9,1.2-0.6,2.5-0.5,3.3
			c0,0.2-0.2,0.4-0.1,0.4l0,0L112.8,269.7z M133.4,245.6c-1.8,0.6-3.6,2.2-4.6,3.8c-2.4,4.4-7.5,10.5-16.7,9.1c-0.1,0-0.2,0-0.3-0.1
			c-2.1-0.4-4.4-1.1-6.9-2.4l-0.3-0.1c-14-7.2-11.9-17.7-9.3-23.3c0.8-1.8,0.9-4.2,0.3-6c-2.6-7.6-2-15.7,1.6-22.9
			c7.4-14.8,25.4-20.7,40.1-13.4c14.8,7.4,20.7,25.4,13.4,40.1C147.2,237.7,141.1,243,133.4,245.6z"/>
		<path class="st0" d="M132.4,230.2c-16.5,3.7-23.5-11.3-23.8-11.9c-0.2-0.4-0.6-0.6-1-0.6c-0.4,0-0.8,0.3-0.9,0.7l-8.9,27.1
			c-0.2,0.5,0.1,1.1,0.6,1.3c0.5,0.2,1.1-0.1,1.3-0.6l8.2-24.9c2.6,4.2,9.7,12.9,22.3,11.4l-15.8,20.8c-0.3,0.4-0.3,1.1,0.2,1.4
			c0.1,0,0.1,0.1,0.2,0.1c0.4,0.2,1,0.1,1.3-0.3l17.4-22.9c0.3-0.3,0.3-0.8,0-1.2C133.2,230.3,132.8,230.1,132.4,230.2z"/>
	</g>
</g>
<g>
	<g>
		<path class="st0" d="M38,25c-12.1,0-22,9.9-22,22c0,5.9,2.3,11.4,6.5,15.6c0.1,0.1,0.3,0.6,0.3,0.8c0.1,1.8,0.6,6,3.5,9.3
			c-0.2,0.2-0.3,0.5-0.4,0.7c-0.5,1.2-0.4,2.6,0.3,3.6c-0.5,1.2-0.3,2.5,0.3,3.6c0,0,0,0,0,0c-0.7,1.8-0.1,3.9,1.4,4.8
			c0.1,0.1,1.2,0.8,3.2,1.5c0,0.3-0.2,2.7,1.6,4.7c1.3,1.4,3.1,2.1,5.5,2.1c0.1,0,0.1,0,0.2,0c2.3,0,4-0.7,5.2-2
			c1.7-1.9,1.6-4.3,1.5-4.8c1.8-0.7,3-1.3,3.2-1.5c1.5-1,2.1-3.1,1.4-4.8c0,0,0,0,0,0c0.6-1,0.7-2.3,0.3-3.5
			c0.6-1.1,0.7-2.4,0.2-3.7c-0.1-0.2-0.2-0.5-0.4-0.7c2.9-3.3,3.4-7.5,3.5-9.4c0-0.2,0.2-0.7,0.4-0.9C57.7,58.4,60,52.9,60,47
			C60,34.9,50.1,25,38,25z M40.7,89.3c-0.5,0.5-1.4,0.8-2.6,0.8c-1.3,0-2.2-0.3-2.7-0.9c-0.3-0.4-0.5-0.8-0.6-1.2
			c0.6,0.1,1.2,0.2,1.9,0.2c0.6,0,1.2,0.1,1.3,0.1c0,0,0,0,0.1,0s0,0,0.1,0c0.1,0,0.6,0,1.3-0.1c0.7-0.1,1.3-0.1,1.9-0.2
			C41.2,88.4,41,88.9,40.7,89.3z M46.2,78.8c-0.5,0.3-0.8,0.8-0.9,1.4c-0.2,0.9,0.4,1.6,0.8,2c0.1,0.1,0,0.3,0.1,0.3
			c0,0-2.8,1.8-7.1,2.1c-0.5,0-0.9,0-1,0c-0.1,0-0.5,0-1,0c-4.3-0.3-7-2-7-2c0,0,0,0,0,0c0,0-0.1-0.2,0.1-0.4
			c0.3-0.3,0.8-0.9,0.7-1.9c-0.1-0.6-0.5-1.1-0.9-1.4l0,0c0,0-0.1-0.2,0-0.4c0.3-0.3,0.8-1,0.6-1.9c-0.1-0.4-0.3-0.7-0.5-1
			c1.5,0.7,4.2,1.7,7.8,1.7h0.8c1.5,0,2.8-0.2,4-0.5c0.2,0,0.4-0.1,0.6-0.1c0.4-0.1,0.7-0.2,1.1-0.3c0.2-0.1,0.5-0.2,0.7-0.2
			c0.5-0.2,1-0.4,1.4-0.6c-0.3,0.3-0.4,0.6-0.5,1c-0.2,0.9,0.3,1.5,0.6,1.9c0,0.1,0,0.3,0.1,0.3h0L46.2,78.8z M50.9,60
			c-0.8,0.8-1.4,2.2-1.4,3.3c-0.1,3.1-1.2,7.8-6.6,9.5c-0.1,0-0.1,0-0.2,0.1c-1.2,0.4-2.7,0.6-4.5,0.6H38
			c-9.6-0.1-11.3-6.4-11.5-10.2c0-1.2-0.6-2.5-1.4-3.3c-3.5-3.5-5.4-8.1-5.4-13c0-10.1,8.2-18.3,18.3-18.3
			c10.1,0,18.3,8.2,18.3,18.3C56.3,51.9,54.4,56.5,50.9,60z"/>
		<path class="st0" d="M46.1,51.9c-8,6.6-15.9,0.3-16.2,0c-0.2-0.2-0.5-0.2-0.7-0.1c-0.2,0.1-0.3,0.4-0.3,0.6l2.5,17.3
			c0.1,0.3,0.4,0.6,0.7,0.5c0.3,0,0.6-0.4,0.5-0.7l-2.3-15.9c2.6,1.6,8.8,4.4,15.3,0.1l-3,15.7c-0.1,0.3,0.2,0.7,0.5,0.7
			c0,0,0.1,0,0.1,0c0.3,0,0.6-0.2,0.6-0.5l3.3-17.3c0-0.3-0.1-0.5-0.3-0.7C46.6,51.7,46.3,51.7,46.1,51.9z"/>
	</g>
</g>
<g>
	<g>
		<path class="st0" d="M248,327c-12.1,0-22,9.9-22,22c0,5.9,2.3,11.4,6.5,15.6c0.1,0.1,0.3,0.6,0.3,0.8c0.1,1.8,0.6,6,3.5,9.3
			c-0.2,0.2-0.3,0.5-0.4,0.7c-0.5,1.2-0.4,2.6,0.3,3.6c-0.5,1.2-0.3,2.5,0.3,3.6c0,0,0,0,0,0c-0.7,1.8-0.1,3.9,1.4,4.8
			c0.1,0.1,1.2,0.8,3.2,1.5c0,0.3-0.2,2.7,1.6,4.7c1.3,1.4,3.1,2.1,5.5,2.1c0.1,0,0.1,0,0.2,0c2.3,0,4-0.7,5.2-2
			c1.7-1.9,1.6-4.3,1.5-4.8c1.8-0.7,3-1.3,3.2-1.5c1.5-1,2.1-3.1,1.4-4.8c0,0,0,0,0,0c0.6-1,0.7-2.3,0.3-3.5
			c0.6-1.1,0.7-2.4,0.2-3.7c-0.1-0.2-0.2-0.5-0.4-0.7c2.9-3.3,3.4-7.5,3.5-9.4c0-0.2,0.2-0.7,0.4-0.9c4.2-4.2,6.5-9.7,6.5-15.6
			C270,336.9,260.1,327,248,327z M250.7,391.3c-0.5,0.5-1.4,0.8-2.6,0.8c-1.3,0-2.2-0.3-2.7-0.9c-0.3-0.4-0.5-0.8-0.6-1.2
			c0.6,0.1,1.2,0.2,1.9,0.2c0.6,0,1.2,0.1,1.3,0.1c0,0,0,0,0.1,0c0,0,0,0,0.1,0c0.1,0,0.6,0,1.3-0.1c0.7-0.1,1.3-0.1,1.9-0.2
			C251.2,390.4,251,390.9,250.7,391.3z M256.2,380.8c-0.5,0.3-0.8,0.8-0.9,1.4c-0.2,0.9,0.4,1.6,0.8,2c0.1,0.1,0,0.3,0.1,0.3
			c0,0-2.8,1.8-7.1,2.1c-0.5,0-0.9,0-1,0c-0.1,0-0.5,0-1,0c-4.3-0.3-7-2-7-2c0,0,0,0,0,0c0,0-0.1-0.2,0.1-0.4
			c0.3-0.3,0.8-0.9,0.7-1.9c-0.1-0.6-0.5-1.1-0.9-1.4l0,0c0,0-0.1-0.2,0-0.4c0.3-0.3,0.8-1,0.6-1.9c-0.1-0.4-0.3-0.7-0.5-1
			c1.5,0.7,4.2,1.7,7.8,1.7h0.8c1.5,0,2.8-0.2,4-0.5c0.2,0,0.4-0.1,0.6-0.1c0.4-0.1,0.7-0.2,1.1-0.3c0.2-0.1,0.5-0.2,0.7-0.2
			c0.5-0.2,1-0.4,1.4-0.6c-0.3,0.3-0.4,0.6-0.5,1c-0.2,0.9,0.3,1.5,0.6,1.9c0,0.1,0,0.3,0.1,0.3h0L256.2,380.8z M260.9,362
			c-0.8,0.8-1.4,2.2-1.4,3.3c-0.1,3.1-1.2,7.8-6.6,9.5c-0.1,0-0.1,0-0.2,0.1c-1.2,0.4-2.7,0.6-4.5,0.6H248
			c-9.6-0.1-11.3-6.4-11.5-10.2c0-1.2-0.6-2.5-1.4-3.3c-3.5-3.5-5.4-8.1-5.4-13c0-10.1,8.2-18.3,18.3-18.3
			c10.1,0,18.3,8.2,18.3,18.3C266.3,353.9,264.4,358.5,260.9,362z"/>
		<path class="st0" d="M256.1,353.9c-8,6.6-15.9,0.3-16.2,0c-0.2-0.2-0.5-0.2-0.7-0.1c-0.2,0.1-0.3,0.4-0.3,0.6l2.5,17.3
			c0.1,0.3,0.4,0.6,0.7,0.5c0.3,0,0.6-0.4,0.5-0.7l-2.3-15.9c2.6,1.6,8.8,4.4,15.3,0.1l-3,15.7c-0.1,0.3,0.2,0.7,0.5,0.7
			c0,0,0.1,0,0.1,0c0.3,0,0.6-0.2,0.6-0.5l3.3-17.3c0-0.3-0.1-0.5-0.3-0.7C256.6,353.7,256.3,353.7,256.1,353.9z"/>
	</g>
</g>
<g>
	<g>
		<path class="st0" d="M184.7,452.2l-15.1-27.4c-0.6-1.2-2-1.8-3.3-1.5l-17.6,3.8c-1.3,0.3-2.3,1.4-2.4,2.7l-2.5,31.2
			c-0.1,0.9,0.3,1.9,1,2.5c0.7,0.6,1.7,0.9,2.6,0.7l14.7-3.2l1,4.7c0.8,3.9-1.6,7.7-5.5,8.6c-0.8,0.2-1.7,0.2-2.5,0.1l-26.8-3.7
			c-2.5-0.3-4.5-2.2-5.1-4.7l-0.6-2.6l-19-88c8.1-1.7,13.2-9.7,11.5-17.8c-0.4-1.6-1.9-2.6-3.6-2.3l-29.3,6.3
			c-1.6,0.4-2.6,1.9-2.3,3.6c1.7,8.1,9.7,13.2,17.8,11.5l19,88l0.6,2.6c0.5,2.5-0.5,5-2.7,6.3L92,488.1c-0.7,0.4-1.5,0.8-2.3,0.9
			c-3.9,0.8-7.7-1.6-8.6-5.5l-1-4.7l14.7-3.2c0.9-0.2,1.7-0.8,2.1-1.7c0.4-0.9,0.4-1.9-0.1-2.7l-15.1-27.4c-0.6-1.2-2-1.8-3.3-1.5
			l-17.6,3.8c-1.3,0.3-2.3,1.4-2.4,2.7l-2.5,31.2c-0.1,0.9,0.3,1.9,1,2.5c0.7,0.6,1.7,0.9,2.6,0.7l14.7-3.2l1,4.7
			c1.5,7.1,8.6,11.7,15.7,10.1c1.5-0.3,2.9-0.9,4.2-1.7l22.9-14.4c1.8-1.1,3.1-2.7,4-4.5c1.6,1.2,3.5,2.1,5.5,2.4l26.8,3.7
			c1.5,0.2,3.1,0.2,4.6-0.2c7.1-1.5,11.7-8.6,10.1-15.7l-1-4.7l14.7-3.2c0.9-0.2,1.7-0.8,2.1-1.7
			C185.2,454.1,185.2,453.1,184.7,452.2z M62.2,476.5l2-25l13.2-2.9l12.1,21.9L62.2,476.5z M96.7,370.9c-3.8,0.8-7.6-0.9-9.6-4.1
			l22.5-4.9c-0.5,3.7-3.2,6.8-7,7.7L96.7,370.9z M150.2,457.5l2-25l13.2-2.9l12.1,21.9L150.2,457.5z"/>
	</g>
</g>
<g>
	<g>
		<path class="st0" d="M455.2,896.4l-3.5-17.2c-0.1-0.7-0.8-1.3-1.5-1.3l-10-0.9c-0.7-0.1-1.4,0.4-1.7,1l-6.6,16.3
			c-0.2,0.5-0.2,1.1,0.1,1.5c0.3,0.5,0.8,0.7,1.3,0.8l8.4,0.8l-0.2,2.7c-0.2,2.2-2.2,3.9-4.4,3.6c-0.5,0-0.9-0.2-1.4-0.4l-13.7-6.5
			c-1.3-0.6-2-1.9-1.9-3.4l0.1-1.5l4.6-50.2c4.6,0.4,8.7-3,9.1-7.6c0.1-0.9-0.6-1.7-1.5-1.8l-16.7-1.5c-0.9-0.1-1.7,0.6-1.8,1.5
			c-0.4,4.6,3,8.7,7.6,9.1l-4.6,50.2l-0.1,1.5c-0.1,1.4-1.1,2.6-2.5,2.9l-14.6,3.8c-0.5,0.1-0.9,0.2-1.4,0.1
			c-2.2-0.2-3.9-2.2-3.6-4.4l0.2-2.7l8.4,0.8c0.5,0,1-0.2,1.4-0.5c0.4-0.4,0.5-0.9,0.4-1.5l-3.5-17.2c-0.1-0.7-0.8-1.3-1.5-1.3
			l-10-0.9c-0.7-0.1-1.4,0.4-1.7,1l-6.6,16.3c-0.2,0.5-0.2,1.1,0.1,1.5c0.3,0.5,0.8,0.7,1.3,0.8l8.4,0.8l-0.2,2.7
			c-0.4,4.1,2.6,7.7,6.7,8c0.9,0.1,1.7,0,2.6-0.2l14.6-3.8c1.1-0.3,2.1-0.9,2.9-1.7c0.7,0.9,1.5,1.7,2.6,2.2l13.7,6.5
			c0.8,0.4,1.6,0.6,2.5,0.7c4.1,0.4,7.7-2.6,8-6.7l0.2-2.7l8.4,0.8c0.5,0,1-0.2,1.4-0.5C455.2,897.5,455.3,897,455.2,896.4z
			 M385.7,888.8l5.3-13l7.6,0.7l2.8,13.8L385.7,888.8z M421.9,838.1c-2.2-0.2-3.9-1.8-4.4-3.8l12.8,1.2c-0.9,1.9-2.9,3.1-5,2.9
			L421.9,838.1z M435.9,893.5l5.3-13l7.6,0.7l2.8,13.8L435.9,893.5z"/>
	</g>
</g>
<g>
	<g>
		<path class="st0" d="M369.5,747.3c-2-3.9-6.4-5.6-9.9-3.8l-58.7,30.8l-12-22.8c-1.4-2.6-0.6-5.7,1.7-7l1.1-0.6
			c1.1-0.6,2.5-0.6,3.7-0.1l-0.1,0.3c-1.3,5.2,1.8,11,6.7,12.9l1.7,0.6c0.7,0.3,1.5,0.2,2.1-0.1c0.6-0.3,1.1-0.9,1.3-1.7l4.2-17.4
			c0.4-1.6-0.5-3.3-2-3.8l-1.7-0.6c-2.4-0.9-4.9-0.8-7.1,0.3c-1.6,0.9-2.9,2.2-3.7,4c-2.7-1.1-5.6-1-8.1,0.3l-1.1,0.6
			c-5,2.6-6.6,9.3-3.6,14.9l12,22.8c-2.9,2-3.8,6.3-1.9,9.9c1.6,3,4.5,4.7,7.4,4.5l4.7,9c4.1,7.9,12.6,11.9,19.9,10l-0.8,3.4
			c-0.4,1.6,0.5,3.3,2,3.8c0.7,0.3,1.5,0.2,2.1-0.1c0.6-0.3,1.1-0.9,1.3-1.7l2.1-8.5l31.4-16.5l8.2,3.1c0.7,0.3,1.5,0.2,2.1-0.1
			c0.6-0.3,1.1-0.9,1.3-1.7c0.4-1.6-0.5-3.3-2-3.8l-3.3-1.3c5.8-5,7.3-14.2,3.1-22.1l-4.7-9C370.8,753.7,371.1,750.3,369.5,747.3z
			 M303.6,739.8c0.6-0.3,1.2-0.4,1.8-0.4l-2.8,11.5c-1.4-1-2.2-2.9-1.7-4.6l1-4.2C302.1,741.1,302.7,740.3,303.6,739.8z M299.6,782
			l62.9-33c0.8-0.4,1.8,0,2.2,0.8c0.5,0.9,0.2,1.9-0.6,2.3l-62.9,33c-0.8,0.4-1.8,0-2.2-0.8C298.6,783.4,298.8,782.4,299.6,782z
			 M368.9,767.4c3.2,6,1.4,13.2-3.9,16l-38.5,20.2c-5.3,2.8-12.2,0.1-15.4-5.9l-4.4-8.4l57.8-30.3L368.9,767.4z"/>
		<path class="st0" d="M318,758.3c0.4,0.1,0.7,0.1,1,0c0.3-0.2,0.5-0.4,0.6-0.8c0.2-0.8-0.3-1.6-1-1.9l-1.9-0.7
			c-0.7-0.3-1.5,0.1-1.6,0.9s0.3,1.6,1,1.9L318,758.3z"/>
		<path class="st0" d="M320.8,755.2l1.9,0.7c0.4,0.1,0.7,0.1,1,0c0.3-0.2,0.5-0.4,0.6-0.8c0.2-0.8-0.3-1.6-1-1.9l-1.9-0.7
			c-0.7-0.3-1.5,0.1-1.6,0.9C319.6,754.1,320.1,754.9,320.8,755.2z"/>
		<path class="st0" d="M313.5,751.5l-1.9-0.7c-0.7-0.3-1.5,0.1-1.6,0.9c-0.2,0.8,0.3,1.6,1,1.9l1.9,0.7c0.4,0.1,0.7,0.1,1,0
			c0.3-0.2,0.5-0.4,0.6-0.8C314.7,752.7,314.3,751.8,313.5,751.5z"/>
		<path class="st0" d="M316.4,748.4c-0.7-0.3-1.5,0.1-1.6,0.9s0.3,1.6,1,1.9l1.9,0.7c0.4,0.1,0.7,0.1,1,0c0.3-0.2,0.5-0.4,0.6-0.8
			c0.2-0.8-0.3-1.6-1-1.9L316.4,748.4z"/>
		<path class="st0" d="M311.8,743.9c-0.2,0.8,0.3,1.6,1,1.9l1.9,0.7c0.4,0.1,0.7,0.1,1,0c0.3-0.2,0.5-0.4,0.6-0.8
			c0.2-0.8-0.3-1.6-1-1.9l-1.9-0.7C312.7,742.8,312,743.1,311.8,743.9z"/>
		<path class="st0" d="M321.2,747.9c0.4,0.1,0.7,0.1,1,0c0.3-0.2,0.5-0.4,0.6-0.8c0.2-0.8-0.3-1.6-1-1.9l-1.9-0.7
			c-0.7-0.3-1.5,0.1-1.6,0.9c-0.2,0.8,0.3,1.6,1,1.9L321.2,747.9z"/>
	</g>
</g>
<g>
	<g>
		<path class="st0" d="M126.3,1031.6c2.9-4.6,1.5-10.6-3.1-13.5l-78.5-49.5l16.9-26.9c1.9-3.1,6.1-4,9.1-2.1l1.5,0.9
			c1.5,1,2.6,2.5,2.9,4.2l-0.4,0.1c-6.8,1.5-11.1,8.3-9.6,15.2l0.5,2.3c0.2,1,0.9,1.8,1.7,2.4c0.8,0.5,1.8,0.7,2.9,0.5l22.8-5.2
			c2-0.5,3.3-2.5,2.9-4.5l-0.5-2.3c-0.7-3.3-2.7-6.1-5.6-7.9c-2.2-1.4-4.7-2-7.2-1.9c-0.8-3.7-3-7.1-6.3-9.1l-1.5-0.9
			c-6.6-4.2-15.4-2.2-19.6,4.4l-17,26.9c-4.4-2.2-9.9-0.8-12.7,3.5c-2.2,3.5-1.9,7.9,0.4,11l-6.7,10.6c-5.9,9.3-4.2,21.3,3.5,28.6
			l-4.5,1c-2,0.5-3.3,2.5-2.9,4.5c0.2,1,0.9,1.8,1.7,2.4c0.8,0.5,1.8,0.7,2.9,0.5l11.2-2.5l42,26.4l2.5,11.2c0.2,1,0.9,1.8,1.7,2.4
			c0.8,0.5,1.8,0.7,2.9,0.5c2-0.5,3.3-2.5,2.9-4.5l-1-4.5c9.9,3.7,21.5,0.1,27.3-9.2l6.7-10.6C120,1036.7,124.1,1035.1,126.3,1031.6
			z M85.8,951.6c0.7,0.5,1.3,1.1,1.8,1.9l-15.1,3.4c0.1-2.2,1.7-4.2,4-4.7l5.5-1.2C83.3,950.7,84.6,950.9,85.8,951.6z M35,971.4
			l84.1,53c1,0.6,1.3,2,0.7,3c-0.6,1-2,1.3-3,0.7l-84.1-53c-1-0.6-1.3-2-0.7-3C32.7,971.1,34,970.8,35,971.4z M103.1,1042.4
			c-4.5,7.1-13.9,9.2-21,4.8l-51.5-32.5c-7.1-4.5-9.2-13.9-4.8-21l6.2-9.9l77.3,48.7L103.1,1042.4z"/>
		<path class="st0" d="M75.5,978.9c0.1,0.5,0.4,0.9,0.8,1.1s0.9,0.3,1.4,0.2c1-0.2,1.6-1.2,1.4-2.2l-0.6-2.5c-0.2-1-1.2-1.6-2.2-1.4
			c-1,0.2-1.6,1.2-1.4,2.2L75.5,978.9z"/>
		<path class="st0" d="M81.2,980.3l0.6,2.5c0.1,0.5,0.4,0.9,0.8,1.1s0.9,0.3,1.4,0.2c1-0.2,1.6-1.2,1.4-2.2l-0.6-2.5
			c-0.2-1-1.2-1.6-2.2-1.4C81.6,978.3,80.9,979.3,81.2,980.3z"/>
		<path class="st0" d="M79.9,969.8l-0.6-2.5c-0.2-1-1.2-1.6-2.2-1.4c-1,0.2-1.6,1.2-1.4,2.2l0.6,2.5c0.1,0.5,0.4,0.9,0.8,1.1
			s0.9,0.3,1.4,0.2C79.5,971.8,80.1,970.8,79.9,969.8z"/>
		<path class="st0" d="M85.6,971.2c-0.2-1-1.2-1.6-2.2-1.4c-1,0.2-1.6,1.2-1.4,2.2l0.6,2.5c0.1,0.5,0.4,0.9,0.8,1.1s0.9,0.3,1.4,0.2
			c1-0.2,1.6-1.2,1.4-2.2L85.6,971.2z"/>
		<path class="st0" d="M87.3,963.4c-1,0.2-1.6,1.2-1.4,2.2l0.6,2.5c0.1,0.5,0.4,0.9,0.8,1.1c0.4,0.3,0.9,0.3,1.4,0.2
			c1-0.2,1.6-1.2,1.4-2.2l-0.6-2.5C89.2,963.8,88.3,963.2,87.3,963.4z"/>
		<path class="st0" d="M89.7,976.5c0.1,0.5,0.4,0.9,0.8,1.1s0.9,0.3,1.4,0.2c1-0.2,1.6-1.2,1.4-2.2l-0.6-2.5c-0.2-1-1.2-1.6-2.2-1.4
			c-1,0.2-1.6,1.2-1.4,2.2L89.7,976.5z"/>
	</g>
</g>
<g>
	<g>
		<path class="st0" d="M96.1,821.1l-26-10.5l8.8-21.8l2.4,1c1.3,0.5,2.8-0.2,3.4-1.7l2.2-5.4c1.8-4.4,0.1-9.3-3.8-10.9l-23.6-9.6
			c-3.9-1.6-8.5,0.7-10.3,5.2l-2.2,5.4c-0.6,1.5,0,3.1,1.3,3.6l2.4,1l-12.1,29.8c-1.4,3.5-0.6,7.3,1.7,9.5l-3.4,8.5
			c-2.5,6.2-0.9,12.8,3.5,16.4L31.1,853c-0.6,0.7-0.8,1.7-0.7,2.5c0.2,0.9,0.7,1.6,1.5,1.9L60.2,869c0.8,0.3,1.6,0.2,2.4-0.3
			c0.7-0.5,1.2-1.4,1.3-2.3l1.4-14l1.4,0.6c10.9,4.4,23.8-1.3,29.8-12.9l2.5,1c1.3,0.5,2.8-0.2,3.4-1.7
			C105.5,831.9,102.6,823.8,96.1,821.1z M52.7,772l1.1-2.7c0.6-1.5,2.1-2.2,3.4-1.7l23.6,9.6c1.3,0.5,1.9,2.2,1.3,3.6l-1.1,2.7
			C79,782.6,54,772.5,52.7,772z M44.5,812.7c-1.3-0.5-1.9-2.2-1.3-3.6l12.1-29.8l18.9,7.7L61,819.4L44.5,812.7z M68.9,847.5
			l-4.7-1.9c-0.8-0.3-1.6-0.2-2.4,0.3c-0.7,0.5-1.2,1.4-1.3,2.3l-1.4,14l-21.8-8.8l8.8-11.1c0.6-0.7,0.8-1.7,0.7-2.5
			c-0.2-0.9-0.7-1.6-1.5-1.9c-3.9-1.6-5.6-6.5-3.8-10.9l3.3-8.1c2,0.8,45,18.2,47.1,19.1C87,846.7,77.2,850.9,68.9,847.5z
			 M65.8,821.3l2.2-5.4l26,10.5c3.1,1.2,4.8,4.5,4.5,8.1L65.8,821.3z"/>
	</g>
</g>
<g>
	<g>
		<path class="st0" d="M380.4,965.7l-32.2,1.5l-1.4-30l2.9-0.1c1.6-0.1,2.8-1.8,2.8-3.8l-0.3-7.4c-0.3-6.1-4.5-10.9-9.3-10.6
			l-29.3,1.4c-4.8,0.2-8.5,5.4-8.3,11.5l0.3,7.4c0.1,2,1.5,3.6,3.1,3.5l2.9-0.1l1.9,41c0.2,4.8,2.9,8.8,6.3,10.1l0.5,11.7
			c0.4,8.5,5.3,15.4,11.6,17.3l-3.9,18.1c-0.2,1.1,0,2.4,0.6,3.3c0.6,0.9,1.5,1.5,2.4,1.4l35.1-1.6c0.9,0,1.8-0.7,2.3-1.6
			c0.5-1,0.6-2.2,0.2-3.3l-5.4-17l1.8-0.1c13.5-0.6,24.1-14.1,24.8-30.7l3.1-0.1c1.6-0.1,2.8-1.8,2.8-3.8
			C395.4,973.3,388.5,965.3,380.4,965.7z M311.4,931.5l-0.2-3.7c-0.1-2,1.1-3.7,2.8-3.8l29.3-1.4c1.6-0.1,3,1.5,3.1,3.5l0.2,3.7
			C343.9,930,313,931.4,311.4,931.5z M322.6,983.2c-1.6,0.1-3-1.5-3.1-3.5l-1.9-41l23.4-1.1l2.1,44.7L322.6,983.2z M364.9,1010.8
			l-5.9,0.3c-0.9,0-1.8,0.7-2.3,1.6c-0.5,1-0.6,2.2-0.2,3.3l5.4,17l-27,1.3l3.8-17.5c0.2-1.1,0-2.4-0.6-3.3
			c-0.6-0.9-1.5-1.5-2.4-1.4c-4.8,0.2-9-4.5-9.3-10.6l-0.5-11.1c2.5-0.1,55.7-2.6,58.3-2.7C383.3,1000.2,375.2,1010.3,364.9,1010.8z
			 M348.9,982l-0.3-7.4l32.2-1.5c3.8-0.2,7.2,2.8,8.6,7L348.9,982z"/>
	</g>
</g>
<g>
	<g>
		<path class="st0" d="M363.1,581.1l-26-10.5l8.8-21.8l2.4,1c1.3,0.5,2.8-0.2,3.4-1.7l2.2-5.4c1.8-4.4,0.1-9.3-3.8-10.9l-23.6-9.6
			c-3.9-1.6-8.5,0.7-10.3,5.2l-2.2,5.4c-0.6,1.5,0,3.1,1.3,3.6l2.4,1l-12.1,29.8c-1.4,3.5-0.6,7.3,1.7,9.5l-3.4,8.5
			c-2.5,6.2-0.9,12.8,3.5,16.4l-9.1,11.5c-0.6,0.7-0.8,1.7-0.7,2.5c0.2,0.9,0.7,1.6,1.5,1.9l28.4,11.5c0.8,0.3,1.6,0.2,2.4-0.3
			s1.2-1.4,1.3-2.3l1.4-14l1.4,0.6c10.9,4.4,23.8-1.3,29.8-12.9l2.5,1c1.3,0.5,2.8-0.2,3.4-1.7C372.5,591.9,369.6,583.8,363.1,581.1
			z M319.7,532l1.1-2.7c0.6-1.5,2.1-2.2,3.4-1.7l23.6,9.6c1.3,0.5,1.9,2.2,1.3,3.6l-1.1,2.7C346,542.6,321,532.5,319.7,532z
			 M311.5,572.7c-1.3-0.5-1.9-2.2-1.3-3.6l12.1-29.8l18.9,7.7L328,579.4L311.5,572.7z M335.9,607.5l-4.7-1.9
			c-0.8-0.3-1.6-0.2-2.4,0.3c-0.7,0.5-1.2,1.4-1.3,2.3l-1.4,14l-21.8-8.8l8.8-11.1c0.6-0.7,0.8-1.7,0.7-2.5
			c-0.2-0.9-0.7-1.6-1.5-1.9c-3.9-1.6-5.6-6.5-3.8-10.9l3.3-8.1c2,0.8,45,18.2,47.1,19.1C354,606.7,344.2,610.9,335.9,607.5z
			 M332.8,581.3l2.2-5.4l26,10.5c3.1,1.2,4.8,4.5,4.5,8.1L332.8,581.3z"/>
	</g>
</g>
<g>
	<g>
		<path class="st0" d="M309.6,216l-26.8,16.6L267.6,208l2.4-1.5c1.3-0.8,1.6-2.9,0.5-4.5l-3.8-6.1c-3.1-5-8.9-7.1-12.9-4.6
			l-24.3,15.1c-4,2.5-4.8,8.6-1.6,13.6l3.8,6.1c1,1.7,3,2.4,4.3,1.5l2.4-1.5l21,33.7c2.5,4,6.6,6.1,10.2,5.5l6,9.6
			c4.3,7,11.8,10.5,18,9.1l5.2,17.2c0.3,1.1,1.1,2,2,2.5c0.9,0.5,2,0.5,2.8,0l29.2-18.1c0.8-0.5,1.2-1.4,1.2-2.5
			c0-1.1-0.5-2.2-1.4-2.9l-12.6-11.8l1.5-0.9c11.2-7,13.9-23.4,6.7-37.8l2.6-1.6c1.3-0.8,1.6-2.9,0.5-4.5
			C326,215.2,316.4,211.8,309.6,216z M234.6,220l-1.9-3c-1-1.7-0.8-3.7,0.5-4.5l24.3-15.1c1.3-0.8,3.3-0.2,4.3,1.5l1.9,3
			C261.7,203.2,235.9,219.2,234.6,220z M268.5,258.3c-1.3,0.8-3.3,0.2-4.3-1.5l-21-33.7l19.5-12.1l22.8,36.8L268.5,258.3z
			 M317.7,261.4l-4.9,3c-0.8,0.5-1.2,1.4-1.2,2.5c0,1.1,0.5,2.2,1.4,2.9l12.6,11.8l-22.4,13.9l-5-16.6c-0.3-1.1-1.1-2-2-2.5
			c-0.9-0.5-2-0.5-2.8,0c-4,2.5-9.8,0.5-12.9-4.6l-5.7-9.1c2.1-1.3,46.3-28.8,48.5-30.1C328.4,243.7,326.2,256.1,317.7,261.4z
			 M290.4,244.7l-3.8-6.1l26.8-16.6c3.2-2,7.5-1.1,10.6,1.8L290.4,244.7z"/>
	</g>
</g>
<g>
	<g>
		<path class="st0" d="M437,377.4c0-4.3-3.5-7.8-7.8-7.8h-12.1c0.4-0.9,0.7-1.9,0.7-3c0-3.8-3.1-6.9-6.9-6.9c-3.8,0-6.9,3.1-6.9,6.9
			c0,1.1,0.2,2.1,0.7,3h-5.5v-6.5h2.2c1.1,0,1.9-0.9,1.9-1.9v-8.3c0-1.1-0.9-1.9-1.9-1.9h-2.2v-0.3c0-3.8-3.1-6.8-6.8-6.8
			s-6.8,3.1-6.8,6.8v0.3h-2.2c-1.1,0-1.9,0.9-1.9,1.9v8.3c0,1.1,0.9,1.9,1.9,1.9h2.2v6.5h-5.5c0.4-0.9,0.7-1.9,0.7-3
			c0-3.8-3.1-6.9-6.9-6.9c-3.8,0-6.9,3.1-6.9,6.9c0,1.1,0.2,2.1,0.7,3h-12.1c-4.3,0-7.8,3.5-7.8,7.8c0,3.9,2.9,7.1,6.6,7.7v56
			c0,1.1,0.9,1.9,1.9,1.9h72c1.1,0,1.9-0.9,1.9-1.9l0-56c0,0,0,0,0,0C434.1,384.5,437,381.3,437,377.4z M410.9,363.6
			c1.6,0,3,1.3,3,3s-1.3,3-3,3c-1.6,0-3-1.3-3-3C408,365,409.3,363.6,410.9,363.6z M389.5,350.7L389.5,350.7c0-1.6,1.3-2.9,2.9-2.9
			c1.6,0,2.9,1.3,2.9,2.9v0.3h-5.9V350.7L389.5,350.7z M385.4,359.2v-4.4h14.1v4.4H385.4z M395.4,363.1v6.5h-5.9v-6.5l0,0H395.4z
			 M373.9,363.6c1.6,0,3,1.3,3,3s-1.3,3-3,3c-1.6,0-3-1.3-3-3C370.9,365,372.3,363.6,373.9,363.6z M390.5,439.1h-32.1V406h32.1
			V439.1z M426.5,402.2h-68.2v-17h3.9c7.8,8.5,18.7,13.3,30.2,13.3c11.5,0,22.5-4.8,30.2-13.3h3.9V402.2z M394.4,439.1V406h32.1
			v33.1H394.4z M429.2,381.3h-7.5c-0.6,0-1.1,0.2-1.5,0.7c-7.1,8-17.2,12.6-27.9,12.6c-9.2,0-17.9-3.4-24.7-9.4h35.1
			c1.1,0,1.9-0.9,1.9-1.9s-0.9-1.9-1.9-1.9l-47.3,0c-2.1,0-3.9-1.7-3.9-3.9s1.7-3.9,3.9-3.9h73.6c2.1,0,3.9,1.7,3.9,3.9
			C433.1,379.5,431.4,381.3,429.2,381.3z"/>
	</g>
</g>
<g>
	<g>
		<path class="st0" d="M242.3,579.9c2.1-4.2,0.1-9.6-4.5-11.9l-13.1-6.5c0.9-0.7,1.7-1.5,2.2-2.6c1.9-3.8,0.1-8.5-4-10.5
			s-8.9-0.6-10.8,3.1c-0.5,1.1-0.8,2.2-0.7,3.3l-5.9-3l3.2-6.4l2.3,1.2c1.2,0.6,2.5,0.2,3-0.9l4.1-8.2c0.5-1.1,0-2.4-1.1-3l-2.3-1.2
			l0.1-0.3c1.9-3.7,0.1-8.4-4-10.4c-4-2-8.9-0.6-10.7,3.1l-0.1,0.3l-2.3-1.2c-1.2-0.6-2.5-0.2-3,0.9l-4.1,8.2c-0.5,1.1,0,2.4,1.1,3
			l2.3,1.2l-3.2,6.4l-5.9-3c0.9-0.7,1.7-1.5,2.2-2.6c1.9-3.8,0.1-8.5-4-10.5c-4.1-2-8.9-0.6-10.8,3.1c-0.5,1.1-0.8,2.2-0.7,3.3
			l-13.1-6.5c-4.6-2.3-10.1-0.7-12.2,3.6c-1.9,3.9-0.4,8.6,3.3,11.2L122,599c-0.5,1.1,0,2.4,1.1,3l77.5,38.6c1.2,0.6,2.5,0.2,3-0.9
			l27.7-55.6c0,0,0,0,0,0C235.7,585.5,240.4,583.8,242.3,579.9z M221.1,552.3c1.8,0.9,2.6,2.9,1.7,4.6c-0.8,1.6-2.9,2.2-4.7,1.4
			c-1.8-0.9-2.6-2.9-1.7-4.6C217.2,552.1,219.3,551.4,221.1,552.3z M204.4,528L204.4,528c0.8-1.6,2.9-2.2,4.6-1.4
			c1.7,0.9,2.5,2.9,1.7,4.5l-0.1,0.3l-6.3-3.2L204.4,528L204.4,528z M195.7,534.3l2.2-4.4l15.2,7.6l-2.2,4.4L195.7,534.3z
			 M204.6,543.5l-3.2,6.4l-6.3-3.2l3.2-6.4l0,0L204.6,543.5z M181.2,532.5c1.8,0.9,2.6,2.9,1.7,4.6c-0.8,1.6-2.9,2.2-4.7,1.4
			c-1.8-0.9-2.6-2.9-1.7-4.6C177.4,532.2,179.5,531.6,181.2,532.5z M161.8,616.4l-34.6-17.2l16.4-32.9l34.6,17.2L161.8,616.4z
			 M218.8,598.9l-73.3-36.5l8.4-16.9l4.2,2.1c4.2,12.6,13.6,23.2,25.9,29.4c12.4,6.2,26.6,7.2,39.1,3l4.2,2.1L218.8,598.9z
			 M165.9,618.4l16.4-32.9l34.6,17.2l-16.4,32.9L165.9,618.4z M232.1,579.6l-8-4c-0.6-0.3-1.3-0.3-1.9-0.1
			c-11.6,4.2-24.8,3.3-36.3-2.4c-9.9-4.9-17.6-13-21.9-22.6l37.8,18.8c1.2,0.6,2.5,0.2,3-0.9c0.5-1.1,0-2.4-1.1-3l-50.8-25.3
			c-2.3-1.1-3.3-3.8-2.3-5.9c1.1-2.1,3.8-2.9,6.1-1.8l79.2,39.4c2.3,1.1,3.3,3.8,2.3,5.9C237.1,580,234.4,580.8,232.1,579.6z"/>
	</g>
</g>
<g>
	<g>
		<path class="st0" d="M1447.2,80.8l16.1,7.3l2.9-6.4l-9.7-4.4c-1.8-0.8-2.6-2.9-1.8-4.7c0.8-1.8,2.9-2.5,4.7-1.7
			c2.3,1,16.3,7.4,19.3,8.7c5.3,2.4,7.7,8.7,5.3,14l-1.5,3.2l6.7,3l16.2-35.4c0.8-1.8,0-3.9-1.8-4.7c-1.8-0.8-3.9,0-4.7,1.7
			l-2.9,6.4c-0.8,1.8-2.9,2.5-4.7,1.7l-12.9-5.8c-1.8-0.8-2.6-2.9-1.8-4.7l2.9-6.4c5.7-12.3,20.4-17.8,32.8-12.2
			c12.4,5.6,17.9,20.2,12.3,32.6l-16.2,35.4l6.7,3l1.5-3.2c2.4-5.3,8.7-7.6,14.1-5.2c2.4,1.1,17.2,7.8,19.3,8.7
			c1.8,0.8,2.6,2.9,1.8,4.7c-0.8,1.8-2.9,2.5-4.7,1.7l-9.7-4.4l-2.9,6.4l16.1,7.3c1.8,0.8,2.6,2.9,1.8,4.7
			c-9,19.5-32.1,28.2-51.7,19.4l-9.9-4.5l-4.4,9.6c-0.8,1.8-2.9,2.5-4.7,1.7l-12.9-5.8c-1.8-0.8-2.6-2.9-1.8-4.7l4.4-9.6l-9.9-4.5
			c-19.5-8.8-28.1-31.9-19.2-51.4C1443.4,80.8,1445.4,80,1447.2,80.8z M1477.7,90.7c0.8-1.8,0-3.9-1.8-4.7l-3.2-1.5l-2.9,6.4
			l6.4,2.9L1477.7,90.7z M1518.4,70.3c4-8.8,0.1-19.3-8.8-23.3c-8.9-4-19.4-0.1-23.4,8.7l-1.5,3.2l6.4,2.9l1.5-3.2
			c2.4-5.3,8.7-7.6,14.1-5.2c5.3,2.4,7.7,8.7,5.3,14l-16.2,35.4l6.4,2.9L1518.4,70.3z M1531.1,111l-3.2-1.5c-1.8-0.8-3.9,0-4.7,1.7
			l-1.5,3.2l6.4,2.9L1531.1,111z M1475.1,147.7l6.4,2.9l2.9-6.4l-6.4-2.9L1475.1,147.7z M1464.7,127.6l39.1,17.7
			c14.9,6.7,32.4,1,40.6-12.8l-96.7-43.8C1442.6,103.9,1449.8,120.8,1464.7,127.6z"/>
	</g>
</g>
<g>
	<g>
		<path class="st0" d="M1650.5,859.8l16.1,7.3l2.9-6.4l-9.7-4.4c-1.8-0.8-2.6-2.9-1.8-4.7c0.8-1.8,2.9-2.5,4.7-1.7
			c2.3,1,16.3,7.4,19.3,8.7c5.3,2.4,7.7,8.7,5.3,14l-1.5,3.2l6.7,3l16.2-35.4c0.8-1.8,0-3.9-1.8-4.7c-1.8-0.8-3.9,0-4.7,1.7
			l-2.9,6.4c-0.8,1.8-2.9,2.5-4.7,1.7l-12.9-5.8c-1.8-0.8-2.6-2.9-1.8-4.7l2.9-6.4c5.7-12.3,20.4-17.8,32.8-12.2
			s17.9,20.2,12.3,32.6l-16.2,35.4l6.7,3l1.5-3.2c2.4-5.3,8.7-7.6,14.1-5.2c2.4,1.1,17.2,7.8,19.3,8.7c1.8,0.8,2.6,2.9,1.8,4.7
			c-0.8,1.8-2.9,2.5-4.7,1.7l-9.7-4.4l-2.9,6.4l16.1,7.3c1.8,0.8,2.6,2.9,1.8,4.7c-9,19.5-32.1,28.2-51.7,19.4l-9.9-4.5l-4.4,9.6
			c-0.8,1.8-2.9,2.5-4.7,1.7l-12.9-5.8c-1.8-0.8-2.6-2.9-1.8-4.7l4.4-9.6l-9.9-4.5c-19.5-8.8-28.1-31.9-19.2-51.4
			C1646.7,859.8,1648.8,859,1650.5,859.8z M1681,869.7c0.8-1.8,0-3.9-1.8-4.7l-3.2-1.5l-2.9,6.4l6.4,2.9L1681,869.7z M1721.7,849.3
			c4-8.8,0.1-19.3-8.8-23.3c-8.9-4-19.4-0.1-23.4,8.7l-1.5,3.2l6.4,2.9l1.5-3.2c2.4-5.3,8.7-7.6,14.1-5.2c5.3,2.4,7.7,8.7,5.3,14
			l-16.2,35.4l6.4,2.9L1721.7,849.3z M1734.4,890l-3.2-1.5c-1.8-0.8-3.9,0-4.7,1.7l-1.5,3.2l6.4,2.9L1734.4,890z M1678.4,926.7
			l6.4,2.9l2.9-6.4l-6.4-2.9L1678.4,926.7z M1668,906.6l39.1,17.7c14.9,6.7,32.4,1,40.6-12.8l-96.7-43.8
			C1646,882.9,1653.1,899.8,1668,906.6z"/>
	</g>
</g>
<g>
	<g>
		<path class="st0" d="M1715.9,56c15.9,0,28.9,12.9,28.9,28.7c0,3.5-0.6,6.9-1.9,10.2l27.6,27.5c0.4,0.4,0.6,0.9,0.6,1.5v15
			c0,1.2-0.9,2.1-2.1,2.1h-12.5c-0.6,0-1.1-0.2-1.5-0.6l-4.2-4.2c-0.4-0.4-0.6-0.9-0.6-1.5v-5.1h-5.2c-1.2,0-2.1-0.9-2.1-2.1v-2.1
			h-2.1c-1.2,0-2.1-0.9-2.1-2.1v-4.5h-4.5c-0.6,0-1.1-0.2-1.5-0.6l-6.7-6.7c-3.3,1.2-6.7,1.9-10.3,1.9c-15.9,0-28.9-12.9-28.9-28.7
			C1687,68.9,1699.9,56,1715.9,56z M1715.9,109.3c3.4,0,6.8-0.7,9.9-2.1c0.8-0.4,1.7-0.2,2.3,0.4c0,0,0,0,0,0l7.1,7h5.8
			c1.2,0,2.1,0.9,2.1,2.1v4.5h2.1c1.2,0,2.1,0.9,2.1,2.1v2.1h5.2c1.2,0,2.1,0.9,2.1,2.1v6.4l3,2.9h9.5v-3l-25.8-25.6
			c-0.7-0.7-0.7-1.9,0-2.7c0.7-0.7,1.9-0.7,2.7,0l23.1,22.9v-3.8l-28-27.8c0,0,0,0,0,0c-0.6-0.6-0.8-1.5-0.4-2.3
			c1.4-3.1,2.1-6.4,2.1-9.8c0-13.5-11.1-24.5-24.7-24.5c-13.6,0-24.7,11-24.7,24.5C1691.2,98.3,1702.3,109.3,1715.9,109.3z"/>
	</g>
</g>
<g>
	<g>
		<path class="st0" d="M1701,78c-1.3,4.1,1.8,8.7,6.8,10.2c5,1.5,10.1-0.7,11.4-4.8c1.3-4.1-1.8-8.7-6.8-10.2
			C1707.4,71.7,1702.3,73.8,1701,78z M1714.3,82c-0.6,1.9-3,2.9-5.3,2.2s-3.8-2.8-3.2-4.8c0.6-1.9,3-2.9,5.3-2.2
			C1713.5,77.9,1714.9,80,1714.3,82z"/>
	</g>
</g>
<g>
	<g>
		<path class="st0" d="M1691.5,654.2c17.3-4,34.7,6.8,38.7,24c0.9,3.8,1.1,7.7,0.5,11.5l37,23c0.5,0.3,0.9,0.9,1,1.5l3.8,16.3
			c0.3,1.3-0.5,2.5-1.8,2.8l-13.5,3.1c-0.6,0.1-1.2,0-1.8-0.3l-5.6-3.5c-0.5-0.3-0.9-0.9-1-1.5l-1.3-5.6l-5.6,1.3
			c-1.3,0.3-2.5-0.5-2.8-1.7l-0.5-2.2l-2.2,0.5c-1.3,0.3-2.5-0.5-2.8-1.7l-1.1-4.9l-4.9,1.1c-0.6,0.1-1.2,0-1.8-0.3l-9-5.6
			c-3.2,2.2-6.8,3.7-10.7,4.6c-17.3,4-34.7-6.8-38.7-24C1663.3,675.4,1674.2,658.2,1691.5,654.2z M1704.9,712.1
			c3.7-0.9,7.2-2.4,10.3-4.7c0.8-0.6,1.8-0.6,2.6-0.1c0,0,0,0,0,0l9.5,5.9l6.3-1.4c1.3-0.3,2.5,0.5,2.8,1.7l1.1,4.9l2.2-0.5
			c1.3-0.3,2.5,0.5,2.8,1.7l0.5,2.2l5.6-1.3c1.3-0.3,2.5,0.5,2.8,1.7l1.6,6.9l4,2.5l10.3-2.4l-0.7-3.2l-34.5-21.4
			c-1-0.6-1.3-1.9-0.7-2.9c0.6-1,1.9-1.3,2.9-0.7l30.9,19.2l-1-4.1l-37.5-23.3c0,0,0,0,0,0c-0.8-0.5-1.2-1.4-1-2.4
			c0.7-3.7,0.6-7.5-0.2-11.2c-3.4-14.7-18.2-23.9-33-20.5c-14.8,3.4-24.1,18.1-20.6,32.8C1675.3,706.3,1690.1,715.5,1704.9,712.1z"
			/>
	</g>
</g>
<g>
	<g>
		<path class="st0" d="M1705.3,675.3c3.6,3.2,4,8.7,0.8,12.3c-3.2,3.6-8.8,4-12.4,0.8c-3.6-3.2-4-8.7-0.8-12.3
			S1701.6,672.1,1705.3,675.3z M1696.7,684.9c1.7,1.5,4.3,1.3,5.8-0.4c1.5-1.7,1.3-4.3-0.4-5.8c-1.7-1.5-4.3-1.3-5.8,0.4
			C1694.9,680.8,1695,683.4,1696.7,684.9z"/>
	</g>
</g>
<g>
	<g>
		<path class="st0" d="M1835.6,605c20,0,36.3,16.2,36.3,36c0,9.6-3.8,18.7-10.7,25.5c-0.2,0.2-0.5,1-0.6,1.4c-0.1,3-1,9.9-5.8,15.2
			c0.3,0.4,0.5,0.8,0.7,1.2c0.8,2,0.6,4.2-0.4,5.9c0.8,2,0.5,4.2-0.5,5.8c0,0,0,0,0,0c1.2,2.9,0.2,6.3-2.2,7.9
			c-0.1,0.1-2,1.3-5.2,2.4c0,0.4,0.2,4.5-2.7,7.6c-2.1,2.3-5.1,3.4-9,3.5c-0.1,0-0.2,0-0.3,0c-3.7,0-6.6-1.1-8.6-3.3
			c-2.8-3.1-2.6-7.1-2.5-7.8c-3-1.1-4.9-2.2-5.2-2.4c-2.5-1.6-3.5-5-2.3-7.9c0,0,0,0,0,0c-1-1.7-1.2-3.8-0.5-5.8c-1-1.7-1.2-4-0.4-6
			c0.2-0.4,0.4-0.8,0.6-1.1c-4.8-5.4-5.7-12.3-5.8-15.3c0-0.4-0.4-1.2-0.6-1.4c-6.9-6.8-10.7-15.9-10.7-25.5
			C1799.3,621.2,1815.6,605,1835.6,605z M1831.2,710.2c0.8,0.9,2.3,1.3,4.2,1.3c2.1,0,3.6-0.5,4.5-1.5c0.6-0.6,0.8-1.3,1-1.9
			c-1,0.2-2,0.3-3.1,0.4c-1.1,0.1-1.9,0.1-2.1,0.1c0,0-0.1,0-0.1,0s-0.1,0-0.1,0c-0.2,0-1,0-2.1-0.1c-1.1-0.1-2.2-0.2-3.2-0.4
			C1830.3,708.7,1830.6,709.5,1831.2,710.2z M1822,693c0.8,0.5,1.4,1.3,1.5,2.2c0.3,1.5-0.7,2.6-1.2,3.2c-0.1,0.2,0,0.5-0.1,0.4
			c0,0,4.6,2.9,11.7,3.4c0.8,0.1,1.5,0.1,1.7,0.1c0.2,0,0.9,0,1.7-0.1c7-0.5,11.5-3.3,11.6-3.3c0,0,0,0,0,0c0-0.1,0.1-0.3-0.1-0.7
			c-0.4-0.5-1.4-1.5-1.1-3.1c0.1-0.9,0.7-1.8,1.5-2.2l0.1,0c0-0.1,0.1-0.3,0-0.6c-0.4-0.6-1.3-1.6-1-3.1c0.1-0.6,0.4-1.2,0.9-1.6
			c-2.4,1.1-6.9,2.7-12.8,2.8h-1.4c-2.4,0-4.6-0.3-6.5-0.8c-0.3-0.1-0.7-0.2-1-0.2c-0.6-0.2-1.2-0.3-1.8-0.5
			c-0.4-0.1-0.8-0.2-1.2-0.4c-0.9-0.3-1.6-0.6-2.2-0.9c0.4,0.4,0.7,1,0.8,1.6c0.3,1.5-0.5,2.5-1.1,3.2c-0.1,0.2,0,0.4-0.1,0.4h0
			L1822,693z M1814.4,662.2c1.3,1.3,2.3,3.6,2.4,5.5c0.2,5,2,12.8,10.9,15.6c0.1,0,0.2,0.1,0.3,0.1c2.1,0.6,4.5,1,7.3,1h0.3
			c15.9-0.1,18.6-10.5,18.9-16.6c0.1-1.9,1-4.1,2.4-5.5c5.7-5.7,8.9-13.2,8.9-21.2c0-16.5-13.5-29.9-30.1-29.9
			c-16.6,0-30.1,13.4-30.1,29.9C1805.5,649,1808.6,656.5,1814.4,662.2z"/>
		<path class="st0" d="M1822.2,648.9c13.2,10.7,26.2,0.4,26.7,0c0.3-0.3,0.8-0.3,1.2-0.1c0.4,0.2,0.6,0.6,0.5,1l-4.2,28.2
			c-0.1,0.6-0.6,0.9-1.2,0.9c-0.6-0.1-0.9-0.6-0.9-1.2l3.8-26c-4.2,2.6-14.6,7.2-25.2,0.2l4.9,25.7c0.1,0.6-0.3,1.1-0.8,1.2
			c-0.1,0-0.1,0-0.2,0c-0.5,0-0.9-0.3-1-0.8l-5.4-28.2c-0.1-0.4,0.1-0.8,0.5-1.1C1821.4,648.6,1821.9,648.7,1822.2,648.9z"/>
	</g>
</g>
<g>
	<g>
		<path class="st0" d="M1761.9,185c17.9-8.9,39.7-1.7,48.7,16.1c4.3,8.6,5,18.4,1.9,27.6c-0.1,0.3-0.1,1.1,0.1,1.5
			c1.2,2.7,3.6,9.2,1.6,16.2c0.4,0.2,0.8,0.5,1.1,0.8c1.6,1.4,2.5,3.5,2.3,5.5c1.6,1.4,2.4,3.5,2.2,5.4c0,0,0,0,0,0
			c2.4,2.1,3,5.5,1.5,8c-0.1,0.1-1.2,2-3.6,4.5c0.2,0.4,2.2,3.9,1,8c-0.8,3-3,5.4-6.5,7.1c-0.1,0-0.2,0.1-0.2,0.1
			c-3.3,1.7-6.4,2-9.2,0.9c-3.9-1.5-5.5-5.2-5.8-5.9c-3.2,0.4-5.3,0.2-5.7,0.2c-2.9-0.3-5.3-2.9-5.6-6.1c0,0,0,0,0,0
			c-1.6-1.1-2.8-2.9-3-5c-1.7-1.1-2.9-3-3.1-5.2c0-0.4,0-0.8,0-1.3c-6.7-2.7-10.6-8.5-12.1-11.1c-0.2-0.4-0.9-0.9-1.1-1
			c-9.2-3.1-16.7-9.5-21-18.1C1736.8,215.5,1744.1,193.8,1761.9,185z M1805.3,281c1.1,0.4,2.6,0.2,4.4-0.7c1.9-1,3-2.1,3.4-3.3
			c0.2-0.8,0.2-1.6,0-2.2c-0.8,0.6-1.7,1.2-2.6,1.7c-0.9,0.5-1.7,0.9-1.8,1c0,0,0,0-0.1,0c0,0,0,0-0.1,0c-0.2,0.1-0.9,0.4-1.9,0.8
			c-1,0.4-2.1,0.8-3,1.1C1803.9,280,1804.5,280.6,1805.3,281z M1789.4,269.7c0.9,0.1,1.8,0.6,2.4,1.3c0.9,1.3,0.6,2.6,0.3,3.4
			c0,0.2,0.2,0.4,0.1,0.4c0.1,0,5.4,0.5,12-2.2c0.8-0.3,1.4-0.6,1.5-0.7c0.2-0.1,0.8-0.4,1.5-0.8c6-3.6,8.8-8.1,8.9-8.1c0,0,0,0,0,0
			c0-0.1-0.1-0.4-0.4-0.6c-0.6-0.2-1.9-0.8-2.4-2.3c-0.3-0.9-0.1-1.9,0.4-2.7l0.1,0c0-0.1-0.1-0.3-0.3-0.6c-0.6-0.3-1.8-0.8-2.3-2.3
			c-0.2-0.6-0.2-1.2,0-1.8c-1.6,2.1-4.9,5.5-10.2,8.2l-1.2,0.6c-2.2,1.1-4.3,1.8-6.2,2.2c-0.3,0.1-0.7,0.2-1,0.2
			c-0.6,0.1-1.2,0.3-1.8,0.3c-0.4,0.1-0.8,0.1-1.2,0.2c-0.9,0.1-1.7,0.2-2.4,0.2c0.6,0.2,1.1,0.6,1.5,1.1c0.9,1.2,0.6,2.5,0.5,3.3
			c0,0.2,0.2,0.4,0.1,0.4l0,0L1789.4,269.7z M1768.7,245.6c1.8,0.6,3.7,2.2,4.6,3.8c2.4,4.4,7.6,10.5,16.8,9.1c0.1,0,0.2,0,0.3-0.1
			c2.1-0.4,4.4-1.1,7-2.4l0.3-0.1c14.1-7.2,11.9-17.7,9.4-23.3c-0.8-1.8-1-4.2-0.3-6c2.6-7.6,2-15.7-1.6-22.9
			c-7.4-14.8-25.6-20.7-40.4-13.4c-14.8,7.4-20.9,25.4-13.4,40.1C1754.8,237.7,1761,243,1768.7,245.6z"/>
		<path class="st0" d="M1769.8,230.2c16.6,3.7,23.6-11.3,23.9-11.9c0.2-0.4,0.6-0.6,1-0.6c0.4,0,0.8,0.3,0.9,0.7l9,27.1
			c0.2,0.5-0.1,1.1-0.7,1.3c-0.5,0.2-1.1-0.1-1.3-0.6l-8.3-24.9c-2.6,4.2-9.8,12.9-22.4,11.4l15.9,20.8c0.3,0.4,0.3,1.1-0.2,1.4
			c-0.1,0-0.1,0.1-0.2,0.1c-0.4,0.2-1,0.1-1.3-0.3l-17.5-22.9c-0.3-0.3-0.3-0.8,0-1.2C1768.9,230.3,1769.3,230.1,1769.8,230.2z"/>
	</g>
</g>
<g>
	<g>
		<path class="st0" d="M1864.8,25c12.2,0,22.2,9.9,22.2,22c0,5.9-2.3,11.4-6.6,15.6c-0.1,0.1-0.3,0.6-0.3,0.8
			c-0.1,1.8-0.6,6-3.6,9.3c0.2,0.2,0.3,0.5,0.4,0.7c0.5,1.2,0.4,2.6-0.3,3.6c0.5,1.2,0.3,2.5-0.3,3.6c0,0,0,0,0,0
			c0.7,1.8,0.1,3.9-1.4,4.8c-0.1,0.1-1.2,0.8-3.2,1.5c0,0.3,0.2,2.7-1.6,4.7c-1.3,1.4-3.1,2.1-5.5,2.1c-0.1,0-0.1,0-0.2,0
			c-2.3,0-4-0.7-5.3-2c-1.7-1.9-1.6-4.3-1.5-4.8c-1.8-0.7-3-1.3-3.2-1.5c-1.5-1-2.1-3.1-1.4-4.8c0,0,0,0,0,0c-0.6-1-0.7-2.3-0.3-3.5
			c-0.6-1.1-0.8-2.4-0.3-3.7c0.1-0.2,0.2-0.5,0.4-0.7c-2.9-3.3-3.5-7.5-3.5-9.4c0-0.2-0.2-0.7-0.4-0.9c-4.2-4.2-6.5-9.7-6.5-15.6
			C1842.6,34.9,1852.6,25,1864.8,25z M1862.1,89.3c0.5,0.5,1.4,0.8,2.6,0.8c1.3,0,2.2-0.3,2.7-0.9c0.3-0.4,0.5-0.8,0.6-1.2
			c-0.6,0.1-1.2,0.2-1.9,0.2c-0.6,0-1.2,0.1-1.3,0.1c0,0,0,0-0.1,0c0,0,0,0-0.1,0c-0.1,0-0.6,0-1.3-0.1c-0.7-0.1-1.3-0.1-2-0.2
			C1861.6,88.4,1861.7,88.9,1862.1,89.3z M1856.5,78.8c0.5,0.3,0.9,0.8,0.9,1.4c0.2,0.9-0.4,1.6-0.8,2c-0.1,0.1,0,0.3-0.1,0.3
			c0,0,2.8,1.8,7.2,2.1c0.5,0,0.9,0,1,0c0.1,0,0.5,0,1,0c4.3-0.3,7.1-2,7.1-2c0,0,0,0,0,0c0,0,0.1-0.2-0.1-0.4
			c-0.3-0.3-0.8-0.9-0.7-1.9c0.1-0.6,0.5-1.1,0.9-1.4l0,0c0,0,0.1-0.2,0-0.4c-0.3-0.3-0.8-1-0.6-1.9c0.1-0.4,0.3-0.7,0.5-1
			c-1.5,0.7-4.2,1.7-7.8,1.7h-0.8c-1.5,0-2.8-0.2-4-0.5c-0.2,0-0.4-0.1-0.6-0.1c-0.4-0.1-0.8-0.2-1.1-0.3c-0.2-0.1-0.5-0.2-0.7-0.2
			c-0.5-0.2-1-0.4-1.4-0.6c0.3,0.3,0.4,0.6,0.5,1c0.2,0.9-0.3,1.5-0.6,1.9c-0.1,0.1,0,0.3-0.1,0.3h0L1856.5,78.8z M1851.8,60
			c0.8,0.8,1.4,2.2,1.5,3.3c0.1,3.1,1.2,7.8,6.7,9.5c0.1,0,0.1,0,0.2,0.1c1.3,0.4,2.7,0.6,4.5,0.6h0.2c9.7-0.1,11.4-6.4,11.5-10.2
			c0-1.2,0.6-2.5,1.4-3.3c3.5-3.5,5.4-8.1,5.4-13c0-10.1-8.3-18.3-18.4-18.3c-10.2,0-18.4,8.2-18.4,18.3
			C1846.4,51.9,1848.3,56.5,1851.8,60z"/>
		<path class="st0" d="M1856.6,51.9c8.1,6.6,16,0.3,16.3,0c0.2-0.2,0.5-0.2,0.7-0.1c0.2,0.1,0.3,0.4,0.3,0.6l-2.6,17.3
			c-0.1,0.3-0.4,0.6-0.7,0.5c-0.3,0-0.6-0.4-0.5-0.7l2.4-15.9c-2.6,1.6-8.9,4.4-15.4,0.1l3,15.7c0.1,0.3-0.2,0.7-0.5,0.7
			c0,0-0.1,0-0.1,0c-0.3,0-0.6-0.2-0.6-0.5l-3.3-17.3c0-0.3,0.1-0.5,0.3-0.7C1856.1,51.7,1856.4,51.7,1856.6,51.9z"/>
	</g>
</g>
<g>
	<g>
		<path class="st0" d="M1653.4,327c12.2,0,22.2,9.9,22.2,22c0,5.9-2.3,11.4-6.6,15.6c-0.1,0.1-0.3,0.6-0.3,0.8
			c-0.1,1.8-0.6,6-3.6,9.3c0.2,0.2,0.3,0.5,0.4,0.7c0.5,1.2,0.4,2.6-0.3,3.6c0.5,1.2,0.3,2.5-0.3,3.6c0,0,0,0,0,0
			c0.7,1.8,0.1,3.9-1.4,4.8c-0.1,0.1-1.2,0.8-3.2,1.5c0,0.3,0.2,2.7-1.6,4.7c-1.3,1.4-3.1,2.1-5.5,2.1c-0.1,0-0.1,0-0.2,0
			c-2.3,0-4-0.7-5.3-2c-1.7-1.9-1.6-4.3-1.5-4.8c-1.8-0.7-3-1.3-3.2-1.5c-1.5-1-2.1-3.1-1.4-4.8c0,0,0,0,0,0c-0.6-1-0.7-2.3-0.3-3.5
			c-0.6-1.1-0.8-2.4-0.3-3.7c0.1-0.2,0.2-0.5,0.4-0.7c-2.9-3.3-3.5-7.5-3.5-9.4c0-0.2-0.2-0.7-0.4-0.9c-4.2-4.2-6.5-9.7-6.5-15.6
			C1631.3,336.9,1641.2,327,1653.4,327z M1650.7,391.3c0.5,0.5,1.4,0.8,2.6,0.8c1.3,0,2.2-0.3,2.7-0.9c0.3-0.4,0.5-0.8,0.6-1.2
			c-0.6,0.1-1.2,0.2-1.9,0.2c-0.6,0-1.2,0.1-1.3,0.1c0,0,0,0-0.1,0c0,0,0,0-0.1,0c-0.1,0-0.6,0-1.3-0.1c-0.7-0.1-1.3-0.1-2-0.2
			C1650.2,390.4,1650.4,390.9,1650.7,391.3z M1645.1,380.8c0.5,0.3,0.9,0.8,0.9,1.4c0.2,0.9-0.4,1.6-0.8,2c-0.1,0.1,0,0.3-0.1,0.3
			c0,0,2.8,1.8,7.2,2.1c0.5,0,0.9,0,1,0c0.1,0,0.5,0,1,0c4.3-0.3,7.1-2,7.1-2c0,0,0,0,0,0c0,0,0.1-0.2-0.1-0.4
			c-0.3-0.3-0.8-0.9-0.7-1.9c0.1-0.6,0.5-1.1,0.9-1.4l0,0c0,0,0.1-0.2,0-0.4c-0.3-0.3-0.8-1-0.6-1.9c0.1-0.4,0.3-0.7,0.5-1
			c-1.5,0.7-4.2,1.7-7.8,1.7h-0.8c-1.5,0-2.8-0.2-4-0.5c-0.2,0-0.4-0.1-0.6-0.1c-0.4-0.1-0.8-0.2-1.1-0.3c-0.2-0.1-0.5-0.2-0.7-0.2
			c-0.5-0.2-1-0.4-1.4-0.6c0.3,0.3,0.4,0.6,0.5,1c0.2,0.9-0.3,1.5-0.6,1.9c-0.1,0.1,0,0.3-0.1,0.3h0L1645.1,380.8z M1640.4,362
			c0.8,0.8,1.4,2.2,1.5,3.3c0.1,3.1,1.2,7.8,6.7,9.5c0.1,0,0.1,0,0.2,0.1c1.3,0.4,2.7,0.6,4.5,0.6h0.2c9.7-0.1,11.4-6.4,11.5-10.2
			c0-1.2,0.6-2.5,1.4-3.3c3.5-3.5,5.4-8.1,5.4-13c0-10.1-8.3-18.3-18.4-18.3c-10.2,0-18.4,8.2-18.4,18.3
			C1635,353.9,1636.9,358.5,1640.4,362z"/>
		<path class="st0" d="M1645.3,353.9c8.1,6.6,16,0.3,16.3,0c0.2-0.2,0.5-0.2,0.7-0.1c0.2,0.1,0.3,0.4,0.3,0.6l-2.6,17.3
			c-0.1,0.3-0.4,0.6-0.7,0.5c-0.3,0-0.6-0.4-0.5-0.7l2.4-15.9c-2.6,1.6-8.9,4.4-15.4,0.1l3,15.7c0.1,0.3-0.2,0.7-0.5,0.7
			c0,0-0.1,0-0.1,0c-0.3,0-0.6-0.2-0.6-0.5l-3.3-17.3c0-0.3,0.1-0.5,0.3-0.7C1644.8,353.7,1645.1,353.7,1645.3,353.9z"/>
	</g>
</g>
<g>
	<g>
		<path class="st0" d="M1717.1,452.2l15.2-27.4c0.6-1.2,2-1.8,3.3-1.5l17.7,3.8c1.3,0.3,2.3,1.4,2.4,2.7l2.5,31.2
			c0.1,0.9-0.3,1.9-1,2.5c-0.7,0.6-1.7,0.9-2.6,0.7l-14.8-3.2l-1,4.7c-0.8,3.9,1.6,7.7,5.6,8.6c0.8,0.2,1.7,0.2,2.5,0.1l26.9-3.7
			c2.5-0.3,4.6-2.2,5.1-4.7l0.6-2.6l19.1-88c-8.1-1.7-13.3-9.7-11.6-17.8c0.4-1.6,2-2.6,3.6-2.3l29.5,6.3c1.6,0.4,2.7,1.9,2.3,3.6
			c-1.8,8.1-9.8,13.2-17.9,11.5l-19.1,88l-0.6,2.6c-0.5,2.5,0.5,5,2.7,6.3l23,14.4c0.7,0.4,1.5,0.8,2.3,0.9c3.9,0.8,7.8-1.6,8.6-5.5
			l1-4.7l-14.8-3.2c-0.9-0.2-1.7-0.8-2.1-1.7c-0.4-0.9-0.4-1.9,0.1-2.7l15.2-27.4c0.6-1.2,2-1.8,3.3-1.5l17.7,3.8
			c1.3,0.3,2.3,1.4,2.4,2.7l2.5,31.2c0.1,0.9-0.3,1.9-1,2.5c-0.7,0.6-1.7,0.9-2.6,0.7l-14.8-3.2l-1,4.7c-1.5,7.1-8.6,11.7-15.8,10.1
			c-1.5-0.3-3-0.9-4.3-1.7l-23-14.4c-1.8-1.1-3.1-2.7-4.1-4.5c-1.6,1.2-3.5,2.1-5.6,2.4l-26.9,3.7c-1.5,0.2-3.1,0.2-4.6-0.2
			c-7.2-1.5-11.7-8.6-10.2-15.7l1-4.7l-14.8-3.2c-0.9-0.2-1.7-0.8-2.1-1.7C1716.6,454.1,1716.6,453.1,1717.1,452.2z M1840.4,476.5
			l-2-25l-13.3-2.9l-12.2,21.9L1840.4,476.5z M1805.7,370.9c3.8,0.8,7.7-0.9,9.6-4.1l-22.6-4.9c0.5,3.7,3.2,6.8,7.1,7.7
			L1805.7,370.9z M1751.8,457.5l-2-25l-13.3-2.9l-12.2,21.9L1751.8,457.5z"/>
	</g>
</g>
<g>
	<g>
		<path class="st0" d="M1444.8,896.4l3.5-17.2c0.1-0.7,0.8-1.3,1.5-1.3l10.1-0.9c0.7-0.1,1.4,0.4,1.7,1l6.6,16.3
			c0.2,0.5,0.2,1.1-0.1,1.5c-0.3,0.5-0.8,0.7-1.3,0.8l-8.4,0.8l0.2,2.7c0.2,2.2,2.2,3.9,4.4,3.6c0.5,0,0.9-0.2,1.4-0.4l13.8-6.5
			c1.3-0.6,2.1-1.9,1.9-3.4l-0.1-1.5l-4.7-50.2c-4.6,0.4-8.8-3-9.2-7.6c-0.1-0.9,0.6-1.7,1.5-1.8l16.8-1.5c0.9-0.1,1.8,0.6,1.8,1.5
			c0.4,4.6-3,8.7-7.6,9.1l4.7,50.2l0.1,1.5c0.1,1.4,1.1,2.6,2.5,2.9l14.7,3.8c0.5,0.1,0.9,0.2,1.4,0.1c2.2-0.2,3.9-2.2,3.7-4.4
			l-0.2-2.7l-8.4,0.8c-0.5,0-1.1-0.2-1.4-0.5c-0.4-0.4-0.5-0.9-0.4-1.5l3.5-17.2c0.1-0.7,0.8-1.3,1.5-1.3l10.1-0.9
			c0.7-0.1,1.4,0.4,1.7,1l6.6,16.3c0.2,0.5,0.2,1.1-0.1,1.5c-0.3,0.5-0.8,0.7-1.3,0.8l-8.4,0.8l0.2,2.7c0.4,4.1-2.6,7.7-6.7,8
			c-0.9,0.1-1.7,0-2.6-0.2l-14.7-3.8c-1.1-0.3-2.1-0.9-2.9-1.7c-0.7,0.9-1.5,1.7-2.6,2.2l-13.8,6.5c-0.8,0.4-1.6,0.6-2.5,0.7
			c-4.1,0.4-7.7-2.6-8.1-6.7l-0.2-2.7l-8.4,0.8c-0.5,0-1.1-0.2-1.4-0.5C1444.9,897.5,1444.7,897,1444.8,896.4z M1514.8,888.8
			l-5.3-13l-7.6,0.7l-2.8,13.8L1514.8,888.8z M1478.4,838.1c2.2-0.2,3.9-1.8,4.5-3.8l-12.9,1.2c0.9,1.9,2.9,3.1,5.1,2.9
			L1478.4,838.1z M1464.3,893.5l-5.3-13l-7.6,0.7l-2.8,13.8L1464.3,893.5z"/>
	</g>
</g>
<g>
	<g>
		<path class="st0" d="M1531.1,747.3c2-3.9,6.5-5.6,9.9-3.8l59.1,30.8l12-22.8c1.4-2.6,0.6-5.7-1.7-7l-1.1-0.6
			c-1.1-0.6-2.5-0.6-3.8-0.1l0.1,0.3c1.3,5.2-1.8,11-6.8,12.9l-1.7,0.6c-0.8,0.3-1.5,0.2-2.1-0.1c-0.6-0.3-1.1-0.9-1.3-1.7
			l-4.3-17.4c-0.4-1.6,0.5-3.3,2-3.8l1.7-0.6c2.4-0.9,5-0.8,7.1,0.3c1.6,0.9,2.9,2.2,3.7,4c2.7-1.1,5.7-1,8.2,0.3l1.1,0.6
			c5,2.6,6.6,9.3,3.7,14.9l-12,22.8c3,2,3.9,6.3,1.9,9.9c-1.6,3-4.6,4.7-7.4,4.5l-4.7,9c-4.2,7.9-12.6,11.9-20.1,10l0.8,3.4
			c0.4,1.6-0.5,3.3-2,3.8c-0.8,0.3-1.5,0.2-2.1-0.1c-0.6-0.3-1.1-0.9-1.3-1.7l-2.1-8.5l-31.6-16.5l-8.3,3.1
			c-0.7,0.3-1.5,0.2-2.1-0.1c-0.6-0.3-1.1-0.9-1.3-1.7c-0.4-1.6,0.5-3.3,2-3.8l3.3-1.3c-5.8-5-7.3-14.2-3.1-22.1l4.7-9
			C1529.8,753.7,1529.5,750.3,1531.1,747.3z M1597.5,739.8c-0.6-0.3-1.2-0.4-1.8-0.4l2.8,11.5c1.4-1,2.2-2.9,1.8-4.6l-1-4.2
			C1598.9,741.1,1598.3,740.3,1597.5,739.8z M1601.5,782l-63.3-33c-0.8-0.4-1.8,0-2.2,0.8c-0.5,0.9-0.2,1.9,0.6,2.3l63.3,33
			c0.8,0.4,1.8,0,2.2-0.8C1602.5,783.4,1602.2,782.4,1601.5,782z M1531.7,767.4c-3.2,6-1.4,13.2,3.9,16l38.8,20.2
			c5.4,2.8,12.3,0.1,15.5-5.9l4.4-8.4l-58.2-30.3L1531.7,767.4z"/>
		<path class="st0" d="M1583,758.3c-0.4,0.1-0.7,0.1-1,0c-0.3-0.2-0.5-0.4-0.6-0.8c-0.2-0.8,0.3-1.6,1-1.9l1.9-0.7
			c0.7-0.3,1.5,0.1,1.7,0.9c0.2,0.8-0.3,1.6-1,1.9L1583,758.3z"/>
		<path class="st0" d="M1580.1,755.2l-1.9,0.7c-0.4,0.1-0.7,0.1-1,0c-0.3-0.2-0.5-0.4-0.6-0.8c-0.2-0.8,0.3-1.6,1-1.9l1.9-0.7
			c0.7-0.3,1.5,0.1,1.7,0.9C1581.3,754.1,1580.9,754.9,1580.1,755.2z"/>
		<path class="st0" d="M1587.4,751.5l1.9-0.7c0.7-0.3,1.5,0.1,1.7,0.9c0.2,0.8-0.3,1.6-1,1.9l-1.9,0.7c-0.4,0.1-0.7,0.1-1,0
			c-0.3-0.2-0.5-0.4-0.6-0.8C1586.3,752.7,1586.7,751.8,1587.4,751.5z"/>
		<path class="st0" d="M1584.6,748.4c0.7-0.3,1.5,0.1,1.7,0.9c0.2,0.8-0.3,1.6-1,1.9l-1.9,0.7c-0.4,0.1-0.7,0.1-1,0
			c-0.3-0.2-0.5-0.4-0.6-0.8c-0.2-0.8,0.3-1.6,1-1.9L1584.6,748.4z"/>
		<path class="st0" d="M1589.2,743.9c0.2,0.8-0.3,1.6-1,1.9l-1.9,0.7c-0.4,0.1-0.7,0.1-1,0c-0.3-0.2-0.5-0.4-0.6-0.8
			c-0.2-0.8,0.3-1.6,1-1.9l1.9-0.7C1588.3,742.8,1589,743.1,1589.2,743.9z"/>
		<path class="st0" d="M1579.8,747.9c-0.4,0.1-0.7,0.1-1,0c-0.3-0.2-0.5-0.4-0.6-0.8c-0.2-0.8,0.3-1.6,1-1.9l1.9-0.7
			c0.7-0.3,1.5,0.1,1.7,0.9c0.2,0.8-0.3,1.6-1,1.9L1579.8,747.9z"/>
	</g>
</g>
<g>
	<g>
		<path class="st0" d="M1775.9,1031.6c-2.9-4.6-1.5-10.6,3.1-13.5l79-49.5l-17-26.9c-2-3.1-6.1-4-9.2-2.1l-1.5,0.9
			c-1.5,1-2.6,2.5-3,4.2l0.4,0.1c6.9,1.5,11.2,8.3,9.6,15.2l-0.5,2.3c-0.2,1-0.9,1.8-1.7,2.4c-0.8,0.5-1.8,0.7-2.9,0.5l-23-5.2
			c-2.1-0.5-3.3-2.5-2.9-4.5l0.5-2.3c0.8-3.3,2.8-6.1,5.6-7.9c2.2-1.4,4.7-2,7.3-1.9c0.8-3.7,3-7.1,6.4-9.1l1.5-0.9
			c6.7-4.2,15.5-2.2,19.7,4.4l17.1,26.9c4.5-2.2,10-0.8,12.7,3.5c2.2,3.5,1.9,7.9-0.4,11l6.7,10.6c5.9,9.3,4.2,21.3-3.5,28.6l4.5,1
			c2.1,0.5,3.3,2.5,2.9,4.5c-0.2,1-0.9,1.8-1.7,2.4c-0.8,0.5-1.8,0.7-2.9,0.5l-11.3-2.5l-42.2,26.4l-2.6,11.2
			c-0.2,1-0.9,1.8-1.7,2.4c-0.8,0.5-1.8,0.7-2.9,0.5c-2.1-0.5-3.3-2.5-2.9-4.5l1-4.5c-10,3.7-21.6,0.1-27.5-9.2l-6.7-10.6
			C1782.3,1036.7,1778.1,1035.1,1775.9,1031.6z M1816.7,951.6c-0.7,0.5-1.3,1.1-1.8,1.9l15.2,3.4c-0.1-2.2-1.7-4.2-4-4.7l-5.5-1.2
			C1819.2,950.7,1817.8,950.9,1816.7,951.6z M1867.7,971.4l-84.7,53c-1,0.6-1.3,2-0.7,3c0.7,1,2,1.3,3.1,0.7l84.7-53
			c1-0.6,1.3-2,0.7-3C1870.1,971.1,1868.8,970.8,1867.7,971.4z M1799.3,1042.4c4.5,7.1,14,9.2,21.2,4.8l51.8-32.5
			c7.2-4.5,9.3-13.9,4.8-21l-6.3-9.9l-77.8,48.7L1799.3,1042.4z"/>
		<path class="st0" d="M1827,978.9c-0.1,0.5-0.4,0.9-0.8,1.1s-0.9,0.3-1.4,0.2c-1-0.2-1.6-1.2-1.4-2.2l0.6-2.5
			c0.2-1,1.2-1.6,2.2-1.4c1,0.2,1.6,1.2,1.4,2.2L1827,978.9z"/>
		<path class="st0" d="M1821.3,980.3l-0.6,2.5c-0.1,0.5-0.4,0.9-0.8,1.1s-0.9,0.3-1.4,0.2c-1-0.2-1.6-1.2-1.4-2.2l0.6-2.5
			c0.2-1,1.2-1.6,2.2-1.4C1820.9,978.3,1821.5,979.3,1821.3,980.3z"/>
		<path class="st0" d="M1822.6,969.8l0.6-2.5c0.2-1,1.2-1.6,2.2-1.4c1,0.2,1.6,1.2,1.4,2.2l-0.6,2.5c-0.1,0.5-0.4,0.9-0.8,1.1
			s-0.9,0.3-1.4,0.2C1823,971.8,1822.4,970.8,1822.6,969.8z"/>
		<path class="st0" d="M1816.9,971.2c0.2-1,1.2-1.6,2.2-1.4c1,0.2,1.6,1.2,1.4,2.2l-0.6,2.5c-0.1,0.5-0.4,0.9-0.8,1.1
			s-0.9,0.3-1.4,0.2c-1-0.2-1.6-1.2-1.4-2.2L1816.9,971.2z"/>
		<path class="st0" d="M1815.2,963.4c1,0.2,1.6,1.2,1.4,2.2l-0.6,2.5c-0.1,0.5-0.4,0.9-0.8,1.1c-0.4,0.3-0.9,0.3-1.4,0.2
			c-1-0.2-1.6-1.2-1.4-2.2l0.6-2.5C1813.2,963.8,1814.2,963.2,1815.2,963.4z"/>
		<path class="st0" d="M1812.7,976.5c-0.1,0.5-0.4,0.9-0.8,1.1s-0.9,0.3-1.4,0.2c-1-0.2-1.6-1.2-1.4-2.2l0.6-2.5
			c0.2-1,1.2-1.6,2.2-1.4c1,0.2,1.6,1.2,1.4,2.2L1812.7,976.5z"/>
	</g>
</g>
<g>
	<g>
		<path class="st0" d="M1806.3,821.1l26.2-10.5l-8.9-21.8l-2.4,1c-1.3,0.5-2.9-0.2-3.5-1.7l-2.2-5.4c-1.8-4.4-0.1-9.3,3.9-10.9
			l23.8-9.6c3.9-1.6,8.6,0.7,10.4,5.2l2.2,5.4c0.6,1.5,0,3.1-1.3,3.6l-2.4,1l12.1,29.8c1.4,3.5,0.6,7.3-1.7,9.5l3.5,8.5
			c2.5,6.2,0.9,12.8-3.5,16.4l9.2,11.5c0.6,0.7,0.8,1.7,0.7,2.5c-0.2,0.9-0.7,1.6-1.5,1.9l-28.5,11.5c-0.8,0.3-1.7,0.2-2.4-0.3
			s-1.2-1.4-1.3-2.3l-1.4-14l-1.5,0.6c-11,4.4-23.9-1.3-30-12.9l-2.5,1c-1.3,0.5-2.9-0.2-3.5-1.7
			C1796.8,831.9,1799.7,823.8,1806.3,821.1z M1849.9,772l-1.1-2.7c-0.6-1.5-2.2-2.2-3.5-1.7l-23.8,9.6c-1.3,0.5-1.9,2.2-1.3,3.6
			l1.1,2.7C1823.5,782.6,1848.7,772.5,1849.9,772z M1858.2,812.7c1.3-0.5,1.9-2.2,1.3-3.6l-12.1-29.8l-19,7.7l13.2,32.5
			L1858.2,812.7z M1833.7,847.5l4.8-1.9c0.8-0.3,1.7-0.2,2.4,0.3c0.7,0.5,1.2,1.4,1.3,2.3l1.4,14l21.9-8.8l-8.8-11.1
			c-0.6-0.7-0.8-1.7-0.7-2.5c0.2-0.9,0.7-1.6,1.5-1.9c3.9-1.6,5.7-6.5,3.9-10.9l-3.3-8.1c-2.1,0.8-45.3,18.2-47.4,19.1
			C1815.5,846.7,1825.3,850.9,1833.7,847.5z M1836.8,821.3l-2.2-5.4l-26.2,10.5c-3.1,1.2-4.8,4.5-4.5,8.1L1836.8,821.3z"/>
	</g>
</g>
<g>
	<g>
		<path class="st0" d="M1520.1,965.7l32.4,1.5l1.4-30l-2.9-0.1c-1.6-0.1-2.9-1.8-2.8-3.8l0.3-7.4c0.3-6.1,4.5-10.9,9.4-10.6
			l29.4,1.4c4.9,0.2,8.6,5.4,8.3,11.5l-0.3,7.4c-0.1,2-1.5,3.6-3.1,3.5l-2.9-0.1l-1.9,41c-0.2,4.8-2.9,8.8-6.4,10.1l-0.6,11.7
			c-0.4,8.5-5.3,15.4-11.6,17.3l3.9,18.1c0.2,1.1,0,2.4-0.6,3.3c-0.6,0.9-1.5,1.5-2.5,1.4l-35.3-1.6c-0.9,0-1.8-0.7-2.3-1.6
			c-0.5-1-0.6-2.2-0.2-3.3l5.4-17l-1.8-0.1c-13.6-0.6-24.3-14.1-24.9-30.7l-3.1-0.1c-1.6-0.1-2.9-1.8-2.8-3.8
			C1505,973.3,1512,965.3,1520.1,965.7z M1589.6,931.5l0.2-3.7c0.1-2-1.1-3.7-2.8-3.8l-29.4-1.4c-1.6-0.1-3,1.5-3.1,3.5l-0.2,3.7
			C1556.8,930,1588,931.4,1589.6,931.5z M1578.3,983.2c1.6,0.1,3-1.5,3.1-3.5l1.9-41l-23.6-1.1l-2.1,44.7L1578.3,983.2z
			 M1535.7,1010.8l5.9,0.3c0.9,0,1.8,0.7,2.3,1.6c0.5,1,0.6,2.2,0.2,3.3l-5.4,17l27.2,1.3l-3.8-17.5c-0.2-1.1,0-2.4,0.6-3.3
			c0.6-0.9,1.5-1.5,2.5-1.4c4.9,0.2,9.1-4.5,9.4-10.6l0.5-11.1c-2.5-0.1-56.1-2.6-58.7-2.7
			C1517.2,1000.2,1525.4,1010.3,1535.7,1010.8z M1551.8,982l0.3-7.4l-32.4-1.5c-3.8-0.2-7.3,2.8-8.7,7L1551.8,982z"/>
	</g>
</g>
<g>
	<g>
		<path class="st0" d="M1537.6,581.1l26.2-10.5l-8.9-21.8l-2.4,1c-1.3,0.5-2.9-0.2-3.5-1.7l-2.2-5.4c-1.8-4.4-0.1-9.3,3.9-10.9
			l23.8-9.6c3.9-1.6,8.6,0.7,10.4,5.2l2.2,5.4c0.6,1.5,0,3.1-1.3,3.6l-2.4,1l12.1,29.8c1.4,3.5,0.6,7.3-1.7,9.5l3.5,8.5
			c2.5,6.2,0.9,12.8-3.5,16.4l9.2,11.5c0.6,0.7,0.8,1.7,0.7,2.5c-0.2,0.9-0.7,1.6-1.5,1.9l-28.5,11.5c-0.8,0.3-1.7,0.2-2.4-0.3
			s-1.2-1.4-1.3-2.3l-1.4-14l-1.5,0.6c-11,4.4-23.9-1.3-30-12.9l-2.5,1c-1.3,0.5-2.9-0.2-3.5-1.7
			C1528.1,591.9,1531,583.8,1537.6,581.1z M1581.2,532l-1.1-2.7c-0.6-1.5-2.2-2.2-3.5-1.7l-23.8,9.6c-1.3,0.5-1.9,2.2-1.3,3.6
			l1.1,2.7C1554.7,542.6,1579.9,532.5,1581.2,532z M1589.5,572.7c1.3-0.5,1.9-2.2,1.3-3.6l-12.1-29.8l-19,7.7l13.2,32.5
			L1589.5,572.7z M1564.9,607.5l4.8-1.9c0.8-0.3,1.7-0.2,2.4,0.3c0.7,0.5,1.2,1.4,1.3,2.3l1.4,14l21.9-8.8l-8.8-11.1
			c-0.6-0.7-0.8-1.7-0.7-2.5c0.2-0.9,0.7-1.6,1.5-1.9c3.9-1.6,5.7-6.5,3.9-10.9l-3.3-8.1c-2.1,0.8-45.3,18.2-47.4,19.1
			C1546.8,606.7,1556.6,610.9,1564.9,607.5z M1568.1,581.3l-2.2-5.4l-26.2,10.5c-3.1,1.2-4.8,4.5-4.5,8.1L1568.1,581.3z"/>
	</g>
</g>
<g>
	<g>
		<path class="st0" d="M1591.4,216l26.9,16.6l15.4-24.6l-2.4-1.5c-1.4-0.8-1.6-2.9-0.6-4.5l3.8-6.1c3.1-5,9-7.1,13-4.6l24.5,15.1
			c4,2.5,4.8,8.6,1.7,13.6l-3.8,6.1c-1,1.7-3,2.4-4.3,1.5l-2.4-1.5l-21.1,33.7c-2.5,4-6.6,6.1-10.3,5.5l-6,9.6
			c-4.4,7-11.8,10.5-18.1,9.1l-5.2,17.2c-0.3,1.1-1.1,2-2,2.5c-1,0.5-2,0.5-2.8,0l-29.4-18.1c-0.8-0.5-1.2-1.4-1.2-2.5
			c0-1.1,0.5-2.2,1.4-2.9l12.7-11.8l-1.5-0.9c-11.3-7-14-23.4-6.7-37.8l-2.6-1.6c-1.4-0.8-1.6-2.9-0.6-4.5
			C1574.9,215.2,1584.6,211.8,1591.4,216z M1666.9,220l1.9-3c1-1.7,0.8-3.7-0.6-4.5l-24.5-15.1c-1.3-0.8-3.3-0.2-4.3,1.5l-1.9,3
			C1639.6,203.2,1665.6,219.2,1666.9,220z M1632.7,258.3c1.3,0.8,3.3,0.2,4.3-1.5l21.1-33.7l-19.6-12.1l-23,36.8L1632.7,258.3z
			 M1583.3,261.4l4.9,3c0.8,0.5,1.2,1.4,1.2,2.5c0,1.1-0.5,2.2-1.4,2.9l-12.7,11.8l22.6,13.9l5.1-16.6c0.3-1.1,1.1-2,2-2.5
			c1-0.5,2-0.5,2.8,0c4,2.5,9.9,0.5,13-4.6l5.7-9.1c-2.1-1.3-46.6-28.8-48.8-30.1C1572.5,243.7,1574.7,256.1,1583.3,261.4z
			 M1610.7,244.7l3.8-6.1l-26.9-16.6c-3.2-2-7.5-1.1-10.7,1.8L1610.7,244.7z"/>
	</g>
</g>
<g>
	<g>
		<path class="st0" d="M1463.2,377.4c0-4.3,3.5-7.8,7.8-7.8h12.2c-0.4-0.9-0.7-1.9-0.7-3c0-3.8,3.1-6.9,6.9-6.9s6.9,3.1,6.9,6.9
			c0,1.1-0.2,2.1-0.7,3h5.5v-6.5h-2.2c-1.1,0-1.9-0.9-1.9-1.9v-8.3c0-1.1,0.9-1.9,1.9-1.9h2.2v-0.3c0-3.8,3.1-6.8,6.9-6.8
			c3.8,0,6.9,3.1,6.9,6.8v0.3h2.2c1.1,0,1.9,0.9,1.9,1.9v8.3c0,1.1-0.9,1.9-1.9,1.9h-2.2v6.5h5.5c-0.4-0.9-0.7-1.9-0.7-3
			c0-3.8,3.1-6.9,6.9-6.9s6.9,3.1,6.9,6.9c0,1.1-0.2,2.1-0.7,3h12.2c4.3,0,7.8,3.5,7.8,7.8c0,3.9-2.9,7.1-6.7,7.7v56
			c0,1.1-0.9,1.9-1.9,1.9h-72.5c-1.1,0-1.9-0.9-1.9-1.9l0-56c0,0,0,0,0,0C1466.1,384.5,1463.2,381.3,1463.2,377.4z M1489.4,363.6
			c-1.7,0-3,1.3-3,3s1.3,3,3,3c1.7,0,3-1.3,3-3C1492.4,365,1491.1,363.6,1489.4,363.6z M1511,350.7L1511,350.7c0-1.6-1.3-2.9-3-2.9
			c-1.6,0-3,1.3-3,2.9v0.3h5.9V350.7L1511,350.7z M1515.1,359.2v-4.4H1501v4.4H1515.1z M1505.1,363.1v6.5h5.9v-6.5l0,0H1505.1z
			 M1526.7,363.6c-1.7,0-3,1.3-3,3s1.3,3,3,3c1.7,0,3-1.3,3-3C1529.7,365,1528.3,363.6,1526.7,363.6z M1510,439.1h32.3V406H1510
			V439.1z M1473.7,402.2h68.6v-17h-3.9c-7.8,8.5-18.8,13.3-30.4,13.3c-11.6,0-22.6-4.8-30.4-13.3h-3.9V402.2z M1506.1,439.1V406
			h-32.3v33.1H1506.1z M1471,381.3h7.5c0.6,0,1.1,0.2,1.5,0.7c7.1,8,17.3,12.6,28.1,12.6c9.2,0,18.1-3.4,24.9-9.4h-35.4
			c-1.1,0-1.9-0.9-1.9-1.9s0.9-1.9,1.9-1.9l47.6,0c2.2,0,3.9-1.7,3.9-3.9s-1.8-3.9-3.9-3.9H1471c-2.2,0-3.9,1.7-3.9,3.9
			C1467.1,379.5,1468.8,381.3,1471,381.3z"/>
	</g>
</g>
<g>
	<g>
		<path class="st0" d="M1659.1,579.9c-2.1-4.2-0.1-9.6,4.5-11.9l13.1-6.5c-0.9-0.7-1.7-1.5-2.2-2.6c-1.9-3.8-0.1-8.5,4-10.5
			c4.1-2,9-0.6,10.8,3.1c0.5,1.1,0.8,2.2,0.7,3.3l6-3l-3.2-6.4l-2.3,1.2c-1.2,0.6-2.5,0.2-3.1-0.9l-4.1-8.2c-0.5-1.1,0-2.4,1.1-3
			l2.3-1.2l-0.1-0.3c-1.9-3.7-0.1-8.4,4-10.4c4.1-2,8.9-0.6,10.8,3.1l0.1,0.3l2.3-1.2c1.2-0.6,2.5-0.2,3.1,0.9l4.1,8.2
			c0.5,1.1,0,2.4-1.1,3l-2.3,1.2l3.2,6.4l6-3c-0.9-0.7-1.7-1.5-2.2-2.6c-1.9-3.8-0.1-8.5,4-10.5c4.1-2,9-0.6,10.8,3.1
			c0.5,1.1,0.8,2.2,0.7,3.3l13.1-6.5c4.6-2.3,10.1-0.7,12.3,3.6c1.9,3.9,0.4,8.6-3.4,11.2l27.9,55.6c0.5,1.1,0,2.4-1.1,3l-78,38.6
			c-1.2,0.6-2.5,0.2-3.1-0.9l-27.9-55.6c0,0,0,0,0,0C1665.8,585.5,1661.1,583.8,1659.1,579.9z M1680.5,552.3
			c-1.8,0.9-2.6,2.9-1.7,4.6s2.9,2.2,4.7,1.4c1.8-0.9,2.6-2.9,1.7-4.6C1684.4,552.1,1682.3,551.4,1680.5,552.3z M1697.3,528
			L1697.3,528c-0.8-1.6-2.9-2.2-4.7-1.4c-1.8,0.9-2.5,2.9-1.7,4.5l0.1,0.3l6.4-3.2L1697.3,528L1697.3,528z M1706,534.3l-2.2-4.4
			l-15.3,7.6l2.2,4.4L1706,534.3z M1697.1,543.5l3.2,6.4l6.4-3.2l-3.2-6.4l0,0L1697.1,543.5z M1720.6,532.5
			c-1.8,0.9-2.6,2.9-1.7,4.6s2.9,2.2,4.7,1.4c1.8-0.9,2.6-2.9,1.7-4.6C1724.5,532.2,1722.4,531.6,1720.6,532.5z M1740.2,616.4
			l34.8-17.2l-16.5-32.9l-34.8,17.2L1740.2,616.4z M1682.8,598.9l73.8-36.5l-8.5-16.9l-4.2,2.1c-4.2,12.6-13.7,23.2-26.1,29.4
			c-12.4,6.2-26.7,7.2-39.3,3l-4.2,2.1L1682.8,598.9z M1736,618.4l-16.5-32.9l-34.8,17.2l16.5,32.9L1736,618.4z M1669.4,579.6l8.1-4
			c0.6-0.3,1.3-0.3,1.9-0.1c11.6,4.2,24.9,3.3,36.5-2.4c9.9-4.9,17.7-13,22.1-22.6l-38.1,18.8c-1.2,0.6-2.5,0.2-3.1-0.9
			c-0.5-1.1,0-2.4,1.1-3l51.2-25.3c2.3-1.1,3.3-3.8,2.3-5.9c-1.1-2.1-3.8-2.9-6.1-1.8l-79.7,39.4c-2.3,1.1-3.3,3.8-2.3,5.9
			C1664.4,580,1667.1,580.8,1669.4,579.6z"/>
	</g>
</g>
</svg>
