<?xml version="1.0" standalone="no"?>
<!DOCTYPE svg PUBLIC "-//W3C//DTD SVG 1.1//EN" "http://www.w3.org/Graphics/SVG/1.1/DTD/svg11.dtd" >
<svg xmlns="http://www.w3.org/2000/svg" xmlns:xlink="http://www.w3.org/1999/xlink" version="1.1">
<metadata>
Created by FontForge 20161004 at Tue Feb 04 20:07:02 2014
 By Sol
KAIWA (Kamil Iwaszczyszyn)
</metadata>
<defs>
<font id="Simplifica" horiz-adv-x="338" >
  <font-face 
    font-family="Simplifica"
    font-weight="400"
    font-stretch="normal"
    units-per-em="1000"
    panose-1="2 0 0 0 0 0 0 0 0 0"
    ascent="750"
    descent="-250"
    x-height="492"
    cap-height="675"
    bbox="-84 -233 635 848"
    underline-thickness="50"
    underline-position="-100"
    unicode-range="U+000D-FB02"
  />
<missing-glyph horiz-adv-x="155" 
 />
    <glyph glyph-name=".notdef" horiz-adv-x="155" 
 />
    <glyph glyph-name="NULL" horiz-adv-x="0" 
 />
    <glyph glyph-name="NULL" horiz-adv-x="0" 
 />
    <glyph glyph-name="nonmarkingreturn" unicode="&#xd;" horiz-adv-x="155" 
 />
    <glyph glyph-name="space" unicode=" " horiz-adv-x="155" 
 />
    <glyph glyph-name="e" unicode="e" 
d="M192 273q-9 -3 -30 -11.5t-45.5 -17.5t-47.5 -18t-36 -13v-85q0 -21 8 -39.5t21.5 -32t32 -21.5t39.5 -8t39.5 8t32 21.5t21.5 32t8 39.5h33q0 -28 -10.5 -52.5t-28.5 -42.5t-42.5 -28.5t-52.5 -10.5t-52.5 10.5t-42.5 28.5t-28.5 42.5t-10.5 52.5v235q0 28 10.5 52.5
t28.5 42.5t42.5 28.5t52.5 10.5t52.5 -10.5t42.5 -28.5t28.5 -42.5t10.5 -51.5v-1q0 -62 -76 -90zM134 464q-21 0 -39.5 -8t-32 -21.5t-21.5 -32t-8 -39.5v-115q15 6 37 14.5t44 16.5t40.5 15t26.5 10q18 7 36 21t18 39q0 21 -8 39t-21.5 31.5t-32 21.5t-39.5 8z" />
    <glyph glyph-name="f" unicode="f" horiz-adv-x="169" 
d="M149 459h-108v-432v-28v-89q0 -28 -9.5 -52.5t-26 -43t-38.5 -29t-47 -10.5v34q18 0 34 8t28 21.5t19 32t7 39.5v89v28v432v5v28v90q0 28 9.5 52.5t26 42.5t38.5 28.5t47 10.5v-33q-18 0 -34 -8t-28 -22t-19 -32t-7 -39v-90h108v-33z" />
    <glyph glyph-name="g" unicode="g" 
d="M268 492v-129v-235v-227q0 -28 -10.5 -52.5t-28.5 -42.5t-42.5 -28.5t-52.5 -10.5t-52.5 10.5t-42.5 28.5t-28.5 42.5t-10.5 52.5h33q0 -21 8 -39t21.5 -32t32 -22t39.5 -8t39.5 8t32 22t21.5 32t8 39v139q-19 -21 -45 -33.5t-56 -12.5q-28 0 -52.5 10.5t-42.5 28.5
t-28.5 42.5t-10.5 52.5v235q0 28 10.5 52.5t28.5 42.5t42.5 28.5t52.5 10.5q30 0 56 -12t45 -34v41h33zM134 27q21 0 39.5 8t32 21.5t21.5 32t8 39.5v235q0 21 -8 39.5t-21.5 32t-32 21.5t-39.5 8t-39.5 -8t-32 -21.5t-21.5 -32t-8 -39.5v-235q0 -21 8 -39.5t21.5 -32
t32 -21.5t39.5 -8z" />
    <glyph glyph-name="h" unicode="h" 
d="M134 497q28 0 52.5 -10.5t42.5 -28.5t28.5 -42.5t10.5 -52.5v-117v-247h-33v247v117q0 21 -8 39.5t-21.5 32t-32 21.5t-39.5 8t-39.5 -8t-32 -21.5t-21.5 -32t-8 -39.5v-117v-247h-33v247v117v353h33v-265q19 22 45 34t56 12z" />
    <glyph glyph-name="i" unicode="i" horiz-adv-x="137" 
d="M33 500h34v-34v-460h-34v460h-33v34h33zM42 614q-11 0 -18 7t-7 18t7 18t18 7q10 0 17.5 -7t7.5 -18t-7.5 -18t-17.5 -7z" />
    <glyph glyph-name="j" unicode="j" horiz-adv-x="142" 
d="M47 607q-11 0 -18 7t-7 18t7 18t18 7q10 0 17.5 -7t7.5 -18t-7.5 -18t-17.5 -7zM38 492h34v-33v-432v-28v-89q0 -28 -9.5 -52.5t-26 -43t-39 -29t-47.5 -10.5v34q18 0 34 8t28 21.5t19 32t7 39.5v89v28v432h-33v33h33z" />
    <glyph glyph-name="k" unicode="k" horiz-adv-x="325" 
d="M285 -1h-39l-164 268h-49v-268h-33v717h33v-416h48l4 2l128 190h40l-141 -210l173 -283v0z" />
    <glyph glyph-name="l" unicode="l" horiz-adv-x="113" 
d="M33 -1h-33v717h33v-717v0z" />
    <glyph glyph-name="m" unicode="m" horiz-adv-x="573" 
d="M369 497q28 0 52.5 -10.5t42.5 -28.5t28.5 -42.5t10.5 -52.5v-117v-247h-33v247v117q0 21 -8 39.5t-21.5 32t-32 21.5t-39.5 8t-39 -8t-32 -21.5t-22 -32t-8 -39.5v-117v-247h-33v247v117q0 21 -8 39.5t-21.5 32t-32 21.5t-39.5 8t-39.5 -8t-32 -21.5t-21.5 -32t-8 -39.5
v-117v-247h-33v247v117v129h33v-41q19 22 45 34t56 12q38 0 69.5 -19t48.5 -50q17 31 48 50t69 19z" />
    <glyph glyph-name="n" unicode="n" 
d="M134 497q28 0 52.5 -10.5t42.5 -28.5t28.5 -42.5t10.5 -52.5v-117v-247h-33v247v117q0 21 -8 39.5t-21.5 32t-32 21.5t-39.5 8t-39.5 -8t-32 -21.5t-21.5 -32t-8 -39.5v-117v-247h-33v247v117v129h33v-41q19 22 45 34t56 12z" />
    <glyph glyph-name="o" unicode="o" 
d="M134 -6q-28 0 -52.5 10.5t-42.5 28.5t-28.5 42.5t-10.5 52.5v235q0 28 10.5 52.5t28.5 42.5t42.5 28.5t52.5 10.5t52.5 -10.5t42.5 -28.5t28.5 -42.5t10.5 -52.5v-235q0 -28 -10.5 -52.5t-28.5 -42.5t-42.5 -28.5t-52.5 -10.5zM134 464q-21 0 -39.5 -8t-32 -21.5
t-21.5 -32t-8 -39.5v-235q0 -21 8 -39.5t21.5 -32t32 -21.5t39.5 -8t39.5 8t32 21.5t21.5 32t8 39.5v235q0 21 -8 39.5t-21.5 32t-32 21.5t-39.5 8z" />
    <glyph glyph-name="p" unicode="p" 
d="M134 497q28 0 52.5 -10.5t42.5 -28.5t28.5 -42.5t10.5 -52.5v-235q0 -28 -10.5 -52.5t-28.5 -42.5t-42.5 -28.5t-52.5 -10.5q-30 0 -56 12.5t-45 33.5v-265h-33v353v235v129h33v-41q19 22 45 34t56 12zM235 363q0 21 -8 39.5t-21.5 32t-32 21.5t-39.5 8t-39.5 -8
t-32 -21.5t-21.5 -32t-8 -39.5v-235q0 -21 8 -39.5t21.5 -32t32 -21.5t39.5 -8t39.5 8t32 21.5t21.5 32t8 39.5v235z" />
    <glyph glyph-name="q" unicode="q" 
d="M268 492v-129v-235v-353h-33v265q-19 -21 -45 -33.5t-56 -12.5q-28 0 -52.5 10.5t-42.5 28.5t-28.5 42.5t-10.5 52.5v235q0 28 10.5 52.5t28.5 42.5t42.5 28.5t52.5 10.5q30 0 56 -12t45 -34v41h33zM134 27q21 0 39.5 8t32 21.5t21.5 32t8 39.5v235q0 21 -8 39.5
t-21.5 32t-32 21.5t-39.5 8t-39.5 -8t-32 -21.5t-21.5 -32t-8 -39.5v-235q0 -21 8 -39.5t21.5 -32t32 -21.5t39.5 -8z" />
    <glyph glyph-name="r" unicode="r" horiz-adv-x="266" 
d="M206 497v-33h-39q-21 0 -39 -8t-32 -21.5t-22 -32t-8 -39.5v-117v-247h-33v247v117v96h-33v33h33h33v-33v-8q38 44 98 46h42z" />
    <glyph glyph-name="s" unicode="s" 
d="M142 261q22 -11 44.5 -23.5t40.5 -28.5t29.5 -35.5t11.5 -45.5q0 -28 -10.5 -52.5t-28.5 -42.5t-42.5 -28.5t-52.5 -10.5t-52.5 10.5t-42.5 28.5t-28.5 42.5t-10.5 52.5h33q0 -21 8 -39.5t21.5 -32t32 -21.5t39.5 -8t39.5 8t32 21.5t21.5 32t8 39.5q0 18 -9 32.5
t-24 26.5t-34.5 22.5t-40.5 21.5q-23 11 -45.5 23.5t-40.5 28t-29.5 35t-11.5 45.5q0 28 10.5 52.5t28.5 42.5t42.5 28.5t52.5 10.5t52.5 -10.5t42.5 -28.5t28.5 -42.5t10.5 -52.5h-33q0 21 -8 39.5t-21.5 32t-32 21.5t-39.5 8t-39.5 -8t-32 -21.5t-21.5 -32t-8 -39.5
q0 -18 9 -32.5t24.5 -26.5t35 -22.5t40.5 -20.5z" />
    <glyph glyph-name="t" unicode="t" horiz-adv-x="191" 
d="M33 246v-118q0 -21 7 -39.5t19 -32t28 -21.5t34 -8v-33q-25 0 -47 10.5t-38.5 28.5t-26 42.5t-9.5 52.5v118v213v33v140h33v-140h108v-33h-108v-213z" />
    <glyph glyph-name="u" unicode="u" 
d="M268 492v-246v-118v-129h-33v41q-19 -21 -45 -33.5t-56 -12.5q-28 0 -52.5 10.5t-42.5 28.5t-28.5 42.5t-10.5 52.5v118v246h33v-246v-118q0 -21 8 -39.5t21.5 -32t32 -21.5t39.5 -8t39.5 8t32 21.5t21.5 32t8 39.5v118v246h33z" />
    <glyph glyph-name="v" unicode="v" horiz-adv-x="327" 
d="M252 492h35l-130 -493h-13h-21h-13l-130 493h34l119 -453l119 453v0z" />
    <glyph glyph-name="w" unicode="w" horiz-adv-x="484" 
d="M410 492h34l-112 -493h-49l-71 400l-71 -400h-50l-111 493h34l101 -448l80 448v0h33h1l80 -448l101 448v0z" />
    <glyph glyph-name="x" unicode="x" horiz-adv-x="306" 
d="M-20 -1l124 251l-120 242h37l102 -204l101 204h37l-120 -242l125 -251h-38l-105 214l-106 -214h-37v0z" />
    <glyph glyph-name="y" unicode="y" horiz-adv-x="318" 
d="M244 492h34l-175 -717h-34l52 216l-141 501h34l123 -436l107 436v0z" />
    <glyph glyph-name="z" unicode="z" horiz-adv-x="294" 
d="M234 492v-33v0v0l-217 -427h217v-33h-254v33v0l217 427h-217v33h254v0z" />
    <glyph glyph-name="period" unicode="." horiz-adv-x="142" 
d="M72 30q0 -15 -10.5 -26t-25.5 -11t-25.5 11t-10.5 26q0 14 10.5 25t25.5 11t25.5 -11t10.5 -25z" />
    <glyph glyph-name="comma" unicode="," horiz-adv-x="143" 
d="M72 27q0 -5 -0.5 -16t-4.5 -25t-13 -30.5t-24 -32.5l-19 18q14 14 21 27.5t10 25.5q-2 0 -3 -0.5t-3 -0.5q-15 0 -25.5 11t-10.5 26q0 14 10.5 25t25.5 11t25.5 -11t10.5 -25v-3v0z" />
    <glyph glyph-name="colon" unicode=":" horiz-adv-x="142" 
d="M72 30q0 -15 -10.5 -26t-25.5 -11t-25.5 11t-10.5 26q0 14 10.5 25t25.5 11t25.5 -11t10.5 -25zM72 413q0 -15 -10.5 -25.5t-25.5 -10.5t-25.5 10.5t-10.5 25.5t10.5 25.5t25.5 10.5t25.5 -10.5t10.5 -25.5z" />
    <glyph glyph-name="semicolon" unicode=";" horiz-adv-x="143" 
d="M72 27q0 -5 -0.5 -16t-4.5 -25t-13 -30.5t-24 -32.5l-19 18q14 14 21 27.5t10 25.5q-2 0 -3 -0.5t-3 -0.5q-15 0 -25.5 11t-10.5 26q0 14 10.5 25t25.5 11t25.5 -11t10.5 -25v-3zM72 413q0 -15 -10.5 -25.5t-25.5 -10.5t-25.5 10.5t-10.5 25.5t10.5 25.5t25.5 10.5
t25.5 -10.5t10.5 -25.5z" />
    <glyph glyph-name="exclam" unicode="!" horiz-adv-x="182" 
d="M112 30q0 14 -10.5 25t-25.5 11t-25.5 -11t-10.5 -25q0 -15 10.5 -26t25.5 -11t25.5 11t10.5 26zM93 180h-34v502h34v-502z" />
    <glyph glyph-name="question" unicode="?" horiz-adv-x="359" 
d="M155 30q0 -15 -11 -26t-26 -11q-14 0 -25 11t-11 26q0 14 11 25t25 11q15 0 26 -11t11 -25zM289 541q0 -37 -7.5 -65t-21.5 -50.5t-33.5 -41.5t-43.5 -38t-35 -34.5t-14 -33.5t-2 -41.5t1 -57.5h-33q0 40 0.5 68t5.5 49t18 38.5t38 37.5q23 18 40.5 35t29.5 36.5t18 43
t6 54.5q0 23 -9 43.5t-24 35.5t-35 24t-43 9t-43.5 -9t-35.5 -24t-24 -35.5t-9 -43.5h-33q0 30 11.5 56.5t31 46t46 31t56.5 11.5t56 -11.5t45.5 -31t31 -46t11.5 -56.5z" />
    <glyph glyph-name="percent" unicode="%" horiz-adv-x="465" 
d="M115 -1h-34l200 676h33zM101 478q-21 0 -39.5 8t-32 21.5t-21.5 32t-8 39.5t8 39t21.5 32t32 22t39.5 8t39 -8t32 -22t22 -32t8 -39t-8 -39.5t-22 -32t-32 -21.5t-39 -8zM101 646q-28 0 -48 -19.5t-20 -47.5q0 -29 20 -48.5t48 -19.5t48 19.5t20 48.5q0 28 -20 47.5
t-48 19.5zM294 -6q-21 0 -39 8t-32 21.5t-22 32t-8 39.5t8 39.5t22 32t32 21.5t39 8t39.5 -8t32 -21.5t21.5 -32t8 -39.5t-8 -39.5t-21.5 -32t-32 -21.5t-39.5 -8zM294 163q-28 0 -47.5 -20t-19.5 -48t19.5 -48t47.5 -20q29 0 48.5 20t19.5 48t-19.5 48t-48.5 20z" />
    <glyph glyph-name="perthousand" unicode="&#x2030;" horiz-adv-x="705" 
d="M115 -1h-34l200 676h33zM101 478q-21 0 -39.5 8t-32 21.5t-21.5 32t-8 39.5t8 39t21.5 32t32 22t39.5 8t39 -8t32 -22t22 -32t8 -39t-8 -39.5t-22 -32t-32 -21.5t-39 -8zM101 646q-28 0 -48 -19.5t-20 -47.5q0 -29 20 -48.5t48 -19.5t48 19.5t20 48.5q0 28 -20 47.5
t-48 19.5zM294 -6q-21 0 -39 8t-32 21.5t-22 32t-8 39.5t8 39.5t22 32t32 21.5t39 8t39.5 -8t32 -21.5t21.5 -32t8 -39.5t-8 -39.5t-21.5 -32t-32 -21.5t-39.5 -8zM294 163q-28 0 -47.5 -20t-19.5 -48t19.5 -48t47.5 -20q29 0 48.5 20t19.5 48t-19.5 48t-48.5 20zM535 -6
q-21 0 -39.5 8t-32 21.5t-21.5 32t-8 39.5t8 39.5t21.5 32t32 21.5t39.5 8t39 -8t31.5 -21.5t21.5 -32t8 -39.5t-8 -39.5t-21.5 -32t-31.5 -21.5t-39 -8zM535 163q-29 0 -48.5 -20t-19.5 -48t19.5 -48t48.5 -20q28 0 47.5 20t19.5 48t-19.5 48t-47.5 20z" />
    <glyph glyph-name="quotedblbase" unicode="&#x201e;" horiz-adv-x="183" 
d="M72 27q0 -5 -0.5 -16t-4.5 -25t-13 -30.5t-24 -32.5l-19 18q14 14 21 27.5t10 25.5q-2 0 -3 -0.5t-3 -0.5q-15 0 -25.5 11t-10.5 25q0 15 10.5 26t25.5 11t25.5 -11t10.5 -26v-2zM183 27q0 -5 -1 -16t-5 -25t-12.5 -30.5t-24.5 -32.5l-18 18q13 14 20 27.5t11 25.5
q-2 0 -3 -0.5t-3 -0.5q-15 0 -25.5 11t-10.5 25q0 15 10.5 26t25.5 11t25.5 -11t10.5 -26v-2z" />
    <glyph glyph-name="quotedblright" unicode="&#x201d;" horiz-adv-x="183" 
d="M72 649q0 -5 -0.5 -16.5t-4.5 -25.5t-13 -30.5t-24 -32.5l-19 18q14 14 21 27.5t10 25.5h-6q-15 0 -25.5 10.5t-10.5 25.5t10.5 25.5t25.5 10.5t25.5 -10.5t10.5 -25.5v-2zM183 649q0 -5 -1 -16.5t-5 -25.5t-12.5 -30.5t-24.5 -32.5l-18 18q13 14 20 27.5t11 25.5h-6
q-15 0 -25.5 10.5t-10.5 25.5t10.5 25.5t25.5 10.5t25.5 -10.5t10.5 -25.5v-2z" />
    <glyph glyph-name="quotedblleft" unicode="&#x201c;" horiz-adv-x="183" 
d="M111 582q0 5 0.5 16t4.5 25.5t12.5 31t24.5 32.5l18 -18q-13 -14 -20 -27.5t-10 -25.5h6q15 0 25.5 -10.5t10.5 -25.5t-10.5 -25.5t-25.5 -10.5t-25.5 10.5t-10.5 25.5v2zM0 582q0 5 1 16t5 25.5t12.5 31t23.5 32.5l19 -18q-14 -14 -20.5 -27.5t-10.5 -25.5h6
q15 0 25.5 -10.5t10.5 -25.5t-10.5 -25.5t-25.5 -10.5t-25.5 10.5t-10.5 25.5v2z" />
    <glyph glyph-name="quoteright" unicode="&#x2019;" horiz-adv-x="73" 
d="M72 649q0 -5 -0.5 -16.5t-4.5 -25.5t-13 -30.5t-24 -32.5l-19 18q14 14 21 27.5t10 25.5h-6q-15 0 -25.5 10.5t-10.5 25.5t10.5 25.5t25.5 10.5t25.5 -10.5t10.5 -25.5v-2v0z" />
    <glyph glyph-name="quoteleft" unicode="&#x2018;" horiz-adv-x="72" 
d="M0 582q0 5 1 16t5 25.5t12.5 31t23.5 32.5l19 -18q-14 -14 -20.5 -27.5t-10.5 -25.5h6q15 0 25.5 -10.5t10.5 -25.5t-10.5 -25.5t-25.5 -10.5t-25.5 10.5t-10.5 25.5v2v0z" />
    <glyph glyph-name="A" unicode="A" horiz-adv-x="376" 
d="M302 -1l-47 212h-194l-47 -212h-34l150 676h56l150 -676h-34zM68 244h180l-90 404z" />
    <glyph glyph-name="B" unicode="B" horiz-adv-x="377" 
d="M211 415q42 -15 69 -51.5t27 -83.5v-138q0 -30 -11.5 -56t-31 -45.5t-45.5 -30.5t-56 -11h-130h-16h-17v676h17h16h97q30 0 56 -11t45.5 -30.5t31 -45.5t11.5 -56q0 -37 -17 -67.5t-46 -49.5zM33 642v-219h101q22 1 41.5 9.5t34 23.5t23 34.5t8.5 41.5q0 23 -9 43t-24 35
t-35 23.5t-43 8.5h-97zM274 280q0 22 -8.5 42t-23 35t-34.5 23.5t-43 9.5h-31h-4h-97v-358h130q23 0 43 8.5t35 23.5t24 35t9 43v138z" />
    <glyph glyph-name="C" unicode="C" horiz-adv-x="359" 
d="M145 27q23 0 43 9t35 24t24 35.5t9 43.5h33q0 -30 -11.5 -56.5t-31 -46t-45.5 -31t-56 -11.5t-56.5 11.5t-46 31t-31 46t-11.5 56.5v395q0 30 11.5 56.5t31 46t46 31t56.5 11.5t56 -11.5t45.5 -31t31 -46t11.5 -56.5h-33q0 23 -9 43t-24 35t-35 24t-43 9t-43.5 -9
t-35.5 -24t-24 -35t-9 -43v-395q0 -23 9 -43.5t24 -35.5t35.5 -24t43.5 -9z" />
    <glyph glyph-name="D" unicode="D" horiz-adv-x="353" 
d="M138 675q30 0 56.5 -11t46 -30.5t31 -45.5t11.5 -56v-390q0 -30 -11.5 -56t-31 -45.5t-46 -30.5t-56.5 -11h-105h-8h-25v676h25h8h105zM249 532q0 23 -9 43t-24 35t-35 23.5t-43 8.5h-105v-610h105q23 0 43 8.5t35 23.5t24 35t9 43v390z" />
    <glyph glyph-name="E" unicode="E" horiz-adv-x="313" 
d="M263 641h-230v-255h189v-33h-189v-321h230v-33h-230h-33v0v676v0h33h230v-34v0z" />
    <glyph glyph-name="F" unicode="F" horiz-adv-x="313" 
d="M263 641h-230v-255h189v-33h-189v-354h-33v676v0h33h230v-34v0z" />
    <glyph glyph-name="G" unicode="G" horiz-adv-x="359" 
d="M256 380h33v-33v-101v-107v-11q-2 -28 -14 -52.5t-31.5 -42.5t-45 -28.5t-53.5 -10.5q-30 0 -56.5 11.5t-46 31t-31 46t-11.5 56.5v395q0 30 11.5 56.5t31 46t46 31t56.5 11.5t56 -11.5t45.5 -31t31 -46t11.5 -56.5h-33q0 23 -9 43t-24 35t-35 24t-43 9t-43.5 -9
t-35.5 -24t-24 -35t-9 -43v-395q0 -23 9 -43.5t24 -35.5t35.5 -24t43.5 -9t43 9t35 24t24 35.5t9 43.5v107v101h-136v33h136z" />
    <glyph glyph-name="H" unicode="H" horiz-adv-x="353" 
d="M250 675h33v-289v-33v-354h-33v354h-217v-354h-33v676h33v-289h217v289v0z" />
    <glyph glyph-name="I" unicode="I" horiz-adv-x="103" 
d="M33 -1h-33v676h33v-676v0z" />
    <glyph glyph-name="J" unicode="J" horiz-adv-x="359" 
d="M289 675v-34v-160v-35v-307q0 -30 -11.5 -56.5t-31 -46t-45.5 -31t-56 -11.5t-56.5 11.5t-46 31t-31 46t-11.5 56.5v107h33v-107q0 -23 9 -43.5t24 -35.5t35.5 -24t43.5 -9t43 9t35 24t24 35.5t9 43.5v307v35v160h-180v34h180h33z" />
    <glyph glyph-name="K" unicode="K" horiz-adv-x="352" 
d="M285 -1l-175 335h-77v-335h-33v676h33v-307h77l160 307h37l-168 -324l183 -352h-37v0z" />
    <glyph glyph-name="L" unicode="L" horiz-adv-x="277" 
d="M33 32h214v-33h-214h-33v0v676h33v-643v0z" />
    <glyph glyph-name="M" unicode="M" horiz-adv-x="471" 
d="M367 675h34v-676h-33v582l-167 -459l-168 459v-582h-33v676h34l167 -456l166 456v0z" />
    <glyph glyph-name="N" unicode="N" horiz-adv-x="348" 
d="M245 675h33v-676h-33l-212 584v-584h-33v676h33l212 -584v584v0z" />
    <glyph glyph-name="O" unicode="O" horiz-adv-x="359" 
d="M145 -6q-30 0 -56.5 11.5t-46 31t-31 46t-11.5 56.5v395q0 30 11.5 56.5t31 46t46 31t56.5 11.5t56 -11.5t45.5 -31t31 -46t11.5 -56.5v-395q0 -30 -11.5 -56.5t-31 -46t-45.5 -31t-56 -11.5zM145 645q-23 0 -43.5 -9t-35.5 -24t-24 -35t-9 -43v-395q0 -23 9 -43.5
t24 -35.5t35.5 -24t43.5 -9t43 9t35 24t24 35.5t9 43.5v395q0 23 -9 43t-24 35t-35 24t-43 9z" />
    <glyph glyph-name="P" unicode="P" horiz-adv-x="344" 
d="M132 675q30 0 55.5 -11.5t45 -31t30.5 -45.5t11 -55v-138q0 -29 -10.5 -54t-29 -44t-43 -31t-52.5 -14h-5h-4h-97v-252h-33v676h17h16h99zM241 532q0 22 -9 42t-24 35t-35 24t-43 9h-97v-358h99q23 0 43 9t34.5 24t23 34.5t8.5 42.5v138z" />
    <glyph glyph-name="Q" unicode="Q" horiz-adv-x="359" 
d="M145 679q30 0 56 -11.5t45.5 -31t31 -46t11.5 -56.5v-395q0 -28 -10 -53t-27 -44t-40.5 -31.5t-50.5 -15.5v-87h-33v87q-27 3 -50.5 15.5t-40.5 31.5t-27 44t-10 53v395q0 30 11.5 56.5t31 46t46 31t56.5 11.5zM256 534q0 23 -9 43t-24 35t-35 24t-43 9t-43.5 -9
t-35.5 -24t-24 -35t-9 -43v-395q0 -42 27 -73t68 -38v218h33v-218q41 7 68 38t27 73v395z" />
    <glyph glyph-name="R" unicode="R" horiz-adv-x="342" 
d="M115 284h-82v-285h-33v285v33v325v33h33h89q30 0 56.5 -11t46 -30.5t31 -45.5t11.5 -56v-18v-87q0 -26 -9 -49t-25 -42t-37 -31.5t-46 -17.5l122 -288h-36zM33 317h89q23 0 43 8.5t35 23.5t24 35t9 43v87v18q0 22 -9 42t-24 35t-35 24t-43 9h-89v-325z" />
    <glyph glyph-name="S" unicode="S" horiz-adv-x="359" 
d="M152 356q25 -20 49.5 -41.5t44 -47t31.5 -57t12 -71.5q0 -30 -11.5 -56.5t-31 -46t-45.5 -31t-56 -11.5t-56.5 11.5t-46 31t-31 46t-11.5 56.5h33q0 -23 9 -43.5t24 -35.5t35.5 -24t43.5 -9t43 9t35 24t24 35.5t9 43.5q0 34 -10.5 61t-28 49.5t-40 42t-46.5 38.5
t-47.5 39.5t-42 44.5t-30 53t-11.5 67q0 30 11.5 56.5t31 46t46 31t56.5 11.5t56 -11.5t45.5 -31t31 -46t11.5 -56.5h-33q0 23 -9 43t-24 35t-35 24t-43 9t-43.5 -9t-35.5 -24t-24 -35t-9 -43q0 -32 10 -56.5t26.5 -45.5t38 -39.5t44.5 -36.5z" />
    <glyph glyph-name="T" unicode="T" horiz-adv-x="303" 
d="M263 675v-34h-135v-642h-33v642h-135v34h135h33h135v0z" />
    <glyph glyph-name="U" unicode="U" horiz-adv-x="359" 
d="M289 675v-288v-17v-230q0 -30 -11.5 -56.5t-31 -46t-45.5 -31t-56 -11.5t-56.5 11.5t-46 31t-31 46t-11.5 56.5v230v17v288h33v-288v-17v-230q0 -23 9 -43.5t24 -35.5t35.5 -24t43.5 -9t43 9t35 24t24 35.5t9 43.5v230v17v288h33z" />
    <glyph glyph-name="V" unicode="V" horiz-adv-x="387" 
d="M303 675h34l-147 -676h-44l-146 676h34l134 -621l135 621v0z" />
    <glyph glyph-name="W" unicode="W" horiz-adv-x="623" 
d="M539 675h34l-146 -676h-50l-91 603l-90 -603h-50l-146 676h34l136 -627l94 627h45l94 -627l136 627v0z" />
    <glyph glyph-name="X" unicode="X" horiz-adv-x="351" 
d="M0 -1l132 340l-130 336h35l113 -290l113 290h36l-131 -336l133 -340h-36l-115 294l-114 -294h-36v0z" />
    <glyph glyph-name="Y" unicode="Y" horiz-adv-x="327" 
d="M241 675h36l-131 -336l-1 -3v-337h-33v337l-1 3l-131 336h36l112 -290l113 290v0z" />
    <glyph glyph-name="Z" unicode="Z" horiz-adv-x="321" 
d="M271 641l-238 -609h238v-33h-271v33v0l238 609h-238v34h271v-34v0v0z" />
    <glyph glyph-name="quotesingle" unicode="'" horiz-adv-x="133" 
d="M33 531h-33v183h33v-183v0z" />
    <glyph glyph-name="quotedbl" unicode="&#x22;" horiz-adv-x="184" 
d="M33 532h-33v183h33v-183v0zM114 532h-33v183h33v-183v0z" />
    <glyph glyph-name="asterisk" unicode="*" horiz-adv-x="255" 
d="M185 612l-60 -34l60 -34l-17 -29l-59 34v-68h-33v68l-59 -34l-17 29l59 34l-59 34l17 29l59 -35v69h33v-69l59 35l17 -29v0z" />
    <glyph glyph-name="plus" unicode="+" horiz-adv-x="417" 
d="M347 335v-33h-157v-157h-33v157h-157v33h157v157h33v-157h157v0z" />
    <glyph glyph-name="divide" unicode="&#xf7;" horiz-adv-x="417" 
d="M347 302h-347v33h347v-33zM210 456q0 -15 -11 -25.5t-25 -10.5q-15 0 -26 10.5t-11 25.5t11 25.5t26 10.5q14 0 25 -10.5t11 -25.5zM210 181q0 -15 -11 -25.5t-25 -10.5q-15 0 -26 10.5t-11 25.5t11 25.5t26 10.5q14 0 25 -10.5t11 -25.5z" />
    <glyph glyph-name="hyphen" unicode="-" horiz-adv-x="318" 
d="M218 302h-218v33h218v-33v0z" />
    <glyph glyph-name="multiply" unicode="&#xd7;" horiz-adv-x="339" 
d="M269 430l-111 -111l111 -111l-24 -24l-111 111l-111 -111l-23 24l111 111l-111 111l23 23l111 -111l111 111l24 -23v0z" />
    <glyph glyph-name="ampersand" unicode="&#x26;" horiz-adv-x="533" 
d="M395 108q26 -41 44 -70t24 -39h-39q-8 14 -20.5 33.5t-27.5 43.5q-60 -82 -180 -82q-41 0 -76.5 15.5t-62 42t-42 62t-15.5 76.5t14.5 72t38 55.5t52.5 44t58 37.5q2 1 3 2t3 2q-17 27 -28 44.5t-14 22.5q-17 26 -24 44.5t-7 45.5q0 24 9.5 46t25.5 38t37.5 25.5
t45.5 9.5t45.5 -9.5t37.5 -25.5t25.5 -38t9.5 -46q0 -30 -9.5 -54.5t-25.5 -44.5t-37.5 -36.5t-44.5 -31.5q17 -27 36.5 -58.5t40.5 -64.5t41.5 -66t40.5 -63q28 69 28 186h34q0 -139 -41 -219zM154 488q4 -5 15 -22.5t28 -44.5q42 27 72 59t30 80q0 35 -25 60t-60 25
t-60 -25t-25 -60q0 -19 5 -33.5t20 -38.5zM196 27q110 0 160 80q-20 31 -42 66t-44.5 70.5t-43.5 69t-39 62.5q-2 -1 -3.5 -2t-3.5 -2q-28 -18 -54.5 -35.5t-47 -38.5t-33 -47t-12.5 -60t13 -63.5t35 -51.5t51.5 -35t63.5 -13z" />
    <glyph glyph-name="at" unicode="@" horiz-adv-x="682" 
d="M548 69q-28 -28 -66 -50q-18 -10 -37.5 -18t-39.5 -13q-39 -10 -82 -10q-69 0 -128 25q-57 25 -102 70q-44 44 -68 103q-25 59 -25 127q0 65 26 125q24 58 69 101q43 43 102 69q56 25 122 25q61 0 115 -20q53 -19 93 -56q39 -34 62 -84q23 -47 23 -108q0 -51 -18 -94
q-18 -46 -47 -79q-14 -17 -30 -30.5t-33 -23.5q-34 -19 -67 -19q-22 0 -41 10q-20 9 -26 29l-5 13l-9 -9q-9 -10 -20.5 -17.5t-24.5 -13.5q-28 -11 -53 -11q-24 0 -47 10q-20 9 -36 26q-14 16 -22 39q-8 20 -8 48q0 42 15 87q8 23 18.5 43.5t24.5 39.5q28 38 66 62
q37 24 84 24q28 0 54 -14q25 -13 37 -39l8 -19l18 54h41l-84 -252q-3 -8 -5 -15t-4 -13q-3 -15 -2 -25q2 -13 9 -20q7 -8 24 -8q30 0 58 22q27 20 46 53q10 16 18 33.5t13 36.5q12 39 12 75q0 55 -21 99q-22 46 -56 75q-35 31 -81 47q-46 17 -97 17q-63 0 -115 -24t-90 -65
t-59 -95t-21 -115q0 -59 22 -114q23 -53 61 -93q37 -39 90 -62q54 -23 114 -23q33 0 68 8q33 7 65 24q31 15 57 39q25 21 45 48h34q-10 -15 -20.5 -29t-23.5 -26zM360 236q10 18 18 37t14 39q11 41 11 70t-18 50q-19 22 -50 22q-37 0 -68 -23q-14 -11 -26.5 -24.5
t-22.5 -30.5q-11 -17 -18.5 -34.5t-13.5 -35.5q-11 -39 -11 -69q0 -35 19 -60q19 -28 57 -28q33 0 62 27q25 23 47 60z" />
    <glyph glyph-name="zero" unicode="0" horiz-adv-x="359" 
d="M145 -6q-30 0 -56.5 11.5t-46 31t-31 46t-11.5 56.5v395q0 30 11.5 56.5t31 46t46 31t56.5 11.5t56 -11.5t45.5 -31t31 -46t11.5 -56.5v-395q0 -30 -11.5 -56.5t-31 -46t-45.5 -31t-56 -11.5zM145 645q-23 0 -43.5 -9t-35.5 -24t-24 -35t-9 -43v-395q0 -23 9 -43.5
t24 -35.5t35.5 -24t43.5 -9t43 9t35 24t24 35.5t9 43.5v395q0 23 -9 43t-24 35t-35 24t-43 9z" />
    <glyph glyph-name="one" unicode="1" horiz-adv-x="249" 
d="M130 32h49v-33h-49h-33h-74v33h74v607l-85 -34l-12 31l97 38v1h33v-643v0z" />
    <glyph glyph-name="two" unicode="2" horiz-adv-x="359" 
d="M33 32h256v-33h-256h-16h-17v140q0 40 12 71.5t31.5 57t44 47t49.5 41.5q23 18 44.5 36.5t38 39.5t26.5 45.5t10 56.5q0 23 -9 43t-24 35t-35 24t-43 9t-43.5 -9t-35.5 -24t-24 -35t-9 -43h-33q0 30 11.5 56.5t31 46t46 31t56.5 11.5t56 -11.5t45.5 -31t31 -46
t11.5 -56.5q0 -38 -11.5 -67t-30 -53t-42 -44.5t-47.5 -39.5t-46.5 -38.5t-40 -42t-28 -49.5t-10.5 -61v-107z" />
    <glyph glyph-name="three" unicode="3" horiz-adv-x="359" 
d="M289 464q0 -42 -21 -76t-56 -53q35 -18 56 -52t21 -76v-68q0 -30 -11.5 -56.5t-31 -46t-45.5 -31t-56 -11.5t-56.5 11.5t-46 31t-31 46t-11.5 56.5h33q0 -23 9 -43.5t24 -35.5t35.5 -24t43.5 -9t43 9t35 24t24 35.5t9 43.5v68q0 23 -9 43.5t-24 35.5t-35 24t-43 9h-36v33
h36q23 0 43 9t35 24t24 35.5t9 43.5v69q0 23 -9 43.5t-24 35.5t-35 24t-43 9t-43.5 -9t-35.5 -24t-24 -35.5t-9 -43.5h-33q0 30 11.5 56.5t31 46.5t46 31.5t56.5 11.5t56 -11.5t45.5 -31.5t31 -46.5t11.5 -56.5v-69v0z" />
    <glyph glyph-name="four" unicode="4" horiz-adv-x="326" 
d="M222 423h34v-181v-34v-209h-34v209h-242v34v0l174 433h37l-175 -433h206v181v0z" />
    <glyph glyph-name="five" unicode="5" horiz-adv-x="359" 
d="M145 423q30 0 56 -11.5t45.5 -31t31 -46t11.5 -56.5v-139q0 -30 -11.5 -56.5t-31 -46t-45.5 -31t-56 -11.5t-56.5 11.5t-46 31t-31 46t-11.5 56.5h33q0 -23 9 -43.5t24 -35.5t35.5 -24t43.5 -9t43 9t35 24t24 35.5t9 43.5v139q0 23 -9 43.5t-24 35.5t-35 24t-43 9h-95
h-14h-19l16 285h8h25h204v-34h-206l-12 -218h93v0z" />
    <glyph glyph-name="six" unicode="6" horiz-adv-x="359" 
d="M145 423q30 0 56 -11.5t45.5 -31t31 -46t11.5 -56.5v-139q0 -30 -11.5 -56.5t-31 -46t-45.5 -31t-56 -11.5t-56.5 11.5t-46 31t-31 46t-11.5 56.5v395q0 30 11.5 56.5t31 46t46 31t56.5 11.5t56 -11.5t45.5 -31t31 -46t11.5 -56.5h-33q0 23 -9 43t-24 35t-35 24t-43 9
t-43.5 -9t-35.5 -24t-24 -35t-9 -43v-164q20 24 49 38.5t63 14.5zM256 278q0 23 -9 43.5t-24 35.5t-35 24t-43 9t-43.5 -9t-35.5 -24t-24 -35.5t-9 -43.5v-139q0 -23 9 -43.5t24 -35.5t35.5 -24t43.5 -9t43 9t35 24t24 35.5t9 43.5v139z" />
    <glyph glyph-name="seven" unicode="7" horiz-adv-x="301" 
d="M-20 675h251v-34l-180 -642h-34l181 642h-218v34v0z" />
    <glyph glyph-name="eight" unicode="8" horiz-adv-x="359" 
d="M289 465q0 -42 -22 -76.5t-58 -52.5q36 -18 58 -52t22 -77v-68q0 -30 -11.5 -56.5t-31 -46t-45.5 -31t-56 -11.5t-56.5 11.5t-46 31t-31 46t-11.5 56.5v68q0 43 22 77t58 52q-36 18 -58 52.5t-22 76.5v69q0 30 11.5 56.5t31 46t46 31t56.5 11.5t56 -11.5t45.5 -31t31 -46
t11.5 -56.5v-69zM256 207q0 23 -9 43.5t-24 35.5t-35 24t-43 9t-43.5 -9t-35.5 -24t-24 -35.5t-9 -43.5v-68q0 -23 9 -43.5t24 -35.5t35.5 -24t43.5 -9t43 9t35 24t24 35.5t9 43.5v68zM145 354q23 0 43 9t35 24t24 35t9 43v69q0 23 -9 43t-24 35t-35 24t-43 9t-43.5 -9
t-35.5 -24t-24 -35t-9 -43v-69q0 -23 9 -43t24 -35t35.5 -24t43.5 -9z" />
    <glyph glyph-name="nine" unicode="9" horiz-adv-x="359" 
d="M145 679q30 0 56 -11.5t45.5 -31t31 -46t11.5 -56.5v-395q0 -30 -11.5 -56.5t-31 -46t-45.5 -31t-56 -11.5t-56.5 11.5t-46 31t-31 46t-11.5 56.5h33q0 -23 9 -43.5t24 -35.5t35.5 -24t43.5 -9t43 9t35 24t24 35.5t9 43.5v234q-20 -24 -49 -38t-62 -14q-30 0 -56.5 11.5
t-46 31t-31 45.5t-11.5 56v69q0 30 11.5 56.5t31 46t46 31t56.5 11.5zM145 354q23 0 43 9t35 24t24 35t9 43v69q0 23 -9 43t-24 35t-35 24t-43 9t-43.5 -9t-35.5 -24t-24 -35t-9 -43v-69q0 -23 9 -43t24 -35t35.5 -24t43.5 -9z" />
    <glyph glyph-name="slash" unicode="/" horiz-adv-x="302" 
d="M33 -1h-33l199 676h33l-199 -676v0z" />
    <glyph glyph-name="backslash" unicode="\" horiz-adv-x="302" 
d="M199 -1l-199 676h33l199 -676h-33v0z" />
    <glyph glyph-name="Euro" unicode="&#x20ac;" horiz-adv-x="443" 
d="M229 27q23 0 43 9t35 24t24 35.5t9 43.5h33q0 -30 -11.5 -56.5t-31 -46t-45.5 -31t-56 -11.5t-56.5 11.5t-46 31t-31 46t-11.5 56.5v130h-54v33h54v62h-54v33h54v137q0 30 11.5 56.5t31 46t46 31t56.5 11.5t56 -11.5t45.5 -31t31 -46t11.5 -56.5h-33q0 23 -9 43t-24 35
t-35 24t-43 9t-43 -9t-35 -24t-24 -35t-9 -43v-137h170v-33h-170v-62h170v-33h-170v-130q0 -23 9 -43.5t24 -35.5t35 -24t43 -9z" />
    <glyph glyph-name="sterling" unicode="&#xa3;" horiz-adv-x="437" 
d="M367 143q0 -30 -10 -56t-28 -45.5t-43 -31t-55 -11.5h-231v33q45 0 65 31t21 76v176h-86v33h86v186q0 30 10 56.5t28 46t43 31t55 11.5t55 -11.5t43.5 -31t28.5 -46t10 -56.5h-34q0 46 -28 78.5t-75 32.5q-46 0 -74.5 -32.5t-28.5 -78.5v-186h113v-33h-113v-172h1
q0 -33 -9.5 -62t-28.5 -49h149q46 0 74.5 32.5t28.5 78.5h33z" />
    <glyph glyph-name="dollar" unicode="$" horiz-adv-x="359" 
d="M161 349q24 -20 47 -40.5t41 -45.5t29 -55t11 -69q0 -28 -10 -53t-27 -44t-40.5 -31.5t-50.5 -15.5v-45h-33v45q-27 3 -50.5 15.5t-40.5 31.5t-27 44t-10 53h33q0 -42 27 -73t68 -38v305q-24 19 -47 39t-41 43.5t-29 52.5t-11 66q0 28 10 52.5t27 44t40.5 32t50.5 15.5
v37h33v-37q27 -3 50.5 -15.5t40.5 -32t27 -44t10 -52.5h-33q0 42 -27 73t-68 37v-295zM33 534q0 -54 28.5 -91t66.5 -68v269q-41 -6 -68 -37t-27 -73zM161 28q41 7 68 38t27 73q0 29 -7.5 52.5t-20.5 43.5t-30.5 37.5t-36.5 33.5v-278z" />
    <glyph glyph-name="yen" unicode="&#xa5;" horiz-adv-x="367" 
d="M165 336v-8h112v-33h-112v-62h112v-33h-112v-201h-33v201h-112v33h112v62h-112v33h112v8l-1 3l-131 336h36l112 -290l113 290h36l-131 -336l-1 -3v0z" />
    <glyph glyph-name="dagger" unicode="&#x2020;" horiz-adv-x="430" 
d="M360 527v-34h-164v-568h-33v568h-163v34h163v190h33v-190h164v0z" />
    <glyph glyph-name="daggerdbl" unicode="&#x2021;" horiz-adv-x="430" 
d="M360 493h-164v-232h164v-33h-164v-303h-33v303h-163v33h163v232h-163v34h163v190h33v-190h164v-34v0z" />
    <glyph glyph-name="d" unicode="d" 
d="M268 716v-353v-235v-129h-33v41q-19 -21 -45 -33.5t-56 -12.5q-28 0 -52.5 10.5t-42.5 28.5t-28.5 42.5t-10.5 52.5v235q0 28 10.5 52.5t28.5 42.5t42.5 28.5t52.5 10.5q30 0 56 -12t45 -34v265h33zM134 27q21 0 39.5 8t32 21.5t21.5 32t8 39.5v235q0 21 -8 39.5
t-21.5 32t-32 21.5t-39.5 8t-39.5 -8t-32 -21.5t-21.5 -32t-8 -39.5v-235q0 -21 8 -39.5t21.5 -32t32 -21.5t39.5 -8z" />
    <glyph glyph-name="fl" unicode="&#xfb02;" horiz-adv-x="424" 
d="M354 683v-684h-34v684h-111q-18 0 -34 -8t-28 -21.5t-19 -32t-7 -39.5v-90h108v-33h-108v-432v-28v-89q0 -28 -9.5 -52.5t-26 -43t-38.5 -29t-47 -10.5v34q18 0 34 8t28 21.5t19 32t7 39.5v89v28v432v5v28v90q0 28 9.5 52.5t26 42.5t38.5 28.5t47 10.5h111h34v-33z" />
    <glyph glyph-name="fi" unicode="&#xfb01;" horiz-adv-x="424" 
d="M209 683q-18 0 -34 -8t-28 -21.5t-19 -32t-7 -39.5v-90h191h17h16v-493h-33v460h-191v-432v-28v-89q0 -28 -9.5 -52.5t-26 -43t-38.5 -29t-47 -10.5v34q18 0 34 8t28 21.5t19 32t7 39.5v89v28v432v5v28v90q0 28 9.5 52.5t26 42.5t38.5 28.5t47 10.5h145v-33h-145v0z" />
    <glyph glyph-name="dieresis" unicode="&#xa8;" horiz-adv-x="176" 
d="M25 614q-11 0 -18 7t-7 18t7 18t18 7t18 -7t7 -18t-7 -18t-18 -7zM149 614q-11 0 -18 7t-7 18t7 18t18 7t18 -7t7 -18t-7 -18t-18 -7z" />
    <glyph glyph-name="adieresis" unicode="&#xe4;" 
d="M142 497q28 0 51 -10.5t39.5 -28.5t26 -42.5t9.5 -52.5v-117v-118v-129h-33v41q-19 -21 -45 -33.5t-56 -12.5q-28 0 -52.5 10.5t-42.5 28.5t-28.5 42.5t-10.5 52.5v28q0 62 76 90q9 4 30.5 12t46 17.5t47.5 18t35 13.5v56q0 42 -25.5 71.5t-67.5 29.5q-21 0 -39 -8
t-32 -21.5t-22 -32t-8 -39.5h-33q0 28 10.5 52.5t28.5 42.5t42.5 28.5t52.5 10.5zM235 246v25q-15 -6 -37 -14t-44 -16.5t-40 -15.5t-26 -10q-19 -7 -37 -21t-18 -38v-28q0 -21 8 -39.5t21.5 -32t32 -21.5t39.5 -8t39.5 8t32 21.5t21.5 32t8 39.5v118zM82 614q-11 0 -18 7
t-7 18t7 18t18 7t18 -7t7 -18t-7 -18t-18 -7zM206 614q-11 0 -18 7t-7 18t7 18t18 7t18 -7t7 -18t-7 -18t-18 -7z" />
    <glyph glyph-name="odieresis" unicode="&#xf6;" 
d="M134 -6q-28 0 -52.5 10.5t-42.5 28.5t-28.5 42.5t-10.5 52.5v235q0 28 10.5 52.5t28.5 42.5t42.5 28.5t52.5 10.5t52.5 -10.5t42.5 -28.5t28.5 -42.5t10.5 -52.5v-235q0 -28 -10.5 -52.5t-28.5 -42.5t-42.5 -28.5t-52.5 -10.5zM134 464q-21 0 -39.5 -8t-32 -21.5
t-21.5 -32t-8 -39.5v-235q0 -21 8 -39.5t21.5 -32t32 -21.5t39.5 -8t39.5 8t32 21.5t21.5 32t8 39.5v235q0 21 -8 39.5t-21.5 32t-32 21.5t-39.5 8zM72 614q-11 0 -18 7t-7 18t7 18t18 7t18 -7t7 -18t-7 -18t-18 -7zM196 614q-11 0 -18 7t-7 18t7 18t18 7t18 -7t7 -18
t-7 -18t-18 -7z" />
    <glyph glyph-name="acute" unicode="&#xb4;" horiz-adv-x="201" 
d="M0 604l192 60l10 -32l-192 -60l-10 32v0z" />
    <glyph glyph-name="grave" unicode="`" horiz-adv-x="272" 
d="M202 604l-10 -32l-192 60l10 32l192 -60v0z" />
    <glyph glyph-name="agrave" unicode="&#xe0;" 
d="M142 497q28 0 51 -10.5t39.5 -28.5t26 -42.5t9.5 -52.5v-117v-118v-129h-33v41q-19 -21 -45 -33.5t-56 -12.5q-28 0 -52.5 10.5t-42.5 28.5t-28.5 42.5t-10.5 52.5v28q0 62 76 90q9 4 30.5 12t46 17.5t47.5 18t35 13.5v56q0 42 -25.5 71.5t-67.5 29.5q-21 0 -39 -8
t-32 -21.5t-22 -32t-8 -39.5h-33q0 28 10.5 52.5t28.5 42.5t42.5 28.5t52.5 10.5zM235 246v25q-15 -6 -37 -14t-44 -16.5t-40 -15.5t-26 -10q-19 -7 -37 -21t-18 -38v-28q0 -21 8 -39.5t21.5 -32t32 -21.5t39.5 -8t39.5 8t32 21.5t21.5 32t8 39.5v118zM252 604l-10 -32
l-192 60l10 32l192 -60v0z" />
    <glyph glyph-name="eacute" unicode="&#xe9;" 
d="M192 273q-9 -3 -30 -11.5t-45.5 -17.5t-47.5 -18t-36 -13v-85q0 -21 8 -39.5t21.5 -32t32 -21.5t39.5 -8t39.5 8t32 21.5t21.5 32t8 39.5h33q0 -28 -10.5 -52.5t-28.5 -42.5t-42.5 -28.5t-52.5 -10.5t-52.5 10.5t-42.5 28.5t-28.5 42.5t-10.5 52.5v235q0 28 10.5 52.5
t28.5 42.5t42.5 28.5t52.5 10.5t52.5 -10.5t42.5 -28.5t28.5 -42.5t10.5 -51.5v-1q0 -62 -76 -90zM134 464q-21 0 -39.5 -8t-32 -21.5t-21.5 -32t-8 -39.5v-115q15 6 37 14.5t44 16.5t40.5 15t26.5 10q18 7 36 21t18 39q0 21 -8 39t-21.5 31.5t-32 21.5t-39.5 8zM33 603
l192 60l10 -32l-192 -60l-10 32v0z" />
    <glyph glyph-name="egrave" unicode="&#xe8;" 
d="M192 273q-9 -3 -30 -11.5t-45.5 -17.5t-47.5 -18t-36 -13v-85q0 -21 8 -39.5t21.5 -32t32 -21.5t39.5 -8t39.5 8t32 21.5t21.5 32t8 39.5h33q0 -28 -10.5 -52.5t-28.5 -42.5t-42.5 -28.5t-52.5 -10.5t-52.5 10.5t-42.5 28.5t-28.5 42.5t-10.5 52.5v235q0 28 10.5 52.5
t28.5 42.5t42.5 28.5t52.5 10.5t52.5 -10.5t42.5 -28.5t28.5 -42.5t10.5 -51.5v-1q0 -62 -76 -90zM134 464q-21 0 -39.5 -8t-32 -21.5t-21.5 -32t-8 -39.5v-115q15 6 37 14.5t44 16.5t40.5 15t26.5 10q18 7 36 21t18 39q0 21 -8 39t-21.5 31.5t-32 21.5t-39.5 8zM237 604
l-10 -32l-192 60l10 32l192 -60v0z" />
    <glyph glyph-name="oacute" unicode="&#xf3;" 
d="M134 -6q-28 0 -52.5 10.5t-42.5 28.5t-28.5 42.5t-10.5 52.5v235q0 28 10.5 52.5t28.5 42.5t42.5 28.5t52.5 10.5t52.5 -10.5t42.5 -28.5t28.5 -42.5t10.5 -52.5v-235q0 -28 -10.5 -52.5t-28.5 -42.5t-42.5 -28.5t-52.5 -10.5zM134 464q-21 0 -39.5 -8t-32 -21.5
t-21.5 -32t-8 -39.5v-235q0 -21 8 -39.5t21.5 -32t32 -21.5t39.5 -8t39.5 8t32 21.5t21.5 32t8 39.5v235q0 21 -8 39.5t-21.5 32t-32 21.5t-39.5 8zM29 604l192 60l10 -32l-192 -60l-10 32v0z" />
    <glyph glyph-name="aacute" unicode="&#xe1;" 
d="M142 497q28 0 51 -10.5t39.5 -28.5t26 -42.5t9.5 -52.5v-117v-118v-129h-33v41q-19 -21 -45 -33.5t-56 -12.5q-28 0 -52.5 10.5t-42.5 28.5t-28.5 42.5t-10.5 52.5v28q0 62 76 90q9 4 30.5 12t46 17.5t47.5 18t35 13.5v56q0 42 -25.5 71.5t-67.5 29.5q-21 0 -39 -8
t-32 -21.5t-22 -32t-8 -39.5h-33q0 28 10.5 52.5t28.5 42.5t42.5 28.5t52.5 10.5zM235 246v25q-15 -6 -37 -14t-44 -16.5t-40 -15.5t-26 -10q-19 -7 -37 -21t-18 -38v-28q0 -21 8 -39.5t21.5 -32t32 -21.5t39.5 -8t39.5 8t32 21.5t21.5 32t8 39.5v118zM36 604l192 60l10 -32
l-192 -60l-10 32v0z" />
    <glyph glyph-name="ugrave" unicode="&#xf9;" 
d="M268 492v-246v-118v-129h-33v41q-19 -21 -45 -33.5t-56 -12.5q-28 0 -52.5 10.5t-42.5 28.5t-28.5 42.5t-10.5 52.5v118v246h33v-246v-118q0 -21 8 -39.5t21.5 -32t32 -21.5t39.5 -8t39.5 8t32 21.5t21.5 32t8 39.5v118v246h33zM238 604l-10 -32l-192 60l10 32l192 -60v0
z" />
    <glyph glyph-name="uacute" unicode="&#xfa;" 
d="M268 492v-246v-118v-129h-33v41q-19 -21 -45 -33.5t-56 -12.5q-28 0 -52.5 10.5t-42.5 28.5t-28.5 42.5t-10.5 52.5v118v246h33v-246v-118q0 -21 8 -39.5t21.5 -32t32 -21.5t39.5 -8t39.5 8t32 21.5t21.5 32t8 39.5v118v246h33zM35 604l192 60l10 -32l-192 -60l-10 32v0z
" />
    <glyph glyph-name="Agrave" unicode="&#xc0;" horiz-adv-x="376" 
d="M302 -1l-47 212h-194l-47 -212h-34l150 676h56l150 -676h-34zM68 244h180l-90 404zM259 787l-10 -32l-192 60l10 32l192 -60v0z" />
    <glyph glyph-name="Aacute" unicode="&#xc1;" horiz-adv-x="376" 
d="M302 -1l-47 212h-194l-47 -212h-34l150 676h56l150 -676h-34zM68 244h180l-90 404zM58 787l192 60l10 -32l-192 -60l-10 32v0z" />
    <glyph glyph-name="Egrave" unicode="&#xc8;" horiz-adv-x="313" 
d="M263 641h-230v-255h189v-33h-189v-321h230v-33h-230h-33v0v676v0h33h230v-34v0zM239 787l-10 -32l-192 60l10 32l192 -60v0z" />
    <glyph glyph-name="Eacute" unicode="&#xc9;" horiz-adv-x="313" 
d="M263 641h-230v-255h189v-33h-189v-321h230v-33h-230h-33v0v676v0h33h230v-34v0zM33 787l192 60l10 -32l-192 -60l-10 32v0z" />
    <glyph glyph-name="Ograve" unicode="&#xd2;" horiz-adv-x="359" 
d="M145 -6q-30 0 -56.5 11.5t-46 31t-31 46t-11.5 56.5v395q0 30 11.5 56.5t31 46t46 31t56.5 11.5t56 -11.5t45.5 -31t31 -46t11.5 -56.5v-395q0 -30 -11.5 -56.5t-31 -46t-45.5 -31t-56 -11.5zM145 645q-23 0 -43.5 -9t-35.5 -24t-24 -35t-9 -43v-395q0 -23 9 -43.5
t24 -35.5t35.5 -24t43.5 -9t43 9t35 24t24 35.5t9 43.5v395q0 23 -9 43t-24 35t-35 24t-43 9zM248 787l-10 -32l-192 60l10 32l192 -60v0z" />
    <glyph glyph-name="Oacute" unicode="&#xd3;" horiz-adv-x="359" 
d="M145 -6q-30 0 -56.5 11.5t-46 31t-31 46t-11.5 56.5v395q0 30 11.5 56.5t31 46t46 31t56.5 11.5t56 -11.5t45.5 -31t31 -46t11.5 -56.5v-395q0 -30 -11.5 -56.5t-31 -46t-45.5 -31t-56 -11.5zM145 645q-23 0 -43.5 -9t-35.5 -24t-24 -35t-9 -43v-395q0 -23 9 -43.5
t24 -35.5t35.5 -24t43.5 -9t43 9t35 24t24 35.5t9 43.5v395q0 23 -9 43t-24 35t-35 24t-43 9zM43 787l192 60l10 -32l-192 -60l-10 32v0z" />
    <glyph glyph-name="Udieresis" unicode="&#xdc;" horiz-adv-x="359" 
d="M289 675v-288v-17v-230q0 -30 -11.5 -56.5t-31 -46t-45.5 -31t-56 -11.5t-56.5 11.5t-46 31t-31 46t-11.5 56.5v230v17v288h33v-288v-17v-230q0 -23 9 -43.5t24 -35.5t35.5 -24t43.5 -9t43 9t35 24t24 35.5t9 43.5v230v17v288h33zM79 797q-11 0 -18 7t-7 18t7 18t18 7
t18 -7t7 -18t-7 -18t-18 -7zM203 797q-11 0 -18 7t-7 18t7 18t18 7t18 -7t7 -18t-7 -18t-18 -7z" />
    <glyph glyph-name="edieresis" unicode="&#xeb;" 
d="M192 273q-9 -3 -30 -11.5t-45.5 -17.5t-47.5 -18t-36 -13v-85q0 -21 8 -39.5t21.5 -32t32 -21.5t39.5 -8t39.5 8t32 21.5t21.5 32t8 39.5h33q0 -28 -10.5 -52.5t-28.5 -42.5t-42.5 -28.5t-52.5 -10.5t-52.5 10.5t-42.5 28.5t-28.5 42.5t-10.5 52.5v235q0 28 10.5 52.5
t28.5 42.5t42.5 28.5t52.5 10.5t52.5 -10.5t42.5 -28.5t28.5 -42.5t10.5 -51.5v-1q0 -62 -76 -90zM134 464q-21 0 -39.5 -8t-32 -21.5t-21.5 -32t-8 -39.5v-115q15 6 37 14.5t44 16.5t40.5 15t26.5 10q18 7 36 21t18 39q0 21 -8 39t-21.5 31.5t-32 21.5t-39.5 8zM72 614
q-11 0 -18 7t-7 18t7 18t18 7t18 -7t7 -18t-7 -18t-18 -7zM196 614q-11 0 -18 7t-7 18t7 18t18 7t18 -7t7 -18t-7 -18t-18 -7z" />
    <glyph glyph-name="ydieresis" unicode="&#xff;" 
d="M264 492h34l-175 -717h-34l52 216l-141 501h34l123 -436l107 436v0zM95 614q-11 0 -18 7t-7 18t7 18t18 7t18 -7t7 -18t-7 -18t-18 -7zM219 614q-11 0 -18 7t-7 18t7 18t18 7t18 -7t7 -18t-7 -18t-18 -7z" />
    <glyph glyph-name="Odieresis" unicode="&#xd6;" horiz-adv-x="359" 
d="M145 -6q-30 0 -56.5 11.5t-46 31t-31 46t-11.5 56.5v395q0 30 11.5 56.5t31 46t46 31t56.5 11.5t56 -11.5t45.5 -31t31 -46t11.5 -56.5v-395q0 -30 -11.5 -56.5t-31 -46t-45.5 -31t-56 -11.5zM145 645q-23 0 -43.5 -9t-35.5 -24t-24 -35t-9 -43v-395q0 -23 9 -43.5
t24 -35.5t35.5 -24t43.5 -9t43 9t35 24t24 35.5t9 43.5v395q0 23 -9 43t-24 35t-35 24t-43 9zM83 797q-11 0 -18 7t-7 18t7 18t18 7t18 -7t7 -18t-7 -18t-18 -7zM207 797q-11 0 -18 7t-7 18t7 18t18 7t18 -7t7 -18t-7 -18t-18 -7z" />
    <glyph glyph-name="Edieresis" unicode="&#xcb;" horiz-adv-x="313" 
d="M263 641h-230v-255h189v-33h-189v-321h230v-33h-230h-33v0v676v0h33h230v-34v0zM79 797q-11 0 -18 7t-7 18t7 18t18 7t18 -7t7 -18t-7 -18t-18 -7zM203 797q-11 0 -18 7t-7 18t7 18t18 7t18 -7t7 -18t-7 -18t-18 -7z" />
    <glyph glyph-name="Ugrave" unicode="&#xd9;" horiz-adv-x="359" 
d="M289 675v-288v-17v-230q0 -30 -11.5 -56.5t-31 -46t-45.5 -31t-56 -11.5t-56.5 11.5t-46 31t-31 46t-11.5 56.5v230v17v288h33v-288v-17v-230q0 -23 9 -43.5t24 -35.5t35.5 -24t43.5 -9t43 9t35 24t24 35.5t9 43.5v230v17v288h33zM242 787l-10 -32l-192 60l10 32l192 -60
v0z" />
    <glyph glyph-name="Uacute" unicode="&#xda;" horiz-adv-x="359" 
d="M289 675v-288v-17v-230q0 -30 -11.5 -56.5t-31 -46t-45.5 -31t-56 -11.5t-56.5 11.5t-46 31t-31 46t-11.5 56.5v230v17v288h33v-288v-17v-230q0 -23 9 -43.5t24 -35.5t35.5 -24t43.5 -9t43 9t35 24t24 35.5t9 43.5v230v17v288h33zM40 787l192 60l10 -32l-192 -60l-10 32
v0z" />
    <glyph glyph-name="Adieresis" unicode="&#xc4;" horiz-adv-x="376" 
d="M302 -1l-47 212h-194l-47 -212h-34l150 676h56l150 -676h-34zM68 244h180l-90 404zM96 797q-11 0 -18 7t-7 18t7 18t18 7t18 -7t7 -18t-7 -18t-18 -7zM220 797q-11 0 -18 7t-7 18t7 18t18 7t18 -7t7 -18t-7 -18t-18 -7z" />
    <glyph glyph-name="ograve" unicode="&#xf2;" 
d="M134 -6q-28 0 -52.5 10.5t-42.5 28.5t-28.5 42.5t-10.5 52.5v235q0 28 10.5 52.5t28.5 42.5t42.5 28.5t52.5 10.5t52.5 -10.5t42.5 -28.5t28.5 -42.5t10.5 -52.5v-235q0 -28 -10.5 -52.5t-28.5 -42.5t-42.5 -28.5t-52.5 -10.5zM134 464q-21 0 -39.5 -8t-32 -21.5
t-21.5 -32t-8 -39.5v-235q0 -21 8 -39.5t21.5 -32t32 -21.5t39.5 -8t39.5 8t32 21.5t21.5 32t8 39.5v235q0 21 -8 39.5t-21.5 32t-32 21.5t-39.5 8zM236 604l-10 -32l-192 60l10 32l192 -60v0z" />
    <glyph glyph-name="Ydieresis" unicode="&#x178;" horiz-adv-x="347" 
d="M261 675h36l-131 -336l-1 -3v-337h-33v337l-1 3l-131 336h36l112 -290l113 290v0zM86 797q-11 0 -18 7t-7 18t7 18t18 7t18 -7t7 -18t-7 -18t-18 -7zM210 797q-11 0 -18 7t-7 18t7 18t18 7t18 -7t7 -18t-7 -18t-18 -7z" />
    <glyph glyph-name="circumflex" unicode="&#x2c6;" horiz-adv-x="275" 
d="M205 604l-5 -32l-98 57l-97 -57l-5 32l102 60v0v0l1 1v-2l102 -59v0z" />
    <glyph glyph-name="acircumflex" unicode="&#xe2;" 
d="M142 497q28 0 51 -10.5t39.5 -28.5t26 -42.5t9.5 -52.5v-117v-118v-129h-33v41q-19 -21 -45 -33.5t-56 -12.5q-28 0 -52.5 10.5t-42.5 28.5t-28.5 42.5t-10.5 52.5v28q0 62 76 90q9 4 30.5 12t46 17.5t47.5 18t35 13.5v56q0 42 -25.5 71.5t-67.5 29.5q-21 0 -39 -8
t-32 -21.5t-22 -32t-8 -39.5h-33q0 28 10.5 52.5t28.5 42.5t42.5 28.5t52.5 10.5zM235 246v25q-15 -6 -37 -14t-44 -16.5t-40 -15.5t-26 -10q-19 -7 -37 -21t-18 -38v-28q0 -21 8 -39.5t21.5 -32t32 -21.5t39.5 -8t39.5 8t32 21.5t21.5 32t8 39.5v118zM244 604l-5 -32
l-98 57l-97 -57l-5 32l102 60v0v0l1 1v-2l102 -59v0z" />
    <glyph glyph-name="ocircumflex" unicode="&#xf4;" 
d="M134 -6q-28 0 -52.5 10.5t-42.5 28.5t-28.5 42.5t-10.5 52.5v235q0 28 10.5 52.5t28.5 42.5t42.5 28.5t52.5 10.5t52.5 -10.5t42.5 -28.5t28.5 -42.5t10.5 -52.5v-235q0 -28 -10.5 -52.5t-28.5 -42.5t-42.5 -28.5t-52.5 -10.5zM134 464q-21 0 -39.5 -8t-32 -21.5
t-21.5 -32t-8 -39.5v-235q0 -21 8 -39.5t21.5 -32t32 -21.5t39.5 -8t39.5 8t32 21.5t21.5 32t8 39.5v235q0 21 -8 39.5t-21.5 32t-32 21.5t-39.5 8zM236 604l-5 -32l-98 57l-97 -57l-5 32l102 60v0v0l1 1v-2l102 -59v0z" />
    <glyph glyph-name="ecircumflex" unicode="&#xea;" 
d="M192 273q-9 -3 -30 -11.5t-45.5 -17.5t-47.5 -18t-36 -13v-85q0 -21 8 -39.5t21.5 -32t32 -21.5t39.5 -8t39.5 8t32 21.5t21.5 32t8 39.5h33q0 -28 -10.5 -52.5t-28.5 -42.5t-42.5 -28.5t-52.5 -10.5t-52.5 10.5t-42.5 28.5t-28.5 42.5t-10.5 52.5v235q0 28 10.5 52.5
t28.5 42.5t42.5 28.5t52.5 10.5t52.5 -10.5t42.5 -28.5t28.5 -42.5t10.5 -51.5v-1q0 -62 -76 -90zM134 464q-21 0 -39.5 -8t-32 -21.5t-21.5 -32t-8 -39.5v-115q15 6 37 14.5t44 16.5t40.5 15t26.5 10q18 7 36 21t18 39q0 21 -8 39t-21.5 31.5t-32 21.5t-39.5 8zM236 604
l-5 -32l-98 57l-97 -57l-5 32l102 60v0v0l1 1v-2l102 -59v0z" />
    <glyph glyph-name="Acircumflex" unicode="&#xc2;" horiz-adv-x="376" 
d="M302 -1l-47 212h-194l-47 -212h-34l150 676h56l150 -676h-34zM68 244h180l-90 404zM262 787l-5 -32l-98 57l-97 -57l-5 32l102 60v0v0l1 1v-2l102 -59v0z" />
    <glyph glyph-name="Ecircumflex" unicode="&#xca;" horiz-adv-x="313" 
d="M263 641h-230v-255h189v-33h-189v-321h230v-33h-230h-33v0v676v0h33h230v-34v0zM241 787l-5 -32l-98 57l-97 -57l-5 32l102 60v0v0l1 1v-2l102 -59v0z" />
    <glyph glyph-name="Ocircumflex" unicode="&#xd4;" horiz-adv-x="359" 
d="M145 -6q-30 0 -56.5 11.5t-46 31t-31 46t-11.5 56.5v395q0 30 11.5 56.5t31 46t46 31t56.5 11.5t56 -11.5t45.5 -31t31 -46t11.5 -56.5v-395q0 -30 -11.5 -56.5t-31 -46t-45.5 -31t-56 -11.5zM145 645q-23 0 -43.5 -9t-35.5 -24t-24 -35t-9 -43v-395q0 -23 9 -43.5
t24 -35.5t35.5 -24t43.5 -9t43 9t35 24t24 35.5t9 43.5v395q0 23 -9 43t-24 35t-35 24t-43 9zM247 787l-5 -32l-98 57l-97 -57l-5 32l102 60v0v0l1 1v-2l102 -59v0z" />
    <glyph glyph-name="ucircumflex" unicode="&#xfb;" 
d="M268 492v-246v-118v-129h-33v41q-19 -21 -45 -33.5t-56 -12.5q-28 0 -52.5 10.5t-42.5 28.5t-28.5 42.5t-10.5 52.5v118v246h33v-246v-118q0 -21 8 -39.5t21.5 -32t32 -21.5t39.5 -8t39.5 8t32 21.5t21.5 32t8 39.5v118v246h33zM238 604l-5 -32l-98 57l-97 -57l-5 32
l102 60v0v0l1 1v-2l102 -59v0z" />
    <glyph glyph-name="ogonek" unicode="&#x2db;" horiz-adv-x="134" 
d="M63 -104q-30 0 -42.5 11.5t-16.5 19.5q-17 43 39 99l21 -21q-16 -16 -27 -35t-6 -31q4 -9 14 -11t18 -2v-30z" />
    <glyph glyph-name="yacute" unicode="&#xfd;" 
d="M264 492h34l-175 -717h-34l52 216l-141 501h34l123 -436l107 436v0zM55 604l192 60l10 -32l-192 -60l-10 32v0z" />
    <glyph glyph-name="bullet" unicode="&#x2022;" horiz-adv-x="189" 
d="M60 219q-25 0 -42.5 17.5t-17.5 42.5t17.5 42t42.5 17q24 0 41.5 -17t17.5 -42t-17.5 -42.5t-41.5 -17.5z" />
    <glyph glyph-name="underscore" unicode="_" 
d="M0 -27v33h268v-33h-268v0z" />
    <glyph glyph-name="guillemotleft" unicode="&#xab;" horiz-adv-x="423" 
d="M329 102l-191 199l191 199l24 -23l-169 -176l169 -176l-24 -23v0zM191 102l-191 199l191 199l24 -23l-169 -176l169 -176l-24 -23v0z" />
    <glyph glyph-name="udieresis" unicode="&#xfc;" 
d="M268 492v-246v-118v-129h-33v41q-19 -21 -45 -33.5t-56 -12.5q-28 0 -52.5 10.5t-42.5 28.5t-28.5 42.5t-10.5 52.5v118v246h33v-246v-118q0 -21 8 -39.5t21.5 -32t32 -21.5t39.5 -8t39.5 8t32 21.5t21.5 32t8 39.5v118v246h33zM75 614q-11 0 -18 7t-7 18t7 18t18 7
t18 -7t7 -18t-7 -18t-18 -7zM199 614q-11 0 -18 7t-7 18t7 18t18 7t18 -7t7 -18t-7 -18t-18 -7z" />
    <glyph glyph-name="cedilla" unicode="&#xb8;" horiz-adv-x="92" 
d="M72 -22q21 -13 21 -38q0 -22 -15.5 -36t-38.5 -14q-25 0 -36 9l-3 1l7 22l5 -2q4 -2 11 -4.5t15 -2.5q11 0 19.5 6t8.5 19q0 16 -11.5 20.5t-22.5 4.5q-13 0 -18 -1l-6 -1l6 48h24l-4 -23h6q18 0 32 -8z" />
    <glyph glyph-name="ccedilla" unicode="&#xe7;" 
d="M134 27q21 0 39.5 8t32 21.5t21.5 32t8 39.5h33q0 -28 -10.5 -52.5t-28.5 -42.5t-42.5 -28.5t-52.5 -10.5t-52.5 10.5t-42.5 28.5t-28.5 42.5t-10.5 52.5v235q0 28 10.5 52.5t28.5 42.5t42.5 28.5t52.5 10.5t52.5 -10.5t42.5 -28.5t28.5 -42.5t10.5 -52.5h-33
q0 21 -8 39.5t-21.5 32t-32 21.5t-39.5 8t-39.5 -8t-32 -21.5t-21.5 -32t-8 -39.5v-235q0 -21 8 -39.5t21.5 -32t32 -21.5t39.5 -8zM163 -22q21 -13 21 -38q0 -22 -15.5 -36t-38.5 -14q-25 0 -36 9l-3 1l7 22l5 -2q4 -2 11 -4.5t15 -2.5q11 0 19.5 6t8.5 19q0 16 -11.5 20.5
t-22.5 4.5q-13 0 -18 -1l-6 -1l6 48h24l-4 -23h6q18 0 32 -8z" />
    <glyph glyph-name="Oslash" unicode="&#xd8;" horiz-adv-x="359" 
d="M145 -6q-30 0 -56.5 11.5t-46 31t-31 46t-11.5 56.5v395q0 30 11.5 56.5t31 46t46 31t56.5 11.5t56 -11.5t45.5 -31t31 -46t11.5 -56.5v-395q0 -30 -11.5 -56.5t-31 -46t-45.5 -31t-56 -11.5zM145 645q-23 0 -43.5 -9t-35.5 -24t-24 -35t-9 -43v-395q0 -23 9 -43.5
t24 -35.5t35.5 -24t43.5 -9t43 9t35 24t24 35.5t9 43.5v395q0 23 -9 43t-24 35t-35 24t-43 9zM64 -1h-33l199 676h33l-199 -676v0z" />
    <glyph glyph-name="Ccedilla" unicode="&#xc7;" horiz-adv-x="359" 
d="M145 27q23 0 43 9t35 24t24 35.5t9 43.5h33q0 -30 -11.5 -56.5t-31 -46t-45.5 -31t-56 -11.5t-56.5 11.5t-46 31t-31 46t-11.5 56.5v395q0 30 11.5 56.5t31 46t46 31t56.5 11.5t56 -11.5t45.5 -31t31 -46t11.5 -56.5h-33q0 23 -9 43t-24 35t-35 24t-43 9t-43.5 -9
t-35.5 -24t-24 -35t-9 -43v-395q0 -23 9 -43.5t24 -35.5t35.5 -24t43.5 -9zM181 -22q21 -13 21 -38q0 -22 -15.5 -36t-38.5 -14q-25 0 -36 9l-3 1l7 22l5 -2q4 -2 11 -4.5t15 -2.5q11 0 19.5 6t8.5 19q0 16 -11.5 20.5t-22.5 4.5q-13 0 -18 -1l-6 -1l6 48h24l-4 -23h6
q18 0 32 -8z" />
    <glyph glyph-name="Igrave" unicode="&#xcc;" horiz-adv-x="103" 
d="M33 -1h-33v676h33v-676v0zM122 787l-10 -32l-192 60l10 32l192 -60v0z" />
    <glyph glyph-name="Iacute" unicode="&#xcd;" horiz-adv-x="103" 
d="M33 -1h-33v676h33v-676v0zM-81 787l192 60l10 -32l-192 -60l-10 32v0z" />
    <glyph glyph-name="Icircumflex" unicode="&#xce;" horiz-adv-x="103" 
d="M33 -1h-33v676h33v-676v0zM121 787l-5 -32l-98 57l-97 -57l-5 32l102 60v0v0l1 1v-2l102 -59v0z" />
    <glyph glyph-name="Idieresis" unicode="&#xcf;" horiz-adv-x="103" 
d="M33 -1h-33v676h33v-676v0zM-43 797q-11 0 -18 7t-7 18t7 18t18 7t18 -7t7 -18t-7 -18t-18 -7zM81 797q-11 0 -18 7t-7 18t7 18t18 7t18 -7t7 -18t-7 -18t-18 -7z" />
    <glyph glyph-name="dotaccent" unicode="&#x2d9;" horiz-adv-x="137" 
d="M42 614q-11 0 -18 7t-7 18t7 18t18 7q10 0 17.5 -7t7.5 -18t-7.5 -18t-17.5 -7z" />
    <glyph glyph-name="igrave" unicode="&#xec;" horiz-adv-x="162" 
d="M4 500v-34h33v-460h34v460v34h-34h-33v0zM152 604l-10 -32l-192 60l10 32l192 -60v0z" />
    <glyph glyph-name="iacute" unicode="&#xed;" horiz-adv-x="162" 
d="M10 500h33h34v-34v-460h-34v460h-33v34zM-50 604l192 60l10 -32l-192 -60z" />
    <glyph glyph-name="icircumflex" unicode="&#xee;" horiz-adv-x="165" 
d="M9 500h33h34v-34v-460h-34v460h-33v34zM155 604l-5 -32l-98 57l-97 -57l-5 32l102 60v0v0l1 1v-2z" />
    <glyph glyph-name="idieresis" unicode="&#xef;" horiz-adv-x="144" 
d="M33 500h34v-34v-460h-34v460h-33v34h33zM-15 614q-11 0 -18 7t-7 18t7 18t18 7t18 -7t7 -18t-7 -18t-18 -7zM109 614q-11 0 -18 7t-7 18t7 18t18 7t18 -7t7 -18t-7 -18t-18 -7z" />
    <glyph glyph-name="Ucircumflex" unicode="&#xdb;" horiz-adv-x="359" 
d="M289 675v-288v-17v-230q0 -30 -11.5 -56.5t-31 -46t-45.5 -31t-56 -11.5t-56.5 11.5t-46 31t-31 46t-11.5 56.5v230v17v288h33v-288v-17v-230q0 -23 9 -43.5t24 -35.5t35.5 -24t43.5 -9t43 9t35 24t24 35.5t9 43.5v230v17v288h33zM246 787l-5 -32l-98 57l-97 -57l-5 32
l102 60v0v0l1 1v-2l102 -59v0z" />
    <glyph glyph-name="Yacute" unicode="&#xdd;" horiz-adv-x="347" 
d="M261 675h36l-131 -336l-1 -3v-337h-33v337l-1 3l-131 336h36l112 -290l113 290v0zM48 787l192 60l10 -32l-192 -60l-10 32v0z" />
    <glyph glyph-name="guillemotright" unicode="&#xbb;" horiz-adv-x="423" 
d="M24 102l-24 23l169 175l-169 177l24 23l191 -200l-191 -198v0zM162 102l-24 23l169 175l-169 177l24 23l191 -200l-191 -198v0z" />
    <glyph glyph-name="equal" unicode="=" horiz-adv-x="408" 
d="M338 374h-338v33h338v-33v0zM338 219h-338v33h338v-33v0z" />
    <glyph glyph-name="numbersign" unicode="#" horiz-adv-x="408" 
d="M338 374h-338v33h338v-33v0zM338 219h-338v33h338v-33v0zM230 144v338h33v-338h-33v0zM75 144v338h33v-338h-33v0z" />
    <glyph glyph-name="tilde" unicode="&#x2dc;" horiz-adv-x="277" 
d="M146 586q-14 0 -27 5t-26 11q-25 11 -39.5 12t-28.5 -21l-25 16q21 35 54 35q14 0 26.5 -5t24.5 -10q26 -12 42.5 -12.5t33.5 25.5l26 -16q-25 -39 -59 -40h-2z" />
    <glyph glyph-name="atilde" unicode="&#xe3;" 
d="M142 497q28 0 51 -10.5t39.5 -28.5t26 -42.5t9.5 -52.5v-117v-118v-129h-33v41q-19 -21 -45 -33.5t-56 -12.5q-28 0 -52.5 10.5t-42.5 28.5t-28.5 42.5t-10.5 52.5v28q0 62 76 90q9 4 30.5 12t46 17.5t47.5 18t35 13.5v56q0 42 -25.5 71.5t-67.5 29.5q-21 0 -39 -8
t-32 -21.5t-22 -32t-8 -39.5h-33q0 28 10.5 52.5t28.5 42.5t42.5 28.5t52.5 10.5zM235 246v25q-15 -6 -37 -14t-44 -16.5t-40 -15.5t-26 -10q-19 -7 -37 -21t-18 -38v-28q0 -21 8 -39.5t21.5 -32t32 -21.5t39.5 -8t39.5 8t32 21.5t21.5 32t8 39.5v118zM184 580q-14 0 -27 5
t-26 11q-25 11 -39.5 12t-28.5 -21l-25 16q21 35 54 35q14 0 26.5 -5t24.5 -10q26 -12 42.5 -12.5t33.5 25.5l26 -16q-25 -39 -59 -40h-2z" />
    <glyph glyph-name="ntilde" unicode="&#xf1;" 
d="M134 497q28 0 52.5 -10.5t42.5 -28.5t28.5 -42.5t10.5 -52.5v-117v-247h-33v247v117q0 21 -8 39.5t-21.5 32t-32 21.5t-39.5 8t-39.5 -8t-32 -21.5t-21.5 -32t-8 -39.5v-117v-247h-33v247v117v129h33v-41q19 22 45 34t56 12zM172 582q-14 0 -27 5t-26 11q-25 11 -39.5 12
t-28.5 -21l-25 16q21 35 54 35q14 0 26.5 -5t24.5 -10q26 -12 42.5 -12.5t33.5 25.5l26 -16q-25 -39 -59 -40h-2z" />
    <glyph glyph-name="otilde" unicode="&#xf5;" 
d="M134 -6q-28 0 -52.5 10.5t-42.5 28.5t-28.5 42.5t-10.5 52.5v235q0 28 10.5 52.5t28.5 42.5t42.5 28.5t52.5 10.5t52.5 -10.5t42.5 -28.5t28.5 -42.5t10.5 -52.5v-235q0 -28 -10.5 -52.5t-28.5 -42.5t-42.5 -28.5t-52.5 -10.5zM134 464q-21 0 -39.5 -8t-32 -21.5
t-21.5 -32t-8 -39.5v-235q0 -21 8 -39.5t21.5 -32t32 -21.5t39.5 -8t39.5 8t32 21.5t21.5 32t8 39.5v235q0 21 -8 39.5t-21.5 32t-32 21.5t-39.5 8zM174 586q-14 0 -27 5t-26 11q-25 11 -39.5 12t-28.5 -21l-25 16q21 35 54 35q14 0 26.5 -5t24.5 -10q26 -12 42.5 -12.5
t33.5 25.5l26 -16q-25 -39 -59 -40h-2z" />
    <glyph glyph-name="asciitilde" unicode="~" horiz-adv-x="386" 
d="M226 245q-21 0 -41 7.5t-40 16.5t-37 15t-31 5t-27 -9.5t-25 -27.5l-25 16q33 51 79 51q20 0 39.5 -7t38.5 -16t37 -15.5t34.5 -5.5t32 11t30.5 34l25 -16q-36 -58 -87 -59h-3z" />
    <glyph glyph-name="asciicircum" unicode="^" horiz-adv-x="328" 
d="M278 491l-23 -24l-115 157l-117 -157l-23 24l140 191l138 -191v0z" />
    <glyph glyph-name="bracketright" unicode="]" horiz-adv-x="183" 
d="M0 762v33h80h33v-33v-817v-34h-33h-80v34h80v817h-80v0z" />
    <glyph glyph-name="bracketleft" unicode="[" horiz-adv-x="183" 
d="M113 762h-80v-817h80v-34h-80h-33v34v817v33h33h80v-33v0z" />
    <glyph glyph-name="bar" unicode="|" horiz-adv-x="103" 
d="M33 -89h-33v884h33v-884v0z" />
    <glyph glyph-name="braceleft" unicode="{" horiz-adv-x="301" 
d="M0 353v1q46 0 66 32.5t20 78.5v186q0 30 11.5 56t31 45.5t46 31t56.5 11.5v-33q-23 0 -43 -9t-35 -24t-24 -35t-9 -43v-186q0 -42 -15 -76t-44 -52q29 -18 44 -52t15 -76v-153q0 -23 9 -43t24 -35t35 -24t43 -9v-34q-30 0 -56.5 11.5t-46 31t-31 46t-11.5 56.5v153
q0 46 -20 78.5t-66 32.5v33z" />
    <glyph glyph-name="braceright" unicode="}" horiz-adv-x="301" 
d="M231 320q-46 0 -66 -32.5t-20 -78.5h-1v-153q0 -30 -11.5 -56.5t-31 -46t-45.5 -31t-56 -11.5v34q23 0 43 9t35 24t24 35t9 43v153q0 42 15 76t44 52q-29 18 -44 52t-15 76v186q0 23 -9 43t-24 35t-35 24t-43 9v33q30 0 56 -11.5t45.5 -31t31 -45.5t11.5 -56v-186h1
q0 -46 20 -78.5t66 -32.5v-1v-33z" />
    <glyph glyph-name="less" unicode="&#x3c;" horiz-adv-x="285" 
d="M191 102l-191 198l191 200l24 -23l-169 -177l169 -175l-24 -23v0z" />
    <glyph glyph-name="greater" unicode="&#x3e;" horiz-adv-x="285" 
d="M24 102l-24 23l169 175l-169 177l24 23l191 -200l-191 -198v0z" />
    <glyph glyph-name="parenleft" unicode="(" horiz-adv-x="214" 
d="M144 -89q-30 0 -56 11.5t-45.5 31t-31 46t-11.5 56.5v595q0 30 11.5 56t31 45.5t45.5 31t56 11.5v-33q-23 0 -43 -9t-35 -24t-24 -35t-9 -43v-595q0 -23 9 -43t24 -35t35 -24t43 -9v-34v0z" />
    <glyph glyph-name="parenright" unicode=")" horiz-adv-x="214" 
d="M0 -89v34q23 0 43 9t35 24t24 35t9 43v595q0 23 -9 43t-24 35t-35 24t-43 9v33q30 0 56 -11.5t45.5 -31t31 -45.5t11.5 -56v-595q0 -30 -11.5 -56.5t-31 -46t-45.5 -31t-56 -11.5z" />
    <glyph glyph-name="germandbls" unicode="&#xdf;" horiz-adv-x="400" 
d="M165 0q-10 0 -11 1h-43v33h45l10.5 -0.5t25.5 2t32.5 9t32.5 20.5q40 36 40 110q0 34 -9 58.5t-23 42.5t-32.5 31t-36.5 25q-15 10 -29 20t-25 22t-17.5 26.5t-6.5 33.5q0 29 15 43t31 25q17 11 28 22.5t11 36.5q0 26 -11 42.5t-25 26t-28.5 13t-20.5 3.5q-5 0 -19 -3.5
t-28.5 -13t-26 -26t-11.5 -42.5v-560h-33v560q0 38 15.5 60t32.5 34q18 13 37 18.5t33 5.5t34 -6t39 -20t32 -36.5t13 -55.5q0 -19 -5 -33t-13 -24t-17.5 -17t-18.5 -13q-16 -10 -23.5 -18t-7.5 -22q0 -23 17 -38.5t46 -35.5q19 -13 40 -28t37.5 -36.5t27.5 -51t11 -69.5
q0 -89 -51 -135q-15 -13 -31 -21t-31.5 -12t-29 -5.5t-22.5 -1.5z" />
    <glyph glyph-name="a" unicode="a" 
d="M142 497q28 0 51 -10.5t39.5 -28.5t26 -42.5t9.5 -52.5v-117v-118v-129h-33v41q-19 -21 -45 -33.5t-56 -12.5q-28 0 -52.5 10.5t-42.5 28.5t-28.5 42.5t-10.5 52.5v28q0 62 76 90q9 4 30.5 12t46 17.5t47.5 18t35 13.5v56q0 42 -25.5 71.5t-67.5 29.5q-21 0 -39 -8
t-32 -21.5t-22 -32t-8 -39.5h-33q0 28 10.5 52.5t28.5 42.5t42.5 28.5t52.5 10.5zM235 246v25q-15 -6 -37 -14t-44 -16.5t-40 -15.5t-26 -10q-19 -7 -37 -21t-18 -38v-28q0 -21 8 -39.5t21.5 -32t32 -21.5t39.5 -8t39.5 8t32 21.5t21.5 32t8 39.5v118z" />
    <glyph glyph-name="b" unicode="b" 
d="M134 497q28 0 52.5 -10.5t42.5 -28.5t28.5 -42.5t10.5 -52.5v-235q0 -28 -10.5 -52.5t-28.5 -42.5t-42.5 -28.5t-52.5 -10.5q-30 0 -56 12.5t-45 33.5v-41h-33v129v235v353h33v-265q19 22 45 34t56 12zM235 363q0 21 -8 39.5t-21.5 32t-32 21.5t-39.5 8t-39.5 -8
t-32 -21.5t-21.5 -32t-8 -39.5v-235q0 -21 8 -39.5t21.5 -32t32 -21.5t39.5 -8t39.5 8t32 21.5t21.5 32t8 39.5v235z" />
    <glyph glyph-name="c" unicode="c" 
d="M134 27q21 0 39.5 8t32 21.5t21.5 32t8 39.5h33q0 -28 -10.5 -52.5t-28.5 -42.5t-42.5 -28.5t-52.5 -10.5t-52.5 10.5t-42.5 28.5t-28.5 42.5t-10.5 52.5v235q0 28 10.5 52.5t28.5 42.5t42.5 28.5t52.5 10.5t52.5 -10.5t42.5 -28.5t28.5 -42.5t10.5 -52.5h-33
q0 21 -8 39.5t-21.5 32t-32 21.5t-39.5 8t-39.5 -8t-32 -21.5t-21.5 -32t-8 -39.5v-235q0 -21 8 -39.5t21.5 -32t32 -21.5t39.5 -8z" />
    <glyph glyph-name="degree" unicode="&#xb0;" horiz-adv-x="202" 
d="M101 485q-21 0 -39.5 8t-32 21.5t-21.5 32t-8 39.5t8 39.5t21.5 32t32 21.5t39.5 8t39 -8t32 -21.5t22 -32t8 -39.5t-8 -39.5t-22 -32t-32 -21.5t-39 -8zM101 654q-29 0 -48.5 -20t-19.5 -48t19.5 -48t48.5 -20q28 0 47.5 20t19.5 48t-19.5 48t-47.5 20z" />
    <glyph glyph-name="ordmasculine" unicode="&#xba;" horiz-adv-x="94" 
d="M46 686q20 0 33.5 -13.5t13.5 -33.5v-113q0 -20 -13.5 -33.5t-33.5 -13.5q-19 0 -32.5 13.5t-13.5 33.5v113q0 20 13.5 33.5t32.5 13.5zM46 499q11 0 19 8t8 19v113q0 11 -8 19t-19 8t-19 -8t-8 -19v-113q0 -11 8 -19t19 -8z" />
    <glyph glyph-name="onesuperior" unicode="&#xb9;" horiz-adv-x="63" 
d="M49 500h14v-19h-55v19h21v162l-22 -9l-7 19l29 11v2h20v-185v0z" />
    <glyph glyph-name="twosuperior" unicode="&#xb2;" horiz-adv-x="94" 
d="M19 500h74v-19h-93v45q0 25 13.5 40t27.5 26q13 11 22.5 21t9.5 26q0 11 -8 19t-19 8t-19 -8t-8 -19v-5h-19v5q0 20 13.5 33.5t32.5 13.5q18 0 31.5 -12t15.5 -30v-5q0 -23 -13 -37t-27 -25t-24 -22t-10 -29v-26z" />
    <glyph glyph-name="threesuperior" unicode="&#xb3;" horiz-adv-x="94" 
d="M93 619q0 -22 -18 -37q18 -13 18 -36v-20q0 -20 -13.5 -33.5t-33.5 -13.5q-19 0 -32.5 13.5t-13.5 33.5v5h19v-5q0 -11 8 -19t19 -8t19 8t8 19v20q0 11 -8 18.5t-19 7.5h-15v20h16q11 1 18.5 8.5t7.5 18.5v20q0 11 -8 19t-19 8t-19 -8t-8 -19v-5h-19v5q0 20 13.5 33.5
t32.5 13.5q20 0 33.5 -13.5t13.5 -33.5v-20v0z" />
    <glyph glyph-name="ordfeminine" unicode="&#xaa;" horiz-adv-x="113" 
d="M60 683q23 0 38 -16t15 -40v-147h-20v11q-18 -13 -37 -13q-23 0 -39.5 16.5t-16.5 39.5v11q0 28 32 39q7 3 27.5 10.5t33.5 12.5v20q0 16 -9.5 26t-23.5 10q-15 0 -26 -10.5t-11 -25.5v-3h-20v3q0 23 16.5 39.5t40.5 16.5zM56 498q15 0 26 10.5t11 25.5v52
q-23 -8 -36 -13t-18 -7q-7 -3 -13 -8t-6 -13v-11q0 -15 10.5 -25.5t25.5 -10.5z" />
    <glyph glyph-name="ae" unicode="&#xe6;" horiz-adv-x="503" 
d="M268 135v-3q1 -20 9 -38t22 -31.5t32 -21t38 -7.5q21 0 39.5 8t32 22t21.5 32t8 39h33q0 -28 -10.5 -52.5t-28.5 -42.5t-42.5 -28.5t-52.5 -10.5q-30 0 -56 12.5t-45 33.5v-41h-33v41q-19 -21 -45 -33.5t-56 -12.5q-28 0 -52.5 10.5t-42.5 28.5t-28.5 42.5t-10.5 52.5v28
q0 62 76 91q9 3 30 11t45.5 17.5t47.5 18t36 13.5v56v4q-1 41 -26 69t-67 28q-21 0 -39 -8t-32 -21.5t-22 -32t-8 -39.5h-33q0 28 10.5 52.5t28.5 43t42.5 29t52.5 10.5q38 0 66.5 -19t44.5 -49q17 30 47.5 49t68.5 19q28 0 52.5 -10.5t42.5 -28.5t28.5 -42.5t10.5 -52.5v-1
q0 -61 -76 -90q-9 -3 -30 -11t-45.5 -17.5t-47.5 -18t-36 -13.5v-85zM369 471q-42 0 -70.5 -28t-30.5 -70v-3v-115q15 6 37 14.5t44 16.5t40.5 15t26.5 10q18 8 36 22t18 38q0 21 -8 39t-21.5 31.5t-32 21.5t-39.5 8zM134 34q42 0 70.5 28.5t30.5 69.5v3v143q-15 -6 -37 -14
l-44 -16t-40 -15t-26 -10q-19 -8 -37 -22t-18 -38v-28q0 -21 8 -39t21.5 -32t32 -22t39.5 -8z" />
    <glyph glyph-name="oe" unicode="&#x153;" horiz-adv-x="505" 
d="M428 280q-9 -3 -30.5 -11t-46 -17.5t-47.5 -18t-36 -13.5v-85q0 -21 8 -39t22 -32t32 -22t39 -8t39.5 8t32 22t21.5 32t8 39h34q0 -28 -10.5 -52.5t-29 -42.5t-43 -28.5t-52.5 -10.5q-38 0 -69 19t-48 51q-17 -32 -48.5 -51t-69.5 -19q-28 0 -52.5 10.5t-42.5 28.5
t-28.5 42.5t-10.5 52.5v235q0 28 10.5 52.5t28.5 43t42.5 29t52.5 10.5q38 0 69.5 -19.5t48.5 -50.5q17 31 48 50.5t69 19.5q28 0 52.5 -10.5t42.5 -28.5t29 -42.5t11 -52.5v-1q-2 -61 -76 -90zM268 255q15 6 37 14.5t44 16.5t40.5 15t26.5 10q19 8 36.5 22t17.5 38
q0 21 -8 39t-21.5 31.5t-32 21.5t-39.5 8t-39 -8t-32 -21.5t-22 -32t-8 -39.5v-115zM235 370q0 21 -8 39.5t-21.5 32t-32 21.5t-39.5 8t-39.5 -8t-32 -21.5t-21.5 -32t-8 -39.5v-235q0 -21 8 -39t21.5 -32t32 -22t39.5 -8t39.5 8t32 22t21.5 32t8 39v235z" />
    </font>
</defs>
</svg>
