<svg id="Слой_1" data-name="Слой 1" xmlns="http://www.w3.org/2000/svg" viewBox="0 0 308.71 51.41"><defs><style>.cls-1{fill:#3d255b}.cls-2{fill:#fff}</style></defs><title>Монтажная область 1</title><rect class="cls-1" y="1.74" width="52.09" height="49.67" rx="6.25" ry="6.25"/><path class="cls-1" d="M62.17 49.54V43a12.48 12.48 0 0 0 8 3 9.24 9.24 0 0 0 2.17-.22 4.92 4.92 0 0 0 1.55-.63 2.58 2.58 0 0 0 .93-.93 2.39 2.39 0 0 0 .36-1.22 2.53 2.53 0 0 0-.49-1.52 5.24 5.24 0 0 0-1.34-1.25 14.18 14.18 0 0 0-2-1.1c-.77-.35-1.61-.71-2.5-1.08a12.83 12.83 0 0 1-5.11-3.48 7.61 7.61 0 0 1-1.68-5A8 8 0 0 1 63 25.7a7.78 7.78 0 0 1 2.5-2.7 11.48 11.48 0 0 1 3.65-1.56 19 19 0 0 1 4.4-.5 26.9 26.9 0 0 1 4 .28 15.6 15.6 0 0 1 3.25.85v6.09a9.89 9.89 0 0 0-1.6-.9 12.59 12.59 0 0 0-1.78-.64 13.31 13.31 0 0 0-3.55-.5 9.2 9.2 0 0 0-2 .21 5.32 5.32 0 0 0-1.54.61 2.81 2.81 0 0 0-1 .92 2.23 2.23 0 0 0-.33 1.22 2.32 2.32 0 0 0 .39 1.31 4.41 4.41 0 0 0 1.1 1.1 10.83 10.83 0 0 0 1.73 1c.68.33 1.45.68 2.3 1a25.69 25.69 0 0 1 3.15 1.56A11.43 11.43 0 0 1 80.05 37a7.27 7.27 0 0 1 1.52 2.38 8.22 8.22 0 0 1 .53 3.1 8.33 8.33 0 0 1-.92 4.11 7.56 7.56 0 0 1-2.52 2.69A10.84 10.84 0 0 1 75 50.72a21.25 21.25 0 0 1-4.45.45 25 25 0 0 1-4.58-.41 14 14 0 0 1-3.8-1.22zM103.89 50.66H97.8v-3h-.08a6.8 6.8 0 0 1-6.22 3.51 6.48 6.48 0 0 1-4.77-1.73A6.13 6.13 0 0 1 85 44.85q0-6.08 7.2-7l5.66-.76c0-2.28-1.23-3.42-3.71-3.42A12.67 12.67 0 0 0 87 35.88V31a15.9 15.9 0 0 1 3.68-1.22 19.55 19.55 0 0 1 4.32-.5q8.93 0 8.92 8.9zm-6-8.48v-1.41l-3.79.49c-2.09.27-3.14 1.22-3.14 2.83a2.35 2.35 0 0 0 .77 1.81 2.93 2.93 0 0 0 2.07.7 3.82 3.82 0 0 0 3-1.25 4.54 4.54 0 0 0 1.04-3.17zM129.39 50.66H123v-11.6q0-4.85-3.46-4.85a3.45 3.45 0 0 0-2.75 1.28 4.92 4.92 0 0 0-1.08 3.27v11.9h-6.44V29.79h6.44v3.3h.08a7.39 7.39 0 0 1 6.71-3.81q6.91 0 6.92 8.6zM147.35 50.41a9.53 9.53 0 0 1-4.3.76q-6.8 0-6.8-7.08v-9.55h-3.39v-4.75h3.39v-4.5l6.42-1.84v6.34h4.68v4.75h-4.68V43c0 2.18.86 3.26 2.58 3.26a4.3 4.3 0 0 0 2.1-.59zM170 42.06h-13.63q.31 4.55 5.72 4.54a11.17 11.17 0 0 0 6.06-1.6v4.65a15.94 15.94 0 0 1-7.52 1.55q-5.06 0-7.85-2.81c-1.86-1.86-2.79-4.47-2.79-7.81a11.14 11.14 0 0 1 3-8.23 10 10 0 0 1 7.42-3 9.1 9.1 0 0 1 7.07 2.65 10.42 10.42 0 0 1 2.5 7.36zm-6-4q0-4.49-3.63-4.48a3.49 3.49 0 0 0-2.68 1.28 5.87 5.87 0 0 0-1.37 3.2zM194.09 50.66h-6.42V38.8q0-4.59-3.34-4.59a3.44 3.44 0 0 0-2.77 1.28 5 5 0 0 0-1.06 3.27v11.9h-6.44v-30.9h6.44v13.13h.08a7.32 7.32 0 0 1 6.42-3.61q7.09 0 7.09 8.56zM198.07 50.11v-5.22a14.06 14.06 0 0 0 3.17 1.43 10.57 10.57 0 0 0 3 .46 6.46 6.46 0 0 0 2.7-.46 1.52 1.52 0 0 0 1-1.43 1.31 1.31 0 0 0-.45-1 4.25 4.25 0 0 0-1.15-.71 12.05 12.05 0 0 0-1.54-.55c-.56-.17-1.1-.35-1.61-.55a16.13 16.13 0 0 1-2.19-1 6 6 0 0 1-1.59-1.26 4.73 4.73 0 0 1-1-1.65 6.4 6.4 0 0 1-.34-2.22 5.68 5.68 0 0 1 .77-3 6.27 6.27 0 0 1 2-2.07 9.28 9.28 0 0 1 2.92-1.18 14.67 14.67 0 0 1 3.41-.38 19.19 19.19 0 0 1 2.81.21 22.5 22.5 0 0 1 2.82.62v5a10.17 10.17 0 0 0-2.59-1.15 11 11 0 0 0-2.74-.36 6.61 6.61 0 0 0-1.2.11 4.17 4.17 0 0 0-1 .33 1.78 1.78 0 0 0-.68.55 1.27 1.27 0 0 0-.24.76 1.39 1.39 0 0 0 .37 1 3 3 0 0 0 .95.7 8.86 8.86 0 0 0 1.32.53l1.43.48a19 19 0 0 1 2.33 1 7.4 7.4 0 0 1 1.78 1.24 4.82 4.82 0 0 1 1.16 1.66 5.78 5.78 0 0 1 .4 2.28 6 6 0 0 1-.8 3.17 6.53 6.53 0 0 1-2.14 2.14 9.71 9.71 0 0 1-3.08 1.2 17.16 17.16 0 0 1-3.62.38 18.81 18.81 0 0 1-6.38-1.06zM251.18 50.66h-6.41v-11.9q0-4.55-3.35-4.55a3.05 3.05 0 0 0-2.58 1.37 5.57 5.57 0 0 0-1 3.4v11.68h-6.44v-12c0-2.94-1.1-4.42-3.28-4.42a3.15 3.15 0 0 0-2.64 1.31 5.7 5.7 0 0 0-1 3.54v11.6h-6.44v-20.9h6.44v3.26h.08a7.9 7.9 0 0 1 6.75-3.77 6 6 0 0 1 6.05 3.89 7.72 7.72 0 0 1 7-3.89q6.81 0 6.8 8.39zM273.89 50.66h-6.09v-3h-.08a6.8 6.8 0 0 1-6.22 3.51 6.5 6.5 0 0 1-4.78-1.73 6.16 6.16 0 0 1-1.72-4.59q0-6.08 7.19-7l5.67-.76q0-3.42-3.71-3.42a12.65 12.65 0 0 0-7.15 2.21V31a15.9 15.9 0 0 1 3.68-1.22 19.48 19.48 0 0 1 4.25-.53q8.92 0 8.92 8.9zm-6.05-8.48v-1.41l-3.79.49c-2.09.27-3.14 1.22-3.14 2.83a2.35 2.35 0 0 0 .77 1.81 2.91 2.91 0 0 0 2.06.7 3.84 3.84 0 0 0 3-1.25 4.54 4.54 0 0 0 1.1-3.17zM292.85 35.6a5.59 5.59 0 0 0-2.71-.64 3.92 3.92 0 0 0-3.28 1.54 6.73 6.73 0 0 0-1.18 4.19v10h-6.44v-20.9h6.44v3.87h.08c1-2.82 2.85-4.24 5.5-4.24a4 4 0 0 1 1.59.25zM308.71 50.41a9.53 9.53 0 0 1-4.3.76q-6.81 0-6.81-7.08v-9.55h-3.38v-4.75h3.38v-4.5l6.4-1.84v6.34h4.69v4.75H304V43c0 2.18.87 3.26 2.59 3.26a4.3 4.3 0 0 0 2.1-.59z"/><path d="M69.62 8.43a3.38 3.38 0 0 1-3.44 3.67 3.28 3.28 0 0 1-3.31-3.56 3.36 3.36 0 0 1 3.42-3.66 3.27 3.27 0 0 1 3.33 3.55zm-5.48.07c0 1.51.87 2.65 2.1 2.65s2.09-1.15 2.09-2.68c0-1.17-.58-2.65-2.06-2.65s-2.13 1.37-2.13 2.68zM72.41 5v2.82h3.28V5h1.25v6.91h-1.25v-3.1h-3.28v3.13h-1.24V5zM84.22 5v6.91H83V6h-2.38v1.8c0 1.94-.19 3.23-1.09 3.82a2 2 0 0 1-1.37.43l-.13-1a1.53 1.53 0 0 0 .69-.28c.64-.47.71-1.44.71-3V5zM90.1 11.94l-.1-.87a2.59 2.59 0 0 1-2.11 1 2 2 0 0 1-2.12-2c0-1.67 1.49-2.58 4.16-2.57v-.1a1.43 1.43 0 0 0-1.57-1.6 3.36 3.36 0 0 0-1.8.52l-.29-.83a4.3 4.3 0 0 1 2.27-.61c2.11 0 2.63 1.44 2.63 2.82v2.58a10.42 10.42 0 0 0 .11 1.66zm-.19-3.52C88.54 8.39 87 8.63 87 10a1.11 1.11 0 0 0 1.18 1.2 1.72 1.72 0 0 0 1.66-1.2 1.12 1.12 0 0 0 .07-.4zM94.31 5v2.94c0 1.1 0 1.79-.07 2.77.41-.85.66-1.33 1.11-2.13L97.55 5H99v6.91h-1.2V9c0-1.12 0-1.71.08-2.82-.44.88-.74 1.44-1.14 2.14-.66 1.07-1.41 2.4-2.16 3.61h-1.46V5zm.81-2.81c0 .62.34 1.09.91 1.09s.9-.46 1-1.09h.9A1.72 1.72 0 0 1 96 4a1.65 1.65 0 0 1-1.79-1.77zM102.27 5v2.82h3.28V5h1.24v6.91h-1.24v-3.1h-3.28v3.13H101V5zM116.79 11.68a4.68 4.68 0 0 1-2 .4 3.27 3.27 0 0 1-3.43-3.52 3.51 3.51 0 0 1 3.71-3.67 4.24 4.24 0 0 1 1.74.36l-.29 1a2.91 2.91 0 0 0-1.45-.33 2.39 2.39 0 0 0-2.44 2.61 2.36 2.36 0 0 0 2.37 2.55 3.47 3.47 0 0 0 1.54-.34zM122.12 11.94l-.1-.87a2.59 2.59 0 0 1-2.11 1 2 2 0 0 1-2.11-2c0-1.67 1.48-2.58 4.15-2.57v-.1a1.43 1.43 0 0 0-1.57-1.6 3.42 3.42 0 0 0-1.8.52l-.28-.83a4.27 4.27 0 0 1 2.27-.61c2.11 0 2.62 1.44 2.62 2.82v2.58a10.42 10.42 0 0 0 .11 1.66zm-.18-3.52c-1.37 0-2.93.21-2.93 1.55a1.11 1.11 0 0 0 1.19 1.2 1.72 1.72 0 0 0 1.67-1.17 1.4 1.4 0 0 0 .07-.4zM126.39 5v2.82h3.28V5h1.24v6.91h-1.24v-3.1h-3.28v3.13h-1.24V5zM137.58 5v1h-2.15v5.91h-1.24V6H132V5zM139.2 8.71a2.21 2.21 0 0 0 2.36 2.4 4.6 4.6 0 0 0 1.92-.36l.21.9a5.58 5.58 0 0 1-2.3.43A3.21 3.21 0 0 1 138 8.6c0-2.08 1.22-3.72 3.24-3.72 2.25 0 2.85 2 2.85 3.25a5.57 5.57 0 0 1 0 .58zm3.68-.89a1.79 1.79 0 0 0-1.74-2 2.08 2.08 0 0 0-1.93 2zM146.17 5l1 1.49c.25.38.47.74.69 1.12h.05c.23-.41.45-.77.68-1.14l1-1.47h1.36l-2.36 3.34 2.41 3.6h-1.43l-1-1.56c-.27-.4-.5-.78-.74-1.19-.23.41-.47.78-.73 1.19l-1 1.56h-1.38l2.45-3.52-2.4-3.42zM152.26 5h1.54l1.26 3.48c.17.52.47 1.36.63 1.9.16-.51.55-1.61.82-2.37l1.11-3h1.56l.48 6.91h-1.2l-.15-3.3c-.05-.74-.1-1.62-.13-2.46-.18.62-.37 1.18-.75 2.24l-1.33 3.48h-.91l-1.23-3.41c-.21-.66-.51-1.66-.68-2.3h-.06c0 .81-.07 1.73-.12 2.48l-.17 3.27h-1.15zM165.13 11.94l-.1-.87a2.6 2.6 0 0 1-2.12 1 2 2 0 0 1-2.11-2c0-1.67 1.49-2.58 4.15-2.57v-.1a1.42 1.42 0 0 0-1.56-1.6 3.36 3.36 0 0 0-1.8.52l-.29-.83a4.3 4.3 0 0 1 2.27-.61c2.11 0 2.63 1.44 2.63 2.82v2.58a9.37 9.37 0 0 0 .11 1.66zm-.19-3.52c-1.37 0-2.92.21-2.92 1.55a1.11 1.11 0 0 0 1.18 1.2 1.72 1.72 0 0 0 1.67-1.17 1.4 1.4 0 0 0 .07-.4zM168.18 7.29c0-.89 0-1.6-.06-2.26h1.13l.06 1.19a2.7 2.7 0 0 1 2.45-1.34c1.67 0 2.92 1.41 2.92 3.51 0 2.48-1.51 3.71-3.13 3.71a2.41 2.41 0 0 1-2.1-1.1v3.75h-1.24zm1.24 1.84a2.74 2.74 0 0 0 .06.51 1.93 1.93 0 0 0 1.88 1.47c1.33 0 2.1-1.08 2.1-2.67 0-1.38-.73-2.56-2.06-2.56a2 2 0 0 0-1.89 1.55 1.76 1.76 0 0 0-.09.51zM177.54 5v3h.3l2.59-3H182l-3 3.13c1.11.11 1.78.85 2.33 2.1a13.37 13.37 0 0 0 .74 1.68h-1.37a10.47 10.47 0 0 1-.64-1.41 2.23 2.23 0 0 0-2.28-1.63h-.24v3h-1.24V5zM183.74 8.71a2.21 2.21 0 0 0 2.37 2.4 4.51 4.51 0 0 0 1.91-.36l.22.9a5.62 5.62 0 0 1-2.3.43 3.21 3.21 0 0 1-3.4-3.48c0-2.08 1.23-3.72 3.24-3.72 2.26 0 2.85 2 2.85 3.25a3.69 3.69 0 0 1 0 .58zm3.68-.89a1.78 1.78 0 0 0-1.74-2 2.08 2.08 0 0 0-1.92 2zM194.8 5v1h-2.16v5.91h-1.24V6h-2.15V5z"/><path class="cls-2" d="M16.86 41.88l4.71-1.72 2.48 6.82-4.71 1.72-.28-.78-1.91-5.23-.29-.81z"/><path class="cls-2" d="M18.7 46.95l4.71-1.72.64 1.75-4.71 1.72-.07-.2-.49-1.35-.08-.2zM16.86 41.88l4.71-1.72.64 1.76-4.71 1.72-.08-.2-.49-1.35-.07-.21z"/><path class="cls-2" d="M28.68 13.89l-13.29 4.84a3.57 3.57 0 0 0-1.84 4.68 3.57 3.57 0 0 0 4.45 2.4l15-5.46c5-1.82 10.74 1.29 12.81 7S45.42 39 40.42 40.87L27 45.75 24.57 39 38 34.15a3.57 3.57 0 0 0 1.84-4.68 3.58 3.58 0 0 0-4.42-2.4l-15 5.46c-5 1.82-10.75-1.29-12.81-7S7.94 13.84 12.94 12l13.29-4.83z"/><path class="cls-2" d="M7.61 25.58c2.06 5.66 7.81 8.77 12.81 7l15-5.46a3.58 3.58 0 0 1 4.42 2.4A3.57 3.57 0 0 1 38 34.15L25 38.9l1.17 3.2 13-4.75c2.68-1 5.18-6.09 4.07-9.12s-6.39-5.56-9.07-4.58L19.14 29c-4 1.47-7.17.15-8.84-4.42s-.27-8 3.77-9.47l13.29-4.85-1.13-3.09L12.94 12c-5 1.84-7.39 7.92-5.33 13.58zM33.9 4.46l-4.72 1.72 2.49 6.81 4.71-1.72-.28-.78-1.91-5.23-.29-.8z"/><path class="cls-2" d="M35.74 9.52l-4.71 1.72.64 1.75 4.71-1.72-.07-.2-.49-1.34-.08-.21zM33.9 4.46l-4.72 1.72.64 1.75 4.71-1.72-.07-.2-.49-1.35-.07-.2z"/><path class="cls-2" d="M29.64 4.6l-2.42.89 3.31 9.06 2.42-.88-.38-1.04-2.54-6.95-.39-1.08z"/><path class="cls-2" d="M32.17 11.53l-2.42.88.78 2.14 2.42-.88-.09-.24-.6-1.64-.09-.26zM30.05 5.74l-2.41.88.47 1.3 2.42-.88-.05-.15-.37-1-.06-.15z"/><path class="cls-2" d="M27.7 4.58l-2.62.96 3.81 10.34 2.63-.96-.44-1.19-2.93-7.93-.45-1.22z"/><path class="cls-2" d="M30.47 12.92l-3.13 1.14.77 2.1 3.13-1.14-.09-.24-.58-1.61-.1-.25zM28.23 4.8l-2.16.78.5 1.37 2.16-.79-.06-.16-.38-1.04-.06-.16zM20.2 39.26l2.42-.88 3.31 9.07-2.42.88-.38-1.04-2.53-6.96-.4-1.07z"/><path class="cls-2" d="M22.73 46.19l2.42-.89.78 2.15-2.42.88-.09-.25-.6-1.64-.09-.25zM20.62 40.39l2.42-.88.47 1.3-2.42.89-.05-.15-.36-1-.06-.16z"/><path class="cls-2" d="M21.91 37.91l3.13-1.14 3.78 10.35-3.13 1.14-.44-1.18-2.89-7.95-.45-1.22z"/><path class="cls-2" d="M24.92 46.16l3.13-1.15.77 2.11-3.13 1.14-.09-.24-.59-1.62-.09-.24zM22.37 39.17l3.13-1.14.77 2.1-3.13 1.14-.09-.24-.59-1.61-.09-.25z"/></svg>